<?xml version="1.0" encoding="UTF-8" standalone="no"?>
<!DOCTYPE svg PUBLIC "-//W3C//DTD SVG 1.1//EN"
 "http://www.w3.org/Graphics/SVG/1.1/DTD/svg11.dtd">
<!-- Generated by graphviz version 14.1.1 (20251213.1925)
 -->
<!-- Title: G Pages: 1 -->
<svg width="999pt" height="2033pt"
 viewBox="0.00 0.00 999.00 2033.00" xmlns="http://www.w3.org/2000/svg" xmlns:xlink="http://www.w3.org/1999/xlink">
<g id="graph0" class="graph" transform="scale(1 1) rotate(0) translate(21.6 2011.35)">
<title>G</title>
<polygon fill="#111111" stroke="none" points="-21.6,21.6 -21.6,-2011.35 977.35,-2011.35 977.35,21.6 -21.6,21.6"/>
<!-- HookSmokeTest.tsx -->
<g id="node1" class="node">
<title>HookSmokeTest.tsx</title>
<path fill="none" stroke="#cfffac" d="M187.71,-23.75C187.71,-23.75 67.54,-23.75 67.54,-23.75 63.58,-23.75 59.62,-19.79 59.62,-15.83 59.62,-15.83 59.62,-7.92 59.62,-7.92 59.62,-3.96 63.58,0 67.54,0 67.54,0 187.71,0 187.71,0 191.67,0 195.62,-3.96 195.62,-7.92 195.62,-7.92 195.62,-15.83 195.62,-15.83 195.62,-19.79 191.67,-23.75 187.71,-23.75"/>
<text xml:space="preserve" text-anchor="middle" x="127.62" y="-6.45" font-family="Arial" font-size="14.00" fill="#cfffac">HookSmokeTest.tsx</text>
</g>
<!-- TestReact.tsx -->
<g id="node2" class="node">
<title>TestReact.tsx</title>
<path fill="none" stroke="#cfffac" d="M168.21,-65.75C168.21,-65.75 87.04,-65.75 87.04,-65.75 83.08,-65.75 79.12,-61.79 79.12,-57.83 79.12,-57.83 79.12,-49.92 79.12,-49.92 79.12,-45.96 83.08,-42 87.04,-42 87.04,-42 168.21,-42 168.21,-42 172.17,-42 176.12,-45.96 176.12,-49.92 176.12,-49.92 176.12,-57.83 176.12,-57.83 176.12,-61.79 172.17,-65.75 168.21,-65.75"/>
<text xml:space="preserve" text-anchor="middle" x="127.62" y="-48.45" font-family="Arial" font-size="14.00" fill="#cfffac">TestReact.tsx</text>
</g>
<!-- components/AccountForm.tsx -->
<g id="node3" class="node">
<title>components/AccountForm.tsx</title>
<path fill="none" stroke="#cfffac" d="M217.71,-107.75C217.71,-107.75 37.54,-107.75 37.54,-107.75 33.58,-107.75 29.62,-103.79 29.62,-99.83 29.62,-99.83 29.62,-91.92 29.62,-91.92 29.62,-87.96 33.58,-84 37.54,-84 37.54,-84 217.71,-84 217.71,-84 221.67,-84 225.62,-87.96 225.62,-91.92 225.62,-91.92 225.62,-99.83 225.62,-99.83 225.62,-103.79 221.67,-107.75 217.71,-107.75"/>
<text xml:space="preserve" text-anchor="middle" x="127.62" y="-90.45" font-family="Arial" font-size="14.00" fill="#cfffac">components/AccountForm.tsx</text>
</g>
<!-- components/ActionFab.tsx -->
<g id="node4" class="node">
<title>components/ActionFab.tsx</title>
<path fill="none" stroke="#cfffac" d="M207.58,-149.75C207.58,-149.75 47.67,-149.75 47.67,-149.75 43.71,-149.75 39.75,-145.79 39.75,-141.83 39.75,-141.83 39.75,-133.92 39.75,-133.92 39.75,-129.96 43.71,-126 47.67,-126 47.67,-126 207.58,-126 207.58,-126 211.54,-126 215.5,-129.96 215.5,-133.92 215.5,-133.92 215.5,-141.83 215.5,-141.83 215.5,-145.79 211.54,-149.75 207.58,-149.75"/>
<text xml:space="preserve" text-anchor="middle" x="127.62" y="-132.45" font-family="Arial" font-size="14.00" fill="#cfffac">components/ActionFab.tsx</text>
</g>
<!-- components/BalanceCard.tsx -->
<g id="node5" class="node">
<title>components/BalanceCard.tsx</title>
<path fill="none" stroke="#cfffac" d="M216.21,-191.75C216.21,-191.75 39.04,-191.75 39.04,-191.75 35.08,-191.75 31.12,-187.79 31.12,-183.83 31.12,-183.83 31.12,-175.92 31.12,-175.92 31.12,-171.96 35.08,-168 39.04,-168 39.04,-168 216.21,-168 216.21,-168 220.17,-168 224.12,-171.96 224.12,-175.92 224.12,-175.92 224.12,-183.83 224.12,-183.83 224.12,-187.79 220.17,-191.75 216.21,-191.75"/>
<text xml:space="preserve" text-anchor="middle" x="127.62" y="-174.45" font-family="Arial" font-size="14.00" fill="#cfffac">components/BalanceCard.tsx</text>
</g>
<!-- components/Center.tsx -->
<g id="node6" class="node">
<title>components/Center.tsx</title>
<path fill="none" stroke="#cfffac" d="M197.08,-233.75C197.08,-233.75 58.17,-233.75 58.17,-233.75 54.21,-233.75 50.25,-229.79 50.25,-225.83 50.25,-225.83 50.25,-217.92 50.25,-217.92 50.25,-213.96 54.21,-210 58.17,-210 58.17,-210 197.08,-210 197.08,-210 201.04,-210 205,-213.96 205,-217.92 205,-217.92 205,-225.83 205,-225.83 205,-229.79 201.04,-233.75 197.08,-233.75"/>
<text xml:space="preserve" text-anchor="middle" x="127.62" y="-216.45" font-family="Arial" font-size="14.00" fill="#cfffac">components/Center.tsx</text>
</g>
<!-- components/ErrorBoundary.tsx -->
<g id="node7" class="node">
<title>components/ErrorBoundary.tsx</title>
<path fill="none" stroke="#cfffac" d="M220.71,-275.75C220.71,-275.75 34.54,-275.75 34.54,-275.75 30.58,-275.75 26.62,-271.79 26.62,-267.83 26.62,-267.83 26.62,-259.92 26.62,-259.92 26.62,-255.96 30.58,-252 34.54,-252 34.54,-252 220.71,-252 220.71,-252 224.67,-252 228.62,-255.96 228.62,-259.92 228.62,-259.92 228.62,-267.83 228.62,-267.83 228.62,-271.79 224.67,-275.75 220.71,-275.75"/>
<text xml:space="preserve" text-anchor="middle" x="127.62" y="-258.45" font-family="Arial" font-size="14.00" fill="#cfffac">components/ErrorBoundary.tsx</text>
</g>
<!-- components/LineChart.tsx -->
<g id="node8" class="node">
<title>components/LineChart.tsx</title>
<path fill="none" stroke="#cfffac" d="M206.46,-317.75C206.46,-317.75 48.79,-317.75 48.79,-317.75 44.83,-317.75 40.88,-313.79 40.88,-309.83 40.88,-309.83 40.88,-301.92 40.88,-301.92 40.88,-297.96 44.83,-294 48.79,-294 48.79,-294 206.46,-294 206.46,-294 210.42,-294 214.38,-297.96 214.38,-301.92 214.38,-301.92 214.38,-309.83 214.38,-309.83 214.38,-313.79 210.42,-317.75 206.46,-317.75"/>
<text xml:space="preserve" text-anchor="middle" x="127.62" y="-300.45" font-family="Arial" font-size="14.00" fill="#cfffac">components/LineChart.tsx</text>
</g>
<!-- components/PaymentCard.tsx -->
<g id="node9" class="node">
<title>components/PaymentCard.tsx</title>
<path fill="none" stroke="#cfffac" d="M218.83,-359.75C218.83,-359.75 36.42,-359.75 36.42,-359.75 32.46,-359.75 28.5,-355.79 28.5,-351.83 28.5,-351.83 28.5,-343.92 28.5,-343.92 28.5,-339.96 32.46,-336 36.42,-336 36.42,-336 218.83,-336 218.83,-336 222.79,-336 226.75,-339.96 226.75,-343.92 226.75,-343.92 226.75,-351.83 226.75,-351.83 226.75,-355.79 222.79,-359.75 218.83,-359.75"/>
<text xml:space="preserve" text-anchor="middle" x="127.62" y="-342.45" font-family="Arial" font-size="14.00" fill="#cfffac">components/PaymentCard.tsx</text>
</g>
<!-- components/PaymentForm.tsx -->
<g id="node10" class="node">
<title>components/PaymentForm.tsx</title>
<path fill="none" stroke="#cfffac" d="M220.33,-401.75C220.33,-401.75 34.92,-401.75 34.92,-401.75 30.96,-401.75 27,-397.79 27,-393.83 27,-393.83 27,-385.92 27,-385.92 27,-381.96 30.96,-378 34.92,-378 34.92,-378 220.33,-378 220.33,-378 224.29,-378 228.25,-381.96 228.25,-385.92 228.25,-385.92 228.25,-393.83 228.25,-393.83 228.25,-397.79 224.29,-401.75 220.33,-401.75"/>
<text xml:space="preserve" text-anchor="middle" x="127.62" y="-384.45" font-family="Arial" font-size="14.00" fill="#cfffac">components/PaymentForm.tsx</text>
</g>
<!-- components/RecurringPayment.tsx -->
<g id="node11" class="node">
<title>components/RecurringPayment.tsx</title>
<path fill="none" stroke="#cfffac" d="M233.46,-443.75C233.46,-443.75 21.79,-443.75 21.79,-443.75 17.83,-443.75 13.88,-439.79 13.88,-435.83 13.88,-435.83 13.88,-427.92 13.88,-427.92 13.88,-423.96 17.83,-420 21.79,-420 21.79,-420 233.46,-420 233.46,-420 237.42,-420 241.38,-423.96 241.38,-427.92 241.38,-427.92 241.38,-435.83 241.38,-435.83 241.38,-439.79 237.42,-443.75 233.46,-443.75"/>
<text xml:space="preserve" text-anchor="middle" x="127.62" y="-426.45" font-family="Arial" font-size="14.00" fill="#cfffac">components/RecurringPayment.tsx</text>
</g>
<!-- components/ReportChart.tsx -->
<g id="node12" class="node">
<title>components/ReportChart.tsx</title>
<path fill="none" stroke="#c6c5fe" d="M213.96,-485.75C213.96,-485.75 41.29,-485.75 41.29,-485.75 37.33,-485.75 33.38,-481.79 33.38,-477.83 33.38,-477.83 33.38,-469.92 33.38,-469.92 33.38,-465.96 37.33,-462 41.29,-462 41.29,-462 213.96,-462 213.96,-462 217.92,-462 221.88,-465.96 221.88,-469.92 221.88,-469.92 221.88,-477.83 221.88,-477.83 221.88,-481.79 217.92,-485.75 213.96,-485.75"/>
<text xml:space="preserve" text-anchor="middle" x="127.62" y="-468.45" font-family="Arial" font-size="14.00" fill="#c6c5fe">components/ReportChart.tsx</text>
</g>
<!-- types/finance.ts -->
<g id="node13" class="node">
<title>types/finance.ts</title>
<path fill="none" stroke="#cfffac" d="M718.83,-505.75C718.83,-505.75 624.92,-505.75 624.92,-505.75 620.96,-505.75 617,-501.79 617,-497.83 617,-497.83 617,-489.92 617,-489.92 617,-485.96 620.96,-482 624.92,-482 624.92,-482 718.83,-482 718.83,-482 722.79,-482 726.75,-485.96 726.75,-489.92 726.75,-489.92 726.75,-497.83 726.75,-497.83 726.75,-501.79 722.79,-505.75 718.83,-505.75"/>
<text xml:space="preserve" text-anchor="middle" x="671.88" y="-488.45" font-family="Arial" font-size="14.00" fill="#cfffac">types/finance.ts</text>
</g>
<!-- components/ReportChart.tsx&#45;&gt;types/finance.ts -->
<g id="edge1" class="edge">
<title>components/ReportChart.tsx&#45;&gt;types/finance.ts</title>
<path fill="none" stroke="#757575" d="M222.15,-477.32C331.62,-481.36 510.05,-487.94 605.59,-491.47"/>
<polygon fill="#757575" stroke="#757575" points="605.19,-494.95 615.31,-491.83 605.45,-487.96 605.19,-494.95"/>
</g>
<!-- utils/reportUtils.ts -->
<g id="node14" class="node">
<title>utils/reportUtils.ts</title>
<path fill="none" stroke="#c6c5fe" d="M461.71,-465.75C461.71,-465.75 358.04,-465.75 358.04,-465.75 354.08,-465.75 350.12,-461.79 350.12,-457.83 350.12,-457.83 350.12,-449.92 350.12,-449.92 350.12,-445.96 354.08,-442 358.04,-442 358.04,-442 461.71,-442 461.71,-442 465.67,-442 469.62,-445.96 469.62,-449.92 469.62,-449.92 469.62,-457.83 469.62,-457.83 469.62,-461.79 465.67,-465.75 461.71,-465.75"/>
<text xml:space="preserve" text-anchor="middle" x="409.88" y="-448.45" font-family="Arial" font-size="14.00" fill="#c6c5fe">utils/reportUtils.ts</text>
</g>
<!-- components/ReportChart.tsx&#45;&gt;utils/reportUtils.ts -->
<g id="edge2" class="edge">
<title>components/ReportChart.tsx&#45;&gt;utils/reportUtils.ts</title>
<path fill="none" stroke="#757575" d="M222.33,-467.19C260.38,-464.47 303.58,-461.39 338.82,-458.87"/>
<polygon fill="#757575" stroke="#757575" points="338.73,-462.39 348.45,-458.19 338.23,-455.41 338.73,-462.39"/>
</g>
<!-- utils/reportUtils.ts&#45;&gt;types/finance.ts -->
<g id="edge66" class="edge">
<title>utils/reportUtils.ts&#45;&gt;types/finance.ts</title>
<path fill="none" stroke="#757575" d="M469.87,-462.95C510.22,-469.16 563.74,-477.39 605.4,-483.8"/>
<polygon fill="#757575" stroke="#757575" points="604.63,-487.22 615.05,-485.29 605.7,-480.31 604.63,-487.22"/>
</g>
<!-- types/report.ts -->
<g id="node63" class="node">
<title>types/report.ts</title>
<path fill="none" stroke="#cfffac" d="M714.71,-463.75C714.71,-463.75 629.04,-463.75 629.04,-463.75 625.08,-463.75 621.12,-459.79 621.12,-455.83 621.12,-455.83 621.12,-447.92 621.12,-447.92 621.12,-443.96 625.08,-440 629.04,-440 629.04,-440 714.71,-440 714.71,-440 718.67,-440 722.62,-443.96 722.62,-447.92 722.62,-447.92 722.62,-455.83 722.62,-455.83 722.62,-459.79 718.67,-463.75 714.71,-463.75"/>
<text xml:space="preserve" text-anchor="middle" x="671.88" y="-446.45" font-family="Arial" font-size="14.00" fill="#cfffac">types/report.ts</text>
</g>
<!-- utils/reportUtils.ts&#45;&gt;types/report.ts -->
<g id="edge67" class="edge">
<title>utils/reportUtils.ts&#45;&gt;types/report.ts</title>
<path fill="none" stroke="#757575" d="M469.87,-453.42C511.59,-453.1 567.39,-452.67 609.61,-452.35"/>
<polygon fill="#757575" stroke="#757575" points="609.37,-455.85 619.35,-452.27 609.32,-448.85 609.37,-455.85"/>
</g>
<!-- components/UpcomingTimeline.tsx -->
<g id="node15" class="node">
<title>components/UpcomingTimeline.tsx</title>
<path fill="none" stroke="#cfffac" d="M233.83,-692.75C233.83,-692.75 21.42,-692.75 21.42,-692.75 17.46,-692.75 13.5,-688.79 13.5,-684.83 13.5,-684.83 13.5,-676.92 13.5,-676.92 13.5,-672.96 17.46,-669 21.42,-669 21.42,-669 233.83,-669 233.83,-669 237.79,-669 241.75,-672.96 241.75,-676.92 241.75,-676.92 241.75,-684.83 241.75,-684.83 241.75,-688.79 237.79,-692.75 233.83,-692.75"/>
<text xml:space="preserve" text-anchor="middle" x="127.62" y="-675.45" font-family="Arial" font-size="14.00" fill="#cfffac">components/UpcomingTimeline.tsx</text>
</g>
<!-- db/db.ts -->
<g id="node16" class="node">
<title>db/db.ts</title>
<path fill="none" stroke="#cfffac" d="M695.96,-1493.75C695.96,-1493.75 647.79,-1493.75 647.79,-1493.75 643.83,-1493.75 639.88,-1489.79 639.88,-1485.83 639.88,-1485.83 639.88,-1477.92 639.88,-1477.92 639.88,-1473.96 643.83,-1470 647.79,-1470 647.79,-1470 695.96,-1470 695.96,-1470 699.92,-1470 703.88,-1473.96 703.88,-1477.92 703.88,-1477.92 703.88,-1485.83 703.88,-1485.83 703.88,-1489.79 699.92,-1493.75 695.96,-1493.75"/>
<text xml:space="preserve" text-anchor="middle" x="671.88" y="-1476.45" font-family="Arial" font-size="14.00" fill="#cfffac">db/db.ts</text>
</g>
<!-- db/migrate.ts -->
<g id="node17" class="node">
<title>db/migrate.ts</title>
<path fill="none" stroke="#c6c5fe" d="M449.33,-1527.75C449.33,-1527.75 370.42,-1527.75 370.42,-1527.75 366.46,-1527.75 362.5,-1523.79 362.5,-1519.83 362.5,-1519.83 362.5,-1511.92 362.5,-1511.92 362.5,-1507.96 366.46,-1504 370.42,-1504 370.42,-1504 449.33,-1504 449.33,-1504 453.29,-1504 457.25,-1507.96 457.25,-1511.92 457.25,-1511.92 457.25,-1519.83 457.25,-1519.83 457.25,-1523.79 453.29,-1527.75 449.33,-1527.75"/>
<text xml:space="preserve" text-anchor="middle" x="409.88" y="-1510.45" font-family="Arial" font-size="14.00" fill="#c6c5fe">db/migrate.ts</text>
</g>
<!-- db/migrate.ts&#45;&gt;db/db.ts -->
<g id="edge3" class="edge">
<title>db/migrate.ts&#45;&gt;db/db.ts</title>
<path fill="none" stroke="#757575" d="M457.66,-1509.76C506.18,-1503.41 581.38,-1493.58 628.29,-1487.44"/>
<polygon fill="#757575" stroke="#757575" points="628.61,-1490.93 638.07,-1486.16 627.7,-1483.99 628.61,-1490.93"/>
</g>
<!-- db/migrations/003_reports.ts -->
<g id="node18" class="node">
<title>db/migrations/003_reports.ts</title>
<path fill="none" stroke="#cfffac" d="M213.58,-1275.75C213.58,-1275.75 41.67,-1275.75 41.67,-1275.75 37.71,-1275.75 33.75,-1271.79 33.75,-1267.83 33.75,-1267.83 33.75,-1259.92 33.75,-1259.92 33.75,-1255.96 37.71,-1252 41.67,-1252 41.67,-1252 213.58,-1252 213.58,-1252 217.54,-1252 221.5,-1255.96 221.5,-1259.92 221.5,-1259.92 221.5,-1267.83 221.5,-1267.83 221.5,-1271.79 217.54,-1275.75 213.58,-1275.75"/>
<text xml:space="preserve" text-anchor="middle" x="127.62" y="-1258.45" font-family="Arial" font-size="14.00" fill="#cfffac">db/migrations/003_reports.ts</text>
</g>
<!-- db/migrations/004_accounts.ts -->
<g id="node19" class="node">
<title>db/migrations/004_accounts.ts</title>
<path fill="none" stroke="#cfffac" d="M219.58,-1317.75C219.58,-1317.75 35.67,-1317.75 35.67,-1317.75 31.71,-1317.75 27.75,-1313.79 27.75,-1309.83 27.75,-1309.83 27.75,-1301.92 27.75,-1301.92 27.75,-1297.96 31.71,-1294 35.67,-1294 35.67,-1294 219.58,-1294 219.58,-1294 223.54,-1294 227.5,-1297.96 227.5,-1301.92 227.5,-1301.92 227.5,-1309.83 227.5,-1309.83 227.5,-1313.79 223.54,-1317.75 219.58,-1317.75"/>
<text xml:space="preserve" text-anchor="middle" x="127.62" y="-1300.45" font-family="Arial" font-size="14.00" fill="#cfffac">db/migrations/004_accounts.ts</text>
</g>
<!-- debug/installGlobalHandlers.tsx -->
<g id="node20" class="node">
<title>debug/installGlobalHandlers.tsx</title>
<path fill="none" stroke="#cfffac" d="M222.96,-1359.75C222.96,-1359.75 32.29,-1359.75 32.29,-1359.75 28.33,-1359.75 24.38,-1355.79 24.38,-1351.83 24.38,-1351.83 24.38,-1343.92 24.38,-1343.92 24.38,-1339.96 28.33,-1336 32.29,-1336 32.29,-1336 222.96,-1336 222.96,-1336 226.92,-1336 230.88,-1339.96 230.88,-1343.92 230.88,-1343.92 230.88,-1351.83 230.88,-1351.83 230.88,-1355.79 226.92,-1359.75 222.96,-1359.75"/>
<text xml:space="preserve" text-anchor="middle" x="127.62" y="-1342.45" font-family="Arial" font-size="14.00" fill="#cfffac">debug/installGlobalHandlers.tsx</text>
</g>
<!-- dev/resetDb.ts -->
<g id="node21" class="node">
<title>dev/resetDb.ts</title>
<path fill="none" stroke="#cfffac" d="M715.46,-547.75C715.46,-547.75 628.29,-547.75 628.29,-547.75 624.33,-547.75 620.38,-543.79 620.38,-539.83 620.38,-539.83 620.38,-531.92 620.38,-531.92 620.38,-527.96 624.33,-524 628.29,-524 628.29,-524 715.46,-524 715.46,-524 719.42,-524 723.38,-527.96 723.38,-531.92 723.38,-531.92 723.38,-539.83 723.38,-539.83 723.38,-543.79 719.42,-547.75 715.46,-547.75"/>
<text xml:space="preserve" text-anchor="middle" x="671.88" y="-530.45" font-family="Arial" font-size="14.00" fill="#cfffac">dev/resetDb.ts</text>
</g>
<!-- hooks/useAppReady.ts -->
<g id="node22" class="node">
<title>hooks/useAppReady.ts</title>
<path fill="none" stroke="#cfffac" d="M196.71,-1401.75C196.71,-1401.75 58.54,-1401.75 58.54,-1401.75 54.58,-1401.75 50.62,-1397.79 50.62,-1393.83 50.62,-1393.83 50.62,-1385.92 50.62,-1385.92 50.62,-1381.96 54.58,-1378 58.54,-1378 58.54,-1378 196.71,-1378 196.71,-1378 200.67,-1378 204.62,-1381.96 204.62,-1385.92 204.62,-1385.92 204.62,-1393.83 204.62,-1393.83 204.62,-1397.79 200.67,-1401.75 196.71,-1401.75"/>
<text xml:space="preserve" text-anchor="middle" x="127.62" y="-1384.45" font-family="Arial" font-size="14.00" fill="#cfffac">hooks/useAppReady.ts</text>
</g>
<!-- layout/Layout.js -->
<g id="node23" class="node">
<title>layout/Layout.js</title>
<path fill="none" stroke="#cfffac" d="M174.58,-1443.75C174.58,-1443.75 80.67,-1443.75 80.67,-1443.75 76.71,-1443.75 72.75,-1439.79 72.75,-1435.83 72.75,-1435.83 72.75,-1427.92 72.75,-1427.92 72.75,-1423.96 76.71,-1420 80.67,-1420 80.67,-1420 174.58,-1420 174.58,-1420 178.54,-1420 182.5,-1423.96 182.5,-1427.92 182.5,-1427.92 182.5,-1435.83 182.5,-1435.83 182.5,-1439.79 178.54,-1443.75 174.58,-1443.75"/>
<text xml:space="preserve" text-anchor="middle" x="127.62" y="-1426.45" font-family="Arial" font-size="14.00" fill="#cfffac">layout/Layout.js</text>
</g>
<!-- navigations/RootNavigator.tsx -->
<g id="node24" class="node">
<title>navigations/RootNavigator.tsx</title>
<path fill="none" stroke="#c6c5fe" d="M216.96,-900.75C216.96,-900.75 38.29,-900.75 38.29,-900.75 34.33,-900.75 30.38,-896.79 30.38,-892.83 30.38,-892.83 30.38,-884.92 30.38,-884.92 30.38,-880.96 34.33,-877 38.29,-877 38.29,-877 216.96,-877 216.96,-877 220.92,-877 224.88,-880.96 224.88,-884.92 224.88,-884.92 224.88,-892.83 224.88,-892.83 224.88,-896.79 220.92,-900.75 216.96,-900.75"/>
<text xml:space="preserve" text-anchor="middle" x="127.62" y="-883.45" font-family="Arial" font-size="14.00" fill="#c6c5fe">navigations/RootNavigator.tsx</text>
</g>
<!-- screens/AccountScreen.tsx -->
<g id="node25" class="node">
<title>screens/AccountScreen.tsx</title>
<path fill="none" stroke="#c6c5fe" d="M491.71,-711.75C491.71,-711.75 328.04,-711.75 328.04,-711.75 324.08,-711.75 320.12,-707.79 320.12,-703.83 320.12,-703.83 320.12,-695.92 320.12,-695.92 320.12,-691.96 324.08,-688 328.04,-688 328.04,-688 491.71,-688 491.71,-688 495.67,-688 499.62,-691.96 499.62,-695.92 499.62,-695.92 499.62,-703.83 499.62,-703.83 499.62,-707.79 495.67,-711.75 491.71,-711.75"/>
<text xml:space="preserve" text-anchor="middle" x="409.88" y="-694.45" font-family="Arial" font-size="14.00" fill="#c6c5fe">screens/AccountScreen.tsx</text>
</g>
<!-- navigations/RootNavigator.tsx&#45;&gt;screens/AccountScreen.tsx -->
<g id="edge4" class="edge">
<title>navigations/RootNavigator.tsx&#45;&gt;screens/AccountScreen.tsx</title>
<path fill="none" stroke="#757575" d="M136.37,-876.65C157.11,-845.01 217.43,-760.17 291.25,-720.88 296.94,-717.85 302.98,-715.24 309.2,-713.01"/>
<polygon fill="#757575" stroke="#757575" points="309.94,-716.45 318.38,-710.05 307.79,-709.79 309.94,-716.45"/>
</g>
<!-- screens/AddAccountScreen.tsx -->
<g id="node26" class="node">
<title>screens/AddAccountScreen.tsx</title>
<path fill="none" stroke="#c6c5fe" d="M765.71,-703.75C765.71,-703.75 578.04,-703.75 578.04,-703.75 574.08,-703.75 570.12,-699.79 570.12,-695.83 570.12,-695.83 570.12,-687.92 570.12,-687.92 570.12,-683.96 574.08,-680 578.04,-680 578.04,-680 765.71,-680 765.71,-680 769.67,-680 773.62,-683.96 773.62,-687.92 773.62,-687.92 773.62,-695.83 773.62,-695.83 773.62,-699.79 769.67,-703.75 765.71,-703.75"/>
<text xml:space="preserve" text-anchor="middle" x="671.88" y="-686.45" font-family="Arial" font-size="14.00" fill="#c6c5fe">screens/AddAccountScreen.tsx</text>
</g>
<!-- navigations/RootNavigator.tsx&#45;&gt;screens/AddAccountScreen.tsx -->
<g id="edge5" class="edge">
<title>navigations/RootNavigator.tsx&#45;&gt;screens/AddAccountScreen.tsx</title>
<path fill="none" stroke="#757575" d="M138.46,-876.9C161.58,-848.25 220.1,-772.85 255.25,-701.88 277.52,-656.91 250.5,-624.16 291.25,-594.88 334.06,-564.11 483.95,-566.68 528.5,-594.88 560.08,-614.86 535.01,-647.91 564.5,-670.88 565.85,-671.92 567.23,-672.92 568.65,-673.88"/>
<polygon fill="#757575" stroke="#757575" points="566.72,-676.81 577.13,-678.78 570.22,-670.75 566.72,-676.81"/>
</g>
<!-- screens/BudgetsScreen.tsx -->
<g id="node27" class="node">
<title>screens/BudgetsScreen.tsx</title>
<path fill="none" stroke="#cfffac" d="M492.08,-921.75C492.08,-921.75 327.67,-921.75 327.67,-921.75 323.71,-921.75 319.75,-917.79 319.75,-913.83 319.75,-913.83 319.75,-905.92 319.75,-905.92 319.75,-901.96 323.71,-898 327.67,-898 327.67,-898 492.08,-898 492.08,-898 496.04,-898 500,-901.96 500,-905.92 500,-905.92 500,-913.83 500,-913.83 500,-917.79 496.04,-921.75 492.08,-921.75"/>
<text xml:space="preserve" text-anchor="middle" x="409.88" y="-904.45" font-family="Arial" font-size="14.00" fill="#cfffac">screens/BudgetsScreen.tsx</text>
</g>
<!-- navigations/RootNavigator.tsx&#45;&gt;screens/BudgetsScreen.tsx -->
<g id="edge6" class="edge">
<title>navigations/RootNavigator.tsx&#45;&gt;screens/BudgetsScreen.tsx</title>
<path fill="none" stroke="#757575" d="M225.07,-896.1C251.81,-898.11 280.91,-900.29 307.9,-902.31"/>
<polygon fill="#757575" stroke="#757575" points="307.58,-905.79 317.81,-903.05 308.1,-898.81 307.58,-905.79"/>
</g>
<!-- screens/DashboardScreen.tsx -->
<g id="node28" class="node">
<title>screens/DashboardScreen.tsx</title>
<path fill="none" stroke="#c6c5fe" d="M500.33,-1211.75C500.33,-1211.75 319.42,-1211.75 319.42,-1211.75 315.46,-1211.75 311.5,-1207.79 311.5,-1203.83 311.5,-1203.83 311.5,-1195.92 311.5,-1195.92 311.5,-1191.96 315.46,-1188 319.42,-1188 319.42,-1188 500.33,-1188 500.33,-1188 504.29,-1188 508.25,-1191.96 508.25,-1195.92 508.25,-1195.92 508.25,-1203.83 508.25,-1203.83 508.25,-1207.79 504.29,-1211.75 500.33,-1211.75"/>
<text xml:space="preserve" text-anchor="middle" x="409.88" y="-1194.45" font-family="Arial" font-size="14.00" fill="#c6c5fe">screens/DashboardScreen.tsx</text>
</g>
<!-- navigations/RootNavigator.tsx&#45;&gt;screens/DashboardScreen.tsx -->
<g id="edge7" class="edge">
<title>navigations/RootNavigator.tsx&#45;&gt;screens/DashboardScreen.tsx</title>
<path fill="none" stroke="#757575" d="M133.62,-900.99C150.4,-940.36 208.31,-1066.46 291.25,-1140.88 311.73,-1159.25 338.97,-1173.39 362.08,-1183.22"/>
<polygon fill="#757575" stroke="#757575" points="360.72,-1186.45 371.3,-1186.99 363.37,-1179.97 360.72,-1186.45"/>
</g>
<!-- screens/DataExportImportScreen.tsx -->
<g id="node29" class="node">
<title>screens/DataExportImportScreen.tsx</title>
<path fill="none" stroke="#c6c5fe" d="M520.58,-1253.75C520.58,-1253.75 299.17,-1253.75 299.17,-1253.75 295.21,-1253.75 291.25,-1249.79 291.25,-1245.83 291.25,-1245.83 291.25,-1237.92 291.25,-1237.92 291.25,-1233.96 295.21,-1230 299.17,-1230 299.17,-1230 520.58,-1230 520.58,-1230 524.54,-1230 528.5,-1233.96 528.5,-1237.92 528.5,-1237.92 528.5,-1245.83 528.5,-1245.83 528.5,-1249.79 524.54,-1253.75 520.58,-1253.75"/>
<text xml:space="preserve" text-anchor="middle" x="409.88" y="-1236.45" font-family="Arial" font-size="14.00" fill="#c6c5fe">screens/DataExportImportScreen.tsx</text>
</g>
<!-- navigations/RootNavigator.tsx&#45;&gt;screens/DataExportImportScreen.tsx -->
<g id="edge8" class="edge">
<title>navigations/RootNavigator.tsx&#45;&gt;screens/DataExportImportScreen.tsx</title>
<path fill="none" stroke="#757575" d="M130.56,-901.01C139.08,-950.1 177.99,-1135.49 291.25,-1220.88 292.79,-1222.03 294.37,-1223.14 295.99,-1224.19"/>
<polygon fill="#757575" stroke="#757575" points="293.89,-1227.02 304.32,-1228.88 297.32,-1220.92 293.89,-1227.02"/>
</g>
<!-- screens/ImportCsvScreen.tsx -->
<g id="node30" class="node">
<title>screens/ImportCsvScreen.tsx</title>
<path fill="none" stroke="#cfffac" d="M498.46,-879.75C498.46,-879.75 321.29,-879.75 321.29,-879.75 317.33,-879.75 313.38,-875.79 313.38,-871.83 313.38,-871.83 313.38,-863.92 313.38,-863.92 313.38,-859.96 317.33,-856 321.29,-856 321.29,-856 498.46,-856 498.46,-856 502.42,-856 506.38,-859.96 506.38,-863.92 506.38,-863.92 506.38,-871.83 506.38,-871.83 506.38,-875.79 502.42,-879.75 498.46,-879.75"/>
<text xml:space="preserve" text-anchor="middle" x="409.88" y="-862.45" font-family="Arial" font-size="14.00" fill="#cfffac">screens/ImportCsvScreen.tsx</text>
</g>
<!-- navigations/RootNavigator.tsx&#45;&gt;screens/ImportCsvScreen.tsx -->
<g id="edge9" class="edge">
<title>navigations/RootNavigator.tsx&#45;&gt;screens/ImportCsvScreen.tsx</title>
<path fill="none" stroke="#757575" d="M225.07,-881.65C249.79,-879.8 276.51,-877.79 301.73,-875.9"/>
<polygon fill="#757575" stroke="#757575" points="301.98,-879.39 311.69,-875.16 301.46,-872.41 301.98,-879.39"/>
</g>
<!-- screens/NotificationsScreen.tsx -->
<g id="node31" class="node">
<title>screens/NotificationsScreen.tsx</title>
<path fill="none" stroke="#cfffac" d="M504.08,-795.75C504.08,-795.75 315.67,-795.75 315.67,-795.75 311.71,-795.75 307.75,-791.79 307.75,-787.83 307.75,-787.83 307.75,-779.92 307.75,-779.92 307.75,-775.96 311.71,-772 315.67,-772 315.67,-772 504.08,-772 504.08,-772 508.04,-772 512,-775.96 512,-779.92 512,-779.92 512,-787.83 512,-787.83 512,-791.79 508.04,-795.75 504.08,-795.75"/>
<text xml:space="preserve" text-anchor="middle" x="409.88" y="-778.45" font-family="Arial" font-size="14.00" fill="#cfffac">screens/NotificationsScreen.tsx</text>
</g>
<!-- navigations/RootNavigator.tsx&#45;&gt;screens/NotificationsScreen.tsx -->
<g id="edge10" class="edge">
<title>navigations/RootNavigator.tsx&#45;&gt;screens/NotificationsScreen.tsx</title>
<path fill="none" stroke="#757575" d="M147.8,-876.53C177.39,-858.06 236.47,-823.44 291.25,-804.88 297.76,-802.67 304.56,-800.68 311.46,-798.89"/>
<polygon fill="#757575" stroke="#757575" points="311.99,-802.37 320.88,-796.6 310.34,-795.56 311.99,-802.37"/>
</g>
<!-- screens/PaymentsScreen.tsx -->
<g id="node32" class="node">
<title>screens/PaymentsScreen.tsx</title>
<path fill="none" stroke="#c6c5fe" d="M497.71,-1131.75C497.71,-1131.75 322.04,-1131.75 322.04,-1131.75 318.08,-1131.75 314.12,-1127.79 314.12,-1123.83 314.12,-1123.83 314.12,-1115.92 314.12,-1115.92 314.12,-1111.96 318.08,-1108 322.04,-1108 322.04,-1108 497.71,-1108 497.71,-1108 501.67,-1108 505.62,-1111.96 505.62,-1115.92 505.62,-1115.92 505.62,-1123.83 505.62,-1123.83 505.62,-1127.79 501.67,-1131.75 497.71,-1131.75"/>
<text xml:space="preserve" text-anchor="middle" x="409.88" y="-1114.45" font-family="Arial" font-size="14.00" fill="#c6c5fe">screens/PaymentsScreen.tsx</text>
</g>
<!-- navigations/RootNavigator.tsx&#45;&gt;screens/PaymentsScreen.tsx -->
<g id="edge11" class="edge">
<title>navigations/RootNavigator.tsx&#45;&gt;screens/PaymentsScreen.tsx</title>
<path fill="none" stroke="#757575" d="M134.1,-901.13C151.24,-937.98 207.81,-1048.38 291.25,-1098.88 295.08,-1101.2 299.11,-1103.27 303.26,-1105.13"/>
<polygon fill="#757575" stroke="#757575" points="301.83,-1108.33 312.42,-1108.77 304.42,-1101.83 301.83,-1108.33"/>
</g>
<!-- screens/RecentActivityScreen.tsx -->
<g id="node33" class="node">
<title>screens/RecentActivityScreen.tsx</title>
<path fill="none" stroke="#c6c5fe" d="M510.08,-963.75C510.08,-963.75 309.67,-963.75 309.67,-963.75 305.71,-963.75 301.75,-959.79 301.75,-955.83 301.75,-955.83 301.75,-947.92 301.75,-947.92 301.75,-943.96 305.71,-940 309.67,-940 309.67,-940 510.08,-940 510.08,-940 514.04,-940 518,-943.96 518,-947.92 518,-947.92 518,-955.83 518,-955.83 518,-959.79 514.04,-963.75 510.08,-963.75"/>
<text xml:space="preserve" text-anchor="middle" x="409.88" y="-946.45" font-family="Arial" font-size="14.00" fill="#c6c5fe">screens/RecentActivityScreen.tsx</text>
</g>
<!-- navigations/RootNavigator.tsx&#45;&gt;screens/RecentActivityScreen.tsx -->
<g id="edge12" class="edge">
<title>navigations/RootNavigator.tsx&#45;&gt;screens/RecentActivityScreen.tsx</title>
<path fill="none" stroke="#757575" d="M172.58,-901.2C205.18,-910.1 250.79,-922.05 291.25,-930.88 301.63,-933.14 312.56,-935.34 323.41,-937.41"/>
<polygon fill="#757575" stroke="#757575" points="322.7,-940.83 333.18,-939.23 323.99,-933.95 322.7,-940.83"/>
</g>
<!-- screens/RecurringEditorScreen.tsx -->
<g id="node34" class="node">
<title>screens/RecurringEditorScreen.tsx</title>
<path fill="none" stroke="#cfffac" d="M514.21,-627.75C514.21,-627.75 305.54,-627.75 305.54,-627.75 301.58,-627.75 297.62,-623.79 297.62,-619.83 297.62,-619.83 297.62,-611.92 297.62,-611.92 297.62,-607.96 301.58,-604 305.54,-604 305.54,-604 514.21,-604 514.21,-604 518.17,-604 522.12,-607.96 522.12,-611.92 522.12,-611.92 522.12,-619.83 522.12,-619.83 522.12,-623.79 518.17,-627.75 514.21,-627.75"/>
<text xml:space="preserve" text-anchor="middle" x="409.88" y="-610.45" font-family="Arial" font-size="14.00" fill="#cfffac">screens/RecurringEditorScreen.tsx</text>
</g>
<!-- navigations/RootNavigator.tsx&#45;&gt;screens/RecurringEditorScreen.tsx -->
<g id="edge13" class="edge">
<title>navigations/RootNavigator.tsx&#45;&gt;screens/RecurringEditorScreen.tsx</title>
<path fill="none" stroke="#757575" d="M137.31,-876.87C158.39,-847.55 213.61,-769.71 255.25,-701.88 272.53,-673.73 264.39,-656.09 291.25,-636.88 293.02,-635.61 294.85,-634.41 296.72,-633.28"/>
<polygon fill="#757575" stroke="#757575" points="297.87,-636.62 305.07,-628.85 294.59,-630.44 297.87,-636.62"/>
</g>
<!-- screens/RecurringScreen.tsx -->
<g id="node35" class="node">
<title>screens/RecurringScreen.tsx</title>
<path fill="none" stroke="#c6c5fe" d="M496.58,-669.75C496.58,-669.75 323.17,-669.75 323.17,-669.75 319.21,-669.75 315.25,-665.79 315.25,-661.83 315.25,-661.83 315.25,-653.92 315.25,-653.92 315.25,-649.96 319.21,-646 323.17,-646 323.17,-646 496.58,-646 496.58,-646 500.54,-646 504.5,-649.96 504.5,-653.92 504.5,-653.92 504.5,-661.83 504.5,-661.83 504.5,-665.79 500.54,-669.75 496.58,-669.75"/>
<text xml:space="preserve" text-anchor="middle" x="409.88" y="-652.45" font-family="Arial" font-size="14.00" fill="#c6c5fe">screens/RecurringScreen.tsx</text>
</g>
<!-- navigations/RootNavigator.tsx&#45;&gt;screens/RecurringScreen.tsx -->
<g id="edge14" class="edge">
<title>navigations/RootNavigator.tsx&#45;&gt;screens/RecurringScreen.tsx</title>
<path fill="none" stroke="#757575" d="M134.1,-876.62C151.24,-839.77 207.81,-729.37 291.25,-678.88 295.51,-676.3 300,-674.02 304.65,-672.01"/>
<polygon fill="#757575" stroke="#757575" points="305.54,-675.41 313.62,-668.55 303.03,-668.88 305.54,-675.41"/>
</g>
<!-- screens/ReportsScreen.tsx -->
<g id="node36" class="node">
<title>screens/ReportsScreen.tsx</title>
<path fill="none" stroke="#c6c5fe" d="M490.96,-837.75C490.96,-837.75 328.79,-837.75 328.79,-837.75 324.83,-837.75 320.88,-833.79 320.88,-829.83 320.88,-829.83 320.88,-821.92 320.88,-821.92 320.88,-817.96 324.83,-814 328.79,-814 328.79,-814 490.96,-814 490.96,-814 494.92,-814 498.88,-817.96 498.88,-821.92 498.88,-821.92 498.88,-829.83 498.88,-829.83 498.88,-833.79 494.92,-837.75 490.96,-837.75"/>
<text xml:space="preserve" text-anchor="middle" x="409.88" y="-820.45" font-family="Arial" font-size="14.00" fill="#c6c5fe">screens/ReportsScreen.tsx</text>
</g>
<!-- navigations/RootNavigator.tsx&#45;&gt;screens/ReportsScreen.tsx -->
<g id="edge15" class="edge">
<title>navigations/RootNavigator.tsx&#45;&gt;screens/ReportsScreen.tsx</title>
<path fill="none" stroke="#757575" d="M172.58,-876.55C205.18,-867.65 250.79,-855.7 291.25,-846.88 301.63,-844.61 312.56,-842.41 323.41,-840.34"/>
<polygon fill="#757575" stroke="#757575" points="323.99,-843.8 333.18,-838.52 322.7,-836.92 323.99,-843.8"/>
</g>
<!-- screens/SettingsScreen.tsx -->
<g id="node37" class="node">
<title>screens/SettingsScreen.tsx</title>
<path fill="none" stroke="#c6c5fe" d="M491.71,-547.75C491.71,-547.75 328.04,-547.75 328.04,-547.75 324.08,-547.75 320.12,-543.79 320.12,-539.83 320.12,-539.83 320.12,-531.92 320.12,-531.92 320.12,-527.96 324.08,-524 328.04,-524 328.04,-524 491.71,-524 491.71,-524 495.67,-524 499.62,-527.96 499.62,-531.92 499.62,-531.92 499.62,-539.83 499.62,-539.83 499.62,-543.79 495.67,-547.75 491.71,-547.75"/>
<text xml:space="preserve" text-anchor="middle" x="409.88" y="-530.45" font-family="Arial" font-size="14.00" fill="#c6c5fe">screens/SettingsScreen.tsx</text>
</g>
<!-- navigations/RootNavigator.tsx&#45;&gt;screens/SettingsScreen.tsx -->
<g id="edge16" class="edge">
<title>navigations/RootNavigator.tsx&#45;&gt;screens/SettingsScreen.tsx</title>
<path fill="none" stroke="#757575" d="M139.16,-876.64C163.27,-848.03 222.87,-773.72 255.25,-701.88 281.65,-643.3 245.05,-606.52 291.25,-561.88 296.71,-556.6 302.98,-552.3 309.73,-548.8"/>
<polygon fill="#757575" stroke="#757575" points="310.84,-552.14 318.53,-544.85 307.97,-545.75 310.84,-552.14"/>
</g>
<!-- screens/SplashAuthScreen.tsx -->
<g id="node38" class="node">
<title>screens/SplashAuthScreen.tsx</title>
<path fill="none" stroke="#c6c5fe" d="M501.83,-1295.75C501.83,-1295.75 317.92,-1295.75 317.92,-1295.75 313.96,-1295.75 310,-1291.79 310,-1287.83 310,-1287.83 310,-1279.92 310,-1279.92 310,-1275.96 313.96,-1272 317.92,-1272 317.92,-1272 501.83,-1272 501.83,-1272 505.79,-1272 509.75,-1275.96 509.75,-1279.92 509.75,-1279.92 509.75,-1287.83 509.75,-1287.83 509.75,-1291.79 505.79,-1295.75 501.83,-1295.75"/>
<text xml:space="preserve" text-anchor="middle" x="409.88" y="-1278.45" font-family="Arial" font-size="14.00" fill="#c6c5fe">screens/SplashAuthScreen.tsx</text>
</g>
<!-- navigations/RootNavigator.tsx&#45;&gt;screens/SplashAuthScreen.tsx -->
<g id="edge17" class="edge">
<title>navigations/RootNavigator.tsx&#45;&gt;screens/SplashAuthScreen.tsx</title>
<path fill="none" stroke="#757575" d="M133.47,-900.87C158.79,-963.48 275.42,-1250.37 291.25,-1262.88 293.88,-1264.95 296.65,-1266.86 299.53,-1268.59"/>
<polygon fill="#757575" stroke="#757575" points="297.87,-1271.67 308.35,-1273.18 301.1,-1265.46 297.87,-1271.67"/>
</g>
<!-- screens/TransferScreen.tsx -->
<g id="node39" class="node">
<title>screens/TransferScreen.tsx</title>
<path fill="none" stroke="#c6c5fe" d="M492.46,-1047.75C492.46,-1047.75 327.29,-1047.75 327.29,-1047.75 323.33,-1047.75 319.38,-1043.79 319.38,-1039.83 319.38,-1039.83 319.38,-1031.92 319.38,-1031.92 319.38,-1027.96 323.33,-1024 327.29,-1024 327.29,-1024 492.46,-1024 492.46,-1024 496.42,-1024 500.38,-1027.96 500.38,-1031.92 500.38,-1031.92 500.38,-1039.83 500.38,-1039.83 500.38,-1043.79 496.42,-1047.75 492.46,-1047.75"/>
<text xml:space="preserve" text-anchor="middle" x="409.88" y="-1030.45" font-family="Arial" font-size="14.00" fill="#c6c5fe">screens/TransferScreen.tsx</text>
</g>
<!-- navigations/RootNavigator.tsx&#45;&gt;screens/TransferScreen.tsx -->
<g id="edge18" class="edge">
<title>navigations/RootNavigator.tsx&#45;&gt;screens/TransferScreen.tsx</title>
<path fill="none" stroke="#757575" d="M139.93,-900.93C164.68,-926.5 226.62,-986.17 291.25,-1014.88 296.7,-1017.3 302.41,-1019.44 308.25,-1021.33"/>
<polygon fill="#757575" stroke="#757575" points="306.85,-1024.57 317.43,-1024.05 308.84,-1017.86 306.85,-1024.57"/>
</g>
<!-- screens/TxnEditorScreen.tsx -->
<g id="node40" class="node">
<title>screens/TxnEditorScreen.tsx</title>
<path fill="none" stroke="#c6c5fe" d="M496.21,-1005.75C496.21,-1005.75 323.54,-1005.75 323.54,-1005.75 319.58,-1005.75 315.62,-1001.79 315.62,-997.83 315.62,-997.83 315.62,-989.92 315.62,-989.92 315.62,-985.96 319.58,-982 323.54,-982 323.54,-982 496.21,-982 496.21,-982 500.17,-982 504.12,-985.96 504.12,-989.92 504.12,-989.92 504.12,-997.83 504.12,-997.83 504.12,-1001.79 500.17,-1005.75 496.21,-1005.75"/>
<text xml:space="preserve" text-anchor="middle" x="409.88" y="-988.45" font-family="Arial" font-size="14.00" fill="#c6c5fe">screens/TxnEditorScreen.tsx</text>
</g>
<!-- navigations/RootNavigator.tsx&#45;&gt;screens/TxnEditorScreen.tsx -->
<g id="edge19" class="edge">
<title>navigations/RootNavigator.tsx&#45;&gt;screens/TxnEditorScreen.tsx</title>
<path fill="none" stroke="#757575" d="M147.8,-901.22C177.39,-919.69 236.47,-954.31 291.25,-972.88 297.76,-975.08 304.56,-977.07 311.46,-978.86"/>
<polygon fill="#757575" stroke="#757575" points="310.34,-982.19 320.88,-981.15 311.99,-975.38 310.34,-982.19"/>
</g>
<!-- navigations/types.ts -->
<g id="node42" class="node">
<title>navigations/types.ts</title>
<path fill="none" stroke="#cfffac" d="M731.21,-1053.75C731.21,-1053.75 612.54,-1053.75 612.54,-1053.75 608.58,-1053.75 604.62,-1049.79 604.62,-1045.83 604.62,-1045.83 604.62,-1037.92 604.62,-1037.92 604.62,-1033.96 608.58,-1030 612.54,-1030 612.54,-1030 731.21,-1030 731.21,-1030 735.17,-1030 739.12,-1033.96 739.12,-1037.92 739.12,-1037.92 739.12,-1045.83 739.12,-1045.83 739.12,-1049.79 735.17,-1053.75 731.21,-1053.75"/>
<text xml:space="preserve" text-anchor="middle" x="671.88" y="-1036.45" font-family="Arial" font-size="14.00" fill="#cfffac">navigations/types.ts</text>
</g>
<!-- screens/AccountScreen.tsx&#45;&gt;navigations/types.ts -->
<g id="edge21" class="edge">
<title>screens/AccountScreen.tsx&#45;&gt;navigations/types.ts</title>
<path fill="none" stroke="#757575" d="M500.05,-703.44C510.69,-707.23 520.58,-712.81 528.5,-720.88 599.18,-792.79 516.56,-856.16 564.5,-944.88 582.54,-978.26 616.6,-1006.17 641.34,-1023.35"/>
<polygon fill="#757575" stroke="#757575" points="639.13,-1026.08 649.38,-1028.77 643.04,-1020.28 639.13,-1026.08"/>
</g>
<!-- state/AppContext.tsx -->
<g id="node46" class="node">
<title>state/AppContext.tsx</title>
<path fill="none" stroke="#cfffac" d="M947.83,-1013.75C947.83,-1013.75 823.17,-1013.75 823.17,-1013.75 819.21,-1013.75 815.25,-1009.79 815.25,-1005.83 815.25,-1005.83 815.25,-997.92 815.25,-997.92 815.25,-993.96 819.21,-990 823.17,-990 823.17,-990 947.83,-990 947.83,-990 951.79,-990 955.75,-993.96 955.75,-997.92 955.75,-997.92 955.75,-1005.83 955.75,-1005.83 955.75,-1009.79 951.79,-1013.75 947.83,-1013.75"/>
<text xml:space="preserve" text-anchor="middle" x="885.5" y="-996.45" font-family="Arial" font-size="14.00" fill="#cfffac">state/AppContext.tsx</text>
</g>
<!-- screens/AccountScreen.tsx&#45;&gt;state/AppContext.tsx -->
<g id="edge22" class="edge">
<title>screens/AccountScreen.tsx&#45;&gt;state/AppContext.tsx</title>
<path fill="none" stroke="#757575" d="M500.04,-711.57C509.82,-714.09 519.49,-717.15 528.5,-720.88 546.5,-728.31 546.49,-738.45 564.5,-745.88 654.11,-782.82 701.97,-725.36 779.25,-783.88 844.32,-833.14 871.23,-933.11 880.44,-978.51"/>
<polygon fill="#757575" stroke="#757575" points="876.94,-978.88 882.25,-988.05 883.82,-977.57 876.94,-978.88"/>
</g>
<!-- screens/AddAccountScreen.tsx&#45;&gt;state/AppContext.tsx -->
<g id="edge23" class="edge">
<title>screens/AddAccountScreen.tsx&#45;&gt;state/AppContext.tsx</title>
<path fill="none" stroke="#757575" d="M757.53,-704.15C765.43,-707.69 772.86,-712.18 779.25,-717.88 858.47,-788.46 878.2,-924.22 883,-978.55"/>
<polygon fill="#757575" stroke="#757575" points="879.48,-978.49 883.75,-988.19 886.46,-977.95 879.48,-978.49"/>
</g>
<!-- screens/DashboardScreen.tsx&#45;&gt;navigations/types.ts -->
<g id="edge27" class="edge">
<title>screens/DashboardScreen.tsx&#45;&gt;navigations/types.ts</title>
<path fill="none" stroke="#757575" d="M493.22,-1187.55C505.43,-1184.07 517.57,-1179.6 528.5,-1173.88 542.74,-1166.42 614.78,-1096.81 650.59,-1061.8"/>
<polygon fill="#757575" stroke="#757575" points="652.69,-1064.65 657.38,-1055.15 647.79,-1059.65 652.69,-1064.65"/>
</g>
<!-- screens/DashboardScreen.tsx&#45;&gt;state/AppContext.tsx -->
<g id="edge28" class="edge">
<title>screens/DashboardScreen.tsx&#45;&gt;state/AppContext.tsx</title>
<path fill="none" stroke="#757575" d="M502.79,-1187.5C596.12,-1173.74 733.25,-1149.86 779.25,-1122.88 820.99,-1098.39 854.56,-1051.38 871.82,-1023.72"/>
<polygon fill="#757575" stroke="#757575" points="874.65,-1025.81 876.84,-1015.44 868.66,-1022.18 874.65,-1025.81"/>
</g>
<!-- screens/DataExportImportScreen.tsx&#45;&gt;navigations/types.ts -->
<g id="edge29" class="edge">
<title>screens/DataExportImportScreen.tsx&#45;&gt;navigations/types.ts</title>
<path fill="none" stroke="#757575" d="M510.35,-1229.59C516.69,-1227.15 522.8,-1224.28 528.5,-1220.88 545.42,-1210.78 621.69,-1108.73 655.11,-1063.39"/>
<polygon fill="#757575" stroke="#757575" points="657.91,-1065.49 661.01,-1055.36 652.27,-1061.34 657.91,-1065.49"/>
</g>
<!-- screens/DataExportImportScreen.tsx&#45;&gt;state/AppContext.tsx -->
<g id="edge30" class="edge">
<title>screens/DataExportImportScreen.tsx&#45;&gt;state/AppContext.tsx</title>
<path fill="none" stroke="#757575" d="M483.14,-1229.52C498.15,-1226.8 513.86,-1223.84 528.5,-1220.88 584.5,-1209.52 732.38,-1196.57 779.25,-1163.88 829.91,-1128.53 862.16,-1060.19 876.26,-1024.63"/>
<polygon fill="#757575" stroke="#757575" points="879.51,-1025.92 879.81,-1015.33 872.97,-1023.43 879.51,-1025.92"/>
</g>
<!-- utils/backup.ts -->
<g id="node48" class="node">
<title>utils/backup.ts</title>
<path fill="none" stroke="#c6c5fe" d="M714.71,-1247.75C714.71,-1247.75 629.04,-1247.75 629.04,-1247.75 625.08,-1247.75 621.12,-1243.79 621.12,-1239.83 621.12,-1239.83 621.12,-1231.92 621.12,-1231.92 621.12,-1227.96 625.08,-1224 629.04,-1224 629.04,-1224 714.71,-1224 714.71,-1224 718.67,-1224 722.62,-1227.96 722.62,-1231.92 722.62,-1231.92 722.62,-1239.83 722.62,-1239.83 722.62,-1243.79 718.67,-1247.75 714.71,-1247.75"/>
<text xml:space="preserve" text-anchor="middle" x="671.88" y="-1230.45" font-family="Arial" font-size="14.00" fill="#c6c5fe">utils/backup.ts</text>
</g>
<!-- screens/DataExportImportScreen.tsx&#45;&gt;utils/backup.ts -->
<g id="edge31" class="edge">
<title>screens/DataExportImportScreen.tsx&#45;&gt;utils/backup.ts</title>
<path fill="none" stroke="#757575" d="M528.7,-1239.16C556.53,-1238.51 585.11,-1237.85 609.28,-1237.3"/>
<polygon fill="#757575" stroke="#757575" points="609.33,-1240.8 619.25,-1237.07 609.17,-1233.8 609.33,-1240.8"/>
</g>
<!-- screens/PaymentsScreen.tsx&#45;&gt;navigations/types.ts -->
<g id="edge37" class="edge">
<title>screens/PaymentsScreen.tsx&#45;&gt;navigations/types.ts</title>
<path fill="none" stroke="#757575" d="M492.36,-1107.56C504.57,-1105.07 516.93,-1102.19 528.5,-1098.88 565.5,-1088.29 606.1,-1071.49 634.45,-1058.86"/>
<polygon fill="#757575" stroke="#757575" points="635.62,-1062.17 643.3,-1054.87 632.74,-1055.79 635.62,-1062.17"/>
</g>
<!-- screens/PaymentsScreen.tsx&#45;&gt;state/AppContext.tsx -->
<g id="edge38" class="edge">
<title>screens/PaymentsScreen.tsx&#45;&gt;state/AppContext.tsx</title>
<path fill="none" stroke="#757575" d="M506.1,-1127.61C582.72,-1130.25 691.67,-1125.75 779.25,-1089.88 814.96,-1075.25 847.63,-1043.88 866.8,-1022.83"/>
<polygon fill="#757575" stroke="#757575" points="869.38,-1025.19 873.39,-1015.38 864.14,-1020.55 869.38,-1025.19"/>
</g>
<!-- screens/RecentActivityScreen.tsx&#45;&gt;navigations/types.ts -->
<g id="edge39" class="edge">
<title>screens/RecentActivityScreen.tsx&#45;&gt;navigations/types.ts</title>
<path fill="none" stroke="#757575" d="M496.05,-964.21C507.09,-966.64 518.14,-969.51 528.5,-972.88 568.81,-985.96 612.25,-1008.34 640.4,-1024.05"/>
<polygon fill="#757575" stroke="#757575" points="638.66,-1027.09 649.08,-1028.97 642.11,-1021 638.66,-1027.09"/>
</g>
<!-- screens/RecentActivityScreen.tsx&#45;&gt;state/AppContext.tsx -->
<g id="edge40" class="edge">
<title>screens/RecentActivityScreen.tsx&#45;&gt;state/AppContext.tsx</title>
<path fill="none" stroke="#757575" d="M504.28,-939.55C512.63,-937.15 520.82,-934.29 528.5,-930.88 547.02,-922.63 545.33,-909.45 564.5,-902.88 654.78,-871.9 690.52,-867.7 779.25,-902.88 818.6,-918.47 851.81,-956.53 869.87,-980.65"/>
<polygon fill="#757575" stroke="#757575" points="866.86,-982.46 875.56,-988.51 872.53,-978.36 866.86,-982.46"/>
</g>
<!-- utils/formatDate.ts -->
<g id="node55" class="node">
<title>utils/formatDate.ts</title>
<path fill="none" stroke="#cfffac" d="M726.71,-935.75C726.71,-935.75 617.04,-935.75 617.04,-935.75 613.08,-935.75 609.12,-931.79 609.12,-927.83 609.12,-927.83 609.12,-919.92 609.12,-919.92 609.12,-915.96 613.08,-912 617.04,-912 617.04,-912 726.71,-912 726.71,-912 730.67,-912 734.62,-915.96 734.62,-919.92 734.62,-919.92 734.62,-927.83 734.62,-927.83 734.62,-931.79 730.67,-935.75 726.71,-935.75"/>
<text xml:space="preserve" text-anchor="middle" x="671.88" y="-918.45" font-family="Arial" font-size="14.00" fill="#cfffac">utils/formatDate.ts</text>
</g>
<!-- screens/RecentActivityScreen.tsx&#45;&gt;utils/formatDate.ts -->
<g id="edge41" class="edge">
<title>screens/RecentActivityScreen.tsx&#45;&gt;utils/formatDate.ts</title>
<path fill="none" stroke="#757575" d="M518.13,-940.32C544.82,-937.45 572.82,-934.43 597.46,-931.78"/>
<polygon fill="#757575" stroke="#757575" points="597.82,-935.26 607.39,-930.71 597.07,-928.3 597.82,-935.26"/>
</g>
<!-- screens/RecurringScreen.tsx&#45;&gt;state/AppContext.tsx -->
<g id="edge42" class="edge">
<title>screens/RecurringScreen.tsx&#45;&gt;state/AppContext.tsx</title>
<path fill="none" stroke="#757575" d="M504.96,-669.52C513.12,-672.06 521.09,-675.14 528.5,-678.88 548.15,-688.78 544.73,-703.21 564.5,-712.88 651.26,-755.28 703.36,-686.17 779.25,-745.88 854.45,-805.04 876.34,-927.05 882.36,-978.34"/>
<polygon fill="#757575" stroke="#757575" points="878.88,-978.7 883.41,-988.27 885.84,-977.96 878.88,-978.7"/>
</g>
<!-- screens/RecurringScreen.tsx&#45;&gt;utils/formatDate.ts -->
<g id="edge43" class="edge">
<title>screens/RecurringScreen.tsx&#45;&gt;utils/formatDate.ts</title>
<path fill="none" stroke="#757575" d="M504.96,-666.53C513.35,-669.67 521.36,-673.7 528.5,-678.88 555.87,-698.71 547.83,-716.47 564.5,-745.88 596.87,-802.96 637.07,-868.99 657.54,-902.29"/>
<polygon fill="#757575" stroke="#757575" points="654.44,-903.93 662.67,-910.61 660.4,-900.26 654.44,-903.93"/>
</g>
<!-- screens/ReportsScreen.tsx&#45;&gt;navigations/types.ts -->
<g id="edge51" class="edge">
<title>screens/ReportsScreen.tsx&#45;&gt;navigations/types.ts</title>
<path fill="none" stroke="#757575" d="M499.27,-831.12C509.91,-834.68 520,-839.74 528.5,-846.88 564.06,-876.69 538.62,-906.36 564.5,-944.88 585.82,-976.6 619.63,-1005.04 643.4,-1022.79"/>
<polygon fill="#757575" stroke="#757575" points="641.23,-1025.54 651.37,-1028.61 645.36,-1019.89 641.23,-1025.54"/>
</g>
<!-- screens/ReportsScreen.tsx&#45;&gt;state/AppContext.tsx -->
<g id="edge52" class="edge">
<title>screens/ReportsScreen.tsx&#45;&gt;state/AppContext.tsx</title>
<path fill="none" stroke="#757575" d="M499.36,-829.96C592.71,-835.56 732.64,-848.04 779.25,-873.88 823.85,-898.59 857.14,-950.44 873.41,-980"/>
<polygon fill="#757575" stroke="#757575" points="870.12,-981.27 877.91,-988.46 876.3,-977.98 870.12,-981.27"/>
</g>
<!-- screens/ReportsScreen.tsx&#45;&gt;utils/formatDate.ts -->
<g id="edge53" class="edge">
<title>screens/ReportsScreen.tsx&#45;&gt;utils/formatDate.ts</title>
<path fill="none" stroke="#757575" d="M498.09,-838.21C508.46,-840.62 518.81,-843.49 528.5,-846.88 570.79,-861.66 615.62,-887.89 643.43,-905.58"/>
<polygon fill="#757575" stroke="#757575" points="641.3,-908.37 651.6,-910.85 645.1,-902.49 641.3,-908.37"/>
</g>
<!-- screens/SettingsScreen.tsx&#45;&gt;dev/resetDb.ts -->
<g id="edge54" class="edge">
<title>screens/SettingsScreen.tsx&#45;&gt;dev/resetDb.ts</title>
<path fill="none" stroke="#757575" d="M499.99,-535.88C535.89,-535.88 576.42,-535.88 608.99,-535.88"/>
<polygon fill="#757575" stroke="#757575" points="608.65,-539.38 618.65,-535.88 608.65,-532.38 608.65,-539.38"/>
</g>
<!-- screens/SettingsScreen.tsx&#45;&gt;navigations/types.ts -->
<g id="edge55" class="edge">
<title>screens/SettingsScreen.tsx&#45;&gt;navigations/types.ts</title>
<path fill="none" stroke="#757575" d="M459.61,-548.16C484.31,-556.99 512.41,-571.56 528.5,-594.88 617.34,-723.57 494.1,-805.24 564.5,-944.88 581.49,-978.57 615.43,-1006.25 640.42,-1023.3"/>
<polygon fill="#757575" stroke="#757575" points="638.31,-1026.1 648.58,-1028.68 642.16,-1020.25 638.31,-1026.1"/>
</g>
<!-- screens/SplashAuthScreen.tsx&#45;&gt;navigations/types.ts -->
<g id="edge56" class="edge">
<title>screens/SplashAuthScreen.tsx&#45;&gt;navigations/types.ts</title>
<path fill="none" stroke="#757575" d="M510.17,-1272.47C516.62,-1269.84 522.8,-1266.67 528.5,-1262.88 538.25,-1256.38 623.94,-1118.15 657.49,-1063.67"/>
<polygon fill="#757575" stroke="#757575" points="660.41,-1065.6 662.67,-1055.25 654.45,-1061.93 660.41,-1065.6"/>
</g>
<!-- screens/SplashAuthScreen.tsx&#45;&gt;state/AppContext.tsx -->
<g id="edge57" class="edge">
<title>screens/SplashAuthScreen.tsx&#45;&gt;state/AppContext.tsx</title>
<path fill="none" stroke="#757575" d="M478.89,-1296.23C571.91,-1311.54 732.59,-1331.84 779.25,-1298.88 870.61,-1234.32 883.17,-1083.39 884.53,-1025.26"/>
<polygon fill="#757575" stroke="#757575" points="888.02,-1025.6 884.65,-1015.55 881.02,-1025.51 888.02,-1025.6"/>
</g>
<!-- screens/TransferScreen.tsx&#45;&gt;navigations/types.ts -->
<g id="edge58" class="edge">
<title>screens/TransferScreen.tsx&#45;&gt;navigations/types.ts</title>
<path fill="none" stroke="#757575" d="M500.72,-1037.95C530.78,-1038.64 564.02,-1039.41 593.08,-1040.08"/>
<polygon fill="#757575" stroke="#757575" points="592.83,-1043.57 602.91,-1040.31 592.99,-1036.58 592.83,-1043.57"/>
</g>
<!-- screens/TransferScreen.tsx&#45;&gt;state/AppContext.tsx -->
<g id="edge59" class="edge">
<title>screens/TransferScreen.tsx&#45;&gt;state/AppContext.tsx</title>
<path fill="none" stroke="#757575" d="M500.59,-1026.54C521.55,-1024.52 543.8,-1022.5 564.5,-1020.88 645.76,-1014.5 738.78,-1009.2 803.5,-1005.83"/>
<polygon fill="#757575" stroke="#757575" points="803.53,-1009.33 813.33,-1005.32 803.17,-1002.34 803.53,-1009.33"/>
</g>
<!-- screens/TransferScreen.tsx&#45;&gt;utils/formatDate.ts -->
<g id="edge60" class="edge">
<title>screens/TransferScreen.tsx&#45;&gt;utils/formatDate.ts</title>
<path fill="none" stroke="#757575" d="M500.81,-1024.35C510.35,-1021.79 519.75,-1018.68 528.5,-1014.88 546.84,-1006.9 547.91,-999.04 564.5,-987.88 588.93,-971.43 617.59,-954.3 639,-941.91"/>
<polygon fill="#757575" stroke="#757575" points="640.64,-945.01 647.56,-936.99 637.15,-938.94 640.64,-945.01"/>
</g>
<!-- screens/TxnEditorScreen.tsx&#45;&gt;navigations/types.ts -->
<g id="edge61" class="edge">
<title>screens/TxnEditorScreen.tsx&#45;&gt;navigations/types.ts</title>
<path fill="none" stroke="#757575" d="M480.87,-1006.24C496.55,-1009.05 513.1,-1012.04 528.5,-1014.88 550.31,-1018.89 573.97,-1023.34 595.64,-1027.45"/>
<polygon fill="#757575" stroke="#757575" points="594.8,-1030.85 605.27,-1029.28 596.1,-1023.98 594.8,-1030.85"/>
</g>
<!-- screens/TxnEditorScreen.tsx&#45;&gt;state/AppContext.tsx -->
<g id="edge62" class="edge">
<title>screens/TxnEditorScreen.tsx&#45;&gt;state/AppContext.tsx</title>
<path fill="none" stroke="#757575" d="M504.47,-988.1C578.99,-984.53 685.91,-981.69 779.25,-987.88 787.22,-988.4 795.5,-989.15 803.77,-990.03"/>
<polygon fill="#757575" stroke="#757575" points="803.16,-993.49 813.49,-991.14 803.95,-986.53 803.16,-993.49"/>
</g>
<!-- screens/TxnEditorScreen.tsx&#45;&gt;utils/formatDate.ts -->
<g id="edge63" class="edge">
<title>screens/TxnEditorScreen.tsx&#45;&gt;utils/formatDate.ts</title>
<path fill="none" stroke="#757575" d="M501.16,-981.52C510.53,-979.13 519.81,-976.27 528.5,-972.88 546.18,-965.96 547.04,-957.34 564.5,-949.88 575.03,-945.37 586.5,-941.55 597.87,-938.33"/>
<polygon fill="#757575" stroke="#757575" points="598.5,-941.79 607.26,-935.83 596.69,-935.03 598.5,-941.79"/>
</g>
<!-- navigations/screens.ts -->
<g id="node41" class="node">
<title>navigations/screens.ts</title>
<path fill="none" stroke="#cfffac" d="M194.46,-1485.75C194.46,-1485.75 60.79,-1485.75 60.79,-1485.75 56.83,-1485.75 52.88,-1481.79 52.88,-1477.83 52.88,-1477.83 52.88,-1469.92 52.88,-1469.92 52.88,-1465.96 56.83,-1462 60.79,-1462 60.79,-1462 194.46,-1462 194.46,-1462 198.42,-1462 202.38,-1465.96 202.38,-1469.92 202.38,-1469.92 202.38,-1477.83 202.38,-1477.83 202.38,-1481.79 198.42,-1485.75 194.46,-1485.75"/>
<text xml:space="preserve" text-anchor="middle" x="127.62" y="-1468.45" font-family="Arial" font-size="14.00" fill="#cfffac">navigations/screens.ts</text>
</g>
<!-- notifications/NotificationBootstrapper.tsx -->
<g id="node43" class="node">
<title>notifications/NotificationBootstrapper.tsx</title>
<path fill="none" stroke="#cfffac" d="M247.33,-1527.75C247.33,-1527.75 7.92,-1527.75 7.92,-1527.75 3.96,-1527.75 0,-1523.79 0,-1519.83 0,-1519.83 0,-1511.92 0,-1511.92 0,-1507.96 3.96,-1504 7.92,-1504 7.92,-1504 247.33,-1504 247.33,-1504 251.29,-1504 255.25,-1507.96 255.25,-1511.92 255.25,-1511.92 255.25,-1519.83 255.25,-1519.83 255.25,-1523.79 251.29,-1527.75 247.33,-1527.75"/>
<text xml:space="preserve" text-anchor="middle" x="127.62" y="-1510.45" font-family="Arial" font-size="14.00" fill="#cfffac">notifications/NotificationBootstrapper.tsx</text>
</g>
<!-- recurring/bootstrapper.js -->
<g id="node44" class="node">
<title>recurring/bootstrapper.js</title>
<path fill="none" stroke="#cfffac" d="M200.46,-1569.75C200.46,-1569.75 54.79,-1569.75 54.79,-1569.75 50.83,-1569.75 46.88,-1565.79 46.88,-1561.83 46.88,-1561.83 46.88,-1553.92 46.88,-1553.92 46.88,-1549.96 50.83,-1546 54.79,-1546 54.79,-1546 200.46,-1546 200.46,-1546 204.42,-1546 208.38,-1549.96 208.38,-1553.92 208.38,-1553.92 208.38,-1561.83 208.38,-1561.83 208.38,-1565.79 204.42,-1569.75 200.46,-1569.75"/>
<text xml:space="preserve" text-anchor="middle" x="127.62" y="-1552.45" font-family="Arial" font-size="14.00" fill="#cfffac">recurring/bootstrapper.js</text>
</g>
<!-- screens/AccountEditorScreen.tsx -->
<g id="node45" class="node">
<title>screens/AccountEditorScreen.tsx</title>
<path fill="none" stroke="#c6c5fe" d="M771.33,-661.75C771.33,-661.75 572.42,-661.75 572.42,-661.75 568.46,-661.75 564.5,-657.79 564.5,-653.83 564.5,-653.83 564.5,-645.92 564.5,-645.92 564.5,-641.96 568.46,-638 572.42,-638 572.42,-638 771.33,-638 771.33,-638 775.29,-638 779.25,-641.96 779.25,-645.92 779.25,-645.92 779.25,-653.83 779.25,-653.83 779.25,-657.79 775.29,-661.75 771.33,-661.75"/>
<text xml:space="preserve" text-anchor="middle" x="671.88" y="-644.45" font-family="Arial" font-size="14.00" fill="#c6c5fe">screens/AccountEditorScreen.tsx</text>
</g>
<!-- screens/AccountEditorScreen.tsx&#45;&gt;state/AppContext.tsx -->
<g id="edge20" class="edge">
<title>screens/AccountEditorScreen.tsx&#45;&gt;state/AppContext.tsx</title>
<path fill="none" stroke="#757575" d="M766.85,-662.1C771.28,-664.58 775.46,-667.49 779.25,-670.88 871.84,-753.56 883.58,-917.3 884.62,-978.27"/>
<polygon fill="#757575" stroke="#757575" points="881.12,-978.17 884.7,-988.14 888.12,-978.11 881.12,-978.17"/>
</g>
<!-- screens/BackupRestoreScreen.tsx -->
<g id="node47" class="node">
<title>screens/BackupRestoreScreen.tsx</title>
<path fill="none" stroke="#c6c5fe" d="M513.46,-1401.75C513.46,-1401.75 306.29,-1401.75 306.29,-1401.75 302.33,-1401.75 298.38,-1397.79 298.38,-1393.83 298.38,-1393.83 298.38,-1385.92 298.38,-1385.92 298.38,-1381.96 302.33,-1378 306.29,-1378 306.29,-1378 513.46,-1378 513.46,-1378 517.42,-1378 521.38,-1381.96 521.38,-1385.92 521.38,-1385.92 521.38,-1393.83 521.38,-1393.83 521.38,-1397.79 517.42,-1401.75 513.46,-1401.75"/>
<text xml:space="preserve" text-anchor="middle" x="409.88" y="-1384.45" font-family="Arial" font-size="14.00" fill="#c6c5fe">screens/BackupRestoreScreen.tsx</text>
</g>
<!-- screens/BackupRestoreScreen.tsx&#45;&gt;state/AppContext.tsx -->
<g id="edge24" class="edge">
<title>screens/BackupRestoreScreen.tsx&#45;&gt;state/AppContext.tsx</title>
<path fill="none" stroke="#757575" d="M486.07,-1402.21C500.22,-1404.84 514.85,-1407.77 528.5,-1410.88 544.69,-1414.56 548.05,-1418.63 564.5,-1420.88 659.07,-1433.77 703.99,-1479.57 779.25,-1420.88 843.25,-1370.96 874.26,-1105.98 882.32,-1025.24"/>
<polygon fill="#757575" stroke="#757575" points="885.79,-1025.73 883.27,-1015.44 878.82,-1025.05 885.79,-1025.73"/>
</g>
<!-- screens/BackupRestoreScreen.tsx&#45;&gt;utils/backup.ts -->
<g id="edge25" class="edge">
<title>screens/BackupRestoreScreen.tsx&#45;&gt;utils/backup.ts</title>
<path fill="none" stroke="#757575" d="M489.4,-1377.57C503.71,-1372.43 517.55,-1365.16 528.5,-1354.88 562.33,-1323.11 529.22,-1287.01 564.5,-1256.88 577.06,-1246.15 593.51,-1240.31 609.7,-1237.26"/>
<polygon fill="#757575" stroke="#757575" points="609.97,-1240.76 619.33,-1235.8 608.92,-1233.84 609.97,-1240.76"/>
</g>
<!-- utils/backupReminder.ts -->
<g id="node49" class="node">
<title>utils/backupReminder.ts</title>
<path fill="none" stroke="#cfffac" d="M743.96,-1411.75C743.96,-1411.75 599.79,-1411.75 599.79,-1411.75 595.83,-1411.75 591.88,-1407.79 591.88,-1403.83 591.88,-1403.83 591.88,-1395.92 591.88,-1395.92 591.88,-1391.96 595.83,-1388 599.79,-1388 599.79,-1388 743.96,-1388 743.96,-1388 747.92,-1388 751.88,-1391.96 751.88,-1395.92 751.88,-1395.92 751.88,-1403.83 751.88,-1403.83 751.88,-1407.79 747.92,-1411.75 743.96,-1411.75"/>
<text xml:space="preserve" text-anchor="middle" x="671.88" y="-1394.45" font-family="Arial" font-size="14.00" fill="#cfffac">utils/backupReminder.ts</text>
</g>
<!-- screens/BackupRestoreScreen.tsx&#45;&gt;utils/backupReminder.ts -->
<g id="edge26" class="edge">
<title>screens/BackupRestoreScreen.tsx&#45;&gt;utils/backupReminder.ts</title>
<path fill="none" stroke="#757575" d="M521.52,-1394.13C541.07,-1394.88 561.21,-1395.66 580.13,-1396.38"/>
<polygon fill="#757575" stroke="#757575" points="579.79,-1399.87 589.92,-1396.76 580.06,-1392.88 579.79,-1399.87"/>
</g>
<!-- utils/backup.ts&#45;&gt;state/AppContext.tsx -->
<g id="edge65" class="edge">
<title>utils/backup.ts&#45;&gt;state/AppContext.tsx</title>
<path fill="none" stroke="#757575" d="M723.11,-1232.51C742.32,-1229.08 763.39,-1222.46 779.25,-1209.88 840.11,-1161.56 868.88,-1068.72 879.47,-1025.32"/>
<polygon fill="#757575" stroke="#757575" points="882.84,-1026.24 881.69,-1015.71 876.02,-1024.66 882.84,-1026.24"/>
</g>
<!-- screens/HealthCheckScreen.tsx -->
<g id="node50" class="node">
<title>screens/HealthCheckScreen.tsx</title>
<path fill="none" stroke="#c6c5fe" d="M505.96,-1485.75C505.96,-1485.75 313.79,-1485.75 313.79,-1485.75 309.83,-1485.75 305.88,-1481.79 305.88,-1477.83 305.88,-1477.83 305.88,-1469.92 305.88,-1469.92 305.88,-1465.96 309.83,-1462 313.79,-1462 313.79,-1462 505.96,-1462 505.96,-1462 509.92,-1462 513.88,-1465.96 513.88,-1469.92 513.88,-1469.92 513.88,-1477.83 513.88,-1477.83 513.88,-1481.79 509.92,-1485.75 505.96,-1485.75"/>
<text xml:space="preserve" text-anchor="middle" x="409.88" y="-1468.45" font-family="Arial" font-size="14.00" fill="#c6c5fe">screens/HealthCheckScreen.tsx</text>
</g>
<!-- screens/HealthCheckScreen.tsx&#45;&gt;db/db.ts -->
<g id="edge32" class="edge">
<title>screens/HealthCheckScreen.tsx&#45;&gt;db/db.ts</title>
<path fill="none" stroke="#757575" d="M514.01,-1477.05C553.86,-1478.27 597.23,-1479.61 628.25,-1480.56"/>
<polygon fill="#757575" stroke="#757575" points="627.89,-1484.05 637.99,-1480.86 628.1,-1477.06 627.89,-1484.05"/>
</g>
<!-- screens/HistoryScreen.tsx -->
<g id="node51" class="node">
<title>screens/HistoryScreen.tsx</title>
<path fill="none" stroke="#c6c5fe" d="M488.33,-753.75C488.33,-753.75 331.42,-753.75 331.42,-753.75 327.46,-753.75 323.5,-749.79 323.5,-745.83 323.5,-745.83 323.5,-737.92 323.5,-737.92 323.5,-733.96 327.46,-730 331.42,-730 331.42,-730 488.33,-730 488.33,-730 492.29,-730 496.25,-733.96 496.25,-737.92 496.25,-737.92 496.25,-745.83 496.25,-745.83 496.25,-749.79 492.29,-753.75 488.33,-753.75"/>
<text xml:space="preserve" text-anchor="middle" x="409.88" y="-736.45" font-family="Arial" font-size="14.00" fill="#c6c5fe">screens/HistoryScreen.tsx</text>
</g>
<!-- screens/HistoryScreen.tsx&#45;&gt;navigations/types.ts -->
<g id="edge33" class="edge">
<title>screens/HistoryScreen.tsx&#45;&gt;navigations/types.ts</title>
<path fill="none" stroke="#757575" d="M496.52,-744.62C508.44,-748.37 519.62,-754.16 528.5,-762.88 587.35,-820.64 524,-873.05 564.5,-944.88 583.25,-978.13 617.49,-1006.23 642.06,-1023.49"/>
<polygon fill="#757575" stroke="#757575" points="639.79,-1026.18 650.03,-1028.92 643.74,-1020.4 639.79,-1026.18"/>
</g>
<!-- screens/HistoryScreen.tsx&#45;&gt;state/AppContext.tsx -->
<g id="edge34" class="edge">
<title>screens/HistoryScreen.tsx&#45;&gt;state/AppContext.tsx</title>
<path fill="none" stroke="#757575" d="M496.63,-753.54C507.51,-756.08 518.38,-759.15 528.5,-762.88 545.89,-769.27 547.24,-777.15 564.5,-783.88 655.53,-819.37 699.58,-774.32 779.25,-830.88 832.09,-868.38 863.69,-941.58 877.03,-978.86"/>
<polygon fill="#757575" stroke="#757575" points="873.67,-979.86 880.23,-988.18 880.29,-977.58 873.67,-979.86"/>
</g>
<!-- screens/HomeScreen.tsx -->
<g id="node52" class="node">
<title>screens/HomeScreen.tsx</title>
<path fill="none" stroke="#cfffac" d="M203.46,-1611.75C203.46,-1611.75 51.79,-1611.75 51.79,-1611.75 47.83,-1611.75 43.88,-1607.79 43.88,-1603.83 43.88,-1603.83 43.88,-1595.92 43.88,-1595.92 43.88,-1591.96 47.83,-1588 51.79,-1588 51.79,-1588 203.46,-1588 203.46,-1588 207.42,-1588 211.38,-1591.96 211.38,-1595.92 211.38,-1595.92 211.38,-1603.83 211.38,-1603.83 211.38,-1607.79 207.42,-1611.75 203.46,-1611.75"/>
<text xml:space="preserve" text-anchor="middle" x="127.62" y="-1594.45" font-family="Arial" font-size="14.00" fill="#cfffac">screens/HomeScreen.tsx</text>
</g>
<!-- screens/LoginScreen.tsx -->
<g id="node53" class="node">
<title>screens/LoginScreen.tsx</title>
<path fill="none" stroke="#c6c5fe" d="M201.58,-1233.75C201.58,-1233.75 53.67,-1233.75 53.67,-1233.75 49.71,-1233.75 45.75,-1229.79 45.75,-1225.83 45.75,-1225.83 45.75,-1217.92 45.75,-1217.92 45.75,-1213.96 49.71,-1210 53.67,-1210 53.67,-1210 201.58,-1210 201.58,-1210 205.54,-1210 209.5,-1213.96 209.5,-1217.92 209.5,-1217.92 209.5,-1225.83 209.5,-1225.83 209.5,-1229.79 205.54,-1233.75 201.58,-1233.75"/>
<text xml:space="preserve" text-anchor="middle" x="127.62" y="-1216.45" font-family="Arial" font-size="14.00" fill="#c6c5fe">screens/LoginScreen.tsx</text>
</g>
<!-- screens/LoginScreen.tsx&#45;&gt;screens/SplashAuthScreen.tsx -->
<g id="edge36" class="edge">
<title>screens/LoginScreen.tsx&#45;&gt;screens/SplashAuthScreen.tsx</title>
<path fill="none" stroke="#757575" d="M209.71,-1231.08C225.07,-1234 240.84,-1237.85 255.25,-1242.88 272.53,-1248.91 274.01,-1256.74 291.25,-1262.88 297.38,-1265.06 303.78,-1267.02 310.29,-1268.79"/>
<polygon fill="#757575" stroke="#757575" points="309.29,-1272.14 319.84,-1271.2 311.01,-1265.36 309.29,-1272.14"/>
</g>
<!-- screens/LoginScreen.tsx&#45;&gt;navigations/types.ts -->
<g id="edge35" class="edge">
<title>screens/LoginScreen.tsx&#45;&gt;navigations/types.ts</title>
<path fill="none" stroke="#757575" d="M170.47,-1209.58C203.15,-1200.28 249.82,-1187.65 291.25,-1178.88 395.72,-1156.75 429.46,-1180.8 528.5,-1140.88 575.96,-1121.74 623.16,-1084.38 649.52,-1061.42"/>
<polygon fill="#757575" stroke="#757575" points="651.65,-1064.21 656.81,-1054.96 647.01,-1058.98 651.65,-1064.21"/>
</g>
<!-- screens/NavigationsScreen.tsx -->
<g id="node54" class="node">
<title>screens/NavigationsScreen.tsx</title>
<path fill="none" stroke="#cfffac" d="M220.33,-1653.75C220.33,-1653.75 34.92,-1653.75 34.92,-1653.75 30.96,-1653.75 27,-1649.79 27,-1645.83 27,-1645.83 27,-1637.92 27,-1637.92 27,-1633.96 30.96,-1630 34.92,-1630 34.92,-1630 220.33,-1630 220.33,-1630 224.29,-1630 228.25,-1633.96 228.25,-1637.92 228.25,-1637.92 228.25,-1645.83 228.25,-1645.83 228.25,-1649.79 224.29,-1653.75 220.33,-1653.75"/>
<text xml:space="preserve" text-anchor="middle" x="127.62" y="-1636.45" font-family="Arial" font-size="14.00" fill="#cfffac">screens/NavigationsScreen.tsx</text>
</g>
<!-- screens/ReportDetailScreen.tsx -->
<g id="node56" class="node">
<title>screens/ReportDetailScreen.tsx</title>
<path fill="none" stroke="#c6c5fe" d="M504.83,-1089.75C504.83,-1089.75 314.92,-1089.75 314.92,-1089.75 310.96,-1089.75 307,-1085.79 307,-1081.83 307,-1081.83 307,-1073.92 307,-1073.92 307,-1069.96 310.96,-1066 314.92,-1066 314.92,-1066 504.83,-1066 504.83,-1066 508.79,-1066 512.75,-1069.96 512.75,-1073.92 512.75,-1073.92 512.75,-1081.83 512.75,-1081.83 512.75,-1085.79 508.79,-1089.75 504.83,-1089.75"/>
<text xml:space="preserve" text-anchor="middle" x="409.88" y="-1072.45" font-family="Arial" font-size="14.00" fill="#c6c5fe">screens/ReportDetailScreen.tsx</text>
</g>
<!-- screens/ReportDetailScreen.tsx&#45;&gt;navigations/types.ts -->
<g id="edge44" class="edge">
<title>screens/ReportDetailScreen.tsx&#45;&gt;navigations/types.ts</title>
<path fill="none" stroke="#757575" d="M499.99,-1065.54C530.36,-1061.33 564.05,-1056.67 593.43,-1052.6"/>
<polygon fill="#757575" stroke="#757575" points="593.54,-1056.12 602.96,-1051.28 592.57,-1049.18 593.54,-1056.12"/>
</g>
<!-- screens/ReportDetailScreen.tsx&#45;&gt;state/AppContext.tsx -->
<g id="edge45" class="edge">
<title>screens/ReportDetailScreen.tsx&#45;&gt;state/AppContext.tsx</title>
<path fill="none" stroke="#757575" d="M513.04,-1086.7C588.18,-1090.09 691.97,-1088.25 779.25,-1062.88 809.05,-1054.21 839.32,-1035.39 859.7,-1020.93"/>
<polygon fill="#757575" stroke="#757575" points="861.62,-1023.86 867.64,-1015.14 857.5,-1018.21 861.62,-1023.86"/>
</g>
<!-- screens/ReportDetailScreen.tsx&#45;&gt;utils/formatDate.ts -->
<g id="edge46" class="edge">
<title>screens/ReportDetailScreen.tsx&#45;&gt;utils/formatDate.ts</title>
<path fill="none" stroke="#757575" d="M507.81,-1065.56C514.99,-1063.15 521.97,-1060.28 528.5,-1056.88 548.56,-1046.41 548.14,-1036.5 564.5,-1020.88 592.97,-993.69 626.67,-963.24 648.39,-943.83"/>
<polygon fill="#757575" stroke="#757575" points="650.65,-946.51 655.79,-937.24 645.99,-941.28 650.65,-946.51"/>
</g>
<!-- screens/ReportEditorScreen.tsx -->
<g id="node57" class="node">
<title>screens/ReportEditorScreen.tsx</title>
<path fill="none" stroke="#c6c5fe" d="M505.21,-1345.75C505.21,-1345.75 314.54,-1345.75 314.54,-1345.75 310.58,-1345.75 306.62,-1341.79 306.62,-1337.83 306.62,-1337.83 306.62,-1329.92 306.62,-1329.92 306.62,-1325.96 310.58,-1322 314.54,-1322 314.54,-1322 505.21,-1322 505.21,-1322 509.17,-1322 513.12,-1325.96 513.12,-1329.92 513.12,-1329.92 513.12,-1337.83 513.12,-1337.83 513.12,-1341.79 509.17,-1345.75 505.21,-1345.75"/>
<text xml:space="preserve" text-anchor="middle" x="409.88" y="-1328.45" font-family="Arial" font-size="14.00" fill="#c6c5fe">screens/ReportEditorScreen.tsx</text>
</g>
<!-- screens/ReportEditorScreen.tsx&#45;&gt;navigations/types.ts -->
<g id="edge47" class="edge">
<title>screens/ReportEditorScreen.tsx&#45;&gt;navigations/types.ts</title>
<path fill="none" stroke="#757575" d="M500.49,-1321.53C510.68,-1317.41 520.33,-1311.98 528.5,-1304.88 561,-1276.6 545.15,-1253.36 564.5,-1214.88 593.08,-1158.03 634.23,-1095.35 656.02,-1063.32"/>
<polygon fill="#757575" stroke="#757575" points="658.76,-1065.52 661.52,-1055.29 652.98,-1061.57 658.76,-1065.52"/>
</g>
<!-- services/reporting.ts -->
<g id="node58" class="node">
<title>services/reporting.ts</title>
<path fill="none" stroke="#cfffac" d="M732.33,-1369.75C732.33,-1369.75 611.42,-1369.75 611.42,-1369.75 607.46,-1369.75 603.5,-1365.79 603.5,-1361.83 603.5,-1361.83 603.5,-1353.92 603.5,-1353.92 603.5,-1349.96 607.46,-1346 611.42,-1346 611.42,-1346 732.33,-1346 732.33,-1346 736.29,-1346 740.25,-1349.96 740.25,-1353.92 740.25,-1353.92 740.25,-1361.83 740.25,-1361.83 740.25,-1365.79 736.29,-1369.75 732.33,-1369.75"/>
<text xml:space="preserve" text-anchor="middle" x="671.88" y="-1352.45" font-family="Arial" font-size="14.00" fill="#cfffac">services/reporting.ts</text>
</g>
<!-- screens/ReportEditorScreen.tsx&#45;&gt;services/reporting.ts -->
<g id="edge48" class="edge">
<title>screens/ReportEditorScreen.tsx&#45;&gt;services/reporting.ts</title>
<path fill="none" stroke="#757575" d="M513.26,-1343.33C539.51,-1345.75 567.33,-1348.32 592.18,-1350.61"/>
<polygon fill="#757575" stroke="#757575" points="591.58,-1354.07 601.86,-1351.5 592.22,-1347.1 591.58,-1354.07"/>
</g>
<!-- screens/ReportListScreen.tsx -->
<g id="node59" class="node">
<title>screens/ReportListScreen.tsx</title>
<path fill="none" stroke="#c6c5fe" d="M498.08,-1443.75C498.08,-1443.75 321.67,-1443.75 321.67,-1443.75 317.71,-1443.75 313.75,-1439.79 313.75,-1435.83 313.75,-1435.83 313.75,-1427.92 313.75,-1427.92 313.75,-1423.96 317.71,-1420 321.67,-1420 321.67,-1420 498.08,-1420 498.08,-1420 502.04,-1420 506,-1423.96 506,-1427.92 506,-1427.92 506,-1435.83 506,-1435.83 506,-1439.79 502.04,-1443.75 498.08,-1443.75"/>
<text xml:space="preserve" text-anchor="middle" x="409.88" y="-1426.45" font-family="Arial" font-size="14.00" fill="#c6c5fe">screens/ReportListScreen.tsx</text>
</g>
<!-- screens/ReportListScreen.tsx&#45;&gt;db/db.ts -->
<g id="edge49" class="edge">
<title>screens/ReportListScreen.tsx&#45;&gt;db/db.ts</title>
<path fill="none" stroke="#757575" d="M481.52,-1444.2C497.01,-1446.98 513.32,-1449.97 528.5,-1452.88 562.15,-1459.3 600.16,-1467.07 628.43,-1472.95"/>
<polygon fill="#757575" stroke="#757575" points="627.55,-1476.34 638.05,-1474.95 628.97,-1469.49 627.55,-1476.34"/>
</g>
<!-- screens/ReportListScreen.tsx&#45;&gt;services/reporting.ts -->
<g id="edge50" class="edge">
<title>screens/ReportListScreen.tsx&#45;&gt;services/reporting.ts</title>
<path fill="none" stroke="#757575" d="M506.37,-1419.51C514.03,-1417.12 521.5,-1414.27 528.5,-1410.88 547.76,-1401.53 545.33,-1388.39 564.5,-1378.88 573.2,-1374.56 582.71,-1371.13 592.35,-1368.4"/>
<polygon fill="#757575" stroke="#757575" points="592.97,-1371.86 601.8,-1365.99 591.24,-1365.07 592.97,-1371.86"/>
</g>
<!-- services/accounts.ts -->
<g id="node60" class="node">
<title>services/accounts.ts</title>
<path fill="none" stroke="#c6c5fe" d="M470.71,-1569.75C470.71,-1569.75 349.04,-1569.75 349.04,-1569.75 345.08,-1569.75 341.12,-1565.79 341.12,-1561.83 341.12,-1561.83 341.12,-1553.92 341.12,-1553.92 341.12,-1549.96 345.08,-1546 349.04,-1546 349.04,-1546 470.71,-1546 470.71,-1546 474.67,-1546 478.62,-1549.96 478.62,-1553.92 478.62,-1553.92 478.62,-1561.83 478.62,-1561.83 478.62,-1565.79 474.67,-1569.75 470.71,-1569.75"/>
<text xml:space="preserve" text-anchor="middle" x="409.88" y="-1552.45" font-family="Arial" font-size="14.00" fill="#c6c5fe">services/accounts.ts</text>
</g>
<!-- services/accounts.ts&#45;&gt;db/db.ts -->
<g id="edge64" class="edge">
<title>services/accounts.ts&#45;&gt;db/db.ts</title>
<path fill="none" stroke="#757575" d="M478.87,-1548.03C495.26,-1545.02 512.62,-1541.32 528.5,-1536.88 564.93,-1526.69 605.01,-1510.76 633.33,-1498.66"/>
<polygon fill="#757575" stroke="#757575" points="634.4,-1502.01 642.19,-1494.83 631.62,-1495.58 634.4,-1502.01"/>
</g>
<!-- types/expo&#45;file&#45;system.d.ts -->
<g id="node61" class="node">
<title>types/expo&#45;file&#45;system.d.ts</title>
<path fill="none" stroke="#cfffac" d="M207.96,-1695.75C207.96,-1695.75 47.29,-1695.75 47.29,-1695.75 43.33,-1695.75 39.38,-1691.79 39.38,-1687.83 39.38,-1687.83 39.38,-1679.92 39.38,-1679.92 39.38,-1675.96 43.33,-1672 47.29,-1672 47.29,-1672 207.96,-1672 207.96,-1672 211.92,-1672 215.88,-1675.96 215.88,-1679.92 215.88,-1679.92 215.88,-1687.83 215.88,-1687.83 215.88,-1691.79 211.92,-1695.75 207.96,-1695.75"/>
<text xml:space="preserve" text-anchor="middle" x="127.62" y="-1678.45" font-family="Arial" font-size="14.00" fill="#cfffac">types/expo&#45;file&#45;system.d.ts</text>
</g>
<!-- types/global.d.ts -->
<g id="node62" class="node">
<title>types/global.d.ts</title>
<path fill="none" stroke="#cfffac" d="M176.46,-1737.75C176.46,-1737.75 78.79,-1737.75 78.79,-1737.75 74.83,-1737.75 70.88,-1733.79 70.88,-1729.83 70.88,-1729.83 70.88,-1721.92 70.88,-1721.92 70.88,-1717.96 74.83,-1714 78.79,-1714 78.79,-1714 176.46,-1714 176.46,-1714 180.42,-1714 184.38,-1717.96 184.38,-1721.92 184.38,-1721.92 184.38,-1729.83 184.38,-1729.83 184.38,-1733.79 180.42,-1737.75 176.46,-1737.75"/>
<text xml:space="preserve" text-anchor="middle" x="127.62" y="-1720.45" font-family="Arial" font-size="14.00" fill="#cfffac">types/global.d.ts</text>
</g>
<!-- utils/csvTemplate.ts -->
<g id="node64" class="node">
<title>utils/csvTemplate.ts</title>
<path fill="none" stroke="#cfffac" d="M186.58,-1779.75C186.58,-1779.75 68.67,-1779.75 68.67,-1779.75 64.71,-1779.75 60.75,-1775.79 60.75,-1771.83 60.75,-1771.83 60.75,-1763.92 60.75,-1763.92 60.75,-1759.96 64.71,-1756 68.67,-1756 68.67,-1756 186.58,-1756 186.58,-1756 190.54,-1756 194.5,-1759.96 194.5,-1763.92 194.5,-1763.92 194.5,-1771.83 194.5,-1771.83 194.5,-1775.79 190.54,-1779.75 186.58,-1779.75"/>
<text xml:space="preserve" text-anchor="middle" x="127.62" y="-1762.45" font-family="Arial" font-size="14.00" fill="#cfffac">utils/csvTemplate.ts</text>
</g>
<!-- utils/csvUtils.ts -->
<g id="node65" class="node">
<title>utils/csvUtils.ts</title>
<path fill="none" stroke="#cfffac" d="M171.96,-1821.75C171.96,-1821.75 83.29,-1821.75 83.29,-1821.75 79.33,-1821.75 75.38,-1817.79 75.38,-1813.83 75.38,-1813.83 75.38,-1805.92 75.38,-1805.92 75.38,-1801.96 79.33,-1798 83.29,-1798 83.29,-1798 171.96,-1798 171.96,-1798 175.92,-1798 179.88,-1801.96 179.88,-1805.92 179.88,-1805.92 179.88,-1813.83 179.88,-1813.83 179.88,-1817.79 175.92,-1821.75 171.96,-1821.75"/>
<text xml:space="preserve" text-anchor="middle" x="127.62" y="-1804.45" font-family="Arial" font-size="14.00" fill="#cfffac">utils/csvUtils.ts</text>
</g>
<!-- utils/dateUtils.ts -->
<g id="node66" class="node">
<title>utils/dateUtils.ts</title>
<path fill="none" stroke="#cfffac" d="M174.96,-1863.75C174.96,-1863.75 80.29,-1863.75 80.29,-1863.75 76.33,-1863.75 72.38,-1859.79 72.38,-1855.83 72.38,-1855.83 72.38,-1847.92 72.38,-1847.92 72.38,-1843.96 76.33,-1840 80.29,-1840 80.29,-1840 174.96,-1840 174.96,-1840 178.92,-1840 182.88,-1843.96 182.88,-1847.92 182.88,-1847.92 182.88,-1855.83 182.88,-1855.83 182.88,-1859.79 178.92,-1863.75 174.96,-1863.75"/>
<text xml:space="preserve" text-anchor="middle" x="127.62" y="-1846.45" font-family="Arial" font-size="14.00" fill="#cfffac">utils/dateUtils.ts</text>
</g>
<!-- utils/moneyUtils.ts -->
<g id="node67" class="node">
<title>utils/moneyUtils.ts</title>
<path fill="none" stroke="#cfffac" d="M182.46,-1905.75C182.46,-1905.75 72.79,-1905.75 72.79,-1905.75 68.83,-1905.75 64.88,-1901.79 64.88,-1897.83 64.88,-1897.83 64.88,-1889.92 64.88,-1889.92 64.88,-1885.96 68.83,-1882 72.79,-1882 72.79,-1882 182.46,-1882 182.46,-1882 186.42,-1882 190.38,-1885.96 190.38,-1889.92 190.38,-1889.92 190.38,-1897.83 190.38,-1897.83 190.38,-1901.79 186.42,-1905.75 182.46,-1905.75"/>
<text xml:space="preserve" text-anchor="middle" x="127.62" y="-1888.45" font-family="Arial" font-size="14.00" fill="#cfffac">utils/moneyUtils.ts</text>
</g>
<!-- utils/notifications.ts -->
<g id="node68" class="node">
<title>utils/notifications.ts</title>
<path fill="none" stroke="#cfffac" d="M184.33,-1947.75C184.33,-1947.75 70.92,-1947.75 70.92,-1947.75 66.96,-1947.75 63,-1943.79 63,-1939.83 63,-1939.83 63,-1931.92 63,-1931.92 63,-1927.96 66.96,-1924 70.92,-1924 70.92,-1924 184.33,-1924 184.33,-1924 188.29,-1924 192.25,-1927.96 192.25,-1931.92 192.25,-1931.92 192.25,-1939.83 192.25,-1939.83 192.25,-1943.79 188.29,-1947.75 184.33,-1947.75"/>
<text xml:space="preserve" text-anchor="middle" x="127.62" y="-1930.45" font-family="Arial" font-size="14.00" fill="#cfffac">utils/notifications.ts</text>
</g>
<!-- utils/runningBalance.ts -->
<g id="node69" class="node">
<title>utils/runningBalance.ts</title>
<path fill="none" stroke="#c6c5fe" d="M739.83,-1289.75C739.83,-1289.75 603.92,-1289.75 603.92,-1289.75 599.96,-1289.75 596,-1285.79 596,-1281.83 596,-1281.83 596,-1273.92 596,-1273.92 596,-1269.96 599.96,-1266 603.92,-1266 603.92,-1266 739.83,-1266 739.83,-1266 743.79,-1266 747.75,-1269.96 747.75,-1273.92 747.75,-1273.92 747.75,-1281.83 747.75,-1281.83 747.75,-1285.79 743.79,-1289.75 739.83,-1289.75"/>
<text xml:space="preserve" text-anchor="middle" x="671.88" y="-1272.45" font-family="Arial" font-size="14.00" fill="#c6c5fe">utils/runningBalance.ts</text>
</g>
<!-- utils/runningBalance.ts&#45;&gt;state/AppContext.tsx -->
<g id="edge68" class="edge">
<title>utils/runningBalance.ts&#45;&gt;state/AppContext.tsx</title>
<path fill="none" stroke="#757575" d="M748.01,-1272.73C759.34,-1269.33 770.23,-1264.28 779.25,-1256.88 852.81,-1196.52 875.58,-1076.27 882.1,-1025.44"/>
<polygon fill="#757575" stroke="#757575" points="885.56,-1025.93 883.25,-1015.59 878.61,-1025.12 885.56,-1025.93"/>
</g>
<!-- utils/typedEntries.ts -->
<g id="node70" class="node">
<title>utils/typedEntries.ts</title>
<path fill="none" stroke="#cfffac" d="M186.21,-1989.75C186.21,-1989.75 69.04,-1989.75 69.04,-1989.75 65.08,-1989.75 61.12,-1985.79 61.12,-1981.83 61.12,-1981.83 61.12,-1973.92 61.12,-1973.92 61.12,-1969.96 65.08,-1966 69.04,-1966 69.04,-1966 186.21,-1966 186.21,-1966 190.17,-1966 194.12,-1969.96 194.12,-1973.92 194.12,-1973.92 194.12,-1981.83 194.12,-1981.83 194.12,-1985.79 190.17,-1989.75 186.21,-1989.75"/>
<text xml:space="preserve" text-anchor="middle" x="127.62" y="-1972.45" font-family="Arial" font-size="14.00" fill="#cfffac">utils/typedEntries.ts</text>
</g>
</g>
</svg>
