<?xml version="1.0" encoding="UTF-8" standalone="no"?>
<!DOCTYPE svg PUBLIC "-//W3C//DTD SVG 1.1//EN"
 "http://www.w3.org/Graphics/SVG/1.1/DTD/svg11.dtd">
<!-- Generated by graphviz version 14.1.1 (20251213.1925)
 -->
<!-- Title: G Pages: 1 -->
<svg width="999pt" height="1750pt"
 viewBox="0.00 0.00 999.00 1750.00" xmlns="http://www.w3.org/2000/svg" xmlns:xlink="http://www.w3.org/1999/xlink">
<g id="graph0" class="graph" transform="scale(1 1) rotate(0) translate(21.6 1728.35)">
<title>G</title>
<polygon fill="#111111" stroke="none" points="-21.6,21.6 -21.6,-1728.35 977.35,-1728.35 977.35,21.6 -21.6,21.6"/>
<!-- components/AccountForm.tsx -->
<g id="node1" class="node">
<title>components/AccountForm.tsx</title>
<path fill="none" stroke="#cfffac" d="M217.71,-23.75C217.71,-23.75 37.54,-23.75 37.54,-23.75 33.58,-23.75 29.62,-19.79 29.62,-15.83 29.62,-15.83 29.62,-7.92 29.62,-7.92 29.62,-3.96 33.58,0 37.54,0 37.54,0 217.71,0 217.71,0 221.67,0 225.62,-3.96 225.62,-7.92 225.62,-7.92 225.62,-15.83 225.62,-15.83 225.62,-19.79 221.67,-23.75 217.71,-23.75"/>
<text xml:space="preserve" text-anchor="middle" x="127.62" y="-6.45" font-family="Arial" font-size="14.00" fill="#cfffac">components/AccountForm.tsx</text>
</g>
<!-- components/ActionFab.tsx -->
<g id="node2" class="node">
<title>components/ActionFab.tsx</title>
<path fill="none" stroke="#cfffac" d="M207.58,-65.75C207.58,-65.75 47.67,-65.75 47.67,-65.75 43.71,-65.75 39.75,-61.79 39.75,-57.83 39.75,-57.83 39.75,-49.92 39.75,-49.92 39.75,-45.96 43.71,-42 47.67,-42 47.67,-42 207.58,-42 207.58,-42 211.54,-42 215.5,-45.96 215.5,-49.92 215.5,-49.92 215.5,-57.83 215.5,-57.83 215.5,-61.79 211.54,-65.75 207.58,-65.75"/>
<text xml:space="preserve" text-anchor="middle" x="127.62" y="-48.45" font-family="Arial" font-size="14.00" fill="#cfffac">components/ActionFab.tsx</text>
</g>
<!-- components/Center.tsx -->
<g id="node3" class="node">
<title>components/Center.tsx</title>
<path fill="none" stroke="#cfffac" d="M197.08,-107.75C197.08,-107.75 58.17,-107.75 58.17,-107.75 54.21,-107.75 50.25,-103.79 50.25,-99.83 50.25,-99.83 50.25,-91.92 50.25,-91.92 50.25,-87.96 54.21,-84 58.17,-84 58.17,-84 197.08,-84 197.08,-84 201.04,-84 205,-87.96 205,-91.92 205,-91.92 205,-99.83 205,-99.83 205,-103.79 201.04,-107.75 197.08,-107.75"/>
<text xml:space="preserve" text-anchor="middle" x="127.62" y="-90.45" font-family="Arial" font-size="14.00" fill="#cfffac">components/Center.tsx</text>
</g>
<!-- components/ErrorBoundary.tsx -->
<g id="node4" class="node">
<title>components/ErrorBoundary.tsx</title>
<path fill="none" stroke="#cfffac" d="M220.71,-149.75C220.71,-149.75 34.54,-149.75 34.54,-149.75 30.58,-149.75 26.62,-145.79 26.62,-141.83 26.62,-141.83 26.62,-133.92 26.62,-133.92 26.62,-129.96 30.58,-126 34.54,-126 34.54,-126 220.71,-126 220.71,-126 224.67,-126 228.62,-129.96 228.62,-133.92 228.62,-133.92 228.62,-141.83 228.62,-141.83 228.62,-145.79 224.67,-149.75 220.71,-149.75"/>
<text xml:space="preserve" text-anchor="middle" x="127.62" y="-132.45" font-family="Arial" font-size="14.00" fill="#cfffac">components/ErrorBoundary.tsx</text>
</g>
<!-- components/LineChart.tsx -->
<g id="node5" class="node">
<title>components/LineChart.tsx</title>
<path fill="none" stroke="#cfffac" d="M206.46,-191.75C206.46,-191.75 48.79,-191.75 48.79,-191.75 44.83,-191.75 40.88,-187.79 40.88,-183.83 40.88,-183.83 40.88,-175.92 40.88,-175.92 40.88,-171.96 44.83,-168 48.79,-168 48.79,-168 206.46,-168 206.46,-168 210.42,-168 214.38,-171.96 214.38,-175.92 214.38,-175.92 214.38,-183.83 214.38,-183.83 214.38,-187.79 210.42,-191.75 206.46,-191.75"/>
<text xml:space="preserve" text-anchor="middle" x="127.62" y="-174.45" font-family="Arial" font-size="14.00" fill="#cfffac">components/LineChart.tsx</text>
</g>
<!-- components/PaymentForm.tsx -->
<g id="node6" class="node">
<title>components/PaymentForm.tsx</title>
<path fill="none" stroke="#cfffac" d="M220.33,-233.75C220.33,-233.75 34.92,-233.75 34.92,-233.75 30.96,-233.75 27,-229.79 27,-225.83 27,-225.83 27,-217.92 27,-217.92 27,-213.96 30.96,-210 34.92,-210 34.92,-210 220.33,-210 220.33,-210 224.29,-210 228.25,-213.96 228.25,-217.92 228.25,-217.92 228.25,-225.83 228.25,-225.83 228.25,-229.79 224.29,-233.75 220.33,-233.75"/>
<text xml:space="preserve" text-anchor="middle" x="127.62" y="-216.45" font-family="Arial" font-size="14.00" fill="#cfffac">components/PaymentForm.tsx</text>
</g>
<!-- components/RecurringPayment.tsx -->
<g id="node7" class="node">
<title>components/RecurringPayment.tsx</title>
<path fill="none" stroke="#cfffac" d="M233.46,-275.75C233.46,-275.75 21.79,-275.75 21.79,-275.75 17.83,-275.75 13.88,-271.79 13.88,-267.83 13.88,-267.83 13.88,-259.92 13.88,-259.92 13.88,-255.96 17.83,-252 21.79,-252 21.79,-252 233.46,-252 233.46,-252 237.42,-252 241.38,-255.96 241.38,-259.92 241.38,-259.92 241.38,-267.83 241.38,-267.83 241.38,-271.79 237.42,-275.75 233.46,-275.75"/>
<text xml:space="preserve" text-anchor="middle" x="127.62" y="-258.45" font-family="Arial" font-size="14.00" fill="#cfffac">components/RecurringPayment.tsx</text>
</g>
<!-- components/ReportChart.tsx -->
<g id="node8" class="node">
<title>components/ReportChart.tsx</title>
<path fill="none" stroke="#c6c5fe" d="M213.96,-317.75C213.96,-317.75 41.29,-317.75 41.29,-317.75 37.33,-317.75 33.38,-313.79 33.38,-309.83 33.38,-309.83 33.38,-301.92 33.38,-301.92 33.38,-297.96 37.33,-294 41.29,-294 41.29,-294 213.96,-294 213.96,-294 217.92,-294 221.88,-297.96 221.88,-301.92 221.88,-301.92 221.88,-309.83 221.88,-309.83 221.88,-313.79 217.92,-317.75 213.96,-317.75"/>
<text xml:space="preserve" text-anchor="middle" x="127.62" y="-300.45" font-family="Arial" font-size="14.00" fill="#c6c5fe">components/ReportChart.tsx</text>
</g>
<!-- types/finance.ts -->
<g id="node9" class="node">
<title>types/finance.ts</title>
<path fill="none" stroke="#cfffac" d="M718.83,-337.75C718.83,-337.75 624.92,-337.75 624.92,-337.75 620.96,-337.75 617,-333.79 617,-329.83 617,-329.83 617,-321.92 617,-321.92 617,-317.96 620.96,-314 624.92,-314 624.92,-314 718.83,-314 718.83,-314 722.79,-314 726.75,-317.96 726.75,-321.92 726.75,-321.92 726.75,-329.83 726.75,-329.83 726.75,-333.79 722.79,-337.75 718.83,-337.75"/>
<text xml:space="preserve" text-anchor="middle" x="671.88" y="-320.45" font-family="Arial" font-size="14.00" fill="#cfffac">types/finance.ts</text>
</g>
<!-- components/ReportChart.tsx&#45;&gt;types/finance.ts -->
<g id="edge1" class="edge">
<title>components/ReportChart.tsx&#45;&gt;types/finance.ts</title>
<path fill="none" stroke="#757575" d="M222.15,-309.32C331.62,-313.36 510.05,-319.94 605.59,-323.47"/>
<polygon fill="#757575" stroke="#757575" points="605.19,-326.95 615.31,-323.83 605.45,-319.96 605.19,-326.95"/>
</g>
<!-- utils/reportUtils.ts -->
<g id="node10" class="node">
<title>utils/reportUtils.ts</title>
<path fill="none" stroke="#c6c5fe" d="M461.71,-297.75C461.71,-297.75 358.04,-297.75 358.04,-297.75 354.08,-297.75 350.12,-293.79 350.12,-289.83 350.12,-289.83 350.12,-281.92 350.12,-281.92 350.12,-277.96 354.08,-274 358.04,-274 358.04,-274 461.71,-274 461.71,-274 465.67,-274 469.62,-277.96 469.62,-281.92 469.62,-281.92 469.62,-289.83 469.62,-289.83 469.62,-293.79 465.67,-297.75 461.71,-297.75"/>
<text xml:space="preserve" text-anchor="middle" x="409.88" y="-280.45" font-family="Arial" font-size="14.00" fill="#c6c5fe">utils/reportUtils.ts</text>
</g>
<!-- components/ReportChart.tsx&#45;&gt;utils/reportUtils.ts -->
<g id="edge2" class="edge">
<title>components/ReportChart.tsx&#45;&gt;utils/reportUtils.ts</title>
<path fill="none" stroke="#757575" d="M222.33,-299.19C260.38,-296.47 303.58,-293.39 338.82,-290.87"/>
<polygon fill="#757575" stroke="#757575" points="338.73,-294.39 348.45,-290.19 338.23,-287.41 338.73,-294.39"/>
</g>
<!-- utils/reportUtils.ts&#45;&gt;types/finance.ts -->
<g id="edge67" class="edge">
<title>utils/reportUtils.ts&#45;&gt;types/finance.ts</title>
<path fill="none" stroke="#757575" d="M469.87,-294.95C510.22,-301.16 563.74,-309.39 605.4,-315.8"/>
<polygon fill="#757575" stroke="#757575" points="604.63,-319.22 615.05,-317.29 605.7,-312.31 604.63,-319.22"/>
</g>
<!-- types/report.ts -->
<g id="node57" class="node">
<title>types/report.ts</title>
<path fill="none" stroke="#cfffac" d="M714.71,-295.75C714.71,-295.75 629.04,-295.75 629.04,-295.75 625.08,-295.75 621.12,-291.79 621.12,-287.83 621.12,-287.83 621.12,-279.92 621.12,-279.92 621.12,-275.96 625.08,-272 629.04,-272 629.04,-272 714.71,-272 714.71,-272 718.67,-272 722.62,-275.96 722.62,-279.92 722.62,-279.92 722.62,-287.83 722.62,-287.83 722.62,-291.79 718.67,-295.75 714.71,-295.75"/>
<text xml:space="preserve" text-anchor="middle" x="671.88" y="-278.45" font-family="Arial" font-size="14.00" fill="#cfffac">types/report.ts</text>
</g>
<!-- utils/reportUtils.ts&#45;&gt;types/report.ts -->
<g id="edge68" class="edge">
<title>utils/reportUtils.ts&#45;&gt;types/report.ts</title>
<path fill="none" stroke="#757575" d="M469.87,-285.42C511.59,-285.1 567.39,-284.67 609.61,-284.35"/>
<polygon fill="#757575" stroke="#757575" points="609.37,-287.85 619.35,-284.27 609.32,-280.85 609.37,-287.85"/>
</g>
<!-- db/db.ts -->
<g id="node11" class="node">
<title>db/db.ts</title>
<path fill="none" stroke="#cfffac" d="M695.96,-1376.75C695.96,-1376.75 647.79,-1376.75 647.79,-1376.75 643.83,-1376.75 639.88,-1372.79 639.88,-1368.83 639.88,-1368.83 639.88,-1360.92 639.88,-1360.92 639.88,-1356.96 643.83,-1353 647.79,-1353 647.79,-1353 695.96,-1353 695.96,-1353 699.92,-1353 703.88,-1356.96 703.88,-1360.92 703.88,-1360.92 703.88,-1368.83 703.88,-1368.83 703.88,-1372.79 699.92,-1376.75 695.96,-1376.75"/>
<text xml:space="preserve" text-anchor="middle" x="671.88" y="-1359.45" font-family="Arial" font-size="14.00" fill="#cfffac">db/db.ts</text>
</g>
<!-- db/migrate.ts -->
<g id="node12" class="node">
<title>db/migrate.ts</title>
<path fill="none" stroke="#c6c5fe" d="M449.33,-1355.75C449.33,-1355.75 370.42,-1355.75 370.42,-1355.75 366.46,-1355.75 362.5,-1351.79 362.5,-1347.83 362.5,-1347.83 362.5,-1339.92 362.5,-1339.92 362.5,-1335.96 366.46,-1332 370.42,-1332 370.42,-1332 449.33,-1332 449.33,-1332 453.29,-1332 457.25,-1335.96 457.25,-1339.92 457.25,-1339.92 457.25,-1347.83 457.25,-1347.83 457.25,-1351.79 453.29,-1355.75 449.33,-1355.75"/>
<text xml:space="preserve" text-anchor="middle" x="409.88" y="-1338.45" font-family="Arial" font-size="14.00" fill="#c6c5fe">db/migrate.ts</text>
</g>
<!-- db/migrate.ts&#45;&gt;db/db.ts -->
<g id="edge3" class="edge">
<title>db/migrate.ts&#45;&gt;db/db.ts</title>
<path fill="none" stroke="#757575" d="M457.66,-1347.65C506.18,-1351.57 581.38,-1357.65 628.29,-1361.44"/>
<polygon fill="#757575" stroke="#757575" points="627.82,-1364.91 638.06,-1362.22 628.38,-1357.93 627.82,-1364.91"/>
</g>
<!-- db/migrations/003_reports.ts -->
<g id="node13" class="node">
<title>db/migrations/003_reports.ts</title>
<path fill="none" stroke="#cfffac" d="M213.58,-1076.75C213.58,-1076.75 41.67,-1076.75 41.67,-1076.75 37.71,-1076.75 33.75,-1072.79 33.75,-1068.83 33.75,-1068.83 33.75,-1060.92 33.75,-1060.92 33.75,-1056.96 37.71,-1053 41.67,-1053 41.67,-1053 213.58,-1053 213.58,-1053 217.54,-1053 221.5,-1056.96 221.5,-1060.92 221.5,-1060.92 221.5,-1068.83 221.5,-1068.83 221.5,-1072.79 217.54,-1076.75 213.58,-1076.75"/>
<text xml:space="preserve" text-anchor="middle" x="127.62" y="-1059.45" font-family="Arial" font-size="14.00" fill="#cfffac">db/migrations/003_reports.ts</text>
</g>
<!-- db/migrations/004_accounts.ts -->
<g id="node14" class="node">
<title>db/migrations/004_accounts.ts</title>
<path fill="none" stroke="#cfffac" d="M219.58,-1118.75C219.58,-1118.75 35.67,-1118.75 35.67,-1118.75 31.71,-1118.75 27.75,-1114.79 27.75,-1110.83 27.75,-1110.83 27.75,-1102.92 27.75,-1102.92 27.75,-1098.96 31.71,-1095 35.67,-1095 35.67,-1095 219.58,-1095 219.58,-1095 223.54,-1095 227.5,-1098.96 227.5,-1102.92 227.5,-1102.92 227.5,-1110.83 227.5,-1110.83 227.5,-1114.79 223.54,-1118.75 219.58,-1118.75"/>
<text xml:space="preserve" text-anchor="middle" x="127.62" y="-1101.45" font-family="Arial" font-size="14.00" fill="#cfffac">db/migrations/004_accounts.ts</text>
</g>
<!-- debug/installGlobalHandlers.tsx -->
<g id="node15" class="node">
<title>debug/installGlobalHandlers.tsx</title>
<path fill="none" stroke="#cfffac" d="M222.96,-1160.75C222.96,-1160.75 32.29,-1160.75 32.29,-1160.75 28.33,-1160.75 24.38,-1156.79 24.38,-1152.83 24.38,-1152.83 24.38,-1144.92 24.38,-1144.92 24.38,-1140.96 28.33,-1137 32.29,-1137 32.29,-1137 222.96,-1137 222.96,-1137 226.92,-1137 230.88,-1140.96 230.88,-1144.92 230.88,-1144.92 230.88,-1152.83 230.88,-1152.83 230.88,-1156.79 226.92,-1160.75 222.96,-1160.75"/>
<text xml:space="preserve" text-anchor="middle" x="127.62" y="-1143.45" font-family="Arial" font-size="14.00" fill="#cfffac">debug/installGlobalHandlers.tsx</text>
</g>
<!-- dev/resetDb.ts -->
<g id="node16" class="node">
<title>dev/resetDb.ts</title>
<path fill="none" stroke="#cfffac" d="M715.46,-548.75C715.46,-548.75 628.29,-548.75 628.29,-548.75 624.33,-548.75 620.38,-544.79 620.38,-540.83 620.38,-540.83 620.38,-532.92 620.38,-532.92 620.38,-528.96 624.33,-525 628.29,-525 628.29,-525 715.46,-525 715.46,-525 719.42,-525 723.38,-528.96 723.38,-532.92 723.38,-532.92 723.38,-540.83 723.38,-540.83 723.38,-544.79 719.42,-548.75 715.46,-548.75"/>
<text xml:space="preserve" text-anchor="middle" x="671.88" y="-531.45" font-family="Arial" font-size="14.00" fill="#cfffac">dev/resetDb.ts</text>
</g>
<!-- hooks/useAppReady.ts -->
<g id="node17" class="node">
<title>hooks/useAppReady.ts</title>
<path fill="none" stroke="#cfffac" d="M196.71,-1202.75C196.71,-1202.75 58.54,-1202.75 58.54,-1202.75 54.58,-1202.75 50.62,-1198.79 50.62,-1194.83 50.62,-1194.83 50.62,-1186.92 50.62,-1186.92 50.62,-1182.96 54.58,-1179 58.54,-1179 58.54,-1179 196.71,-1179 196.71,-1179 200.67,-1179 204.62,-1182.96 204.62,-1186.92 204.62,-1186.92 204.62,-1194.83 204.62,-1194.83 204.62,-1198.79 200.67,-1202.75 196.71,-1202.75"/>
<text xml:space="preserve" text-anchor="middle" x="127.62" y="-1185.45" font-family="Arial" font-size="14.00" fill="#cfffac">hooks/useAppReady.ts</text>
</g>
<!-- layout/Layout.js -->
<g id="node18" class="node">
<title>layout/Layout.js</title>
<path fill="none" stroke="#cfffac" d="M174.58,-1244.75C174.58,-1244.75 80.67,-1244.75 80.67,-1244.75 76.71,-1244.75 72.75,-1240.79 72.75,-1236.83 72.75,-1236.83 72.75,-1228.92 72.75,-1228.92 72.75,-1224.96 76.71,-1221 80.67,-1221 80.67,-1221 174.58,-1221 174.58,-1221 178.54,-1221 182.5,-1224.96 182.5,-1228.92 182.5,-1228.92 182.5,-1236.83 182.5,-1236.83 182.5,-1240.79 178.54,-1244.75 174.58,-1244.75"/>
<text xml:space="preserve" text-anchor="middle" x="127.62" y="-1227.45" font-family="Arial" font-size="14.00" fill="#cfffac">layout/Layout.js</text>
</g>
<!-- navigations/RootNavigator.tsx -->
<g id="node19" class="node">
<title>navigations/RootNavigator.tsx</title>
<path fill="none" stroke="#c6c5fe" d="M216.96,-743.75C216.96,-743.75 38.29,-743.75 38.29,-743.75 34.33,-743.75 30.38,-739.79 30.38,-735.83 30.38,-735.83 30.38,-727.92 30.38,-727.92 30.38,-723.96 34.33,-720 38.29,-720 38.29,-720 216.96,-720 216.96,-720 220.92,-720 224.88,-723.96 224.88,-727.92 224.88,-727.92 224.88,-735.83 224.88,-735.83 224.88,-739.79 220.92,-743.75 216.96,-743.75"/>
<text xml:space="preserve" text-anchor="middle" x="127.62" y="-726.45" font-family="Arial" font-size="14.00" fill="#c6c5fe">navigations/RootNavigator.tsx</text>
</g>
<!-- screens/AccountScreen.tsx -->
<g id="node20" class="node">
<title>screens/AccountScreen.tsx</title>
<path fill="none" stroke="#c6c5fe" d="M491.71,-659.75C491.71,-659.75 328.04,-659.75 328.04,-659.75 324.08,-659.75 320.12,-655.79 320.12,-651.83 320.12,-651.83 320.12,-643.92 320.12,-643.92 320.12,-639.96 324.08,-636 328.04,-636 328.04,-636 491.71,-636 491.71,-636 495.67,-636 499.62,-639.96 499.62,-643.92 499.62,-643.92 499.62,-651.83 499.62,-651.83 499.62,-655.79 495.67,-659.75 491.71,-659.75"/>
<text xml:space="preserve" text-anchor="middle" x="409.88" y="-642.45" font-family="Arial" font-size="14.00" fill="#c6c5fe">screens/AccountScreen.tsx</text>
</g>
<!-- navigations/RootNavigator.tsx&#45;&gt;screens/AccountScreen.tsx -->
<g id="edge4" class="edge">
<title>navigations/RootNavigator.tsx&#45;&gt;screens/AccountScreen.tsx</title>
<path fill="none" stroke="#757575" d="M155.7,-719.52C187.54,-705.44 242.27,-682.6 291.25,-668.88 299.47,-666.57 308.08,-664.47 316.75,-662.56"/>
<polygon fill="#757575" stroke="#757575" points="317.19,-666.04 326.25,-660.55 315.75,-659.19 317.19,-666.04"/>
</g>
<!-- screens/AddAccountScreen.tsx -->
<g id="node21" class="node">
<title>screens/AddAccountScreen.tsx</title>
<path fill="none" stroke="#c6c5fe" d="M765.71,-1069.75C765.71,-1069.75 578.04,-1069.75 578.04,-1069.75 574.08,-1069.75 570.12,-1065.79 570.12,-1061.83 570.12,-1061.83 570.12,-1053.92 570.12,-1053.92 570.12,-1049.96 574.08,-1046 578.04,-1046 578.04,-1046 765.71,-1046 765.71,-1046 769.67,-1046 773.62,-1049.96 773.62,-1053.92 773.62,-1053.92 773.62,-1061.83 773.62,-1061.83 773.62,-1065.79 769.67,-1069.75 765.71,-1069.75"/>
<text xml:space="preserve" text-anchor="middle" x="671.88" y="-1052.45" font-family="Arial" font-size="14.00" fill="#c6c5fe">screens/AddAccountScreen.tsx</text>
</g>
<!-- navigations/RootNavigator.tsx&#45;&gt;screens/AddAccountScreen.tsx -->
<g id="edge5" class="edge">
<title>navigations/RootNavigator.tsx&#45;&gt;screens/AddAccountScreen.tsx</title>
<path fill="none" stroke="#757575" d="M134.56,-744.2C152.89,-782.32 210.1,-901.83 255.25,-1001.88 271.79,-1038.53 257.63,-1062.81 291.25,-1084.88 379.41,-1142.73 424.02,-1099.12 528.5,-1084.88 544.95,-1082.63 548.28,-1078.41 564.5,-1074.88 568.48,-1074.01 572.55,-1073.16 576.67,-1072.35"/>
<polygon fill="#757575" stroke="#757575" points="577.01,-1075.85 586.18,-1070.53 575.7,-1068.97 577.01,-1075.85"/>
</g>
<!-- screens/BudgetEditorScreen.tsx -->
<g id="node22" class="node">
<title>screens/BudgetEditorScreen.tsx</title>
<path fill="none" stroke="#c6c5fe" d="M768.33,-506.75C768.33,-506.75 575.42,-506.75 575.42,-506.75 571.46,-506.75 567.5,-502.79 567.5,-498.83 567.5,-498.83 567.5,-490.92 567.5,-490.92 567.5,-486.96 571.46,-483 575.42,-483 575.42,-483 768.33,-483 768.33,-483 772.29,-483 776.25,-486.96 776.25,-490.92 776.25,-490.92 776.25,-498.83 776.25,-498.83 776.25,-502.79 772.29,-506.75 768.33,-506.75"/>
<text xml:space="preserve" text-anchor="middle" x="671.88" y="-489.45" font-family="Arial" font-size="14.00" fill="#c6c5fe">screens/BudgetEditorScreen.tsx</text>
</g>
<!-- navigations/RootNavigator.tsx&#45;&gt;screens/BudgetEditorScreen.tsx -->
<g id="edge6" class="edge">
<title>navigations/RootNavigator.tsx&#45;&gt;screens/BudgetEditorScreen.tsx</title>
<path fill="none" stroke="#757575" d="M131.4,-719.54C142.28,-674.48 186.69,-518.3 291.25,-458.88 382.93,-406.78 425.1,-438.2 528.5,-458.88 545.5,-462.27 547.91,-468.84 564.5,-473.88 571.7,-476.06 579.25,-478.08 586.85,-479.92"/>
<polygon fill="#757575" stroke="#757575" points="586,-483.32 596.54,-482.16 587.58,-476.5 586,-483.32"/>
</g>
<!-- screens/BudgetsScreen.tsx -->
<g id="node23" class="node">
<title>screens/BudgetsScreen.tsx</title>
<path fill="none" stroke="#c6c5fe" d="M754.08,-464.75C754.08,-464.75 589.67,-464.75 589.67,-464.75 585.71,-464.75 581.75,-460.79 581.75,-456.83 581.75,-456.83 581.75,-448.92 581.75,-448.92 581.75,-444.96 585.71,-441 589.67,-441 589.67,-441 754.08,-441 754.08,-441 758.04,-441 762,-444.96 762,-448.92 762,-448.92 762,-456.83 762,-456.83 762,-460.79 758.04,-464.75 754.08,-464.75"/>
<text xml:space="preserve" text-anchor="middle" x="671.88" y="-447.45" font-family="Arial" font-size="14.00" fill="#c6c5fe">screens/BudgetsScreen.tsx</text>
</g>
<!-- navigations/RootNavigator.tsx&#45;&gt;screens/BudgetsScreen.tsx -->
<g id="edge7" class="edge">
<title>navigations/RootNavigator.tsx&#45;&gt;screens/BudgetsScreen.tsx</title>
<path fill="none" stroke="#757575" d="M130.65,-719.51C139.31,-671.23 178.05,-494.8 291.25,-426.88 341.4,-396.78 503.76,-420.75 599.14,-438.4"/>
<polygon fill="#757575" stroke="#757575" points="598.47,-441.83 608.94,-440.23 599.76,-434.95 598.47,-441.83"/>
</g>
<!-- screens/DashboardScreen.tsx -->
<g id="node24" class="node">
<title>screens/DashboardScreen.tsx</title>
<path fill="none" stroke="#c6c5fe" d="M500.33,-617.75C500.33,-617.75 319.42,-617.75 319.42,-617.75 315.46,-617.75 311.5,-613.79 311.5,-609.83 311.5,-609.83 311.5,-601.92 311.5,-601.92 311.5,-597.96 315.46,-594 319.42,-594 319.42,-594 500.33,-594 500.33,-594 504.29,-594 508.25,-597.96 508.25,-601.92 508.25,-601.92 508.25,-609.83 508.25,-609.83 508.25,-613.79 504.29,-617.75 500.33,-617.75"/>
<text xml:space="preserve" text-anchor="middle" x="409.88" y="-600.45" font-family="Arial" font-size="14.00" fill="#c6c5fe">screens/DashboardScreen.tsx</text>
</g>
<!-- navigations/RootNavigator.tsx&#45;&gt;screens/DashboardScreen.tsx -->
<g id="edge8" class="edge">
<title>navigations/RootNavigator.tsx&#45;&gt;screens/DashboardScreen.tsx</title>
<path fill="none" stroke="#757575" d="M143.2,-719.55C170.39,-697.26 231.52,-650.39 291.25,-626.88 296.54,-624.79 302.05,-622.91 307.67,-621.22"/>
<polygon fill="#757575" stroke="#757575" points="308.42,-624.64 317.12,-618.59 306.55,-617.9 308.42,-624.64"/>
</g>
<!-- screens/DataExportImportScreen.tsx -->
<g id="node25" class="node">
<title>screens/DataExportImportScreen.tsx</title>
<path fill="none" stroke="#c6c5fe" d="M520.58,-1155.75C520.58,-1155.75 299.17,-1155.75 299.17,-1155.75 295.21,-1155.75 291.25,-1151.79 291.25,-1147.83 291.25,-1147.83 291.25,-1139.92 291.25,-1139.92 291.25,-1135.96 295.21,-1132 299.17,-1132 299.17,-1132 520.58,-1132 520.58,-1132 524.54,-1132 528.5,-1135.96 528.5,-1139.92 528.5,-1139.92 528.5,-1147.83 528.5,-1147.83 528.5,-1151.79 524.54,-1155.75 520.58,-1155.75"/>
<text xml:space="preserve" text-anchor="middle" x="409.88" y="-1138.45" font-family="Arial" font-size="14.00" fill="#c6c5fe">screens/DataExportImportScreen.tsx</text>
</g>
<!-- navigations/RootNavigator.tsx&#45;&gt;screens/DataExportImportScreen.tsx -->
<g id="edge9" class="edge">
<title>navigations/RootNavigator.tsx&#45;&gt;screens/DataExportImportScreen.tsx</title>
<path fill="none" stroke="#757575" d="M135.05,-743.99C154.78,-781.53 215.59,-899.53 255.25,-1001.88 274.76,-1052.21 251.52,-1081.33 291.25,-1117.88 294.57,-1120.93 298.18,-1123.66 301.98,-1126.09"/>
<polygon fill="#757575" stroke="#757575" points="300.06,-1129.03 310.51,-1130.81 303.45,-1122.9 300.06,-1129.03"/>
</g>
<!-- screens/ImportCsvScreen.tsx -->
<g id="node26" class="node">
<title>screens/ImportCsvScreen.tsx</title>
<path fill="none" stroke="#cfffac" d="M498.46,-785.75C498.46,-785.75 321.29,-785.75 321.29,-785.75 317.33,-785.75 313.38,-781.79 313.38,-777.83 313.38,-777.83 313.38,-769.92 313.38,-769.92 313.38,-765.96 317.33,-762 321.29,-762 321.29,-762 498.46,-762 498.46,-762 502.42,-762 506.38,-765.96 506.38,-769.92 506.38,-769.92 506.38,-777.83 506.38,-777.83 506.38,-781.79 502.42,-785.75 498.46,-785.75"/>
<text xml:space="preserve" text-anchor="middle" x="409.88" y="-768.45" font-family="Arial" font-size="14.00" fill="#cfffac">screens/ImportCsvScreen.tsx</text>
</g>
<!-- navigations/RootNavigator.tsx&#45;&gt;screens/ImportCsvScreen.tsx -->
<g id="edge10" class="edge">
<title>navigations/RootNavigator.tsx&#45;&gt;screens/ImportCsvScreen.tsx</title>
<path fill="none" stroke="#757575" d="M211.19,-744.25C243.83,-749.14 281.51,-754.79 315.17,-759.83"/>
<polygon fill="#757575" stroke="#757575" points="314.51,-763.27 324.92,-761.29 315.55,-756.35 314.51,-763.27"/>
</g>
<!-- screens/NotificationsScreen.tsx -->
<g id="node27" class="node">
<title>screens/NotificationsScreen.tsx</title>
<path fill="none" stroke="#cfffac" d="M504.08,-743.75C504.08,-743.75 315.67,-743.75 315.67,-743.75 311.71,-743.75 307.75,-739.79 307.75,-735.83 307.75,-735.83 307.75,-727.92 307.75,-727.92 307.75,-723.96 311.71,-720 315.67,-720 315.67,-720 504.08,-720 504.08,-720 508.04,-720 512,-723.96 512,-727.92 512,-727.92 512,-735.83 512,-735.83 512,-739.79 508.04,-743.75 504.08,-743.75"/>
<text xml:space="preserve" text-anchor="middle" x="409.88" y="-726.45" font-family="Arial" font-size="14.00" fill="#cfffac">screens/NotificationsScreen.tsx</text>
</g>
<!-- navigations/RootNavigator.tsx&#45;&gt;screens/NotificationsScreen.tsx -->
<g id="edge11" class="edge">
<title>navigations/RootNavigator.tsx&#45;&gt;screens/NotificationsScreen.tsx</title>
<path fill="none" stroke="#757575" d="M225.07,-731.88C247.93,-731.88 272.51,-731.88 296.03,-731.88"/>
<polygon fill="#757575" stroke="#757575" points="295.96,-735.38 305.96,-731.88 295.96,-728.38 295.96,-735.38"/>
</g>
<!-- screens/PaymentsScreen.tsx -->
<g id="node28" class="node">
<title>screens/PaymentsScreen.tsx</title>
<path fill="none" stroke="#c6c5fe" d="M497.71,-1033.75C497.71,-1033.75 322.04,-1033.75 322.04,-1033.75 318.08,-1033.75 314.12,-1029.79 314.12,-1025.83 314.12,-1025.83 314.12,-1017.92 314.12,-1017.92 314.12,-1013.96 318.08,-1010 322.04,-1010 322.04,-1010 497.71,-1010 497.71,-1010 501.67,-1010 505.62,-1013.96 505.62,-1017.92 505.62,-1017.92 505.62,-1025.83 505.62,-1025.83 505.62,-1029.79 501.67,-1033.75 497.71,-1033.75"/>
<text xml:space="preserve" text-anchor="middle" x="409.88" y="-1016.45" font-family="Arial" font-size="14.00" fill="#c6c5fe">screens/PaymentsScreen.tsx</text>
</g>
<!-- navigations/RootNavigator.tsx&#45;&gt;screens/PaymentsScreen.tsx -->
<g id="edge12" class="edge">
<title>navigations/RootNavigator.tsx&#45;&gt;screens/PaymentsScreen.tsx</title>
<path fill="none" stroke="#757575" d="M134.4,-743.99C152.64,-781.13 212.48,-895.01 291.25,-962.88 312.32,-981.03 339.94,-995.25 363.13,-1005.19"/>
<polygon fill="#757575" stroke="#757575" points="361.79,-1008.42 372.37,-1009 364.46,-1001.95 361.79,-1008.42"/>
</g>
<!-- screens/RecentActivityScreen.tsx -->
<g id="node29" class="node">
<title>screens/RecentActivityScreen.tsx</title>
<path fill="none" stroke="#c6c5fe" d="M510.08,-953.75C510.08,-953.75 309.67,-953.75 309.67,-953.75 305.71,-953.75 301.75,-949.79 301.75,-945.83 301.75,-945.83 301.75,-937.92 301.75,-937.92 301.75,-933.96 305.71,-930 309.67,-930 309.67,-930 510.08,-930 510.08,-930 514.04,-930 518,-933.96 518,-937.92 518,-937.92 518,-945.83 518,-945.83 518,-949.79 514.04,-953.75 510.08,-953.75"/>
<text xml:space="preserve" text-anchor="middle" x="409.88" y="-936.45" font-family="Arial" font-size="14.00" fill="#c6c5fe">screens/RecentActivityScreen.tsx</text>
</g>
<!-- navigations/RootNavigator.tsx&#45;&gt;screens/RecentActivityScreen.tsx -->
<g id="edge13" class="edge">
<title>navigations/RootNavigator.tsx&#45;&gt;screens/RecentActivityScreen.tsx</title>
<path fill="none" stroke="#757575" d="M135.11,-744.11C154,-778.44 212.67,-876.04 291.25,-920.88 293.94,-922.41 296.72,-923.84 299.57,-925.17"/>
<polygon fill="#757575" stroke="#757575" points="298.17,-928.38 308.75,-928.97 300.85,-921.91 298.17,-928.38"/>
</g>
<!-- screens/RecurringEditorScreen.tsx -->
<g id="node30" class="node">
<title>screens/RecurringEditorScreen.tsx</title>
<path fill="none" stroke="#cfffac" d="M514.21,-533.75C514.21,-533.75 305.54,-533.75 305.54,-533.75 301.58,-533.75 297.62,-529.79 297.62,-525.83 297.62,-525.83 297.62,-517.92 297.62,-517.92 297.62,-513.96 301.58,-510 305.54,-510 305.54,-510 514.21,-510 514.21,-510 518.17,-510 522.12,-513.96 522.12,-517.92 522.12,-517.92 522.12,-525.83 522.12,-525.83 522.12,-529.79 518.17,-533.75 514.21,-533.75"/>
<text xml:space="preserve" text-anchor="middle" x="409.88" y="-516.45" font-family="Arial" font-size="14.00" fill="#cfffac">screens/RecurringEditorScreen.tsx</text>
</g>
<!-- navigations/RootNavigator.tsx&#45;&gt;screens/RecurringEditorScreen.tsx -->
<g id="edge14" class="edge">
<title>navigations/RootNavigator.tsx&#45;&gt;screens/RecurringEditorScreen.tsx</title>
<path fill="none" stroke="#757575" d="M135.11,-719.64C154,-685.31 212.67,-587.71 291.25,-542.88 293.94,-541.34 296.72,-539.91 299.57,-538.58"/>
<polygon fill="#757575" stroke="#757575" points="300.85,-541.84 308.75,-534.78 298.17,-535.37 300.85,-541.84"/>
</g>
<!-- screens/RecurringScreen.tsx -->
<g id="node31" class="node">
<title>screens/RecurringScreen.tsx</title>
<path fill="none" stroke="#c6c5fe" d="M496.58,-575.75C496.58,-575.75 323.17,-575.75 323.17,-575.75 319.21,-575.75 315.25,-571.79 315.25,-567.83 315.25,-567.83 315.25,-559.92 315.25,-559.92 315.25,-555.96 319.21,-552 323.17,-552 323.17,-552 496.58,-552 496.58,-552 500.54,-552 504.5,-555.96 504.5,-559.92 504.5,-559.92 504.5,-567.83 504.5,-567.83 504.5,-571.79 500.54,-575.75 496.58,-575.75"/>
<text xml:space="preserve" text-anchor="middle" x="409.88" y="-558.45" font-family="Arial" font-size="14.00" fill="#c6c5fe">screens/RecurringScreen.tsx</text>
</g>
<!-- navigations/RootNavigator.tsx&#45;&gt;screens/RecurringScreen.tsx -->
<g id="edge15" class="edge">
<title>navigations/RootNavigator.tsx&#45;&gt;screens/RecurringScreen.tsx</title>
<path fill="none" stroke="#757575" d="M138.07,-719.53C160.88,-690.68 222.22,-618.72 291.25,-584.88 295.44,-582.82 299.8,-580.96 304.28,-579.29"/>
<polygon fill="#757575" stroke="#757575" points="305.1,-582.71 313.45,-576.18 302.85,-576.08 305.1,-582.71"/>
</g>
<!-- screens/ReportsScreen.tsx -->
<g id="node32" class="node">
<title>screens/ReportsScreen.tsx</title>
<path fill="none" stroke="#c6c5fe" d="M752.96,-422.75C752.96,-422.75 590.79,-422.75 590.79,-422.75 586.83,-422.75 582.88,-418.79 582.88,-414.83 582.88,-414.83 582.88,-406.92 582.88,-406.92 582.88,-402.96 586.83,-399 590.79,-399 590.79,-399 752.96,-399 752.96,-399 756.92,-399 760.88,-402.96 760.88,-406.92 760.88,-406.92 760.88,-414.83 760.88,-414.83 760.88,-418.79 756.92,-422.75 752.96,-422.75"/>
<text xml:space="preserve" text-anchor="middle" x="671.88" y="-405.45" font-family="Arial" font-size="14.00" fill="#c6c5fe">screens/ReportsScreen.tsx</text>
</g>
<!-- navigations/RootNavigator.tsx&#45;&gt;screens/ReportsScreen.tsx -->
<g id="edge16" class="edge">
<title>navigations/RootNavigator.tsx&#45;&gt;screens/ReportsScreen.tsx</title>
<path fill="none" stroke="#757575" d="M130.24,-719.83C137.59,-670.34 172.85,-481.82 291.25,-408.88 336.39,-381.07 474.72,-389 571.29,-398.73"/>
<polygon fill="#757575" stroke="#757575" points="570.74,-402.2 581.05,-399.74 571.46,-395.23 570.74,-402.2"/>
</g>
<!-- screens/SettingsScreen.tsx -->
<g id="node33" class="node">
<title>screens/SettingsScreen.tsx</title>
<path fill="none" stroke="#c6c5fe" d="M491.71,-491.75C491.71,-491.75 328.04,-491.75 328.04,-491.75 324.08,-491.75 320.12,-487.79 320.12,-483.83 320.12,-483.83 320.12,-475.92 320.12,-475.92 320.12,-471.96 324.08,-468 328.04,-468 328.04,-468 491.71,-468 491.71,-468 495.67,-468 499.62,-471.96 499.62,-475.92 499.62,-475.92 499.62,-483.83 499.62,-483.83 499.62,-487.79 495.67,-491.75 491.71,-491.75"/>
<text xml:space="preserve" text-anchor="middle" x="409.88" y="-474.45" font-family="Arial" font-size="14.00" fill="#c6c5fe">screens/SettingsScreen.tsx</text>
</g>
<!-- navigations/RootNavigator.tsx&#45;&gt;screens/SettingsScreen.tsx -->
<g id="edge17" class="edge">
<title>navigations/RootNavigator.tsx&#45;&gt;screens/SettingsScreen.tsx</title>
<path fill="none" stroke="#757575" d="M133.28,-719.54C148.81,-680.22 202.93,-557.12 291.25,-500.88 296.8,-497.34 302.78,-494.36 308.99,-491.85"/>
<polygon fill="#757575" stroke="#757575" points="309.98,-495.22 318.22,-488.56 307.63,-488.62 309.98,-495.22"/>
</g>
<!-- screens/SplashAuthScreen.tsx -->
<g id="node34" class="node">
<title>screens/SplashAuthScreen.tsx</title>
<path fill="none" stroke="#c6c5fe" d="M501.83,-1075.75C501.83,-1075.75 317.92,-1075.75 317.92,-1075.75 313.96,-1075.75 310,-1071.79 310,-1067.83 310,-1067.83 310,-1059.92 310,-1059.92 310,-1055.96 313.96,-1052 317.92,-1052 317.92,-1052 501.83,-1052 501.83,-1052 505.79,-1052 509.75,-1055.96 509.75,-1059.92 509.75,-1059.92 509.75,-1067.83 509.75,-1067.83 509.75,-1071.79 505.79,-1075.75 501.83,-1075.75"/>
<text xml:space="preserve" text-anchor="middle" x="409.88" y="-1058.45" font-family="Arial" font-size="14.00" fill="#c6c5fe">screens/SplashAuthScreen.tsx</text>
</g>
<!-- navigations/RootNavigator.tsx&#45;&gt;screens/SplashAuthScreen.tsx -->
<g id="edge18" class="edge">
<title>navigations/RootNavigator.tsx&#45;&gt;screens/SplashAuthScreen.tsx</title>
<path fill="none" stroke="#757575" d="M133.3,-744.04C153.73,-796.53 236.47,-1002.7 291.25,-1042.88 293.92,-1044.83 296.71,-1046.62 299.59,-1048.27"/>
<polygon fill="#757575" stroke="#757575" points="297.88,-1051.33 308.4,-1052.63 300.99,-1045.05 297.88,-1051.33"/>
</g>
<!-- screens/TransferScreen.tsx -->
<g id="node35" class="node">
<title>screens/TransferScreen.tsx</title>
<path fill="none" stroke="#c6c5fe" d="M492.46,-869.75C492.46,-869.75 327.29,-869.75 327.29,-869.75 323.33,-869.75 319.38,-865.79 319.38,-861.83 319.38,-861.83 319.38,-853.92 319.38,-853.92 319.38,-849.96 323.33,-846 327.29,-846 327.29,-846 492.46,-846 492.46,-846 496.42,-846 500.38,-849.96 500.38,-853.92 500.38,-853.92 500.38,-861.83 500.38,-861.83 500.38,-865.79 496.42,-869.75 492.46,-869.75"/>
<text xml:space="preserve" text-anchor="middle" x="409.88" y="-852.45" font-family="Arial" font-size="14.00" fill="#c6c5fe">screens/TransferScreen.tsx</text>
</g>
<!-- navigations/RootNavigator.tsx&#45;&gt;screens/TransferScreen.tsx -->
<g id="edge19" class="edge">
<title>navigations/RootNavigator.tsx&#45;&gt;screens/TransferScreen.tsx</title>
<path fill="none" stroke="#757575" d="M143.2,-744.2C170.39,-766.49 231.52,-813.36 291.25,-836.88 296.6,-838.98 302.17,-840.88 307.86,-842.59"/>
<polygon fill="#757575" stroke="#757575" points="306.86,-845.94 317.43,-845.24 308.73,-839.2 306.86,-845.94"/>
</g>
<!-- screens/TxnEditorScreen.tsx -->
<g id="node36" class="node">
<title>screens/TxnEditorScreen.tsx</title>
<path fill="none" stroke="#c6c5fe" d="M496.21,-911.75C496.21,-911.75 323.54,-911.75 323.54,-911.75 319.58,-911.75 315.62,-907.79 315.62,-903.83 315.62,-903.83 315.62,-895.92 315.62,-895.92 315.62,-891.96 319.58,-888 323.54,-888 323.54,-888 496.21,-888 496.21,-888 500.17,-888 504.12,-891.96 504.12,-895.92 504.12,-895.92 504.12,-903.83 504.12,-903.83 504.12,-907.79 500.17,-911.75 496.21,-911.75"/>
<text xml:space="preserve" text-anchor="middle" x="409.88" y="-894.45" font-family="Arial" font-size="14.00" fill="#c6c5fe">screens/TxnEditorScreen.tsx</text>
</g>
<!-- navigations/RootNavigator.tsx&#45;&gt;screens/TxnEditorScreen.tsx -->
<g id="edge20" class="edge">
<title>navigations/RootNavigator.tsx&#45;&gt;screens/TxnEditorScreen.tsx</title>
<path fill="none" stroke="#757575" d="M138.07,-744.22C160.88,-773.07 222.22,-845.03 291.25,-878.88 295.49,-880.96 299.91,-882.83 304.44,-884.52"/>
<polygon fill="#757575" stroke="#757575" points="303.16,-887.78 313.75,-887.66 305.4,-881.15 303.16,-887.78"/>
</g>
<!-- navigations/types.ts -->
<g id="node38" class="node">
<title>navigations/types.ts</title>
<path fill="none" stroke="#cfffac" d="M731.21,-875.75C731.21,-875.75 612.54,-875.75 612.54,-875.75 608.58,-875.75 604.62,-871.79 604.62,-867.83 604.62,-867.83 604.62,-859.92 604.62,-859.92 604.62,-855.96 608.58,-852 612.54,-852 612.54,-852 731.21,-852 731.21,-852 735.17,-852 739.12,-855.96 739.12,-859.92 739.12,-859.92 739.12,-867.83 739.12,-867.83 739.12,-871.79 735.17,-875.75 731.21,-875.75"/>
<text xml:space="preserve" text-anchor="middle" x="671.88" y="-858.45" font-family="Arial" font-size="14.00" fill="#cfffac">navigations/types.ts</text>
</g>
<!-- screens/AccountScreen.tsx&#45;&gt;navigations/types.ts -->
<g id="edge22" class="edge">
<title>screens/AccountScreen.tsx&#45;&gt;navigations/types.ts</title>
<path fill="none" stroke="#757575" d="M499.91,-652.39C510.45,-656.06 520.34,-661.36 528.5,-668.88 574.49,-711.24 526.09,-755.54 564.5,-804.88 579.25,-823.82 601.88,-837.57 622.48,-847.01"/>
<polygon fill="#757575" stroke="#757575" points="621.05,-850.21 631.62,-850.96 623.83,-843.78 621.05,-850.21"/>
</g>
<!-- state/AppContext.tsx -->
<g id="node42" class="node">
<title>state/AppContext.tsx</title>
<path fill="none" stroke="#cfffac" d="M947.83,-835.75C947.83,-835.75 823.17,-835.75 823.17,-835.75 819.21,-835.75 815.25,-831.79 815.25,-827.83 815.25,-827.83 815.25,-819.92 815.25,-819.92 815.25,-815.96 819.21,-812 823.17,-812 823.17,-812 947.83,-812 947.83,-812 951.79,-812 955.75,-815.96 955.75,-819.92 955.75,-819.92 955.75,-827.83 955.75,-827.83 955.75,-831.79 951.79,-835.75 947.83,-835.75"/>
<text xml:space="preserve" text-anchor="middle" x="885.5" y="-818.45" font-family="Arial" font-size="14.00" fill="#cfffac">state/AppContext.tsx</text>
</g>
<!-- screens/AccountScreen.tsx&#45;&gt;state/AppContext.tsx -->
<g id="edge23" class="edge">
<title>screens/AccountScreen.tsx&#45;&gt;state/AppContext.tsx</title>
<path fill="none" stroke="#757575" d="M499.88,-649.33C593.31,-652.24 732.96,-660.95 779.25,-686.88 826.3,-713.23 859.18,-770.14 874.58,-801.69"/>
<polygon fill="#757575" stroke="#757575" points="871.22,-802.78 878.65,-810.33 877.56,-799.79 871.22,-802.78"/>
</g>
<!-- screens/AddAccountScreen.tsx&#45;&gt;state/AppContext.tsx -->
<g id="edge24" class="edge">
<title>screens/AddAccountScreen.tsx&#45;&gt;state/AppContext.tsx</title>
<path fill="none" stroke="#757575" d="M755.28,-1045.51C763.9,-1042.01 772.1,-1037.55 779.25,-1031.88 840.11,-983.56 868.88,-890.72 879.47,-847.32"/>
<polygon fill="#757575" stroke="#757575" points="882.84,-848.24 881.69,-837.71 876.02,-846.66 882.84,-848.24"/>
</g>
<!-- screens/BudgetEditorScreen.tsx&#45;&gt;state/AppContext.tsx -->
<g id="edge28" class="edge">
<title>screens/BudgetEditorScreen.tsx&#45;&gt;state/AppContext.tsx</title>
<path fill="none" stroke="#757575" d="M766.76,-507.19C771.22,-509.66 775.42,-512.53 779.25,-515.88 866.06,-591.74 881.35,-742.32 883.98,-800.33"/>
<polygon fill="#757575" stroke="#757575" points="880.47,-800.15 884.33,-810.02 887.47,-799.91 880.47,-800.15"/>
</g>
<!-- screens/BudgetsScreen.tsx&#45;&gt;state/AppContext.tsx -->
<g id="edge29" class="edge">
<title>screens/BudgetsScreen.tsx&#45;&gt;state/AppContext.tsx</title>
<path fill="none" stroke="#757575" d="M762.41,-462.66C768.52,-465.63 774.23,-469.32 779.25,-473.88 876.63,-562.22 885.32,-736.87 885.1,-800.22"/>
<polygon fill="#757575" stroke="#757575" points="881.6,-800.11 884.97,-810.15 888.6,-800.2 881.6,-800.11"/>
</g>
<!-- screens/DashboardScreen.tsx&#45;&gt;navigations/types.ts -->
<g id="edge30" class="edge">
<title>screens/DashboardScreen.tsx&#45;&gt;navigations/types.ts</title>
<path fill="none" stroke="#757575" d="M508.67,-613.37C515.96,-616.8 522.71,-621.22 528.5,-626.88 586.22,-683.29 516.82,-739.75 564.5,-804.88 578.52,-824.03 600.74,-837.74 621.25,-847.09"/>
<polygon fill="#757575" stroke="#757575" points="619.81,-850.28 630.38,-850.99 622.56,-843.84 619.81,-850.28"/>
</g>
<!-- screens/DashboardScreen.tsx&#45;&gt;state/AppContext.tsx -->
<g id="edge31" class="edge">
<title>screens/DashboardScreen.tsx&#45;&gt;state/AppContext.tsx</title>
<path fill="none" stroke="#757575" d="M508.73,-607.38C602.48,-610.51 735.9,-619.93 779.25,-647.88 835.53,-684.16 865.93,-762.14 878.09,-800.95"/>
<polygon fill="#757575" stroke="#757575" points="874.7,-801.83 880.92,-810.41 881.41,-799.83 874.7,-801.83"/>
</g>
<!-- screens/DataExportImportScreen.tsx&#45;&gt;navigations/types.ts -->
<g id="edge32" class="edge">
<title>screens/DataExportImportScreen.tsx&#45;&gt;navigations/types.ts</title>
<path fill="none" stroke="#757575" d="M447.05,-1131.57C471.99,-1121.78 504.79,-1106.17 528.5,-1084.88 545.77,-1069.36 625.54,-938.89 657.54,-886"/>
<polygon fill="#757575" stroke="#757575" points="660.48,-887.91 662.65,-877.54 654.49,-884.29 660.48,-887.91"/>
</g>
<!-- screens/DataExportImportScreen.tsx&#45;&gt;state/AppContext.tsx -->
<g id="edge33" class="edge">
<title>screens/DataExportImportScreen.tsx&#45;&gt;state/AppContext.tsx</title>
<path fill="none" stroke="#757575" d="M480.95,-1131.56C587.71,-1112.8 778.89,-1079.17 779.25,-1078.88 853.41,-1019.27 875.85,-898.61 882.19,-847.55"/>
<polygon fill="#757575" stroke="#757575" points="885.66,-847.98 883.3,-837.65 878.7,-847.2 885.66,-847.98"/>
</g>
<!-- utils/backup.ts -->
<g id="node44" class="node">
<title>utils/backup.ts</title>
<path fill="none" stroke="#c6c5fe" d="M714.71,-1191.75C714.71,-1191.75 629.04,-1191.75 629.04,-1191.75 625.08,-1191.75 621.12,-1187.79 621.12,-1183.83 621.12,-1183.83 621.12,-1175.92 621.12,-1175.92 621.12,-1171.96 625.08,-1168 629.04,-1168 629.04,-1168 714.71,-1168 714.71,-1168 718.67,-1168 722.62,-1171.96 722.62,-1175.92 722.62,-1175.92 722.62,-1183.83 722.62,-1183.83 722.62,-1187.79 718.67,-1191.75 714.71,-1191.75"/>
<text xml:space="preserve" text-anchor="middle" x="671.88" y="-1174.45" font-family="Arial" font-size="14.00" fill="#c6c5fe">utils/backup.ts</text>
</g>
<!-- screens/DataExportImportScreen.tsx&#45;&gt;utils/backup.ts -->
<g id="edge34" class="edge">
<title>screens/DataExportImportScreen.tsx&#45;&gt;utils/backup.ts</title>
<path fill="none" stroke="#757575" d="M499.99,-1156.21C536.15,-1161.22 577.01,-1166.88 609.71,-1171.41"/>
<polygon fill="#757575" stroke="#757575" points="609.03,-1174.84 619.41,-1172.75 609.99,-1167.91 609.03,-1174.84"/>
</g>
<!-- screens/PaymentsScreen.tsx&#45;&gt;navigations/types.ts -->
<g id="edge40" class="edge">
<title>screens/PaymentsScreen.tsx&#45;&gt;navigations/types.ts</title>
<path fill="none" stroke="#757575" d="M493.22,-1009.55C505.43,-1006.07 517.57,-1001.6 528.5,-995.88 542.74,-988.42 614.78,-918.81 650.59,-883.8"/>
<polygon fill="#757575" stroke="#757575" points="652.69,-886.65 657.38,-877.15 647.79,-881.65 652.69,-886.65"/>
</g>
<!-- screens/PaymentsScreen.tsx&#45;&gt;state/AppContext.tsx -->
<g id="edge41" class="edge">
<title>screens/PaymentsScreen.tsx&#45;&gt;state/AppContext.tsx</title>
<path fill="none" stroke="#757575" d="M502.79,-1009.5C596.12,-995.74 733.25,-971.86 779.25,-944.88 820.99,-920.39 854.56,-873.38 871.82,-845.72"/>
<polygon fill="#757575" stroke="#757575" points="874.65,-847.81 876.84,-837.44 868.66,-844.18 874.65,-847.81"/>
</g>
<!-- screens/RecentActivityScreen.tsx&#45;&gt;navigations/types.ts -->
<g id="edge42" class="edge">
<title>screens/RecentActivityScreen.tsx&#45;&gt;navigations/types.ts</title>
<path fill="none" stroke="#757575" d="M492.36,-929.56C504.57,-927.07 516.93,-924.19 528.5,-920.88 565.5,-910.29 606.1,-893.49 634.45,-880.86"/>
<polygon fill="#757575" stroke="#757575" points="635.62,-884.17 643.3,-876.87 632.74,-877.79 635.62,-884.17"/>
</g>
<!-- screens/RecentActivityScreen.tsx&#45;&gt;state/AppContext.tsx -->
<g id="edge43" class="edge">
<title>screens/RecentActivityScreen.tsx&#45;&gt;state/AppContext.tsx</title>
<path fill="none" stroke="#757575" d="M518.44,-949.96C594.11,-951.69 696.27,-945.87 779.25,-911.88 814.96,-897.25 847.63,-865.88 866.8,-844.83"/>
<polygon fill="#757575" stroke="#757575" points="869.38,-847.19 873.39,-837.38 864.14,-842.55 869.38,-847.19"/>
</g>
<!-- utils/formatDate.ts -->
<g id="node49" class="node">
<title>utils/formatDate.ts</title>
<path fill="none" stroke="#cfffac" d="M726.71,-795.75C726.71,-795.75 617.04,-795.75 617.04,-795.75 613.08,-795.75 609.12,-791.79 609.12,-787.83 609.12,-787.83 609.12,-779.92 609.12,-779.92 609.12,-775.96 613.08,-772 617.04,-772 617.04,-772 726.71,-772 726.71,-772 730.67,-772 734.62,-775.96 734.62,-779.92 734.62,-779.92 734.62,-787.83 734.62,-787.83 734.62,-791.79 730.67,-795.75 726.71,-795.75"/>
<text xml:space="preserve" text-anchor="middle" x="671.88" y="-778.45" font-family="Arial" font-size="14.00" fill="#cfffac">utils/formatDate.ts</text>
</g>
<!-- screens/RecentActivityScreen.tsx&#45;&gt;utils/formatDate.ts -->
<g id="edge44" class="edge">
<title>screens/RecentActivityScreen.tsx&#45;&gt;utils/formatDate.ts</title>
<path fill="none" stroke="#757575" d="M514.49,-929.6C519.44,-927.12 524.15,-924.23 528.5,-920.88 558.72,-897.54 538.52,-870.85 564.5,-842.88 581.59,-824.47 605.75,-810.44 626.73,-800.68"/>
<polygon fill="#757575" stroke="#757575" points="627.94,-803.97 635.66,-796.72 625.1,-797.58 627.94,-803.97"/>
</g>
<!-- screens/RecurringScreen.tsx&#45;&gt;state/AppContext.tsx -->
<g id="edge45" class="edge">
<title>screens/RecurringScreen.tsx&#45;&gt;state/AppContext.tsx</title>
<path fill="none" stroke="#757575" d="M504.9,-564.47C599.25,-566.81 736.54,-575.56 779.25,-605.88 845.96,-653.23 872.07,-754.61 880.76,-800.48"/>
<polygon fill="#757575" stroke="#757575" points="877.27,-800.88 882.46,-810.12 884.17,-799.66 877.27,-800.88"/>
</g>
<!-- screens/RecurringScreen.tsx&#45;&gt;utils/formatDate.ts -->
<g id="edge46" class="edge">
<title>screens/RecurringScreen.tsx&#45;&gt;utils/formatDate.ts</title>
<path fill="none" stroke="#757575" d="M504.9,-573.72C513.21,-576.62 521.22,-580.28 528.5,-584.88 597.59,-628.5 643.24,-718.93 661.66,-761.19"/>
<polygon fill="#757575" stroke="#757575" points="658.33,-762.29 665.45,-770.13 664.77,-759.56 658.33,-762.29"/>
</g>
<!-- screens/ReportsScreen.tsx&#45;&gt;state/AppContext.tsx -->
<g id="edge54" class="edge">
<title>screens/ReportsScreen.tsx&#45;&gt;state/AppContext.tsx</title>
<path fill="none" stroke="#757575" d="M761.29,-419.88C767.85,-422.99 773.96,-426.93 779.25,-431.88 834.47,-483.5 871.06,-723.94 881.46,-800.44"/>
<polygon fill="#757575" stroke="#757575" points="877.96,-800.68 882.75,-810.13 884.9,-799.75 877.96,-800.68"/>
</g>
<!-- screens/SettingsScreen.tsx&#45;&gt;dev/resetDb.ts -->
<g id="edge55" class="edge">
<title>screens/SettingsScreen.tsx&#45;&gt;dev/resetDb.ts</title>
<path fill="none" stroke="#757575" d="M493.35,-492.24C505.24,-494.7 517.25,-497.57 528.5,-500.88 545.13,-505.76 547.91,-510.84 564.5,-515.88 578.71,-520.19 594.26,-523.84 608.98,-526.83"/>
<polygon fill="#757575" stroke="#757575" points="608.07,-530.21 618.56,-528.69 609.41,-523.34 608.07,-530.21"/>
</g>
<!-- screens/SettingsScreen.tsx&#45;&gt;navigations/types.ts -->
<g id="edge56" class="edge">
<title>screens/SettingsScreen.tsx&#45;&gt;navigations/types.ts</title>
<path fill="none" stroke="#757575" d="M500.07,-483.03C510.78,-486.87 520.67,-492.57 528.5,-500.88 621.84,-599.87 488.68,-691.91 564.5,-804.88 577.48,-824.21 599.02,-837.84 619.33,-847.08"/>
<polygon fill="#757575" stroke="#757575" points="617.82,-850.25 628.39,-850.94 620.56,-843.8 617.82,-850.25"/>
</g>
<!-- screens/SplashAuthScreen.tsx&#45;&gt;navigations/types.ts -->
<g id="edge57" class="edge">
<title>screens/SplashAuthScreen.tsx&#45;&gt;navigations/types.ts</title>
<path fill="none" stroke="#757575" d="M510.05,-1051.7C516.49,-1049.24 522.71,-1046.33 528.5,-1042.88 545.42,-1032.78 621.69,-930.73 655.11,-885.39"/>
<polygon fill="#757575" stroke="#757575" points="657.91,-887.49 661.01,-877.36 652.27,-883.34 657.91,-887.49"/>
</g>
<!-- screens/SplashAuthScreen.tsx&#45;&gt;state/AppContext.tsx -->
<g id="edge58" class="edge">
<title>screens/SplashAuthScreen.tsx&#45;&gt;state/AppContext.tsx</title>
<path fill="none" stroke="#757575" d="M483.14,-1051.52C498.15,-1048.8 513.86,-1045.84 528.5,-1042.88 584.5,-1031.52 732.38,-1018.57 779.25,-985.88 829.91,-950.53 862.16,-882.19 876.26,-846.63"/>
<polygon fill="#757575" stroke="#757575" points="879.51,-847.92 879.81,-837.33 872.97,-845.43 879.51,-847.92"/>
</g>
<!-- screens/TransferScreen.tsx&#45;&gt;navigations/types.ts -->
<g id="edge59" class="edge">
<title>screens/TransferScreen.tsx&#45;&gt;navigations/types.ts</title>
<path fill="none" stroke="#757575" d="M500.72,-859.95C530.78,-860.64 564.02,-861.41 593.08,-862.08"/>
<polygon fill="#757575" stroke="#757575" points="592.83,-865.57 602.91,-862.31 592.99,-858.58 592.83,-865.57"/>
</g>
<!-- screens/TransferScreen.tsx&#45;&gt;state/AppContext.tsx -->
<g id="edge60" class="edge">
<title>screens/TransferScreen.tsx&#45;&gt;state/AppContext.tsx</title>
<path fill="none" stroke="#757575" d="M500.59,-848.54C521.55,-846.52 543.8,-844.5 564.5,-842.88 645.76,-836.5 738.78,-831.2 803.5,-827.83"/>
<polygon fill="#757575" stroke="#757575" points="803.53,-831.33 813.33,-827.32 803.17,-824.34 803.53,-831.33"/>
</g>
<!-- screens/TransferScreen.tsx&#45;&gt;utils/formatDate.ts -->
<g id="edge61" class="edge">
<title>screens/TransferScreen.tsx&#45;&gt;utils/formatDate.ts</title>
<path fill="none" stroke="#757575" d="M500.81,-846.35C510.35,-843.79 519.75,-840.68 528.5,-836.88 546.84,-828.9 546.42,-818.42 564.5,-809.88 574.92,-804.95 586.37,-800.9 597.78,-797.58"/>
<polygon fill="#757575" stroke="#757575" points="598.47,-801.02 607.21,-795.02 596.64,-794.27 598.47,-801.02"/>
</g>
<!-- screens/TxnEditorScreen.tsx&#45;&gt;navigations/types.ts -->
<g id="edge62" class="edge">
<title>screens/TxnEditorScreen.tsx&#45;&gt;navigations/types.ts</title>
<path fill="none" stroke="#757575" d="M499.99,-887.54C530.36,-883.33 564.05,-878.67 593.43,-874.6"/>
<polygon fill="#757575" stroke="#757575" points="593.54,-878.12 602.96,-873.28 592.57,-871.18 593.54,-878.12"/>
</g>
<!-- screens/TxnEditorScreen.tsx&#45;&gt;state/AppContext.tsx -->
<g id="edge63" class="edge">
<title>screens/TxnEditorScreen.tsx&#45;&gt;state/AppContext.tsx</title>
<path fill="none" stroke="#757575" d="M504.45,-908.28C580.11,-912.2 688.59,-911.24 779.25,-884.88 809.05,-876.21 839.32,-857.39 859.7,-842.93"/>
<polygon fill="#757575" stroke="#757575" points="861.62,-845.86 867.64,-837.14 857.5,-840.21 861.62,-845.86"/>
</g>
<!-- screens/TxnEditorScreen.tsx&#45;&gt;utils/formatDate.ts -->
<g id="edge64" class="edge">
<title>screens/TxnEditorScreen.tsx&#45;&gt;utils/formatDate.ts</title>
<path fill="none" stroke="#757575" d="M504.46,-888.65C512.82,-886.02 520.96,-882.81 528.5,-878.88 548.56,-868.41 546.43,-856.49 564.5,-842.88 586.14,-826.56 612.81,-811.78 634.04,-801.09"/>
<polygon fill="#757575" stroke="#757575" points="635.5,-804.27 642.92,-796.71 632.4,-798 635.5,-804.27"/>
</g>
<!-- navigations/screens.ts -->
<g id="node37" class="node">
<title>navigations/screens.ts</title>
<path fill="none" stroke="#cfffac" d="M194.46,-1286.75C194.46,-1286.75 60.79,-1286.75 60.79,-1286.75 56.83,-1286.75 52.88,-1282.79 52.88,-1278.83 52.88,-1278.83 52.88,-1270.92 52.88,-1270.92 52.88,-1266.96 56.83,-1263 60.79,-1263 60.79,-1263 194.46,-1263 194.46,-1263 198.42,-1263 202.38,-1266.96 202.38,-1270.92 202.38,-1270.92 202.38,-1278.83 202.38,-1278.83 202.38,-1282.79 198.42,-1286.75 194.46,-1286.75"/>
<text xml:space="preserve" text-anchor="middle" x="127.62" y="-1269.45" font-family="Arial" font-size="14.00" fill="#cfffac">navigations/screens.ts</text>
</g>
<!-- notifications/NotificationBootstrapper.tsx -->
<g id="node39" class="node">
<title>notifications/NotificationBootstrapper.tsx</title>
<path fill="none" stroke="#cfffac" d="M247.33,-1328.75C247.33,-1328.75 7.92,-1328.75 7.92,-1328.75 3.96,-1328.75 0,-1324.79 0,-1320.83 0,-1320.83 0,-1312.92 0,-1312.92 0,-1308.96 3.96,-1305 7.92,-1305 7.92,-1305 247.33,-1305 247.33,-1305 251.29,-1305 255.25,-1308.96 255.25,-1312.92 255.25,-1312.92 255.25,-1320.83 255.25,-1320.83 255.25,-1324.79 251.29,-1328.75 247.33,-1328.75"/>
<text xml:space="preserve" text-anchor="middle" x="127.62" y="-1311.45" font-family="Arial" font-size="14.00" fill="#cfffac">notifications/NotificationBootstrapper.tsx</text>
</g>
<!-- recurring/bootstrapper.js -->
<g id="node40" class="node">
<title>recurring/bootstrapper.js</title>
<path fill="none" stroke="#cfffac" d="M200.46,-1370.75C200.46,-1370.75 54.79,-1370.75 54.79,-1370.75 50.83,-1370.75 46.88,-1366.79 46.88,-1362.83 46.88,-1362.83 46.88,-1354.92 46.88,-1354.92 46.88,-1350.96 50.83,-1347 54.79,-1347 54.79,-1347 200.46,-1347 200.46,-1347 204.42,-1347 208.38,-1350.96 208.38,-1354.92 208.38,-1354.92 208.38,-1362.83 208.38,-1362.83 208.38,-1366.79 204.42,-1370.75 200.46,-1370.75"/>
<text xml:space="preserve" text-anchor="middle" x="127.62" y="-1353.45" font-family="Arial" font-size="14.00" fill="#cfffac">recurring/bootstrapper.js</text>
</g>
<!-- screens/AccountEditorScreen.tsx -->
<g id="node41" class="node">
<title>screens/AccountEditorScreen.tsx</title>
<path fill="none" stroke="#c6c5fe" d="M771.33,-380.75C771.33,-380.75 572.42,-380.75 572.42,-380.75 568.46,-380.75 564.5,-376.79 564.5,-372.83 564.5,-372.83 564.5,-364.92 564.5,-364.92 564.5,-360.96 568.46,-357 572.42,-357 572.42,-357 771.33,-357 771.33,-357 775.29,-357 779.25,-360.96 779.25,-364.92 779.25,-364.92 779.25,-372.83 779.25,-372.83 779.25,-376.79 775.29,-380.75 771.33,-380.75"/>
<text xml:space="preserve" text-anchor="middle" x="671.88" y="-363.45" font-family="Arial" font-size="14.00" fill="#c6c5fe">screens/AccountEditorScreen.tsx</text>
</g>
<!-- screens/AccountEditorScreen.tsx&#45;&gt;state/AppContext.tsx -->
<g id="edge21" class="edge">
<title>screens/AccountEditorScreen.tsx&#45;&gt;state/AppContext.tsx</title>
<path fill="none" stroke="#757575" d="M767.62,-381.07C771.8,-383.57 775.72,-386.49 779.25,-389.88 839.9,-447.97 873.27,-718.55 882.1,-800.38"/>
<polygon fill="#757575" stroke="#757575" points="878.6,-800.55 883.13,-810.12 885.56,-799.81 878.6,-800.55"/>
</g>
<!-- screens/BackupRestoreScreen.tsx -->
<g id="node43" class="node">
<title>screens/BackupRestoreScreen.tsx</title>
<path fill="none" stroke="#c6c5fe" d="M513.46,-1239.75C513.46,-1239.75 306.29,-1239.75 306.29,-1239.75 302.33,-1239.75 298.38,-1235.79 298.38,-1231.83 298.38,-1231.83 298.38,-1223.92 298.38,-1223.92 298.38,-1219.96 302.33,-1216 306.29,-1216 306.29,-1216 513.46,-1216 513.46,-1216 517.42,-1216 521.38,-1219.96 521.38,-1223.92 521.38,-1223.92 521.38,-1231.83 521.38,-1231.83 521.38,-1235.79 517.42,-1239.75 513.46,-1239.75"/>
<text xml:space="preserve" text-anchor="middle" x="409.88" y="-1222.45" font-family="Arial" font-size="14.00" fill="#c6c5fe">screens/BackupRestoreScreen.tsx</text>
</g>
<!-- screens/BackupRestoreScreen.tsx&#45;&gt;state/AppContext.tsx -->
<g id="edge25" class="edge">
<title>screens/BackupRestoreScreen.tsx&#45;&gt;state/AppContext.tsx</title>
<path fill="none" stroke="#757575" d="M475.83,-1240.22C568.79,-1256.31 733.64,-1278.45 779.25,-1242.88 843.25,-1192.96 874.26,-927.98 882.32,-847.24"/>
<polygon fill="#757575" stroke="#757575" points="885.79,-847.73 883.27,-837.44 878.82,-847.05 885.79,-847.73"/>
</g>
<!-- screens/BackupRestoreScreen.tsx&#45;&gt;utils/backup.ts -->
<g id="edge26" class="edge">
<title>screens/BackupRestoreScreen.tsx&#45;&gt;utils/backup.ts</title>
<path fill="none" stroke="#757575" d="M480.87,-1215.51C496.55,-1212.7 513.1,-1209.71 528.5,-1206.88 555.11,-1201.98 584.48,-1196.43 609.6,-1191.64"/>
<polygon fill="#757575" stroke="#757575" points="610.17,-1195.1 619.34,-1189.79 608.86,-1188.22 610.17,-1195.1"/>
</g>
<!-- utils/backupReminder.ts -->
<g id="node45" class="node">
<title>utils/backupReminder.ts</title>
<path fill="none" stroke="#cfffac" d="M743.96,-1233.75C743.96,-1233.75 599.79,-1233.75 599.79,-1233.75 595.83,-1233.75 591.88,-1229.79 591.88,-1225.83 591.88,-1225.83 591.88,-1217.92 591.88,-1217.92 591.88,-1213.96 595.83,-1210 599.79,-1210 599.79,-1210 743.96,-1210 743.96,-1210 747.92,-1210 751.88,-1213.96 751.88,-1217.92 751.88,-1217.92 751.88,-1225.83 751.88,-1225.83 751.88,-1229.79 747.92,-1233.75 743.96,-1233.75"/>
<text xml:space="preserve" text-anchor="middle" x="671.88" y="-1216.45" font-family="Arial" font-size="14.00" fill="#cfffac">utils/backupReminder.ts</text>
</g>
<!-- screens/BackupRestoreScreen.tsx&#45;&gt;utils/backupReminder.ts -->
<g id="edge27" class="edge">
<title>screens/BackupRestoreScreen.tsx&#45;&gt;utils/backupReminder.ts</title>
<path fill="none" stroke="#757575" d="M521.52,-1225.32C541.07,-1224.87 561.21,-1224.41 580.13,-1223.97"/>
<polygon fill="#757575" stroke="#757575" points="580,-1227.47 589.92,-1223.74 579.84,-1220.47 580,-1227.47"/>
</g>
<!-- utils/backup.ts&#45;&gt;state/AppContext.tsx -->
<g id="edge66" class="edge">
<title>utils/backup.ts&#45;&gt;state/AppContext.tsx</title>
<path fill="none" stroke="#757575" d="M722.97,-1180.57C742.61,-1178.35 764.04,-1172.51 779.25,-1158.88 872.91,-1074.95 883.97,-908.75 884.73,-847.37"/>
<polygon fill="#757575" stroke="#757575" points="888.23,-847.76 884.76,-837.75 881.23,-847.74 888.23,-847.76"/>
</g>
<!-- screens/HealthCheckScreen.tsx -->
<g id="node46" class="node">
<title>screens/HealthCheckScreen.tsx</title>
<path fill="none" stroke="#c6c5fe" d="M505.96,-1439.75C505.96,-1439.75 313.79,-1439.75 313.79,-1439.75 309.83,-1439.75 305.88,-1435.79 305.88,-1431.83 305.88,-1431.83 305.88,-1423.92 305.88,-1423.92 305.88,-1419.96 309.83,-1416 313.79,-1416 313.79,-1416 505.96,-1416 505.96,-1416 509.92,-1416 513.88,-1419.96 513.88,-1423.92 513.88,-1423.92 513.88,-1431.83 513.88,-1431.83 513.88,-1435.79 509.92,-1439.75 505.96,-1439.75"/>
<text xml:space="preserve" text-anchor="middle" x="409.88" y="-1422.45" font-family="Arial" font-size="14.00" fill="#c6c5fe">screens/HealthCheckScreen.tsx</text>
</g>
<!-- screens/HealthCheckScreen.tsx&#45;&gt;db/db.ts -->
<g id="edge35" class="edge">
<title>screens/HealthCheckScreen.tsx&#45;&gt;db/db.ts</title>
<path fill="none" stroke="#757575" d="M487.06,-1415.54C500.9,-1412.94 515.18,-1410.02 528.5,-1406.88 562.6,-1398.83 600.64,-1387.48 628.81,-1378.61"/>
<polygon fill="#757575" stroke="#757575" points="629.56,-1382.04 638.03,-1375.68 627.44,-1375.37 629.56,-1382.04"/>
</g>
<!-- screens/HistoryScreen.tsx -->
<g id="node47" class="node">
<title>screens/HistoryScreen.tsx</title>
<path fill="none" stroke="#c6c5fe" d="M488.33,-701.75C488.33,-701.75 331.42,-701.75 331.42,-701.75 327.46,-701.75 323.5,-697.79 323.5,-693.83 323.5,-693.83 323.5,-685.92 323.5,-685.92 323.5,-681.96 327.46,-678 331.42,-678 331.42,-678 488.33,-678 488.33,-678 492.29,-678 496.25,-681.96 496.25,-685.92 496.25,-685.92 496.25,-693.83 496.25,-693.83 496.25,-697.79 492.29,-701.75 488.33,-701.75"/>
<text xml:space="preserve" text-anchor="middle" x="409.88" y="-684.45" font-family="Arial" font-size="14.00" fill="#c6c5fe">screens/HistoryScreen.tsx</text>
</g>
<!-- screens/HistoryScreen.tsx&#45;&gt;navigations/types.ts -->
<g id="edge36" class="edge">
<title>screens/HistoryScreen.tsx&#45;&gt;navigations/types.ts</title>
<path fill="none" stroke="#757575" d="M496.48,-694.37C508.12,-697.94 519.23,-703.21 528.5,-710.88 562.98,-739.38 535.17,-771.1 564.5,-804.88 580.67,-823.49 604.22,-837.4 625.05,-847.03"/>
<polygon fill="#757575" stroke="#757575" points="623.38,-850.11 633.95,-850.93 626.2,-843.7 623.38,-850.11"/>
</g>
<!-- screens/HistoryScreen.tsx&#45;&gt;state/AppContext.tsx -->
<g id="edge37" class="edge">
<title>screens/HistoryScreen.tsx&#45;&gt;state/AppContext.tsx</title>
<path fill="none" stroke="#757575" d="M496.7,-687.52C573.72,-688.44 688.29,-697.47 779.25,-736.88 814.31,-752.06 846.93,-782.6 866.3,-803.15"/>
<polygon fill="#757575" stroke="#757575" points="863.63,-805.42 872.97,-810.42 868.79,-800.68 863.63,-805.42"/>
</g>
<!-- screens/LoginScreen.tsx -->
<g id="node48" class="node">
<title>screens/LoginScreen.tsx</title>
<path fill="none" stroke="#c6c5fe" d="M201.58,-1034.75C201.58,-1034.75 53.67,-1034.75 53.67,-1034.75 49.71,-1034.75 45.75,-1030.79 45.75,-1026.83 45.75,-1026.83 45.75,-1018.92 45.75,-1018.92 45.75,-1014.96 49.71,-1011 53.67,-1011 53.67,-1011 201.58,-1011 201.58,-1011 205.54,-1011 209.5,-1014.96 209.5,-1018.92 209.5,-1018.92 209.5,-1026.83 209.5,-1026.83 209.5,-1030.79 205.54,-1034.75 201.58,-1034.75"/>
<text xml:space="preserve" text-anchor="middle" x="127.62" y="-1017.45" font-family="Arial" font-size="14.00" fill="#c6c5fe">screens/LoginScreen.tsx</text>
</g>
<!-- screens/LoginScreen.tsx&#45;&gt;screens/SplashAuthScreen.tsx -->
<g id="edge39" class="edge">
<title>screens/LoginScreen.tsx&#45;&gt;screens/SplashAuthScreen.tsx</title>
<path fill="none" stroke="#757575" d="M209.68,-1034.73C242.07,-1039.47 279.61,-1044.96 313.32,-1049.9"/>
<polygon fill="#757575" stroke="#757575" points="312.69,-1053.34 323.09,-1051.32 313.7,-1046.41 312.69,-1053.34"/>
</g>
<!-- screens/LoginScreen.tsx&#45;&gt;navigations/types.ts -->
<g id="edge38" class="edge">
<title>screens/LoginScreen.tsx&#45;&gt;navigations/types.ts</title>
<path fill="none" stroke="#757575" d="M209.55,-1011.69C322.09,-996 513.82,-968.71 528.5,-962.88 576.05,-943.98 623.22,-906.54 649.55,-883.5"/>
<polygon fill="#757575" stroke="#757575" points="651.69,-886.28 656.83,-877.02 647.04,-881.05 651.69,-886.28"/>
</g>
<!-- screens/ReportDetailScreen.tsx -->
<g id="node50" class="node">
<title>screens/ReportDetailScreen.tsx</title>
<path fill="none" stroke="#c6c5fe" d="M504.83,-827.75C504.83,-827.75 314.92,-827.75 314.92,-827.75 310.96,-827.75 307,-823.79 307,-819.83 307,-819.83 307,-811.92 307,-811.92 307,-807.96 310.96,-804 314.92,-804 314.92,-804 504.83,-804 504.83,-804 508.79,-804 512.75,-807.96 512.75,-811.92 512.75,-811.92 512.75,-819.83 512.75,-819.83 512.75,-823.79 508.79,-827.75 504.83,-827.75"/>
<text xml:space="preserve" text-anchor="middle" x="409.88" y="-810.45" font-family="Arial" font-size="14.00" fill="#c6c5fe">screens/ReportDetailScreen.tsx</text>
</g>
<!-- screens/ReportDetailScreen.tsx&#45;&gt;navigations/types.ts -->
<g id="edge47" class="edge">
<title>screens/ReportDetailScreen.tsx&#45;&gt;navigations/types.ts</title>
<path fill="none" stroke="#757575" d="M480.87,-828.24C496.55,-831.05 513.1,-834.04 528.5,-836.88 550.31,-840.89 573.97,-845.34 595.64,-849.45"/>
<polygon fill="#757575" stroke="#757575" points="594.8,-852.85 605.27,-851.28 596.1,-845.98 594.8,-852.85"/>
</g>
<!-- screens/ReportDetailScreen.tsx&#45;&gt;state/AppContext.tsx -->
<g id="edge48" class="edge">
<title>screens/ReportDetailScreen.tsx&#45;&gt;state/AppContext.tsx</title>
<path fill="none" stroke="#757575" d="M506.37,-803.51C514.03,-801.12 521.5,-798.27 528.5,-794.88 547.76,-785.53 544.49,-770.48 564.5,-762.88 653.71,-728.96 687.08,-738.1 779.25,-762.88 809.4,-770.98 839.82,-790.06 860.15,-804.74"/>
<polygon fill="#757575" stroke="#757575" points="857.94,-807.47 868.06,-810.63 862.12,-801.85 857.94,-807.47"/>
</g>
<!-- screens/ReportDetailScreen.tsx&#45;&gt;utils/formatDate.ts -->
<g id="edge49" class="edge">
<title>screens/ReportDetailScreen.tsx&#45;&gt;utils/formatDate.ts</title>
<path fill="none" stroke="#757575" d="M511.4,-803.5C540.16,-799.96 570.95,-796.17 597.73,-792.88"/>
<polygon fill="#757575" stroke="#757575" points="597.94,-796.38 607.44,-791.68 597.09,-789.43 597.94,-796.38"/>
</g>
<!-- screens/ReportEditorScreen.tsx -->
<g id="node51" class="node">
<title>screens/ReportEditorScreen.tsx</title>
<path fill="none" stroke="#c6c5fe" d="M505.21,-1197.75C505.21,-1197.75 314.54,-1197.75 314.54,-1197.75 310.58,-1197.75 306.62,-1193.79 306.62,-1189.83 306.62,-1189.83 306.62,-1181.92 306.62,-1181.92 306.62,-1177.96 310.58,-1174 314.54,-1174 314.54,-1174 505.21,-1174 505.21,-1174 509.17,-1174 513.12,-1177.96 513.12,-1181.92 513.12,-1181.92 513.12,-1189.83 513.12,-1189.83 513.12,-1193.79 509.17,-1197.75 505.21,-1197.75"/>
<text xml:space="preserve" text-anchor="middle" x="409.88" y="-1180.45" font-family="Arial" font-size="14.00" fill="#c6c5fe">screens/ReportEditorScreen.tsx</text>
</g>
<!-- screens/ReportEditorScreen.tsx&#45;&gt;navigations/types.ts -->
<g id="edge50" class="edge">
<title>screens/ReportEditorScreen.tsx&#45;&gt;navigations/types.ts</title>
<path fill="none" stroke="#757575" d="M513.53,-1175.3C518.92,-1172.43 523.97,-1168.99 528.5,-1164.88 572.27,-1125.17 540.8,-1091.01 564.5,-1036.88 589.9,-978.88 632,-917.13 654.88,-885.42"/>
<polygon fill="#757575" stroke="#757575" points="657.63,-887.59 660.7,-877.45 651.98,-883.47 657.63,-887.59"/>
</g>
<!-- services/reporting.ts -->
<g id="node52" class="node">
<title>services/reporting.ts</title>
<path fill="none" stroke="#cfffac" d="M732.33,-1313.75C732.33,-1313.75 611.42,-1313.75 611.42,-1313.75 607.46,-1313.75 603.5,-1309.79 603.5,-1305.83 603.5,-1305.83 603.5,-1297.92 603.5,-1297.92 603.5,-1293.96 607.46,-1290 611.42,-1290 611.42,-1290 732.33,-1290 732.33,-1290 736.29,-1290 740.25,-1293.96 740.25,-1297.92 740.25,-1297.92 740.25,-1305.83 740.25,-1305.83 740.25,-1309.79 736.29,-1313.75 732.33,-1313.75"/>
<text xml:space="preserve" text-anchor="middle" x="671.88" y="-1296.45" font-family="Arial" font-size="14.00" fill="#cfffac">services/reporting.ts</text>
</g>
<!-- screens/ReportEditorScreen.tsx&#45;&gt;services/reporting.ts -->
<g id="edge51" class="edge">
<title>screens/ReportEditorScreen.tsx&#45;&gt;services/reporting.ts</title>
<path fill="none" stroke="#757575" d="M507.81,-1198.19C514.99,-1200.6 521.97,-1203.47 528.5,-1206.88 548.56,-1217.34 546.43,-1229.26 564.5,-1242.88 586.14,-1259.19 612.81,-1273.97 634.04,-1284.66"/>
<polygon fill="#757575" stroke="#757575" points="632.4,-1287.75 642.92,-1289.04 635.5,-1281.48 632.4,-1287.75"/>
</g>
<!-- screens/ReportListScreen.tsx -->
<g id="node53" class="node">
<title>screens/ReportListScreen.tsx</title>
<path fill="none" stroke="#c6c5fe" d="M498.08,-1313.75C498.08,-1313.75 321.67,-1313.75 321.67,-1313.75 317.71,-1313.75 313.75,-1309.79 313.75,-1305.83 313.75,-1305.83 313.75,-1297.92 313.75,-1297.92 313.75,-1293.96 317.71,-1290 321.67,-1290 321.67,-1290 498.08,-1290 498.08,-1290 502.04,-1290 506,-1293.96 506,-1297.92 506,-1297.92 506,-1305.83 506,-1305.83 506,-1309.79 502.04,-1313.75 498.08,-1313.75"/>
<text xml:space="preserve" text-anchor="middle" x="409.88" y="-1296.45" font-family="Arial" font-size="14.00" fill="#c6c5fe">screens/ReportListScreen.tsx</text>
</g>
<!-- screens/ReportListScreen.tsx&#45;&gt;db/db.ts -->
<g id="edge52" class="edge">
<title>screens/ReportListScreen.tsx&#45;&gt;db/db.ts</title>
<path fill="none" stroke="#757575" d="M487.06,-1314.21C500.9,-1316.81 515.18,-1319.73 528.5,-1322.88 562.6,-1330.92 600.64,-1342.27 628.81,-1351.14"/>
<polygon fill="#757575" stroke="#757575" points="627.44,-1354.38 638.03,-1354.07 629.56,-1347.71 627.44,-1354.38"/>
</g>
<!-- screens/ReportListScreen.tsx&#45;&gt;services/reporting.ts -->
<g id="edge53" class="edge">
<title>screens/ReportListScreen.tsx&#45;&gt;services/reporting.ts</title>
<path fill="none" stroke="#757575" d="M506.21,-1301.88C534.37,-1301.88 564.86,-1301.88 591.86,-1301.88"/>
<polygon fill="#757575" stroke="#757575" points="591.69,-1305.38 601.69,-1301.88 591.69,-1298.38 591.69,-1305.38"/>
</g>
<!-- services/accounts.ts -->
<g id="node54" class="node">
<title>services/accounts.ts</title>
<path fill="none" stroke="#c6c5fe" d="M470.71,-1397.75C470.71,-1397.75 349.04,-1397.75 349.04,-1397.75 345.08,-1397.75 341.12,-1393.79 341.12,-1389.83 341.12,-1389.83 341.12,-1381.92 341.12,-1381.92 341.12,-1377.96 345.08,-1374 349.04,-1374 349.04,-1374 470.71,-1374 470.71,-1374 474.67,-1374 478.62,-1377.96 478.62,-1381.92 478.62,-1381.92 478.62,-1389.83 478.62,-1389.83 478.62,-1393.79 474.67,-1397.75 470.71,-1397.75"/>
<text xml:space="preserve" text-anchor="middle" x="409.88" y="-1380.45" font-family="Arial" font-size="14.00" fill="#c6c5fe">services/accounts.ts</text>
</g>
<!-- services/accounts.ts&#45;&gt;db/db.ts -->
<g id="edge65" class="edge">
<title>services/accounts.ts&#45;&gt;db/db.ts</title>
<path fill="none" stroke="#757575" d="M478.85,-1380.38C526.09,-1376.57 587.61,-1371.6 628.13,-1368.33"/>
<polygon fill="#757575" stroke="#757575" points="628.29,-1371.83 637.97,-1367.53 627.72,-1364.85 628.29,-1371.83"/>
</g>
<!-- types/expo&#45;file&#45;system.d.ts -->
<g id="node55" class="node">
<title>types/expo&#45;file&#45;system.d.ts</title>
<path fill="none" stroke="#cfffac" d="M207.96,-1412.75C207.96,-1412.75 47.29,-1412.75 47.29,-1412.75 43.33,-1412.75 39.38,-1408.79 39.38,-1404.83 39.38,-1404.83 39.38,-1396.92 39.38,-1396.92 39.38,-1392.96 43.33,-1389 47.29,-1389 47.29,-1389 207.96,-1389 207.96,-1389 211.92,-1389 215.88,-1392.96 215.88,-1396.92 215.88,-1396.92 215.88,-1404.83 215.88,-1404.83 215.88,-1408.79 211.92,-1412.75 207.96,-1412.75"/>
<text xml:space="preserve" text-anchor="middle" x="127.62" y="-1395.45" font-family="Arial" font-size="14.00" fill="#cfffac">types/expo&#45;file&#45;system.d.ts</text>
</g>
<!-- types/global.d.ts -->
<g id="node56" class="node">
<title>types/global.d.ts</title>
<path fill="none" stroke="#cfffac" d="M176.46,-1454.75C176.46,-1454.75 78.79,-1454.75 78.79,-1454.75 74.83,-1454.75 70.88,-1450.79 70.88,-1446.83 70.88,-1446.83 70.88,-1438.92 70.88,-1438.92 70.88,-1434.96 74.83,-1431 78.79,-1431 78.79,-1431 176.46,-1431 176.46,-1431 180.42,-1431 184.38,-1434.96 184.38,-1438.92 184.38,-1438.92 184.38,-1446.83 184.38,-1446.83 184.38,-1450.79 180.42,-1454.75 176.46,-1454.75"/>
<text xml:space="preserve" text-anchor="middle" x="127.62" y="-1437.45" font-family="Arial" font-size="14.00" fill="#cfffac">types/global.d.ts</text>
</g>
<!-- utils/csvTemplate.ts -->
<g id="node58" class="node">
<title>utils/csvTemplate.ts</title>
<path fill="none" stroke="#cfffac" d="M186.58,-1496.75C186.58,-1496.75 68.67,-1496.75 68.67,-1496.75 64.71,-1496.75 60.75,-1492.79 60.75,-1488.83 60.75,-1488.83 60.75,-1480.92 60.75,-1480.92 60.75,-1476.96 64.71,-1473 68.67,-1473 68.67,-1473 186.58,-1473 186.58,-1473 190.54,-1473 194.5,-1476.96 194.5,-1480.92 194.5,-1480.92 194.5,-1488.83 194.5,-1488.83 194.5,-1492.79 190.54,-1496.75 186.58,-1496.75"/>
<text xml:space="preserve" text-anchor="middle" x="127.62" y="-1479.45" font-family="Arial" font-size="14.00" fill="#cfffac">utils/csvTemplate.ts</text>
</g>
<!-- utils/csvUtils.ts -->
<g id="node59" class="node">
<title>utils/csvUtils.ts</title>
<path fill="none" stroke="#cfffac" d="M171.96,-1538.75C171.96,-1538.75 83.29,-1538.75 83.29,-1538.75 79.33,-1538.75 75.38,-1534.79 75.38,-1530.83 75.38,-1530.83 75.38,-1522.92 75.38,-1522.92 75.38,-1518.96 79.33,-1515 83.29,-1515 83.29,-1515 171.96,-1515 171.96,-1515 175.92,-1515 179.88,-1518.96 179.88,-1522.92 179.88,-1522.92 179.88,-1530.83 179.88,-1530.83 179.88,-1534.79 175.92,-1538.75 171.96,-1538.75"/>
<text xml:space="preserve" text-anchor="middle" x="127.62" y="-1521.45" font-family="Arial" font-size="14.00" fill="#cfffac">utils/csvUtils.ts</text>
</g>
<!-- utils/dateUtils.ts -->
<g id="node60" class="node">
<title>utils/dateUtils.ts</title>
<path fill="none" stroke="#cfffac" d="M174.96,-1580.75C174.96,-1580.75 80.29,-1580.75 80.29,-1580.75 76.33,-1580.75 72.38,-1576.79 72.38,-1572.83 72.38,-1572.83 72.38,-1564.92 72.38,-1564.92 72.38,-1560.96 76.33,-1557 80.29,-1557 80.29,-1557 174.96,-1557 174.96,-1557 178.92,-1557 182.88,-1560.96 182.88,-1564.92 182.88,-1564.92 182.88,-1572.83 182.88,-1572.83 182.88,-1576.79 178.92,-1580.75 174.96,-1580.75"/>
<text xml:space="preserve" text-anchor="middle" x="127.62" y="-1563.45" font-family="Arial" font-size="14.00" fill="#cfffac">utils/dateUtils.ts</text>
</g>
<!-- utils/moneyUtils.ts -->
<g id="node61" class="node">
<title>utils/moneyUtils.ts</title>
<path fill="none" stroke="#cfffac" d="M182.46,-1622.75C182.46,-1622.75 72.79,-1622.75 72.79,-1622.75 68.83,-1622.75 64.88,-1618.79 64.88,-1614.83 64.88,-1614.83 64.88,-1606.92 64.88,-1606.92 64.88,-1602.96 68.83,-1599 72.79,-1599 72.79,-1599 182.46,-1599 182.46,-1599 186.42,-1599 190.38,-1602.96 190.38,-1606.92 190.38,-1606.92 190.38,-1614.83 190.38,-1614.83 190.38,-1618.79 186.42,-1622.75 182.46,-1622.75"/>
<text xml:space="preserve" text-anchor="middle" x="127.62" y="-1605.45" font-family="Arial" font-size="14.00" fill="#cfffac">utils/moneyUtils.ts</text>
</g>
<!-- utils/notifications.ts -->
<g id="node62" class="node">
<title>utils/notifications.ts</title>
<path fill="none" stroke="#cfffac" d="M184.33,-1664.75C184.33,-1664.75 70.92,-1664.75 70.92,-1664.75 66.96,-1664.75 63,-1660.79 63,-1656.83 63,-1656.83 63,-1648.92 63,-1648.92 63,-1644.96 66.96,-1641 70.92,-1641 70.92,-1641 184.33,-1641 184.33,-1641 188.29,-1641 192.25,-1644.96 192.25,-1648.92 192.25,-1648.92 192.25,-1656.83 192.25,-1656.83 192.25,-1660.79 188.29,-1664.75 184.33,-1664.75"/>
<text xml:space="preserve" text-anchor="middle" x="127.62" y="-1647.45" font-family="Arial" font-size="14.00" fill="#cfffac">utils/notifications.ts</text>
</g>
<!-- utils/runningBalance.ts -->
<g id="node63" class="node">
<title>utils/runningBalance.ts</title>
<path fill="none" stroke="#c6c5fe" d="M739.83,-1149.75C739.83,-1149.75 603.92,-1149.75 603.92,-1149.75 599.96,-1149.75 596,-1145.79 596,-1141.83 596,-1141.83 596,-1133.92 596,-1133.92 596,-1129.96 599.96,-1126 603.92,-1126 603.92,-1126 739.83,-1126 739.83,-1126 743.79,-1126 747.75,-1129.96 747.75,-1133.92 747.75,-1133.92 747.75,-1141.83 747.75,-1141.83 747.75,-1145.79 743.79,-1149.75 739.83,-1149.75"/>
<text xml:space="preserve" text-anchor="middle" x="671.88" y="-1132.45" font-family="Arial" font-size="14.00" fill="#c6c5fe">utils/runningBalance.ts</text>
</g>
<!-- utils/runningBalance.ts&#45;&gt;state/AppContext.tsx -->
<g id="edge69" class="edge">
<title>utils/runningBalance.ts&#45;&gt;state/AppContext.tsx</title>
<path fill="none" stroke="#757575" d="M748.15,-1129.35C759.53,-1125.4 770.4,-1119.8 779.25,-1111.88 859.29,-1040.24 878.54,-902.6 883.11,-847.52"/>
<polygon fill="#757575" stroke="#757575" points="886.58,-847.95 883.82,-837.73 879.6,-847.45 886.58,-847.95"/>
</g>
<!-- utils/typedEntries.ts -->
<g id="node64" class="node">
<title>utils/typedEntries.ts</title>
<path fill="none" stroke="#cfffac" d="M186.21,-1706.75C186.21,-1706.75 69.04,-1706.75 69.04,-1706.75 65.08,-1706.75 61.12,-1702.79 61.12,-1698.83 61.12,-1698.83 61.12,-1690.92 61.12,-1690.92 61.12,-1686.96 65.08,-1683 69.04,-1683 69.04,-1683 186.21,-1683 186.21,-1683 190.17,-1683 194.12,-1686.96 194.12,-1690.92 194.12,-1690.92 194.12,-1698.83 194.12,-1698.83 194.12,-1702.79 190.17,-1706.75 186.21,-1706.75"/>
<text xml:space="preserve" text-anchor="middle" x="127.62" y="-1689.45" font-family="Arial" font-size="14.00" fill="#cfffac">utils/typedEntries.ts</text>
</g>
</g>
</svg>
