<?xml version="1.0" encoding="UTF-8" standalone="no"?>
<!DOCTYPE svg PUBLIC "-//W3C//DTD SVG 1.1//EN"
 "http://www.w3.org/Graphics/SVG/1.1/DTD/svg11.dtd">
<!-- Generated by graphviz version 14.1.1 (20251213.1925)
 -->
<!-- Title: G Pages: 1 -->
<svg width="1004pt" height="1697pt"
 viewBox="0.00 0.00 1004.00 1697.00" xmlns="http://www.w3.org/2000/svg" xmlns:xlink="http://www.w3.org/1999/xlink">
<g id="graph0" class="graph" transform="scale(1 1) rotate(0) translate(21.6 1675.35)">
<title>G</title>
<polygon fill="#111111" stroke="none" points="-21.6,21.6 -21.6,-1675.35 982.6,-1675.35 982.6,21.6 -21.6,21.6"/>
<!-- components/AccountForm.tsx -->
<g id="node1" class="node">
<title>components/AccountForm.tsx</title>
<path fill="none" stroke="#cfffac" d="M217.71,-23.75C217.71,-23.75 37.54,-23.75 37.54,-23.75 33.58,-23.75 29.62,-19.79 29.62,-15.83 29.62,-15.83 29.62,-7.92 29.62,-7.92 29.62,-3.96 33.58,0 37.54,0 37.54,0 217.71,0 217.71,0 221.67,0 225.62,-3.96 225.62,-7.92 225.62,-7.92 225.62,-15.83 225.62,-15.83 225.62,-19.79 221.67,-23.75 217.71,-23.75"/>
<text xml:space="preserve" text-anchor="middle" x="127.62" y="-6.45" font-family="Arial" font-size="14.00" fill="#cfffac">components/AccountForm.tsx</text>
</g>
<!-- components/ActionFab.tsx -->
<g id="node2" class="node">
<title>components/ActionFab.tsx</title>
<path fill="none" stroke="#cfffac" d="M207.58,-65.75C207.58,-65.75 47.67,-65.75 47.67,-65.75 43.71,-65.75 39.75,-61.79 39.75,-57.83 39.75,-57.83 39.75,-49.92 39.75,-49.92 39.75,-45.96 43.71,-42 47.67,-42 47.67,-42 207.58,-42 207.58,-42 211.54,-42 215.5,-45.96 215.5,-49.92 215.5,-49.92 215.5,-57.83 215.5,-57.83 215.5,-61.79 211.54,-65.75 207.58,-65.75"/>
<text xml:space="preserve" text-anchor="middle" x="127.62" y="-48.45" font-family="Arial" font-size="14.00" fill="#cfffac">components/ActionFab.tsx</text>
</g>
<!-- components/Center.tsx -->
<g id="node3" class="node">
<title>components/Center.tsx</title>
<path fill="none" stroke="#cfffac" d="M197.08,-107.75C197.08,-107.75 58.17,-107.75 58.17,-107.75 54.21,-107.75 50.25,-103.79 50.25,-99.83 50.25,-99.83 50.25,-91.92 50.25,-91.92 50.25,-87.96 54.21,-84 58.17,-84 58.17,-84 197.08,-84 197.08,-84 201.04,-84 205,-87.96 205,-91.92 205,-91.92 205,-99.83 205,-99.83 205,-103.79 201.04,-107.75 197.08,-107.75"/>
<text xml:space="preserve" text-anchor="middle" x="127.62" y="-90.45" font-family="Arial" font-size="14.00" fill="#cfffac">components/Center.tsx</text>
</g>
<!-- components/ErrorBoundary.tsx -->
<g id="node4" class="node">
<title>components/ErrorBoundary.tsx</title>
<path fill="none" stroke="#cfffac" d="M220.71,-149.75C220.71,-149.75 34.54,-149.75 34.54,-149.75 30.58,-149.75 26.62,-145.79 26.62,-141.83 26.62,-141.83 26.62,-133.92 26.62,-133.92 26.62,-129.96 30.58,-126 34.54,-126 34.54,-126 220.71,-126 220.71,-126 224.67,-126 228.62,-129.96 228.62,-133.92 228.62,-133.92 228.62,-141.83 228.62,-141.83 228.62,-145.79 224.67,-149.75 220.71,-149.75"/>
<text xml:space="preserve" text-anchor="middle" x="127.62" y="-132.45" font-family="Arial" font-size="14.00" fill="#cfffac">components/ErrorBoundary.tsx</text>
</g>
<!-- components/LineChart.tsx -->
<g id="node5" class="node">
<title>components/LineChart.tsx</title>
<path fill="none" stroke="#cfffac" d="M206.46,-191.75C206.46,-191.75 48.79,-191.75 48.79,-191.75 44.83,-191.75 40.88,-187.79 40.88,-183.83 40.88,-183.83 40.88,-175.92 40.88,-175.92 40.88,-171.96 44.83,-168 48.79,-168 48.79,-168 206.46,-168 206.46,-168 210.42,-168 214.38,-171.96 214.38,-175.92 214.38,-175.92 214.38,-183.83 214.38,-183.83 214.38,-187.79 210.42,-191.75 206.46,-191.75"/>
<text xml:space="preserve" text-anchor="middle" x="127.62" y="-174.45" font-family="Arial" font-size="14.00" fill="#cfffac">components/LineChart.tsx</text>
</g>
<!-- components/PaymentForm.tsx -->
<g id="node6" class="node">
<title>components/PaymentForm.tsx</title>
<path fill="none" stroke="#cfffac" d="M220.33,-233.75C220.33,-233.75 34.92,-233.75 34.92,-233.75 30.96,-233.75 27,-229.79 27,-225.83 27,-225.83 27,-217.92 27,-217.92 27,-213.96 30.96,-210 34.92,-210 34.92,-210 220.33,-210 220.33,-210 224.29,-210 228.25,-213.96 228.25,-217.92 228.25,-217.92 228.25,-225.83 228.25,-225.83 228.25,-229.79 224.29,-233.75 220.33,-233.75"/>
<text xml:space="preserve" text-anchor="middle" x="127.62" y="-216.45" font-family="Arial" font-size="14.00" fill="#cfffac">components/PaymentForm.tsx</text>
</g>
<!-- components/RecurringPayment.tsx -->
<g id="node7" class="node">
<title>components/RecurringPayment.tsx</title>
<path fill="none" stroke="#cfffac" d="M233.46,-275.75C233.46,-275.75 21.79,-275.75 21.79,-275.75 17.83,-275.75 13.88,-271.79 13.88,-267.83 13.88,-267.83 13.88,-259.92 13.88,-259.92 13.88,-255.96 17.83,-252 21.79,-252 21.79,-252 233.46,-252 233.46,-252 237.42,-252 241.38,-255.96 241.38,-259.92 241.38,-259.92 241.38,-267.83 241.38,-267.83 241.38,-271.79 237.42,-275.75 233.46,-275.75"/>
<text xml:space="preserve" text-anchor="middle" x="127.62" y="-258.45" font-family="Arial" font-size="14.00" fill="#cfffac">components/RecurringPayment.tsx</text>
</g>
<!-- components/ReportChart.tsx -->
<g id="node8" class="node">
<title>components/ReportChart.tsx</title>
<path fill="none" stroke="#c6c5fe" d="M213.96,-317.75C213.96,-317.75 41.29,-317.75 41.29,-317.75 37.33,-317.75 33.38,-313.79 33.38,-309.83 33.38,-309.83 33.38,-301.92 33.38,-301.92 33.38,-297.96 37.33,-294 41.29,-294 41.29,-294 213.96,-294 213.96,-294 217.92,-294 221.88,-297.96 221.88,-301.92 221.88,-301.92 221.88,-309.83 221.88,-309.83 221.88,-313.79 217.92,-317.75 213.96,-317.75"/>
<text xml:space="preserve" text-anchor="middle" x="127.62" y="-300.45" font-family="Arial" font-size="14.00" fill="#c6c5fe">components/ReportChart.tsx</text>
</g>
<!-- types/finance.ts -->
<g id="node9" class="node">
<title>types/finance.ts</title>
<path fill="none" stroke="#cfffac" d="M721.46,-337.75C721.46,-337.75 627.54,-337.75 627.54,-337.75 623.58,-337.75 619.62,-333.79 619.62,-329.83 619.62,-329.83 619.62,-321.92 619.62,-321.92 619.62,-317.96 623.58,-314 627.54,-314 627.54,-314 721.46,-314 721.46,-314 725.42,-314 729.38,-317.96 729.38,-321.92 729.38,-321.92 729.38,-329.83 729.38,-329.83 729.38,-333.79 725.42,-337.75 721.46,-337.75"/>
<text xml:space="preserve" text-anchor="middle" x="674.5" y="-320.45" font-family="Arial" font-size="14.00" fill="#cfffac">types/finance.ts</text>
</g>
<!-- components/ReportChart.tsx&#45;&gt;types/finance.ts -->
<g id="edge1" class="edge">
<title>components/ReportChart.tsx&#45;&gt;types/finance.ts</title>
<path fill="none" stroke="#757575" d="M222.29,-309.31C332.38,-313.35 512.18,-319.95 608.21,-323.48"/>
<polygon fill="#757575" stroke="#757575" points="607.86,-326.97 617.98,-323.84 608.11,-319.97 607.86,-326.97"/>
</g>
<!-- utils/reportUtils.ts -->
<g id="node10" class="node">
<title>utils/reportUtils.ts</title>
<path fill="none" stroke="#c6c5fe" d="M461.71,-297.75C461.71,-297.75 358.04,-297.75 358.04,-297.75 354.08,-297.75 350.12,-293.79 350.12,-289.83 350.12,-289.83 350.12,-281.92 350.12,-281.92 350.12,-277.96 354.08,-274 358.04,-274 358.04,-274 461.71,-274 461.71,-274 465.67,-274 469.62,-277.96 469.62,-281.92 469.62,-281.92 469.62,-289.83 469.62,-289.83 469.62,-293.79 465.67,-297.75 461.71,-297.75"/>
<text xml:space="preserve" text-anchor="middle" x="409.88" y="-280.45" font-family="Arial" font-size="14.00" fill="#c6c5fe">utils/reportUtils.ts</text>
</g>
<!-- components/ReportChart.tsx&#45;&gt;utils/reportUtils.ts -->
<g id="edge2" class="edge">
<title>components/ReportChart.tsx&#45;&gt;utils/reportUtils.ts</title>
<path fill="none" stroke="#757575" d="M222.33,-299.19C260.38,-296.47 303.58,-293.39 338.82,-290.87"/>
<polygon fill="#757575" stroke="#757575" points="338.73,-294.39 348.45,-290.19 338.23,-287.41 338.73,-294.39"/>
</g>
<!-- utils/reportUtils.ts&#45;&gt;types/finance.ts -->
<g id="edge68" class="edge">
<title>utils/reportUtils.ts&#45;&gt;types/finance.ts</title>
<path fill="none" stroke="#757575" d="M469.81,-294.85C510.82,-301.1 565.52,-309.43 607.9,-315.88"/>
<polygon fill="#757575" stroke="#757575" points="607.32,-319.34 617.74,-317.38 608.38,-312.42 607.32,-319.34"/>
</g>
<!-- types/report.ts -->
<g id="node58" class="node">
<title>types/report.ts</title>
<path fill="none" stroke="#cfffac" d="M717.33,-295.75C717.33,-295.75 631.67,-295.75 631.67,-295.75 627.71,-295.75 623.75,-291.79 623.75,-287.83 623.75,-287.83 623.75,-279.92 623.75,-279.92 623.75,-275.96 627.71,-272 631.67,-272 631.67,-272 717.33,-272 717.33,-272 721.29,-272 725.25,-275.96 725.25,-279.92 725.25,-279.92 725.25,-287.83 725.25,-287.83 725.25,-291.79 721.29,-295.75 717.33,-295.75"/>
<text xml:space="preserve" text-anchor="middle" x="674.5" y="-278.45" font-family="Arial" font-size="14.00" fill="#cfffac">types/report.ts</text>
</g>
<!-- utils/reportUtils.ts&#45;&gt;types/report.ts -->
<g id="edge69" class="edge">
<title>utils/reportUtils.ts&#45;&gt;types/report.ts</title>
<path fill="none" stroke="#757575" d="M469.81,-285.43C512.2,-285.1 569.23,-284.67 612.16,-284.34"/>
<polygon fill="#757575" stroke="#757575" points="612.1,-287.84 622.07,-284.27 612.05,-280.84 612.1,-287.84"/>
</g>
<!-- db/db.ts -->
<g id="node11" class="node">
<title>db/db.ts</title>
<path fill="none" stroke="#cfffac" d="M914.83,-1498.75C914.83,-1498.75 866.67,-1498.75 866.67,-1498.75 862.71,-1498.75 858.75,-1494.79 858.75,-1490.83 858.75,-1490.83 858.75,-1482.92 858.75,-1482.92 858.75,-1478.96 862.71,-1475 866.67,-1475 866.67,-1475 914.83,-1475 914.83,-1475 918.79,-1475 922.75,-1478.96 922.75,-1482.92 922.75,-1482.92 922.75,-1490.83 922.75,-1490.83 922.75,-1494.79 918.79,-1498.75 914.83,-1498.75"/>
<text xml:space="preserve" text-anchor="middle" x="890.75" y="-1481.45" font-family="Arial" font-size="14.00" fill="#cfffac">db/db.ts</text>
</g>
<!-- db/migrate.ts -->
<g id="node12" class="node">
<title>db/migrate.ts</title>
<path fill="none" stroke="#c6c5fe" d="M713.96,-1561.75C713.96,-1561.75 635.04,-1561.75 635.04,-1561.75 631.08,-1561.75 627.12,-1557.79 627.12,-1553.83 627.12,-1553.83 627.12,-1545.92 627.12,-1545.92 627.12,-1541.96 631.08,-1538 635.04,-1538 635.04,-1538 713.96,-1538 713.96,-1538 717.92,-1538 721.88,-1541.96 721.88,-1545.92 721.88,-1545.92 721.88,-1553.83 721.88,-1553.83 721.88,-1557.79 717.92,-1561.75 713.96,-1561.75"/>
<text xml:space="preserve" text-anchor="middle" x="674.5" y="-1544.45" font-family="Arial" font-size="14.00" fill="#c6c5fe">db/migrate.ts</text>
</g>
<!-- db/migrate.ts&#45;&gt;db/db.ts -->
<g id="edge3" class="edge">
<title>db/migrate.ts&#45;&gt;db/db.ts</title>
<path fill="none" stroke="#757575" d="M722.37,-1542.85C741.8,-1539.42 764.43,-1534.75 784.5,-1528.88 807.6,-1522.11 832.66,-1512.22 852.53,-1503.73"/>
<polygon fill="#757575" stroke="#757575" points="853.82,-1506.99 861.6,-1499.79 851.03,-1500.57 853.82,-1506.99"/>
</g>
<!-- db/migrations/003_reports.ts -->
<g id="node13" class="node">
<title>db/migrations/003_reports.ts</title>
<path fill="none" stroke="#cfffac" d="M213.58,-1023.75C213.58,-1023.75 41.67,-1023.75 41.67,-1023.75 37.71,-1023.75 33.75,-1019.79 33.75,-1015.83 33.75,-1015.83 33.75,-1007.92 33.75,-1007.92 33.75,-1003.96 37.71,-1000 41.67,-1000 41.67,-1000 213.58,-1000 213.58,-1000 217.54,-1000 221.5,-1003.96 221.5,-1007.92 221.5,-1007.92 221.5,-1015.83 221.5,-1015.83 221.5,-1019.79 217.54,-1023.75 213.58,-1023.75"/>
<text xml:space="preserve" text-anchor="middle" x="127.62" y="-1006.45" font-family="Arial" font-size="14.00" fill="#cfffac">db/migrations/003_reports.ts</text>
</g>
<!-- db/migrations/004_accounts.ts -->
<g id="node14" class="node">
<title>db/migrations/004_accounts.ts</title>
<path fill="none" stroke="#cfffac" d="M219.58,-1065.75C219.58,-1065.75 35.67,-1065.75 35.67,-1065.75 31.71,-1065.75 27.75,-1061.79 27.75,-1057.83 27.75,-1057.83 27.75,-1049.92 27.75,-1049.92 27.75,-1045.96 31.71,-1042 35.67,-1042 35.67,-1042 219.58,-1042 219.58,-1042 223.54,-1042 227.5,-1045.96 227.5,-1049.92 227.5,-1049.92 227.5,-1057.83 227.5,-1057.83 227.5,-1061.79 223.54,-1065.75 219.58,-1065.75"/>
<text xml:space="preserve" text-anchor="middle" x="127.62" y="-1048.45" font-family="Arial" font-size="14.00" fill="#cfffac">db/migrations/004_accounts.ts</text>
</g>
<!-- debug/installGlobalHandlers.tsx -->
<g id="node15" class="node">
<title>debug/installGlobalHandlers.tsx</title>
<path fill="none" stroke="#cfffac" d="M222.96,-1107.75C222.96,-1107.75 32.29,-1107.75 32.29,-1107.75 28.33,-1107.75 24.38,-1103.79 24.38,-1099.83 24.38,-1099.83 24.38,-1091.92 24.38,-1091.92 24.38,-1087.96 28.33,-1084 32.29,-1084 32.29,-1084 222.96,-1084 222.96,-1084 226.92,-1084 230.88,-1087.96 230.88,-1091.92 230.88,-1091.92 230.88,-1099.83 230.88,-1099.83 230.88,-1103.79 226.92,-1107.75 222.96,-1107.75"/>
<text xml:space="preserve" text-anchor="middle" x="127.62" y="-1090.45" font-family="Arial" font-size="14.00" fill="#cfffac">debug/installGlobalHandlers.tsx</text>
</g>
<!-- dev/resetDb.ts -->
<g id="node16" class="node">
<title>dev/resetDb.ts</title>
<path fill="none" stroke="#cfffac" d="M718.08,-1187.75C718.08,-1187.75 630.92,-1187.75 630.92,-1187.75 626.96,-1187.75 623,-1183.79 623,-1179.83 623,-1179.83 623,-1171.92 623,-1171.92 623,-1167.96 626.96,-1164 630.92,-1164 630.92,-1164 718.08,-1164 718.08,-1164 722.04,-1164 726,-1167.96 726,-1171.92 726,-1171.92 726,-1179.83 726,-1179.83 726,-1183.79 722.04,-1187.75 718.08,-1187.75"/>
<text xml:space="preserve" text-anchor="middle" x="674.5" y="-1170.45" font-family="Arial" font-size="14.00" fill="#cfffac">dev/resetDb.ts</text>
</g>
<!-- hooks/useAppReady.ts -->
<g id="node17" class="node">
<title>hooks/useAppReady.ts</title>
<path fill="none" stroke="#cfffac" d="M196.71,-1149.75C196.71,-1149.75 58.54,-1149.75 58.54,-1149.75 54.58,-1149.75 50.62,-1145.79 50.62,-1141.83 50.62,-1141.83 50.62,-1133.92 50.62,-1133.92 50.62,-1129.96 54.58,-1126 58.54,-1126 58.54,-1126 196.71,-1126 196.71,-1126 200.67,-1126 204.62,-1129.96 204.62,-1133.92 204.62,-1133.92 204.62,-1141.83 204.62,-1141.83 204.62,-1145.79 200.67,-1149.75 196.71,-1149.75"/>
<text xml:space="preserve" text-anchor="middle" x="127.62" y="-1132.45" font-family="Arial" font-size="14.00" fill="#cfffac">hooks/useAppReady.ts</text>
</g>
<!-- layout/Layout.js -->
<g id="node18" class="node">
<title>layout/Layout.js</title>
<path fill="none" stroke="#cfffac" d="M174.58,-1191.75C174.58,-1191.75 80.67,-1191.75 80.67,-1191.75 76.71,-1191.75 72.75,-1187.79 72.75,-1183.83 72.75,-1183.83 72.75,-1175.92 72.75,-1175.92 72.75,-1171.96 76.71,-1168 80.67,-1168 80.67,-1168 174.58,-1168 174.58,-1168 178.54,-1168 182.5,-1171.96 182.5,-1175.92 182.5,-1175.92 182.5,-1183.83 182.5,-1183.83 182.5,-1187.79 178.54,-1191.75 174.58,-1191.75"/>
<text xml:space="preserve" text-anchor="middle" x="127.62" y="-1174.45" font-family="Arial" font-size="14.00" fill="#cfffac">layout/Layout.js</text>
</g>
<!-- navigations/RootNavigator.tsx -->
<g id="node19" class="node">
<title>navigations/RootNavigator.tsx</title>
<path fill="none" stroke="#c6c5fe" d="M216.96,-981.75C216.96,-981.75 38.29,-981.75 38.29,-981.75 34.33,-981.75 30.38,-977.79 30.38,-973.83 30.38,-973.83 30.38,-965.92 30.38,-965.92 30.38,-961.96 34.33,-958 38.29,-958 38.29,-958 216.96,-958 216.96,-958 220.92,-958 224.88,-961.96 224.88,-965.92 224.88,-965.92 224.88,-973.83 224.88,-973.83 224.88,-977.79 220.92,-981.75 216.96,-981.75"/>
<text xml:space="preserve" text-anchor="middle" x="127.62" y="-964.45" font-family="Arial" font-size="14.00" fill="#c6c5fe">navigations/RootNavigator.tsx</text>
</g>
<!-- screens/AccountScreen.tsx -->
<g id="node20" class="node">
<title>screens/AccountScreen.tsx</title>
<path fill="none" stroke="#c6c5fe" d="M756.33,-775.75C756.33,-775.75 592.67,-775.75 592.67,-775.75 588.71,-775.75 584.75,-771.79 584.75,-767.83 584.75,-767.83 584.75,-759.92 584.75,-759.92 584.75,-755.96 588.71,-752 592.67,-752 592.67,-752 756.33,-752 756.33,-752 760.29,-752 764.25,-755.96 764.25,-759.92 764.25,-759.92 764.25,-767.83 764.25,-767.83 764.25,-771.79 760.29,-775.75 756.33,-775.75"/>
<text xml:space="preserve" text-anchor="middle" x="674.5" y="-758.45" font-family="Arial" font-size="14.00" fill="#c6c5fe">screens/AccountScreen.tsx</text>
</g>
<!-- navigations/RootNavigator.tsx&#45;&gt;screens/AccountScreen.tsx -->
<g id="edge4" class="edge">
<title>navigations/RootNavigator.tsx&#45;&gt;screens/AccountScreen.tsx</title>
<path fill="none" stroke="#757575" d="M146.49,-957.74C175.73,-938.27 236.1,-899.73 291.25,-874.88 407.82,-822.34 440.75,-817.04 564.5,-784.88 573.12,-782.64 582.18,-780.52 591.24,-778.56"/>
<polygon fill="#757575" stroke="#757575" points="591.71,-782.03 600.78,-776.55 590.27,-775.18 591.71,-782.03"/>
</g>
<!-- screens/AddAccountScreen.tsx -->
<g id="node21" class="node">
<title>screens/AddAccountScreen.tsx</title>
<path fill="none" stroke="#c6c5fe" d="M503.71,-567.75C503.71,-567.75 316.04,-567.75 316.04,-567.75 312.08,-567.75 308.12,-563.79 308.12,-559.83 308.12,-559.83 308.12,-551.92 308.12,-551.92 308.12,-547.96 312.08,-544 316.04,-544 316.04,-544 503.71,-544 503.71,-544 507.67,-544 511.62,-547.96 511.62,-551.92 511.62,-551.92 511.62,-559.83 511.62,-559.83 511.62,-563.79 507.67,-567.75 503.71,-567.75"/>
<text xml:space="preserve" text-anchor="middle" x="409.88" y="-550.45" font-family="Arial" font-size="14.00" fill="#c6c5fe">screens/AddAccountScreen.tsx</text>
</g>
<!-- navigations/RootNavigator.tsx&#45;&gt;screens/AddAccountScreen.tsx -->
<g id="edge5" class="edge">
<title>navigations/RootNavigator.tsx&#45;&gt;screens/AddAccountScreen.tsx</title>
<path fill="none" stroke="#757575" d="M129.73,-957.71C135.31,-903.88 165.3,-685.28 291.25,-580.88 294.54,-578.15 298.05,-575.7 301.73,-573.5"/>
<polygon fill="#757575" stroke="#757575" points="303.24,-576.66 310.49,-568.94 300,-570.46 303.24,-576.66"/>
</g>
<!-- screens/BudgetEditorScreen.tsx -->
<g id="node22" class="node">
<title>screens/BudgetEditorScreen.tsx</title>
<path fill="none" stroke="#c6c5fe" d="M506.33,-458.75C506.33,-458.75 313.42,-458.75 313.42,-458.75 309.46,-458.75 305.5,-454.79 305.5,-450.83 305.5,-450.83 305.5,-442.92 305.5,-442.92 305.5,-438.96 309.46,-435 313.42,-435 313.42,-435 506.33,-435 506.33,-435 510.29,-435 514.25,-438.96 514.25,-442.92 514.25,-442.92 514.25,-450.83 514.25,-450.83 514.25,-454.79 510.29,-458.75 506.33,-458.75"/>
<text xml:space="preserve" text-anchor="middle" x="409.88" y="-441.45" font-family="Arial" font-size="14.00" fill="#c6c5fe">screens/BudgetEditorScreen.tsx</text>
</g>
<!-- navigations/RootNavigator.tsx&#45;&gt;screens/BudgetEditorScreen.tsx -->
<g id="edge6" class="edge">
<title>navigations/RootNavigator.tsx&#45;&gt;screens/BudgetEditorScreen.tsx</title>
<path fill="none" stroke="#757575" d="M128.91,-957.67C130.98,-897.14 148.23,-626.32 291.25,-484.88 300.67,-475.56 312.38,-468.53 324.74,-463.22"/>
<polygon fill="#757575" stroke="#757575" points="325.76,-466.58 333.82,-459.7 323.23,-460.05 325.76,-466.58"/>
</g>
<!-- screens/BudgetsScreen.tsx -->
<g id="node23" class="node">
<title>screens/BudgetsScreen.tsx</title>
<path fill="none" stroke="#c6c5fe" d="M492.08,-517.75C492.08,-517.75 327.67,-517.75 327.67,-517.75 323.71,-517.75 319.75,-513.79 319.75,-509.83 319.75,-509.83 319.75,-501.92 319.75,-501.92 319.75,-497.96 323.71,-494 327.67,-494 327.67,-494 492.08,-494 492.08,-494 496.04,-494 500,-497.96 500,-501.92 500,-501.92 500,-509.83 500,-509.83 500,-513.79 496.04,-517.75 492.08,-517.75"/>
<text xml:space="preserve" text-anchor="middle" x="409.88" y="-500.45" font-family="Arial" font-size="14.00" fill="#c6c5fe">screens/BudgetsScreen.tsx</text>
</g>
<!-- navigations/RootNavigator.tsx&#45;&gt;screens/BudgetsScreen.tsx -->
<g id="edge7" class="edge">
<title>navigations/RootNavigator.tsx&#45;&gt;screens/BudgetsScreen.tsx</title>
<path fill="none" stroke="#757575" d="M129.24,-957.59C132.81,-900.12 155.75,-655.5 291.25,-534.88 296.61,-530.1 302.63,-526.09 309.04,-522.71"/>
<polygon fill="#757575" stroke="#757575" points="310.42,-525.93 318.03,-518.55 307.48,-519.58 310.42,-525.93"/>
</g>
<!-- screens/DashboardScreen.tsx -->
<g id="node24" class="node">
<title>screens/DashboardScreen.tsx</title>
<path fill="none" stroke="#c6c5fe" d="M764.96,-1023.75C764.96,-1023.75 584.04,-1023.75 584.04,-1023.75 580.08,-1023.75 576.12,-1019.79 576.12,-1015.83 576.12,-1015.83 576.12,-1007.92 576.12,-1007.92 576.12,-1003.96 580.08,-1000 584.04,-1000 584.04,-1000 764.96,-1000 764.96,-1000 768.92,-1000 772.88,-1003.96 772.88,-1007.92 772.88,-1007.92 772.88,-1015.83 772.88,-1015.83 772.88,-1019.79 768.92,-1023.75 764.96,-1023.75"/>
<text xml:space="preserve" text-anchor="middle" x="674.5" y="-1006.45" font-family="Arial" font-size="14.00" fill="#c6c5fe">screens/DashboardScreen.tsx</text>
</g>
<!-- navigations/RootNavigator.tsx&#45;&gt;screens/DashboardScreen.tsx -->
<g id="edge8" class="edge">
<title>navigations/RootNavigator.tsx&#45;&gt;screens/DashboardScreen.tsx</title>
<path fill="none" stroke="#757575" d="M225.31,-973.95C306.38,-977.79 425.14,-984.37 528.5,-993.88 541.95,-995.11 556.09,-996.61 570.03,-998.22"/>
<polygon fill="#757575" stroke="#757575" points="569.32,-1001.66 579.66,-999.34 570.13,-994.7 569.32,-1001.66"/>
</g>
<!-- screens/DataExportImportScreen.tsx -->
<g id="node25" class="node">
<title>screens/DataExportImportScreen.tsx</title>
<path fill="none" stroke="#c6c5fe" d="M520.58,-725.75C520.58,-725.75 299.17,-725.75 299.17,-725.75 295.21,-725.75 291.25,-721.79 291.25,-717.83 291.25,-717.83 291.25,-709.92 291.25,-709.92 291.25,-705.96 295.21,-702 299.17,-702 299.17,-702 520.58,-702 520.58,-702 524.54,-702 528.5,-705.96 528.5,-709.92 528.5,-709.92 528.5,-717.83 528.5,-717.83 528.5,-721.79 524.54,-725.75 520.58,-725.75"/>
<text xml:space="preserve" text-anchor="middle" x="409.88" y="-708.45" font-family="Arial" font-size="14.00" fill="#c6c5fe">screens/DataExportImportScreen.tsx</text>
</g>
<!-- navigations/RootNavigator.tsx&#45;&gt;screens/DataExportImportScreen.tsx -->
<g id="edge9" class="edge">
<title>navigations/RootNavigator.tsx&#45;&gt;screens/DataExportImportScreen.tsx</title>
<path fill="none" stroke="#757575" d="M138.49,-957.66C162.73,-928.05 227.81,-850.84 291.25,-795.88 319.36,-771.52 354.73,-747.66 379.3,-732.02"/>
<polygon fill="#757575" stroke="#757575" points="380.92,-735.13 387.52,-726.84 377.19,-729.21 380.92,-735.13"/>
</g>
<!-- screens/ImportCsvScreen.tsx -->
<g id="node26" class="node">
<title>screens/ImportCsvScreen.tsx</title>
<path fill="none" stroke="#cfffac" d="M498.46,-1223.75C498.46,-1223.75 321.29,-1223.75 321.29,-1223.75 317.33,-1223.75 313.38,-1219.79 313.38,-1215.83 313.38,-1215.83 313.38,-1207.92 313.38,-1207.92 313.38,-1203.96 317.33,-1200 321.29,-1200 321.29,-1200 498.46,-1200 498.46,-1200 502.42,-1200 506.38,-1203.96 506.38,-1207.92 506.38,-1207.92 506.38,-1215.83 506.38,-1215.83 506.38,-1219.79 502.42,-1223.75 498.46,-1223.75"/>
<text xml:space="preserve" text-anchor="middle" x="409.88" y="-1206.45" font-family="Arial" font-size="14.00" fill="#cfffac">screens/ImportCsvScreen.tsx</text>
</g>
<!-- navigations/RootNavigator.tsx&#45;&gt;screens/ImportCsvScreen.tsx -->
<g id="edge10" class="edge">
<title>navigations/RootNavigator.tsx&#45;&gt;screens/ImportCsvScreen.tsx</title>
<path fill="none" stroke="#757575" d="M225.35,-972.9C236.49,-976.82 246.84,-982.58 255.25,-990.88 319.55,-1054.3 227.34,-1127.06 291.25,-1190.88 294.76,-1194.38 298.64,-1197.41 302.79,-1200.03"/>
<polygon fill="#757575" stroke="#757575" points="301.11,-1203.1 311.58,-1204.71 304.39,-1196.92 301.11,-1203.1"/>
</g>
<!-- screens/NotificationsScreen.tsx -->
<g id="node27" class="node">
<title>screens/NotificationsScreen.tsx</title>
<path fill="none" stroke="#cfffac" d="M504.08,-1181.75C504.08,-1181.75 315.67,-1181.75 315.67,-1181.75 311.71,-1181.75 307.75,-1177.79 307.75,-1173.83 307.75,-1173.83 307.75,-1165.92 307.75,-1165.92 307.75,-1161.96 311.71,-1158 315.67,-1158 315.67,-1158 504.08,-1158 504.08,-1158 508.04,-1158 512,-1161.96 512,-1165.92 512,-1165.92 512,-1173.83 512,-1173.83 512,-1177.79 508.04,-1181.75 504.08,-1181.75"/>
<text xml:space="preserve" text-anchor="middle" x="409.88" y="-1164.45" font-family="Arial" font-size="14.00" fill="#cfffac">screens/NotificationsScreen.tsx</text>
</g>
<!-- navigations/RootNavigator.tsx&#45;&gt;screens/NotificationsScreen.tsx -->
<g id="edge11" class="edge">
<title>navigations/RootNavigator.tsx&#45;&gt;screens/NotificationsScreen.tsx</title>
<path fill="none" stroke="#757575" d="M225.31,-973.38C236.39,-977.24 246.73,-982.85 255.25,-990.88 307.67,-1040.26 239.13,-1099.17 291.25,-1148.88 293.35,-1150.88 295.58,-1152.73 297.9,-1154.43"/>
<polygon fill="#757575" stroke="#757575" points="295.71,-1157.19 306.05,-1159.5 299.41,-1151.25 295.71,-1157.19"/>
</g>
<!-- screens/PaymentsScreen.tsx -->
<g id="node28" class="node">
<title>screens/PaymentsScreen.tsx</title>
<path fill="none" stroke="#c6c5fe" d="M762.33,-943.75C762.33,-943.75 586.67,-943.75 586.67,-943.75 582.71,-943.75 578.75,-939.79 578.75,-935.83 578.75,-935.83 578.75,-927.92 578.75,-927.92 578.75,-923.96 582.71,-920 586.67,-920 586.67,-920 762.33,-920 762.33,-920 766.29,-920 770.25,-923.96 770.25,-927.92 770.25,-927.92 770.25,-935.83 770.25,-935.83 770.25,-939.79 766.29,-943.75 762.33,-943.75"/>
<text xml:space="preserve" text-anchor="middle" x="674.5" y="-926.45" font-family="Arial" font-size="14.00" fill="#c6c5fe">screens/PaymentsScreen.tsx</text>
</g>
<!-- navigations/RootNavigator.tsx&#45;&gt;screens/PaymentsScreen.tsx -->
<g id="edge12" class="edge">
<title>navigations/RootNavigator.tsx&#45;&gt;screens/PaymentsScreen.tsx</title>
<path fill="none" stroke="#757575" d="M225.34,-961.18C247.02,-959.33 269.91,-957.46 291.25,-955.88 384.47,-948.94 490.59,-942.38 567.32,-937.88"/>
<polygon fill="#757575" stroke="#757575" points="567.13,-941.4 576.91,-937.32 566.72,-934.41 567.13,-941.4"/>
</g>
<!-- screens/RecentActivityScreen.tsx -->
<g id="node29" class="node">
<title>screens/RecentActivityScreen.tsx</title>
<path fill="none" stroke="#c6c5fe" d="M774.71,-1309.75C774.71,-1309.75 574.29,-1309.75 574.29,-1309.75 570.33,-1309.75 566.38,-1305.79 566.38,-1301.83 566.38,-1301.83 566.38,-1293.92 566.38,-1293.92 566.38,-1289.96 570.33,-1286 574.29,-1286 574.29,-1286 774.71,-1286 774.71,-1286 778.67,-1286 782.62,-1289.96 782.62,-1293.92 782.62,-1293.92 782.62,-1301.83 782.62,-1301.83 782.62,-1305.79 778.67,-1309.75 774.71,-1309.75"/>
<text xml:space="preserve" text-anchor="middle" x="674.5" y="-1292.45" font-family="Arial" font-size="14.00" fill="#c6c5fe">screens/RecentActivityScreen.tsx</text>
</g>
<!-- navigations/RootNavigator.tsx&#45;&gt;screens/RecentActivityScreen.tsx -->
<g id="edge13" class="edge">
<title>navigations/RootNavigator.tsx&#45;&gt;screens/RecentActivityScreen.tsx</title>
<path fill="none" stroke="#757575" d="M225.14,-972.27C236.45,-976.26 246.91,-982.21 255.25,-990.88 343.48,-1082.55 198.36,-1187.93 291.25,-1274.88 328.25,-1309.51 456.76,-1311.05 554.66,-1306.63"/>
<polygon fill="#757575" stroke="#757575" points="554.8,-1310.12 564.62,-1306.15 554.46,-1303.13 554.8,-1310.12"/>
</g>
<!-- screens/RecurringEditorScreen.tsx -->
<g id="node30" class="node">
<title>screens/RecurringEditorScreen.tsx</title>
<path fill="none" stroke="#cfffac" d="M514.21,-1139.75C514.21,-1139.75 305.54,-1139.75 305.54,-1139.75 301.58,-1139.75 297.62,-1135.79 297.62,-1131.83 297.62,-1131.83 297.62,-1123.92 297.62,-1123.92 297.62,-1119.96 301.58,-1116 305.54,-1116 305.54,-1116 514.21,-1116 514.21,-1116 518.17,-1116 522.12,-1119.96 522.12,-1123.92 522.12,-1123.92 522.12,-1131.83 522.12,-1131.83 522.12,-1135.79 518.17,-1139.75 514.21,-1139.75"/>
<text xml:space="preserve" text-anchor="middle" x="409.88" y="-1122.45" font-family="Arial" font-size="14.00" fill="#cfffac">screens/RecurringEditorScreen.tsx</text>
</g>
<!-- navigations/RootNavigator.tsx&#45;&gt;screens/RecurringEditorScreen.tsx -->
<g id="edge14" class="edge">
<title>navigations/RootNavigator.tsx&#45;&gt;screens/RecurringEditorScreen.tsx</title>
<path fill="none" stroke="#757575" d="M225.29,-974.33C236.23,-978.06 246.55,-983.39 255.25,-990.88 294.56,-1024.71 252.86,-1067.01 291.25,-1101.88 294.64,-1104.95 298.3,-1107.69 302.18,-1110.13"/>
<polygon fill="#757575" stroke="#757575" points="300.41,-1113.15 310.86,-1114.87 303.76,-1107.01 300.41,-1113.15"/>
</g>
<!-- screens/RecurringScreen.tsx -->
<g id="node31" class="node">
<title>screens/RecurringScreen.tsx</title>
<path fill="none" stroke="#c6c5fe" d="M761.21,-1351.75C761.21,-1351.75 587.79,-1351.75 587.79,-1351.75 583.83,-1351.75 579.88,-1347.79 579.88,-1343.83 579.88,-1343.83 579.88,-1335.92 579.88,-1335.92 579.88,-1331.96 583.83,-1328 587.79,-1328 587.79,-1328 761.21,-1328 761.21,-1328 765.17,-1328 769.12,-1331.96 769.12,-1335.92 769.12,-1335.92 769.12,-1343.83 769.12,-1343.83 769.12,-1347.79 765.17,-1351.75 761.21,-1351.75"/>
<text xml:space="preserve" text-anchor="middle" x="674.5" y="-1334.45" font-family="Arial" font-size="14.00" fill="#c6c5fe">screens/RecurringScreen.tsx</text>
</g>
<!-- navigations/RootNavigator.tsx&#45;&gt;screens/RecurringScreen.tsx -->
<g id="edge15" class="edge">
<title>navigations/RootNavigator.tsx&#45;&gt;screens/RecurringScreen.tsx</title>
<path fill="none" stroke="#757575" d="M225.24,-972.18C236.53,-976.18 246.96,-982.15 255.25,-990.88 352.34,-1093 190.37,-1207.49 291.25,-1305.88 329.37,-1343.05 468.91,-1347.06 568.35,-1344.82"/>
<polygon fill="#757575" stroke="#757575" points="568.24,-1348.33 578.15,-1344.58 568.07,-1341.33 568.24,-1348.33"/>
</g>
<!-- screens/ReportsScreen.tsx -->
<g id="node32" class="node">
<title>screens/ReportsScreen.tsx</title>
<path fill="none" stroke="#c6c5fe" d="M490.96,-382.75C490.96,-382.75 328.79,-382.75 328.79,-382.75 324.83,-382.75 320.88,-378.79 320.88,-374.83 320.88,-374.83 320.88,-366.92 320.88,-366.92 320.88,-362.96 324.83,-359 328.79,-359 328.79,-359 490.96,-359 490.96,-359 494.92,-359 498.88,-362.96 498.88,-366.92 498.88,-366.92 498.88,-374.83 498.88,-374.83 498.88,-378.79 494.92,-382.75 490.96,-382.75"/>
<text xml:space="preserve" text-anchor="middle" x="409.88" y="-365.45" font-family="Arial" font-size="14.00" fill="#c6c5fe">screens/ReportsScreen.tsx</text>
</g>
<!-- navigations/RootNavigator.tsx&#45;&gt;screens/ReportsScreen.tsx -->
<g id="edge16" class="edge">
<title>navigations/RootNavigator.tsx&#45;&gt;screens/ReportsScreen.tsx</title>
<path fill="none" stroke="#757575" d="M128.77,-957.88C130.13,-894.6 144.42,-596.03 291.25,-425.88 306.62,-408.06 329.01,-395.63 350.14,-387.16"/>
<polygon fill="#757575" stroke="#757575" points="351.15,-390.52 359.28,-383.72 348.69,-383.96 351.15,-390.52"/>
</g>
<!-- screens/SettingsScreen.tsx -->
<g id="node33" class="node">
<title>screens/SettingsScreen.tsx</title>
<path fill="none" stroke="#c6c5fe" d="M491.71,-1265.75C491.71,-1265.75 328.04,-1265.75 328.04,-1265.75 324.08,-1265.75 320.12,-1261.79 320.12,-1257.83 320.12,-1257.83 320.12,-1249.92 320.12,-1249.92 320.12,-1245.96 324.08,-1242 328.04,-1242 328.04,-1242 491.71,-1242 491.71,-1242 495.67,-1242 499.62,-1245.96 499.62,-1249.92 499.62,-1249.92 499.62,-1257.83 499.62,-1257.83 499.62,-1261.79 495.67,-1265.75 491.71,-1265.75"/>
<text xml:space="preserve" text-anchor="middle" x="409.88" y="-1248.45" font-family="Arial" font-size="14.00" fill="#c6c5fe">screens/SettingsScreen.tsx</text>
</g>
<!-- navigations/RootNavigator.tsx&#45;&gt;screens/SettingsScreen.tsx -->
<g id="edge17" class="edge">
<title>navigations/RootNavigator.tsx&#45;&gt;screens/SettingsScreen.tsx</title>
<path fill="none" stroke="#757575" d="M225.28,-972.55C236.49,-976.51 246.89,-982.38 255.25,-990.88 331.5,-1068.4 215.48,-1154.88 291.25,-1232.88 296.59,-1238.37 302.84,-1242.72 309.63,-1246.14"/>
<polygon fill="#757575" stroke="#757575" points="307.94,-1249.22 318.51,-1249.91 310.68,-1242.78 307.94,-1249.22"/>
</g>
<!-- screens/SplashAuthScreen.tsx -->
<g id="node34" class="node">
<title>screens/SplashAuthScreen.tsx</title>
<path fill="none" stroke="#c6c5fe" d="M766.46,-1065.75C766.46,-1065.75 582.54,-1065.75 582.54,-1065.75 578.58,-1065.75 574.62,-1061.79 574.62,-1057.83 574.62,-1057.83 574.62,-1049.92 574.62,-1049.92 574.62,-1045.96 578.58,-1042 582.54,-1042 582.54,-1042 766.46,-1042 766.46,-1042 770.42,-1042 774.38,-1045.96 774.38,-1049.92 774.38,-1049.92 774.38,-1057.83 774.38,-1057.83 774.38,-1061.79 770.42,-1065.75 766.46,-1065.75"/>
<text xml:space="preserve" text-anchor="middle" x="674.5" y="-1048.45" font-family="Arial" font-size="14.00" fill="#c6c5fe">screens/SplashAuthScreen.tsx</text>
</g>
<!-- navigations/RootNavigator.tsx&#45;&gt;screens/SplashAuthScreen.tsx -->
<g id="edge18" class="edge">
<title>navigations/RootNavigator.tsx&#45;&gt;screens/SplashAuthScreen.tsx</title>
<path fill="none" stroke="#757575" d="M211.34,-982.22C236.95,-986 265.26,-990.15 291.25,-993.88 396.63,-1008.98 423.42,-1009.79 528.5,-1026.88 551.64,-1030.64 576.76,-1035.16 599.5,-1039.42"/>
<polygon fill="#757575" stroke="#757575" points="598.84,-1042.86 609.32,-1041.27 600.14,-1035.98 598.84,-1042.86"/>
</g>
<!-- screens/TransferScreen.tsx -->
<g id="node35" class="node">
<title>screens/TransferScreen.tsx</title>
<path fill="none" stroke="#c6c5fe" d="M757.08,-1145.75C757.08,-1145.75 591.92,-1145.75 591.92,-1145.75 587.96,-1145.75 584,-1141.79 584,-1137.83 584,-1137.83 584,-1129.92 584,-1129.92 584,-1125.96 587.96,-1122 591.92,-1122 591.92,-1122 757.08,-1122 757.08,-1122 761.04,-1122 765,-1125.96 765,-1129.92 765,-1129.92 765,-1137.83 765,-1137.83 765,-1141.79 761.04,-1145.75 757.08,-1145.75"/>
<text xml:space="preserve" text-anchor="middle" x="674.5" y="-1128.45" font-family="Arial" font-size="14.00" fill="#c6c5fe">screens/TransferScreen.tsx</text>
</g>
<!-- navigations/RootNavigator.tsx&#45;&gt;screens/TransferScreen.tsx -->
<g id="edge19" class="edge">
<title>navigations/RootNavigator.tsx&#45;&gt;screens/TransferScreen.tsx</title>
<path fill="none" stroke="#757575" d="M225.11,-975.56C235.95,-979.1 246.3,-984.05 255.25,-990.88 285.61,-1014.02 260.82,-1045.81 291.25,-1068.88 376.35,-1133.38 423.28,-1088.65 528.5,-1106.88 551.16,-1110.8 575.77,-1115.29 598.18,-1119.48"/>
<polygon fill="#757575" stroke="#757575" points="597.36,-1122.88 607.83,-1121.28 598.65,-1116 597.36,-1122.88"/>
</g>
<!-- screens/TxnEditorScreen.tsx -->
<g id="node36" class="node">
<title>screens/TxnEditorScreen.tsx</title>
<path fill="none" stroke="#c6c5fe" d="M760.83,-859.75C760.83,-859.75 588.17,-859.75 588.17,-859.75 584.21,-859.75 580.25,-855.79 580.25,-851.83 580.25,-851.83 580.25,-843.92 580.25,-843.92 580.25,-839.96 584.21,-836 588.17,-836 588.17,-836 760.83,-836 760.83,-836 764.79,-836 768.75,-839.96 768.75,-843.92 768.75,-843.92 768.75,-851.83 768.75,-851.83 768.75,-855.79 764.79,-859.75 760.83,-859.75"/>
<text xml:space="preserve" text-anchor="middle" x="674.5" y="-842.45" font-family="Arial" font-size="14.00" fill="#c6c5fe">screens/TxnEditorScreen.tsx</text>
</g>
<!-- navigations/RootNavigator.tsx&#45;&gt;screens/TxnEditorScreen.tsx -->
<g id="edge20" class="edge">
<title>navigations/RootNavigator.tsx&#45;&gt;screens/TxnEditorScreen.tsx</title>
<path fill="none" stroke="#757575" d="M179.16,-957.52C260.23,-937.84 424.49,-898.57 564.5,-868.88 574.78,-866.69 585.63,-864.49 596.34,-862.37"/>
<polygon fill="#757575" stroke="#757575" points="596.8,-865.85 605.94,-860.49 595.45,-858.98 596.8,-865.85"/>
</g>
<!-- navigations/types.ts -->
<g id="node38" class="node">
<title>navigations/types.ts</title>
<path fill="none" stroke="#cfffac" d="M950.08,-1044.75C950.08,-1044.75 831.42,-1044.75 831.42,-1044.75 827.46,-1044.75 823.5,-1040.79 823.5,-1036.83 823.5,-1036.83 823.5,-1028.92 823.5,-1028.92 823.5,-1024.96 827.46,-1021 831.42,-1021 831.42,-1021 950.08,-1021 950.08,-1021 954.04,-1021 958,-1024.96 958,-1028.92 958,-1028.92 958,-1036.83 958,-1036.83 958,-1040.79 954.04,-1044.75 950.08,-1044.75"/>
<text xml:space="preserve" text-anchor="middle" x="890.75" y="-1027.45" font-family="Arial" font-size="14.00" fill="#cfffac">navigations/types.ts</text>
</g>
<!-- screens/AccountScreen.tsx&#45;&gt;navigations/types.ts -->
<g id="edge22" class="edge">
<title>screens/AccountScreen.tsx&#45;&gt;navigations/types.ts</title>
<path fill="none" stroke="#757575" d="M764.55,-773.15C771.72,-776.18 778.51,-780.03 784.5,-784.88 856.59,-843.16 880.14,-959.85 887.1,-1009.57"/>
<polygon fill="#757575" stroke="#757575" points="883.59,-1009.72 888.34,-1019.19 890.53,-1008.83 883.59,-1009.72"/>
</g>
<!-- state/AppContext.tsx -->
<g id="node42" class="node">
<title>state/AppContext.tsx</title>
<path fill="none" stroke="#cfffac" d="M953.08,-796.75C953.08,-796.75 828.42,-796.75 828.42,-796.75 824.46,-796.75 820.5,-792.79 820.5,-788.83 820.5,-788.83 820.5,-780.92 820.5,-780.92 820.5,-776.96 824.46,-773 828.42,-773 828.42,-773 953.08,-773 953.08,-773 957.04,-773 961,-776.96 961,-780.92 961,-780.92 961,-788.83 961,-788.83 961,-792.79 957.04,-796.75 953.08,-796.75"/>
<text xml:space="preserve" text-anchor="middle" x="890.75" y="-779.45" font-family="Arial" font-size="14.00" fill="#cfffac">state/AppContext.tsx</text>
</g>
<!-- screens/AccountScreen.tsx&#45;&gt;state/AppContext.tsx -->
<g id="edge23" class="edge">
<title>screens/AccountScreen.tsx&#45;&gt;state/AppContext.tsx</title>
<path fill="none" stroke="#757575" d="M764.5,-772.6C779.2,-774.04 794.36,-775.53 808.85,-776.95"/>
<polygon fill="#757575" stroke="#757575" points="808.49,-780.43 818.79,-777.92 809.18,-773.46 808.49,-780.43"/>
</g>
<!-- screens/AddAccountScreen.tsx&#45;&gt;state/AppContext.tsx -->
<g id="edge24" class="edge">
<title>screens/AddAccountScreen.tsx&#45;&gt;state/AppContext.tsx</title>
<path fill="none" stroke="#757575" d="M481.6,-543.53C497.48,-539.38 513.93,-533.94 528.5,-526.88 546.74,-518.03 545.33,-505.45 564.5,-498.88 656.99,-467.14 704.31,-442.93 784.5,-498.88 872.65,-560.36 887.18,-704.35 889.42,-761.19"/>
<polygon fill="#757575" stroke="#757575" points="885.91,-761.11 889.7,-771.01 892.91,-760.91 885.91,-761.11"/>
</g>
<!-- screens/BudgetEditorScreen.tsx&#45;&gt;state/AppContext.tsx -->
<g id="edge28" class="edge">
<title>screens/BudgetEditorScreen.tsx&#45;&gt;state/AppContext.tsx</title>
<path fill="none" stroke="#757575" d="M439.21,-434.53C506.69,-407.24 679.15,-350.16 784.5,-428.88 839.53,-469.99 875.89,-689.47 886.52,-761.77"/>
<polygon fill="#757575" stroke="#757575" points="883,-761.87 887.89,-771.27 889.93,-760.88 883,-761.87"/>
</g>
<!-- screens/BudgetsScreen.tsx&#45;&gt;state/AppContext.tsx -->
<g id="edge29" class="edge">
<title>screens/BudgetsScreen.tsx&#45;&gt;state/AppContext.tsx</title>
<path fill="none" stroke="#757575" d="M443.86,-493.52C474.58,-482.72 521.92,-467.85 564.5,-461.88 661.33,-448.28 705.37,-404.44 784.5,-461.88 883.18,-533.51 891.12,-700.12 890.52,-761.57"/>
<polygon fill="#757575" stroke="#757575" points="887.03,-761.13 890.33,-771.19 894.03,-761.26 887.03,-761.13"/>
</g>
<!-- screens/DashboardScreen.tsx&#45;&gt;navigations/types.ts -->
<g id="edge30" class="edge">
<title>screens/DashboardScreen.tsx&#45;&gt;navigations/types.ts</title>
<path fill="none" stroke="#757575" d="M773.22,-1021.45C786.15,-1022.72 799.26,-1024.01 811.8,-1025.23"/>
<polygon fill="#757575" stroke="#757575" points="811.32,-1028.7 821.62,-1026.2 812.01,-1021.74 811.32,-1028.7"/>
</g>
<!-- screens/DashboardScreen.tsx&#45;&gt;state/AppContext.tsx -->
<g id="edge31" class="edge">
<title>screens/DashboardScreen.tsx&#45;&gt;state/AppContext.tsx</title>
<path fill="none" stroke="#757575" d="M707.84,-999.63C731.12,-989.65 762.22,-973.78 784.5,-952.88 830.5,-909.71 864.58,-842.24 880.23,-807.39"/>
<polygon fill="#757575" stroke="#757575" points="883.41,-808.86 884.22,-798.29 877,-806.05 883.41,-808.86"/>
</g>
<!-- screens/DataExportImportScreen.tsx&#45;&gt;navigations/types.ts -->
<g id="edge32" class="edge">
<title>screens/DataExportImportScreen.tsx&#45;&gt;navigations/types.ts</title>
<path fill="none" stroke="#757575" d="M414.72,-726.07C428.05,-766.13 476.31,-894.43 564.5,-952.88 647.21,-1007.69 689.01,-963.9 784.5,-990.88 807.82,-997.46 833.07,-1007.44 852.99,-1016.01"/>
<polygon fill="#757575" stroke="#757575" points="851.51,-1019.19 862.08,-1019.99 854.32,-1012.77 851.51,-1019.19"/>
</g>
<!-- screens/DataExportImportScreen.tsx&#45;&gt;state/AppContext.tsx -->
<g id="edge33" class="edge">
<title>screens/DataExportImportScreen.tsx&#45;&gt;state/AppContext.tsx</title>
<path fill="none" stroke="#757575" d="M458.24,-701.53C530.81,-684.94 672.86,-661.79 784.5,-700.88 820.25,-713.39 852.91,-743.71 872.07,-764.29"/>
<polygon fill="#757575" stroke="#757575" points="869.34,-766.49 878.64,-771.57 874.54,-761.8 869.34,-766.49"/>
</g>
<!-- utils/backup.ts -->
<g id="node44" class="node">
<title>utils/backup.ts</title>
<path fill="none" stroke="#c6c5fe" d="M717.33,-653.75C717.33,-653.75 631.67,-653.75 631.67,-653.75 627.71,-653.75 623.75,-649.79 623.75,-645.83 623.75,-645.83 623.75,-637.92 623.75,-637.92 623.75,-633.96 627.71,-630 631.67,-630 631.67,-630 717.33,-630 717.33,-630 721.29,-630 725.25,-633.96 725.25,-637.92 725.25,-637.92 725.25,-645.83 725.25,-645.83 725.25,-649.79 721.29,-653.75 717.33,-653.75"/>
<text xml:space="preserve" text-anchor="middle" x="674.5" y="-636.45" font-family="Arial" font-size="14.00" fill="#c6c5fe">utils/backup.ts</text>
</g>
<!-- screens/DataExportImportScreen.tsx&#45;&gt;utils/backup.ts -->
<g id="edge34" class="edge">
<title>screens/DataExportImportScreen.tsx&#45;&gt;utils/backup.ts</title>
<path fill="none" stroke="#757575" d="M449.85,-701.54C480.8,-691.9 525.25,-678.42 564.5,-667.88 579.92,-663.73 596.66,-659.57 612.28,-655.83"/>
<polygon fill="#757575" stroke="#757575" points="613.03,-659.25 621.95,-653.54 611.42,-652.44 613.03,-659.25"/>
</g>
<!-- screens/PaymentsScreen.tsx&#45;&gt;navigations/types.ts -->
<g id="edge42" class="edge">
<title>screens/PaymentsScreen.tsx&#45;&gt;navigations/types.ts</title>
<path fill="none" stroke="#757575" d="M744.87,-944.18C758.34,-947.74 772.1,-952.24 784.5,-957.88 815.85,-972.13 847.45,-996.25 867.72,-1013.28"/>
<polygon fill="#757575" stroke="#757575" points="865.18,-1015.72 875.05,-1019.57 869.73,-1010.4 865.18,-1015.72"/>
</g>
<!-- screens/PaymentsScreen.tsx&#45;&gt;state/AppContext.tsx -->
<g id="edge43" class="edge">
<title>screens/PaymentsScreen.tsx&#45;&gt;state/AppContext.tsx</title>
<path fill="none" stroke="#757575" d="M765.95,-919.6C772.43,-917.18 778.69,-914.3 784.5,-910.88 827.61,-885.46 861.09,-835.64 877.88,-806.85"/>
<polygon fill="#757575" stroke="#757575" points="880.86,-808.68 882.73,-798.25 874.77,-805.24 880.86,-808.68"/>
</g>
<!-- screens/RecentActivityScreen.tsx&#45;&gt;navigations/types.ts -->
<g id="edge44" class="edge">
<title>screens/RecentActivityScreen.tsx&#45;&gt;navigations/types.ts</title>
<path fill="none" stroke="#757575" d="M761.6,-1285.55C769.88,-1282.02 777.7,-1277.54 784.5,-1271.88 852.9,-1214.83 878.3,-1104.6 886.42,-1056.4"/>
<polygon fill="#757575" stroke="#757575" points="889.87,-1056.96 887.96,-1046.54 882.96,-1055.88 889.87,-1056.96"/>
</g>
<!-- screens/RecentActivityScreen.tsx&#45;&gt;state/AppContext.tsx -->
<g id="edge45" class="edge">
<title>screens/RecentActivityScreen.tsx&#45;&gt;state/AppContext.tsx</title>
<path fill="none" stroke="#757575" d="M717.25,-1285.55C740.7,-1276.45 768.4,-1261.62 784.5,-1238.88 843.52,-1155.5 797.54,-1111.41 820.5,-1011.88 837.99,-936.03 867.38,-848.51 881.58,-807.85"/>
<polygon fill="#757575" stroke="#757575" points="884.87,-809.04 884.89,-798.44 878.27,-806.71 884.87,-809.04"/>
</g>
<!-- utils/formatDate.ts -->
<g id="node50" class="node">
<title>utils/formatDate.ts</title>
<path fill="none" stroke="#cfffac" d="M945.58,-1269.75C945.58,-1269.75 835.92,-1269.75 835.92,-1269.75 831.96,-1269.75 828,-1265.79 828,-1261.83 828,-1261.83 828,-1253.92 828,-1253.92 828,-1249.96 831.96,-1246 835.92,-1246 835.92,-1246 945.58,-1246 945.58,-1246 949.54,-1246 953.5,-1249.96 953.5,-1253.92 953.5,-1253.92 953.5,-1261.83 953.5,-1261.83 953.5,-1265.79 949.54,-1269.75 945.58,-1269.75"/>
<text xml:space="preserve" text-anchor="middle" x="890.75" y="-1252.45" font-family="Arial" font-size="14.00" fill="#cfffac">utils/formatDate.ts</text>
</g>
<!-- screens/RecentActivityScreen.tsx&#45;&gt;utils/formatDate.ts -->
<g id="edge46" class="edge">
<title>screens/RecentActivityScreen.tsx&#45;&gt;utils/formatDate.ts</title>
<path fill="none" stroke="#757575" d="M741.53,-1285.55C765.2,-1281.13 792.02,-1276.12 816.29,-1271.59"/>
<polygon fill="#757575" stroke="#757575" points="816.92,-1275.03 826.11,-1269.76 815.64,-1268.15 816.92,-1275.03"/>
</g>
<!-- screens/RecurringScreen.tsx&#45;&gt;state/AppContext.tsx -->
<g id="edge47" class="edge">
<title>screens/RecurringScreen.tsx&#45;&gt;state/AppContext.tsx</title>
<path fill="none" stroke="#757575" d="M769.18,-1330.72C774.84,-1327.57 780.04,-1323.68 784.5,-1318.88 831.25,-1268.55 806.42,-1079.11 820.5,-1011.88 836.45,-935.69 866.57,-848.34 881.26,-807.78"/>
<polygon fill="#757575" stroke="#757575" points="884.54,-808.99 884.69,-798.4 877.97,-806.59 884.54,-808.99"/>
</g>
<!-- screens/RecurringScreen.tsx&#45;&gt;utils/formatDate.ts -->
<g id="edge48" class="edge">
<title>screens/RecurringScreen.tsx&#45;&gt;utils/formatDate.ts</title>
<path fill="none" stroke="#757575" d="M756.12,-1327.52C765.82,-1325.11 775.47,-1322.25 784.5,-1318.88 813.06,-1308.2 842.88,-1290.16 863.46,-1276.46"/>
<polygon fill="#757575" stroke="#757575" points="865.21,-1279.5 871.52,-1270.99 861.28,-1273.71 865.21,-1279.5"/>
</g>
<!-- screens/ReportsScreen.tsx&#45;&gt;state/AppContext.tsx -->
<g id="edge56" class="edge">
<title>screens/ReportsScreen.tsx&#45;&gt;state/AppContext.tsx</title>
<path fill="none" stroke="#757575" d="M499.18,-362.52C595.65,-355.37 742.14,-350.93 784.5,-384.88 844.88,-433.25 878.18,-683.57 887.21,-761.61"/>
<polygon fill="#757575" stroke="#757575" points="883.68,-761.55 888.28,-771.1 890.64,-760.77 883.68,-761.55"/>
</g>
<!-- screens/SettingsScreen.tsx&#45;&gt;dev/resetDb.ts -->
<g id="edge57" class="edge">
<title>screens/SettingsScreen.tsx&#45;&gt;dev/resetDb.ts</title>
<path fill="none" stroke="#757575" d="M499.86,-1244.03C509.82,-1241.18 519.58,-1237.53 528.5,-1232.88 548.56,-1222.41 544.51,-1207.48 564.5,-1196.88 578.88,-1189.24 595.65,-1184.36 611.65,-1181.24"/>
<polygon fill="#757575" stroke="#757575" points="611.83,-1184.77 621.08,-1179.62 610.63,-1177.87 611.83,-1184.77"/>
</g>
<!-- screens/SettingsScreen.tsx&#45;&gt;navigations/types.ts -->
<g id="edge58" class="edge">
<title>screens/SettingsScreen.tsx&#45;&gt;navigations/types.ts</title>
<path fill="none" stroke="#757575" d="M500.11,-1260.39C595.49,-1265.6 739.12,-1267.92 784.5,-1238.88 849.9,-1197.02 876.54,-1100.9 885.67,-1056.35"/>
<polygon fill="#757575" stroke="#757575" points="889.07,-1057.2 887.52,-1046.72 882.2,-1055.88 889.07,-1057.2"/>
</g>
<!-- screens/SplashAuthScreen.tsx&#45;&gt;navigations/types.ts -->
<g id="edge59" class="edge">
<title>screens/SplashAuthScreen.tsx&#45;&gt;navigations/types.ts</title>
<path fill="none" stroke="#757575" d="M774.79,-1044.14C787.23,-1042.92 799.81,-1041.69 811.86,-1040.51"/>
<polygon fill="#757575" stroke="#757575" points="812.11,-1044 821.72,-1039.54 811.43,-1037.04 812.11,-1044"/>
</g>
<!-- screens/SplashAuthScreen.tsx&#45;&gt;state/AppContext.tsx -->
<g id="edge60" class="edge">
<title>screens/SplashAuthScreen.tsx&#45;&gt;state/AppContext.tsx</title>
<path fill="none" stroke="#757575" d="M771.15,-1041.51C775.89,-1039.07 780.38,-1036.21 784.5,-1032.88 856.59,-974.59 880.14,-857.9 887.1,-808.18"/>
<polygon fill="#757575" stroke="#757575" points="890.53,-808.92 888.34,-798.56 883.59,-808.03 890.53,-808.92"/>
</g>
<!-- screens/TransferScreen.tsx&#45;&gt;navigations/types.ts -->
<g id="edge61" class="edge">
<title>screens/TransferScreen.tsx&#45;&gt;navigations/types.ts</title>
<path fill="none" stroke="#757575" d="M744.87,-1121.57C758.34,-1118.01 772.1,-1113.51 784.5,-1107.88 815.85,-1093.62 847.45,-1069.5 867.72,-1052.47"/>
<polygon fill="#757575" stroke="#757575" points="869.73,-1055.35 875.05,-1046.18 865.18,-1050.03 869.73,-1055.35"/>
</g>
<!-- screens/TransferScreen.tsx&#45;&gt;state/AppContext.tsx -->
<g id="edge62" class="edge">
<title>screens/TransferScreen.tsx&#45;&gt;state/AppContext.tsx</title>
<path fill="none" stroke="#757575" d="M712.82,-1121.54C736.26,-1112.08 765.53,-1096.88 784.5,-1074.88 820.73,-1032.85 867.25,-868.9 883.68,-807.9"/>
<polygon fill="#757575" stroke="#757575" points="886.97,-809.17 886.16,-798.6 880.2,-807.36 886.97,-809.17"/>
</g>
<!-- screens/TransferScreen.tsx&#45;&gt;utils/formatDate.ts -->
<g id="edge63" class="edge">
<title>screens/TransferScreen.tsx&#45;&gt;utils/formatDate.ts</title>
<path fill="none" stroke="#757575" d="M763.89,-1146.23C771.05,-1148.63 778.01,-1151.48 784.5,-1154.88 822.52,-1174.79 855.93,-1212.88 874.44,-1236.74"/>
<polygon fill="#757575" stroke="#757575" points="871.48,-1238.63 880.29,-1244.5 877.06,-1234.41 871.48,-1238.63"/>
</g>
<!-- screens/TxnEditorScreen.tsx&#45;&gt;navigations/types.ts -->
<g id="edge64" class="edge">
<title>screens/TxnEditorScreen.tsx&#45;&gt;navigations/types.ts</title>
<path fill="none" stroke="#757575" d="M768.36,-860.15C774.03,-862.59 779.47,-865.47 784.5,-868.88 836.32,-903.97 868.2,-973.97 881.91,-1010.11"/>
<polygon fill="#757575" stroke="#757575" points="878.49,-1010.95 885.2,-1019.15 885.06,-1008.56 878.49,-1010.95"/>
</g>
<!-- screens/TxnEditorScreen.tsx&#45;&gt;state/AppContext.tsx -->
<g id="edge65" class="edge">
<title>screens/TxnEditorScreen.tsx&#45;&gt;state/AppContext.tsx</title>
<path fill="none" stroke="#757575" d="M749.83,-835.51C761.52,-833.01 773.4,-830.13 784.5,-826.88 807.6,-820.11 832.66,-810.22 852.53,-801.73"/>
<polygon fill="#757575" stroke="#757575" points="853.82,-804.99 861.6,-797.79 851.03,-798.57 853.82,-804.99"/>
</g>
<!-- navigations/screens.ts -->
<g id="node37" class="node">
<title>navigations/screens.ts</title>
<path fill="none" stroke="#cfffac" d="M194.46,-1233.75C194.46,-1233.75 60.79,-1233.75 60.79,-1233.75 56.83,-1233.75 52.88,-1229.79 52.88,-1225.83 52.88,-1225.83 52.88,-1217.92 52.88,-1217.92 52.88,-1213.96 56.83,-1210 60.79,-1210 60.79,-1210 194.46,-1210 194.46,-1210 198.42,-1210 202.38,-1213.96 202.38,-1217.92 202.38,-1217.92 202.38,-1225.83 202.38,-1225.83 202.38,-1229.79 198.42,-1233.75 194.46,-1233.75"/>
<text xml:space="preserve" text-anchor="middle" x="127.62" y="-1216.45" font-family="Arial" font-size="14.00" fill="#cfffac">navigations/screens.ts</text>
</g>
<!-- notifications/NotificationBootstrapper.tsx -->
<g id="node39" class="node">
<title>notifications/NotificationBootstrapper.tsx</title>
<path fill="none" stroke="#cfffac" d="M247.33,-1275.75C247.33,-1275.75 7.92,-1275.75 7.92,-1275.75 3.96,-1275.75 0,-1271.79 0,-1267.83 0,-1267.83 0,-1259.92 0,-1259.92 0,-1255.96 3.96,-1252 7.92,-1252 7.92,-1252 247.33,-1252 247.33,-1252 251.29,-1252 255.25,-1255.96 255.25,-1259.92 255.25,-1259.92 255.25,-1267.83 255.25,-1267.83 255.25,-1271.79 251.29,-1275.75 247.33,-1275.75"/>
<text xml:space="preserve" text-anchor="middle" x="127.62" y="-1258.45" font-family="Arial" font-size="14.00" fill="#cfffac">notifications/NotificationBootstrapper.tsx</text>
</g>
<!-- recurring/bootstrapper.js -->
<g id="node40" class="node">
<title>recurring/bootstrapper.js</title>
<path fill="none" stroke="#cfffac" d="M200.46,-1317.75C200.46,-1317.75 54.79,-1317.75 54.79,-1317.75 50.83,-1317.75 46.88,-1313.79 46.88,-1309.83 46.88,-1309.83 46.88,-1301.92 46.88,-1301.92 46.88,-1297.96 50.83,-1294 54.79,-1294 54.79,-1294 200.46,-1294 200.46,-1294 204.42,-1294 208.38,-1297.96 208.38,-1301.92 208.38,-1301.92 208.38,-1309.83 208.38,-1309.83 208.38,-1313.79 204.42,-1317.75 200.46,-1317.75"/>
<text xml:space="preserve" text-anchor="middle" x="127.62" y="-1300.45" font-family="Arial" font-size="14.00" fill="#cfffac">recurring/bootstrapper.js</text>
</g>
<!-- screens/AccountEditorScreen.tsx -->
<g id="node41" class="node">
<title>screens/AccountEditorScreen.tsx</title>
<path fill="none" stroke="#c6c5fe" d="M773.96,-733.75C773.96,-733.75 575.04,-733.75 575.04,-733.75 571.08,-733.75 567.12,-729.79 567.12,-725.83 567.12,-725.83 567.12,-717.92 567.12,-717.92 567.12,-713.96 571.08,-710 575.04,-710 575.04,-710 773.96,-710 773.96,-710 777.92,-710 781.88,-713.96 781.88,-717.92 781.88,-717.92 781.88,-725.83 781.88,-725.83 781.88,-729.79 777.92,-733.75 773.96,-733.75"/>
<text xml:space="preserve" text-anchor="middle" x="674.5" y="-716.45" font-family="Arial" font-size="14.00" fill="#c6c5fe">screens/AccountEditorScreen.tsx</text>
</g>
<!-- screens/AccountEditorScreen.tsx&#45;&gt;state/AppContext.tsx -->
<g id="edge21" class="edge">
<title>screens/AccountEditorScreen.tsx&#45;&gt;state/AppContext.tsx</title>
<path fill="none" stroke="#757575" d="M749.83,-734.24C761.52,-736.74 773.4,-739.62 784.5,-742.88 807.6,-749.64 832.66,-759.53 852.53,-768.02"/>
<polygon fill="#757575" stroke="#757575" points="851.03,-771.18 861.6,-771.96 853.82,-764.76 851.03,-771.18"/>
</g>
<!-- screens/BackupRestoreScreen.tsx -->
<g id="node43" class="node">
<title>screens/BackupRestoreScreen.tsx</title>
<path fill="none" stroke="#c6c5fe" d="M513.46,-613.75C513.46,-613.75 306.29,-613.75 306.29,-613.75 302.33,-613.75 298.38,-609.79 298.38,-605.83 298.38,-605.83 298.38,-597.92 298.38,-597.92 298.38,-593.96 302.33,-590 306.29,-590 306.29,-590 513.46,-590 513.46,-590 517.42,-590 521.38,-593.96 521.38,-597.92 521.38,-597.92 521.38,-605.83 521.38,-605.83 521.38,-609.79 517.42,-613.75 513.46,-613.75"/>
<text xml:space="preserve" text-anchor="middle" x="409.88" y="-596.45" font-family="Arial" font-size="14.00" fill="#c6c5fe">screens/BackupRestoreScreen.tsx</text>
</g>
<!-- screens/BackupRestoreScreen.tsx&#45;&gt;state/AppContext.tsx -->
<g id="edge25" class="edge">
<title>screens/BackupRestoreScreen.tsx&#45;&gt;state/AppContext.tsx</title>
<path fill="none" stroke="#757575" d="M521.86,-596.55C615.64,-594.02 741.38,-595.87 784.5,-620.88 838.9,-652.42 869.79,-724.62 882.63,-761.81"/>
<polygon fill="#757575" stroke="#757575" points="879.24,-762.71 885.7,-771.11 885.89,-760.52 879.24,-762.71"/>
</g>
<!-- screens/BackupRestoreScreen.tsx&#45;&gt;utils/backup.ts -->
<g id="edge26" class="edge">
<title>screens/BackupRestoreScreen.tsx&#45;&gt;utils/backup.ts</title>
<path fill="none" stroke="#757575" d="M491.81,-614.2C530.57,-620.11 576.23,-627.06 612.08,-632.52"/>
<polygon fill="#757575" stroke="#757575" points="611.45,-635.96 621.86,-634.01 612.5,-629.04 611.45,-635.96"/>
</g>
<!-- utils/backupReminder.ts -->
<g id="node45" class="node">
<title>utils/backupReminder.ts</title>
<path fill="none" stroke="#cfffac" d="M746.58,-531.75C746.58,-531.75 602.42,-531.75 602.42,-531.75 598.46,-531.75 594.5,-527.79 594.5,-523.83 594.5,-523.83 594.5,-515.92 594.5,-515.92 594.5,-511.96 598.46,-508 602.42,-508 602.42,-508 746.58,-508 746.58,-508 750.54,-508 754.5,-511.96 754.5,-515.92 754.5,-515.92 754.5,-523.83 754.5,-523.83 754.5,-527.79 750.54,-531.75 746.58,-531.75"/>
<text xml:space="preserve" text-anchor="middle" x="674.5" y="-514.45" font-family="Arial" font-size="14.00" fill="#cfffac">utils/backupReminder.ts</text>
</g>
<!-- screens/BackupRestoreScreen.tsx&#45;&gt;utils/backupReminder.ts -->
<g id="edge27" class="edge">
<title>screens/BackupRestoreScreen.tsx&#45;&gt;utils/backupReminder.ts</title>
<path fill="none" stroke="#757575" d="M497.43,-589.51C508.24,-586.24 518.87,-582.1 528.5,-576.88 548.39,-566.08 544.51,-551.48 564.5,-540.88 570.53,-537.67 576.98,-534.96 583.62,-532.65"/>
<polygon fill="#757575" stroke="#757575" points="584.23,-536.13 592.73,-529.81 582.14,-529.45 584.23,-536.13"/>
</g>
<!-- utils/backup.ts&#45;&gt;state/AppContext.tsx -->
<g id="edge67" class="edge">
<title>utils/backup.ts&#45;&gt;state/AppContext.tsx</title>
<path fill="none" stroke="#757575" d="M725.65,-647.34C745.04,-651.07 766.77,-657.34 784.5,-667.88 824.93,-691.9 858.58,-736.52 876.29,-763.17"/>
<polygon fill="#757575" stroke="#757575" points="873.28,-764.98 881.65,-771.48 879.16,-761.18 873.28,-764.98"/>
</g>
<!-- screens/HealthCheckScreen.tsx -->
<g id="node46" class="node">
<title>screens/HealthCheckScreen.tsx</title>
<path fill="none" stroke="#c6c5fe" d="M770.58,-1519.75C770.58,-1519.75 578.42,-1519.75 578.42,-1519.75 574.46,-1519.75 570.5,-1515.79 570.5,-1511.83 570.5,-1511.83 570.5,-1503.92 570.5,-1503.92 570.5,-1499.96 574.46,-1496 578.42,-1496 578.42,-1496 770.58,-1496 770.58,-1496 774.54,-1496 778.5,-1499.96 778.5,-1503.92 778.5,-1503.92 778.5,-1511.83 778.5,-1511.83 778.5,-1515.79 774.54,-1519.75 770.58,-1519.75"/>
<text xml:space="preserve" text-anchor="middle" x="674.5" y="-1502.45" font-family="Arial" font-size="14.00" fill="#c6c5fe">screens/HealthCheckScreen.tsx</text>
</g>
<!-- screens/HealthCheckScreen.tsx&#45;&gt;db/db.ts -->
<g id="edge35" class="edge">
<title>screens/HealthCheckScreen.tsx&#45;&gt;db/db.ts</title>
<path fill="none" stroke="#757575" d="M778.86,-1497.74C803.08,-1495.37 827.55,-1492.97 847.32,-1491.03"/>
<polygon fill="#757575" stroke="#757575" points="847.56,-1494.53 857.18,-1490.07 846.88,-1487.56 847.56,-1494.53"/>
</g>
<!-- screens/HistoryScreen.tsx -->
<g id="node47" class="node">
<title>screens/HistoryScreen.tsx</title>
<path fill="none" stroke="#c6c5fe" d="M752.96,-901.75C752.96,-901.75 596.04,-901.75 596.04,-901.75 592.08,-901.75 588.12,-897.79 588.12,-893.83 588.12,-893.83 588.12,-885.92 588.12,-885.92 588.12,-881.96 592.08,-878 596.04,-878 596.04,-878 752.96,-878 752.96,-878 756.92,-878 760.88,-881.96 760.88,-885.92 760.88,-885.92 760.88,-893.83 760.88,-893.83 760.88,-897.79 756.92,-901.75 752.96,-901.75"/>
<text xml:space="preserve" text-anchor="middle" x="674.5" y="-884.45" font-family="Arial" font-size="14.00" fill="#c6c5fe">screens/HistoryScreen.tsx</text>
</g>
<!-- screens/HistoryScreen.tsx&#45;&gt;navigations/types.ts -->
<g id="edge36" class="edge">
<title>screens/HistoryScreen.tsx&#45;&gt;navigations/types.ts</title>
<path fill="none" stroke="#757575" d="M761.13,-900.58C769.31,-903.3 777.24,-906.68 784.5,-910.88 826.79,-935.35 860.37,-983.23 877.44,-1011.18"/>
<polygon fill="#757575" stroke="#757575" points="874.27,-1012.7 882.38,-1019.52 880.3,-1009.13 874.27,-1012.7"/>
</g>
<!-- screens/HistoryScreen.tsx&#45;&gt;state/AppContext.tsx -->
<g id="edge37" class="edge">
<title>screens/HistoryScreen.tsx&#45;&gt;state/AppContext.tsx</title>
<path fill="none" stroke="#757575" d="M760.96,-877.57C769.09,-875.17 777.06,-872.3 784.5,-868.88 818.34,-853.27 850.85,-824.53 870.56,-805.06"/>
<polygon fill="#757575" stroke="#757575" points="872.83,-807.75 877.37,-798.18 867.85,-802.83 872.83,-807.75"/>
</g>
<!-- screens/LoginScreen.tsx -->
<g id="node48" class="node">
<title>screens/LoginScreen.tsx</title>
<path fill="none" stroke="#c6c5fe" d="M483.83,-1059.75C483.83,-1059.75 335.92,-1059.75 335.92,-1059.75 331.96,-1059.75 328,-1055.79 328,-1051.83 328,-1051.83 328,-1043.92 328,-1043.92 328,-1039.96 331.96,-1036 335.92,-1036 335.92,-1036 483.83,-1036 483.83,-1036 487.79,-1036 491.75,-1039.96 491.75,-1043.92 491.75,-1043.92 491.75,-1051.83 491.75,-1051.83 491.75,-1055.79 487.79,-1059.75 483.83,-1059.75"/>
<text xml:space="preserve" text-anchor="middle" x="409.88" y="-1042.45" font-family="Arial" font-size="14.00" fill="#c6c5fe">screens/LoginScreen.tsx</text>
</g>
<!-- screens/LoginScreen.tsx&#45;&gt;screens/SplashAuthScreen.tsx -->
<g id="edge39" class="edge">
<title>screens/LoginScreen.tsx&#45;&gt;screens/SplashAuthScreen.tsx</title>
<path fill="none" stroke="#757575" d="M492.17,-1049.73C514.67,-1050.25 539.47,-1050.81 563.32,-1051.36"/>
<polygon fill="#757575" stroke="#757575" points="562.97,-1054.85 573.05,-1051.58 563.13,-1047.85 562.97,-1054.85"/>
</g>
<!-- screens/LoginScreen.tsx&#45;&gt;navigations/types.ts -->
<g id="edge38" class="edge">
<title>screens/LoginScreen.tsx&#45;&gt;navigations/types.ts</title>
<path fill="none" stroke="#757575" d="M463.36,-1060.21C536.12,-1075.37 671.46,-1096.6 784.5,-1074.88 809.39,-1070.09 835.89,-1059.48 856.07,-1050.13"/>
<polygon fill="#757575" stroke="#757575" points="857.41,-1053.36 864.93,-1045.9 854.39,-1047.05 857.41,-1053.36"/>
</g>
<!-- screens/PaymentEditorScreen.tsx -->
<g id="node49" class="node">
<title>screens/PaymentEditorScreen.tsx</title>
<path fill="none" stroke="#c6c5fe" d="M776.58,-817.75C776.58,-817.75 572.42,-817.75 572.42,-817.75 568.46,-817.75 564.5,-813.79 564.5,-809.83 564.5,-809.83 564.5,-801.92 564.5,-801.92 564.5,-797.96 568.46,-794 572.42,-794 572.42,-794 776.58,-794 776.58,-794 780.54,-794 784.5,-797.96 784.5,-801.92 784.5,-801.92 784.5,-809.83 784.5,-809.83 784.5,-813.79 780.54,-817.75 776.58,-817.75"/>
<text xml:space="preserve" text-anchor="middle" x="674.5" y="-800.45" font-family="Arial" font-size="14.00" fill="#c6c5fe">screens/PaymentEditorScreen.tsx</text>
</g>
<!-- screens/PaymentEditorScreen.tsx&#45;&gt;navigations/types.ts -->
<g id="edge40" class="edge">
<title>screens/PaymentEditorScreen.tsx&#45;&gt;navigations/types.ts</title>
<path fill="none" stroke="#757575" d="M770.08,-818.21C775.18,-820.65 780.03,-823.52 784.5,-826.88 846.29,-873.31 874.66,-966.35 884.94,-1009.68"/>
<polygon fill="#757575" stroke="#757575" points="881.48,-1010.27 887.09,-1019.26 888.31,-1008.74 881.48,-1010.27"/>
</g>
<!-- screens/PaymentEditorScreen.tsx&#45;&gt;state/AppContext.tsx -->
<g id="edge41" class="edge">
<title>screens/PaymentEditorScreen.tsx&#45;&gt;state/AppContext.tsx</title>
<path fill="none" stroke="#757575" d="M784.82,-795.16C792.86,-794.37 800.89,-793.59 808.71,-792.82"/>
<polygon fill="#757575" stroke="#757575" points="808.9,-796.32 818.51,-791.86 808.22,-789.35 808.9,-796.32"/>
</g>
<!-- screens/ReportDetailScreen.tsx -->
<g id="node51" class="node">
<title>screens/ReportDetailScreen.tsx</title>
<path fill="none" stroke="#c6c5fe" d="M769.46,-1229.75C769.46,-1229.75 579.54,-1229.75 579.54,-1229.75 575.58,-1229.75 571.62,-1225.79 571.62,-1221.83 571.62,-1221.83 571.62,-1213.92 571.62,-1213.92 571.62,-1209.96 575.58,-1206 579.54,-1206 579.54,-1206 769.46,-1206 769.46,-1206 773.42,-1206 777.38,-1209.96 777.38,-1213.92 777.38,-1213.92 777.38,-1221.83 777.38,-1221.83 777.38,-1225.79 773.42,-1229.75 769.46,-1229.75"/>
<text xml:space="preserve" text-anchor="middle" x="674.5" y="-1212.45" font-family="Arial" font-size="14.00" fill="#c6c5fe">screens/ReportDetailScreen.tsx</text>
</g>
<!-- screens/ReportDetailScreen.tsx&#45;&gt;navigations/types.ts -->
<g id="edge49" class="edge">
<title>screens/ReportDetailScreen.tsx&#45;&gt;navigations/types.ts</title>
<path fill="none" stroke="#757575" d="M768.36,-1205.6C774.03,-1203.16 779.47,-1200.28 784.5,-1196.88 836.32,-1161.78 868.2,-1091.78 881.91,-1055.64"/>
<polygon fill="#757575" stroke="#757575" points="885.06,-1057.19 885.2,-1046.6 878.49,-1054.8 885.06,-1057.19"/>
</g>
<!-- screens/ReportDetailScreen.tsx&#45;&gt;state/AppContext.tsx -->
<g id="edge50" class="edge">
<title>screens/ReportDetailScreen.tsx&#45;&gt;state/AppContext.tsx</title>
<path fill="none" stroke="#757575" d="M773.26,-1205.75C777.31,-1203.22 781.09,-1200.28 784.5,-1196.88 843.79,-1137.7 800.25,-1093.16 820.5,-1011.88 839.31,-936.35 868.07,-848.68 881.85,-807.92"/>
<polygon fill="#757575" stroke="#757575" points="885.15,-809.08 885.06,-798.49 878.52,-806.83 885.15,-809.08"/>
</g>
<!-- screens/ReportDetailScreen.tsx&#45;&gt;utils/formatDate.ts -->
<g id="edge51" class="edge">
<title>screens/ReportDetailScreen.tsx&#45;&gt;utils/formatDate.ts</title>
<path fill="none" stroke="#757575" d="M741.53,-1230.2C765.2,-1234.62 792.02,-1239.63 816.29,-1244.16"/>
<polygon fill="#757575" stroke="#757575" points="815.64,-1247.6 826.11,-1245.99 816.92,-1240.72 815.64,-1247.6"/>
</g>
<!-- screens/ReportEditorScreen.tsx -->
<g id="node52" class="node">
<title>screens/ReportEditorScreen.tsx</title>
<path fill="none" stroke="#c6c5fe" d="M769.83,-1393.75C769.83,-1393.75 579.17,-1393.75 579.17,-1393.75 575.21,-1393.75 571.25,-1389.79 571.25,-1385.83 571.25,-1385.83 571.25,-1377.92 571.25,-1377.92 571.25,-1373.96 575.21,-1370 579.17,-1370 579.17,-1370 769.83,-1370 769.83,-1370 773.79,-1370 777.75,-1373.96 777.75,-1377.92 777.75,-1377.92 777.75,-1385.83 777.75,-1385.83 777.75,-1389.79 773.79,-1393.75 769.83,-1393.75"/>
<text xml:space="preserve" text-anchor="middle" x="674.5" y="-1376.45" font-family="Arial" font-size="14.00" fill="#c6c5fe">screens/ReportEditorScreen.tsx</text>
</g>
<!-- screens/ReportEditorScreen.tsx&#45;&gt;navigations/types.ts -->
<g id="edge52" class="edge">
<title>screens/ReportEditorScreen.tsx&#45;&gt;navigations/types.ts</title>
<path fill="none" stroke="#757575" d="M772.39,-1369.66C776.72,-1367.16 780.8,-1364.25 784.5,-1360.88 826.91,-1322.21 803.27,-1291.61 820.5,-1236.88 841.27,-1170.88 868.18,-1093.75 881.51,-1056.03"/>
<polygon fill="#757575" stroke="#757575" points="884.79,-1057.25 884.83,-1046.66 878.2,-1054.91 884.79,-1057.25"/>
</g>
<!-- services/reporting.ts -->
<g id="node53" class="node">
<title>services/reporting.ts</title>
<path fill="none" stroke="#cfffac" d="M951.21,-1414.75C951.21,-1414.75 830.29,-1414.75 830.29,-1414.75 826.33,-1414.75 822.38,-1410.79 822.38,-1406.83 822.38,-1406.83 822.38,-1398.92 822.38,-1398.92 822.38,-1394.96 826.33,-1391 830.29,-1391 830.29,-1391 951.21,-1391 951.21,-1391 955.17,-1391 959.12,-1394.96 959.12,-1398.92 959.12,-1398.92 959.12,-1406.83 959.12,-1406.83 959.12,-1410.79 955.17,-1414.75 951.21,-1414.75"/>
<text xml:space="preserve" text-anchor="middle" x="890.75" y="-1397.45" font-family="Arial" font-size="14.00" fill="#cfffac">services/reporting.ts</text>
</g>
<!-- screens/ReportEditorScreen.tsx&#45;&gt;services/reporting.ts -->
<g id="edge53" class="edge">
<title>screens/ReportEditorScreen.tsx&#45;&gt;services/reporting.ts</title>
<path fill="none" stroke="#757575" d="M778.23,-1391.94C789.12,-1393.01 800.06,-1394.08 810.61,-1395.12"/>
<polygon fill="#757575" stroke="#757575" points="810.09,-1398.58 820.39,-1396.08 810.78,-1391.62 810.09,-1398.58"/>
</g>
<!-- screens/ReportListScreen.tsx -->
<g id="node54" class="node">
<title>screens/ReportListScreen.tsx</title>
<path fill="none" stroke="#c6c5fe" d="M762.71,-1435.75C762.71,-1435.75 586.29,-1435.75 586.29,-1435.75 582.33,-1435.75 578.38,-1431.79 578.38,-1427.83 578.38,-1427.83 578.38,-1419.92 578.38,-1419.92 578.38,-1415.96 582.33,-1412 586.29,-1412 586.29,-1412 762.71,-1412 762.71,-1412 766.67,-1412 770.62,-1415.96 770.62,-1419.92 770.62,-1419.92 770.62,-1427.83 770.62,-1427.83 770.62,-1431.79 766.67,-1435.75 762.71,-1435.75"/>
<text xml:space="preserve" text-anchor="middle" x="674.5" y="-1418.45" font-family="Arial" font-size="14.00" fill="#c6c5fe">screens/ReportListScreen.tsx</text>
</g>
<!-- screens/ReportListScreen.tsx&#45;&gt;db/db.ts -->
<g id="edge54" class="edge">
<title>screens/ReportListScreen.tsx&#45;&gt;db/db.ts</title>
<path fill="none" stroke="#757575" d="M749.83,-1436.24C761.52,-1438.74 773.4,-1441.62 784.5,-1444.88 807.6,-1451.64 832.66,-1461.53 852.53,-1470.02"/>
<polygon fill="#757575" stroke="#757575" points="851.03,-1473.18 861.6,-1473.96 853.82,-1466.76 851.03,-1473.18"/>
</g>
<!-- screens/ReportListScreen.tsx&#45;&gt;services/reporting.ts -->
<g id="edge55" class="edge">
<title>screens/ReportListScreen.tsx&#45;&gt;services/reporting.ts</title>
<path fill="none" stroke="#757575" d="M771.03,-1414.51C784.32,-1413.21 797.86,-1411.88 810.8,-1410.61"/>
<polygon fill="#757575" stroke="#757575" points="810.88,-1414.12 820.49,-1409.66 810.2,-1407.16 810.88,-1414.12"/>
</g>
<!-- services/accounts.ts -->
<g id="node55" class="node">
<title>services/accounts.ts</title>
<path fill="none" stroke="#c6c5fe" d="M735.33,-1477.75C735.33,-1477.75 613.67,-1477.75 613.67,-1477.75 609.71,-1477.75 605.75,-1473.79 605.75,-1469.83 605.75,-1469.83 605.75,-1461.92 605.75,-1461.92 605.75,-1457.96 609.71,-1454 613.67,-1454 613.67,-1454 735.33,-1454 735.33,-1454 739.29,-1454 743.25,-1457.96 743.25,-1461.92 743.25,-1461.92 743.25,-1469.83 743.25,-1469.83 743.25,-1473.79 739.29,-1477.75 735.33,-1477.75"/>
<text xml:space="preserve" text-anchor="middle" x="674.5" y="-1460.45" font-family="Arial" font-size="14.00" fill="#c6c5fe">services/accounts.ts</text>
</g>
<!-- services/accounts.ts&#45;&gt;db/db.ts -->
<g id="edge66" class="edge">
<title>services/accounts.ts&#45;&gt;db/db.ts</title>
<path fill="none" stroke="#757575" d="M743.58,-1472.55C777.55,-1475.88 817.58,-1479.8 847.16,-1482.7"/>
<polygon fill="#757575" stroke="#757575" points="846.54,-1486.16 856.83,-1483.65 847.22,-1479.19 846.54,-1486.16"/>
</g>
<!-- types/expo&#45;file&#45;system.d.ts -->
<g id="node56" class="node">
<title>types/expo&#45;file&#45;system.d.ts</title>
<path fill="none" stroke="#cfffac" d="M207.96,-1359.75C207.96,-1359.75 47.29,-1359.75 47.29,-1359.75 43.33,-1359.75 39.38,-1355.79 39.38,-1351.83 39.38,-1351.83 39.38,-1343.92 39.38,-1343.92 39.38,-1339.96 43.33,-1336 47.29,-1336 47.29,-1336 207.96,-1336 207.96,-1336 211.92,-1336 215.88,-1339.96 215.88,-1343.92 215.88,-1343.92 215.88,-1351.83 215.88,-1351.83 215.88,-1355.79 211.92,-1359.75 207.96,-1359.75"/>
<text xml:space="preserve" text-anchor="middle" x="127.62" y="-1342.45" font-family="Arial" font-size="14.00" fill="#cfffac">types/expo&#45;file&#45;system.d.ts</text>
</g>
<!-- types/global.d.ts -->
<g id="node57" class="node">
<title>types/global.d.ts</title>
<path fill="none" stroke="#cfffac" d="M176.46,-1401.75C176.46,-1401.75 78.79,-1401.75 78.79,-1401.75 74.83,-1401.75 70.88,-1397.79 70.88,-1393.83 70.88,-1393.83 70.88,-1385.92 70.88,-1385.92 70.88,-1381.96 74.83,-1378 78.79,-1378 78.79,-1378 176.46,-1378 176.46,-1378 180.42,-1378 184.38,-1381.96 184.38,-1385.92 184.38,-1385.92 184.38,-1393.83 184.38,-1393.83 184.38,-1397.79 180.42,-1401.75 176.46,-1401.75"/>
<text xml:space="preserve" text-anchor="middle" x="127.62" y="-1384.45" font-family="Arial" font-size="14.00" fill="#cfffac">types/global.d.ts</text>
</g>
<!-- utils/csvTemplate.ts -->
<g id="node59" class="node">
<title>utils/csvTemplate.ts</title>
<path fill="none" stroke="#cfffac" d="M186.58,-1443.75C186.58,-1443.75 68.67,-1443.75 68.67,-1443.75 64.71,-1443.75 60.75,-1439.79 60.75,-1435.83 60.75,-1435.83 60.75,-1427.92 60.75,-1427.92 60.75,-1423.96 64.71,-1420 68.67,-1420 68.67,-1420 186.58,-1420 186.58,-1420 190.54,-1420 194.5,-1423.96 194.5,-1427.92 194.5,-1427.92 194.5,-1435.83 194.5,-1435.83 194.5,-1439.79 190.54,-1443.75 186.58,-1443.75"/>
<text xml:space="preserve" text-anchor="middle" x="127.62" y="-1426.45" font-family="Arial" font-size="14.00" fill="#cfffac">utils/csvTemplate.ts</text>
</g>
<!-- utils/csvUtils.ts -->
<g id="node60" class="node">
<title>utils/csvUtils.ts</title>
<path fill="none" stroke="#cfffac" d="M171.96,-1485.75C171.96,-1485.75 83.29,-1485.75 83.29,-1485.75 79.33,-1485.75 75.38,-1481.79 75.38,-1477.83 75.38,-1477.83 75.38,-1469.92 75.38,-1469.92 75.38,-1465.96 79.33,-1462 83.29,-1462 83.29,-1462 171.96,-1462 171.96,-1462 175.92,-1462 179.88,-1465.96 179.88,-1469.92 179.88,-1469.92 179.88,-1477.83 179.88,-1477.83 179.88,-1481.79 175.92,-1485.75 171.96,-1485.75"/>
<text xml:space="preserve" text-anchor="middle" x="127.62" y="-1468.45" font-family="Arial" font-size="14.00" fill="#cfffac">utils/csvUtils.ts</text>
</g>
<!-- utils/dateUtils.ts -->
<g id="node61" class="node">
<title>utils/dateUtils.ts</title>
<path fill="none" stroke="#cfffac" d="M174.96,-1527.75C174.96,-1527.75 80.29,-1527.75 80.29,-1527.75 76.33,-1527.75 72.38,-1523.79 72.38,-1519.83 72.38,-1519.83 72.38,-1511.92 72.38,-1511.92 72.38,-1507.96 76.33,-1504 80.29,-1504 80.29,-1504 174.96,-1504 174.96,-1504 178.92,-1504 182.88,-1507.96 182.88,-1511.92 182.88,-1511.92 182.88,-1519.83 182.88,-1519.83 182.88,-1523.79 178.92,-1527.75 174.96,-1527.75"/>
<text xml:space="preserve" text-anchor="middle" x="127.62" y="-1510.45" font-family="Arial" font-size="14.00" fill="#cfffac">utils/dateUtils.ts</text>
</g>
<!-- utils/moneyUtils.ts -->
<g id="node62" class="node">
<title>utils/moneyUtils.ts</title>
<path fill="none" stroke="#cfffac" d="M182.46,-1569.75C182.46,-1569.75 72.79,-1569.75 72.79,-1569.75 68.83,-1569.75 64.88,-1565.79 64.88,-1561.83 64.88,-1561.83 64.88,-1553.92 64.88,-1553.92 64.88,-1549.96 68.83,-1546 72.79,-1546 72.79,-1546 182.46,-1546 182.46,-1546 186.42,-1546 190.38,-1549.96 190.38,-1553.92 190.38,-1553.92 190.38,-1561.83 190.38,-1561.83 190.38,-1565.79 186.42,-1569.75 182.46,-1569.75"/>
<text xml:space="preserve" text-anchor="middle" x="127.62" y="-1552.45" font-family="Arial" font-size="14.00" fill="#cfffac">utils/moneyUtils.ts</text>
</g>
<!-- utils/notifications.ts -->
<g id="node63" class="node">
<title>utils/notifications.ts</title>
<path fill="none" stroke="#cfffac" d="M184.33,-1611.75C184.33,-1611.75 70.92,-1611.75 70.92,-1611.75 66.96,-1611.75 63,-1607.79 63,-1603.83 63,-1603.83 63,-1595.92 63,-1595.92 63,-1591.96 66.96,-1588 70.92,-1588 70.92,-1588 184.33,-1588 184.33,-1588 188.29,-1588 192.25,-1591.96 192.25,-1595.92 192.25,-1595.92 192.25,-1603.83 192.25,-1603.83 192.25,-1607.79 188.29,-1611.75 184.33,-1611.75"/>
<text xml:space="preserve" text-anchor="middle" x="127.62" y="-1594.45" font-family="Arial" font-size="14.00" fill="#cfffac">utils/notifications.ts</text>
</g>
<!-- utils/runningBalance.ts -->
<g id="node64" class="node">
<title>utils/runningBalance.ts</title>
<path fill="none" stroke="#c6c5fe" d="M742.46,-573.75C742.46,-573.75 606.54,-573.75 606.54,-573.75 602.58,-573.75 598.62,-569.79 598.62,-565.83 598.62,-565.83 598.62,-557.92 598.62,-557.92 598.62,-553.96 602.58,-550 606.54,-550 606.54,-550 742.46,-550 742.46,-550 746.42,-550 750.38,-553.96 750.38,-557.92 750.38,-557.92 750.38,-565.83 750.38,-565.83 750.38,-569.79 746.42,-573.75 742.46,-573.75"/>
<text xml:space="preserve" text-anchor="middle" x="674.5" y="-556.45" font-family="Arial" font-size="14.00" fill="#c6c5fe">utils/runningBalance.ts</text>
</g>
<!-- utils/runningBalance.ts&#45;&gt;state/AppContext.tsx -->
<g id="edge70" class="edge">
<title>utils/runningBalance.ts&#45;&gt;state/AppContext.tsx</title>
<path fill="none" stroke="#757575" d="M750.83,-570.98C762.9,-574.84 774.64,-580.27 784.5,-587.88 843.05,-633.05 872.78,-720.26 884.13,-761.79"/>
<polygon fill="#757575" stroke="#757575" points="880.73,-762.64 886.64,-771.43 887.51,-760.87 880.73,-762.64"/>
</g>
<!-- utils/typedEntries.ts -->
<g id="node65" class="node">
<title>utils/typedEntries.ts</title>
<path fill="none" stroke="#cfffac" d="M186.21,-1653.75C186.21,-1653.75 69.04,-1653.75 69.04,-1653.75 65.08,-1653.75 61.12,-1649.79 61.12,-1645.83 61.12,-1645.83 61.12,-1637.92 61.12,-1637.92 61.12,-1633.96 65.08,-1630 69.04,-1630 69.04,-1630 186.21,-1630 186.21,-1630 190.17,-1630 194.12,-1633.96 194.12,-1637.92 194.12,-1637.92 194.12,-1645.83 194.12,-1645.83 194.12,-1649.79 190.17,-1653.75 186.21,-1653.75"/>
<text xml:space="preserve" text-anchor="middle" x="127.62" y="-1636.45" font-family="Arial" font-size="14.00" fill="#cfffac">utils/typedEntries.ts</text>
</g>
</g>
</svg>
