<?xml version="1.0" encoding="UTF-8" standalone="no"?>
<!DOCTYPE svg PUBLIC "-//W3C//DTD SVG 1.1//EN"
 "http://www.w3.org/Graphics/SVG/1.1/DTD/svg11.dtd">
<!-- Generated by graphviz version 14.1.1 (20251213.1925)
 -->
<!-- Title: G Pages: 1 -->
<svg width="1121pt" height="1554pt"
 viewBox="0.00 0.00 1121.00 1554.00" xmlns="http://www.w3.org/2000/svg" xmlns:xlink="http://www.w3.org/1999/xlink">
<g id="graph0" class="graph" transform="scale(1 1) rotate(0) translate(21.6 1532.35)">
<title>G</title>
<polygon fill="#111111" stroke="none" points="-21.6,21.6 -21.6,-1532.35 1099.6,-1532.35 1099.6,21.6 -21.6,21.6"/>
<!-- components/AccountForm.tsx -->
<g id="node1" class="node">
<title>components/AccountForm.tsx</title>
<path fill="none" stroke="#c6c5fe" d="M499.96,-943.75C499.96,-943.75 319.79,-943.75 319.79,-943.75 315.83,-943.75 311.88,-939.79 311.88,-935.83 311.88,-935.83 311.88,-927.92 311.88,-927.92 311.88,-923.96 315.83,-920 319.79,-920 319.79,-920 499.96,-920 499.96,-920 503.92,-920 507.88,-923.96 507.88,-927.92 507.88,-927.92 507.88,-935.83 507.88,-935.83 507.88,-939.79 503.92,-943.75 499.96,-943.75"/>
<text xml:space="preserve" text-anchor="middle" x="409.88" y="-926.45" font-family="Arial" font-size="14.00" fill="#c6c5fe">components/AccountForm.tsx</text>
</g>
<!-- theme/colors.ts -->
<g id="node2" class="node">
<title>theme/colors.ts</title>
<path fill="none" stroke="#cfffac" d="M740.58,-771.75C740.58,-771.75 648.17,-771.75 648.17,-771.75 644.21,-771.75 640.25,-767.79 640.25,-763.83 640.25,-763.83 640.25,-755.92 640.25,-755.92 640.25,-751.96 644.21,-748 648.17,-748 648.17,-748 740.58,-748 740.58,-748 744.54,-748 748.5,-751.96 748.5,-755.92 748.5,-755.92 748.5,-763.83 748.5,-763.83 748.5,-767.79 744.54,-771.75 740.58,-771.75"/>
<text xml:space="preserve" text-anchor="middle" x="694.38" y="-754.45" font-family="Arial" font-size="14.00" fill="#cfffac">theme/colors.ts</text>
</g>
<!-- components/AccountForm.tsx&#45;&gt;theme/colors.ts -->
<g id="edge1" class="edge">
<title>components/AccountForm.tsx&#45;&gt;theme/colors.ts</title>
<path fill="none" stroke="#757575" d="M508.19,-923.86C515.58,-920.54 522.49,-916.29 528.5,-910.88 571.44,-872.17 521.99,-825.06 564.5,-785.88 581.73,-769.99 605.86,-762.67 628.59,-759.59"/>
<polygon fill="#757575" stroke="#757575" points="628.88,-763.08 638.45,-758.54 628.13,-756.12 628.88,-763.08"/>
</g>
<!-- components/ActionFab.tsx -->
<g id="node3" class="node">
<title>components/ActionFab.tsx</title>
<path fill="none" stroke="#c6c5fe" d="M489.83,-901.75C489.83,-901.75 329.92,-901.75 329.92,-901.75 325.96,-901.75 322,-897.79 322,-893.83 322,-893.83 322,-885.92 322,-885.92 322,-881.96 325.96,-878 329.92,-878 329.92,-878 489.83,-878 489.83,-878 493.79,-878 497.75,-881.96 497.75,-885.92 497.75,-885.92 497.75,-893.83 497.75,-893.83 497.75,-897.79 493.79,-901.75 489.83,-901.75"/>
<text xml:space="preserve" text-anchor="middle" x="409.88" y="-884.45" font-family="Arial" font-size="14.00" fill="#c6c5fe">components/ActionFab.tsx</text>
</g>
<!-- components/ActionFab.tsx&#45;&gt;theme/colors.ts -->
<g id="edge2" class="edge">
<title>components/ActionFab.tsx&#45;&gt;theme/colors.ts</title>
<path fill="none" stroke="#757575" d="M497.99,-884.45C509.02,-880.96 519.55,-875.95 528.5,-868.88 560.04,-843.93 533.24,-811.17 564.5,-785.88 582.49,-771.32 606.44,-764.22 628.81,-760.94"/>
<polygon fill="#757575" stroke="#757575" points="628.96,-764.45 638.47,-759.78 628.12,-757.5 628.96,-764.45"/>
</g>
<!-- components/Center.tsx -->
<g id="node4" class="node">
<title>components/Center.tsx</title>
<path fill="none" stroke="#cfffac" d="M197.08,-754.75C197.08,-754.75 58.17,-754.75 58.17,-754.75 54.21,-754.75 50.25,-750.79 50.25,-746.83 50.25,-746.83 50.25,-738.92 50.25,-738.92 50.25,-734.96 54.21,-731 58.17,-731 58.17,-731 197.08,-731 197.08,-731 201.04,-731 205,-734.96 205,-738.92 205,-738.92 205,-746.83 205,-746.83 205,-750.79 201.04,-754.75 197.08,-754.75"/>
<text xml:space="preserve" text-anchor="middle" x="127.62" y="-737.45" font-family="Arial" font-size="14.00" fill="#cfffac">components/Center.tsx</text>
</g>
<!-- components/ErrorBoundary.tsx -->
<g id="node5" class="node">
<title>components/ErrorBoundary.tsx</title>
<path fill="none" stroke="#cfffac" d="M220.71,-796.75C220.71,-796.75 34.54,-796.75 34.54,-796.75 30.58,-796.75 26.62,-792.79 26.62,-788.83 26.62,-788.83 26.62,-780.92 26.62,-780.92 26.62,-776.96 30.58,-773 34.54,-773 34.54,-773 220.71,-773 220.71,-773 224.67,-773 228.62,-776.96 228.62,-780.92 228.62,-780.92 228.62,-788.83 228.62,-788.83 228.62,-792.79 224.67,-796.75 220.71,-796.75"/>
<text xml:space="preserve" text-anchor="middle" x="127.62" y="-779.45" font-family="Arial" font-size="14.00" fill="#cfffac">components/ErrorBoundary.tsx</text>
</g>
<!-- components/LineChart.tsx -->
<g id="node6" class="node">
<title>components/LineChart.tsx</title>
<path fill="none" stroke="#cfffac" d="M206.46,-838.75C206.46,-838.75 48.79,-838.75 48.79,-838.75 44.83,-838.75 40.88,-834.79 40.88,-830.83 40.88,-830.83 40.88,-822.92 40.88,-822.92 40.88,-818.96 44.83,-815 48.79,-815 48.79,-815 206.46,-815 206.46,-815 210.42,-815 214.38,-818.96 214.38,-822.92 214.38,-822.92 214.38,-830.83 214.38,-830.83 214.38,-834.79 210.42,-838.75 206.46,-838.75"/>
<text xml:space="preserve" text-anchor="middle" x="127.62" y="-821.45" font-family="Arial" font-size="14.00" fill="#cfffac">components/LineChart.tsx</text>
</g>
<!-- components/PaymentForm.tsx -->
<g id="node7" class="node">
<title>components/PaymentForm.tsx</title>
<path fill="none" stroke="#c6c5fe" d="M502.58,-859.75C502.58,-859.75 317.17,-859.75 317.17,-859.75 313.21,-859.75 309.25,-855.79 309.25,-851.83 309.25,-851.83 309.25,-843.92 309.25,-843.92 309.25,-839.96 313.21,-836 317.17,-836 317.17,-836 502.58,-836 502.58,-836 506.54,-836 510.5,-839.96 510.5,-843.92 510.5,-843.92 510.5,-851.83 510.5,-851.83 510.5,-855.79 506.54,-859.75 502.58,-859.75"/>
<text xml:space="preserve" text-anchor="middle" x="409.88" y="-842.45" font-family="Arial" font-size="14.00" fill="#c6c5fe">components/PaymentForm.tsx</text>
</g>
<!-- components/PaymentForm.tsx&#45;&gt;theme/colors.ts -->
<g id="edge3" class="edge">
<title>components/PaymentForm.tsx&#45;&gt;theme/colors.ts</title>
<path fill="none" stroke="#757575" d="M509.27,-835.6C515.96,-833.17 522.45,-830.29 528.5,-826.88 549.62,-814.96 543.51,-798.02 564.5,-785.88 583.76,-774.73 607.04,-768.3 628.48,-764.62"/>
<polygon fill="#757575" stroke="#757575" points="628.98,-768.08 638.33,-763.11 627.92,-761.16 628.98,-768.08"/>
</g>
<!-- components/RecurringPayment.tsx -->
<g id="node8" class="node">
<title>components/RecurringPayment.tsx</title>
<path fill="none" stroke="#c6c5fe" d="M515.71,-817.75C515.71,-817.75 304.04,-817.75 304.04,-817.75 300.08,-817.75 296.12,-813.79 296.12,-809.83 296.12,-809.83 296.12,-801.92 296.12,-801.92 296.12,-797.96 300.08,-794 304.04,-794 304.04,-794 515.71,-794 515.71,-794 519.67,-794 523.62,-797.96 523.62,-801.92 523.62,-801.92 523.62,-809.83 523.62,-809.83 523.62,-813.79 519.67,-817.75 515.71,-817.75"/>
<text xml:space="preserve" text-anchor="middle" x="409.88" y="-800.45" font-family="Arial" font-size="14.00" fill="#c6c5fe">components/RecurringPayment.tsx</text>
</g>
<!-- components/RecurringPayment.tsx&#45;&gt;theme/colors.ts -->
<g id="edge4" class="edge">
<title>components/RecurringPayment.tsx&#45;&gt;theme/colors.ts</title>
<path fill="none" stroke="#757575" d="M486.58,-793.55C530.89,-786.33 586.27,-777.32 628.56,-770.43"/>
<polygon fill="#757575" stroke="#757575" points="629.04,-773.9 638.35,-768.83 627.92,-766.99 629.04,-773.9"/>
</g>
<!-- components/ReportChart.tsx -->
<g id="node9" class="node">
<title>components/ReportChart.tsx</title>
<path fill="none" stroke="#c6c5fe" d="M496.21,-1449.75C496.21,-1449.75 323.54,-1449.75 323.54,-1449.75 319.58,-1449.75 315.62,-1445.79 315.62,-1441.83 315.62,-1441.83 315.62,-1433.92 315.62,-1433.92 315.62,-1429.96 319.58,-1426 323.54,-1426 323.54,-1426 496.21,-1426 496.21,-1426 500.17,-1426 504.12,-1429.96 504.12,-1433.92 504.12,-1433.92 504.12,-1441.83 504.12,-1441.83 504.12,-1445.79 500.17,-1449.75 496.21,-1449.75"/>
<text xml:space="preserve" text-anchor="middle" x="409.88" y="-1432.45" font-family="Arial" font-size="14.00" fill="#c6c5fe">components/ReportChart.tsx</text>
</g>
<!-- components/ReportChart.tsx&#45;&gt;theme/colors.ts -->
<g id="edge5" class="edge">
<title>components/ReportChart.tsx&#45;&gt;theme/colors.ts</title>
<path fill="none" stroke="#757575" d="M424.94,-1425.65C450.83,-1402.16 505.48,-1347.82 528.5,-1288.88 566.61,-1191.3 504.58,-904.8 564.5,-818.88 579.7,-797.07 605.02,-783.17 629.21,-774.37"/>
<polygon fill="#757575" stroke="#757575" points="630.04,-777.78 638.4,-771.28 627.81,-771.15 630.04,-777.78"/>
</g>
<!-- types/finance.ts -->
<g id="node10" class="node">
<title>types/finance.ts</title>
<path fill="none" stroke="#cfffac" d="M1016.08,-1489.75C1016.08,-1489.75 922.17,-1489.75 922.17,-1489.75 918.21,-1489.75 914.25,-1485.79 914.25,-1481.83 914.25,-1481.83 914.25,-1473.92 914.25,-1473.92 914.25,-1469.96 918.21,-1466 922.17,-1466 922.17,-1466 1016.08,-1466 1016.08,-1466 1020.04,-1466 1024,-1469.96 1024,-1473.92 1024,-1473.92 1024,-1481.83 1024,-1481.83 1024,-1485.79 1020.04,-1489.75 1016.08,-1489.75"/>
<text xml:space="preserve" text-anchor="middle" x="969.12" y="-1472.45" font-family="Arial" font-size="14.00" fill="#cfffac">types/finance.ts</text>
</g>
<!-- components/ReportChart.tsx&#45;&gt;types/finance.ts -->
<g id="edge6" class="edge">
<title>components/ReportChart.tsx&#45;&gt;types/finance.ts</title>
<path fill="none" stroke="#757575" d="M491.25,-1450.23C514.81,-1453.48 540.64,-1456.69 564.5,-1458.88 683.35,-1469.77 822.5,-1474.58 902.47,-1476.57"/>
<polygon fill="#757575" stroke="#757575" points="902.24,-1480.07 912.32,-1476.81 902.41,-1473.07 902.24,-1480.07"/>
</g>
<!-- utils/reportUtils.ts -->
<g id="node11" class="node">
<title>utils/reportUtils.ts</title>
<path fill="none" stroke="#c6c5fe" d="M746.21,-1449.75C746.21,-1449.75 642.54,-1449.75 642.54,-1449.75 638.58,-1449.75 634.62,-1445.79 634.62,-1441.83 634.62,-1441.83 634.62,-1433.92 634.62,-1433.92 634.62,-1429.96 638.58,-1426 642.54,-1426 642.54,-1426 746.21,-1426 746.21,-1426 750.17,-1426 754.12,-1429.96 754.12,-1433.92 754.12,-1433.92 754.12,-1441.83 754.12,-1441.83 754.12,-1445.79 750.17,-1449.75 746.21,-1449.75"/>
<text xml:space="preserve" text-anchor="middle" x="694.38" y="-1432.45" font-family="Arial" font-size="14.00" fill="#c6c5fe">utils/reportUtils.ts</text>
</g>
<!-- components/ReportChart.tsx&#45;&gt;utils/reportUtils.ts -->
<g id="edge7" class="edge">
<title>components/ReportChart.tsx&#45;&gt;utils/reportUtils.ts</title>
<path fill="none" stroke="#757575" d="M504.55,-1437.88C543.25,-1437.88 587.34,-1437.88 623.17,-1437.88"/>
<polygon fill="#757575" stroke="#757575" points="622.99,-1441.38 632.99,-1437.88 622.99,-1434.38 622.99,-1441.38"/>
</g>
<!-- utils/reportUtils.ts&#45;&gt;types/finance.ts -->
<g id="edge105" class="edge">
<title>utils/reportUtils.ts&#45;&gt;types/finance.ts</title>
<path fill="none" stroke="#757575" d="M754.56,-1446.55C798.32,-1452.97 857.9,-1461.71 903.01,-1468.33"/>
<polygon fill="#757575" stroke="#757575" points="902.25,-1471.75 912.65,-1469.74 903.27,-1464.83 902.25,-1471.75"/>
</g>
<!-- types/report.ts -->
<g id="node64" class="node">
<title>types/report.ts</title>
<path fill="none" stroke="#cfffac" d="M1011.96,-1447.75C1011.96,-1447.75 926.29,-1447.75 926.29,-1447.75 922.33,-1447.75 918.38,-1443.79 918.38,-1439.83 918.38,-1439.83 918.38,-1431.92 918.38,-1431.92 918.38,-1427.96 922.33,-1424 926.29,-1424 926.29,-1424 1011.96,-1424 1011.96,-1424 1015.92,-1424 1019.88,-1427.96 1019.88,-1431.92 1019.88,-1431.92 1019.88,-1439.83 1019.88,-1439.83 1019.88,-1443.79 1015.92,-1447.75 1011.96,-1447.75"/>
<text xml:space="preserve" text-anchor="middle" x="969.12" y="-1430.45" font-family="Arial" font-size="14.00" fill="#cfffac">types/report.ts</text>
</g>
<!-- utils/reportUtils.ts&#45;&gt;types/report.ts -->
<g id="edge106" class="edge">
<title>utils/reportUtils.ts&#45;&gt;types/report.ts</title>
<path fill="none" stroke="#757575" d="M754.56,-1437.44C799.53,-1437.11 861.19,-1436.66 906.7,-1436.33"/>
<polygon fill="#757575" stroke="#757575" points="906.71,-1439.83 916.68,-1436.25 906.66,-1432.83 906.71,-1439.83"/>
</g>
<!-- components/reports/MonthSwitcher.tsx -->
<g id="node12" class="node">
<title>components/reports/MonthSwitcher.tsx</title>
<path fill="none" stroke="#c6c5fe" d="M811.46,-1407.75C811.46,-1407.75 577.29,-1407.75 577.29,-1407.75 573.33,-1407.75 569.38,-1403.79 569.38,-1399.83 569.38,-1399.83 569.38,-1391.92 569.38,-1391.92 569.38,-1387.96 573.33,-1384 577.29,-1384 577.29,-1384 811.46,-1384 811.46,-1384 815.42,-1384 819.38,-1387.96 819.38,-1391.92 819.38,-1391.92 819.38,-1399.83 819.38,-1399.83 819.38,-1403.79 815.42,-1407.75 811.46,-1407.75"/>
<text xml:space="preserve" text-anchor="middle" x="694.38" y="-1390.45" font-family="Arial" font-size="14.00" fill="#c6c5fe">components/reports/MonthSwitcher.tsx</text>
</g>
<!-- hooks/reports/useReportRange.ts -->
<g id="node13" class="node">
<title>hooks/reports/useReportRange.ts</title>
<path fill="none" stroke="#cfffac" d="M1070.08,-1386.75C1070.08,-1386.75 868.17,-1386.75 868.17,-1386.75 864.21,-1386.75 860.25,-1382.79 860.25,-1378.83 860.25,-1378.83 860.25,-1370.92 860.25,-1370.92 860.25,-1366.96 864.21,-1363 868.17,-1363 868.17,-1363 1070.08,-1363 1070.08,-1363 1074.04,-1363 1078,-1366.96 1078,-1370.92 1078,-1370.92 1078,-1378.83 1078,-1378.83 1078,-1382.79 1074.04,-1386.75 1070.08,-1386.75"/>
<text xml:space="preserve" text-anchor="middle" x="969.12" y="-1369.45" font-family="Arial" font-size="14.00" fill="#cfffac">hooks/reports/useReportRange.ts</text>
</g>
<!-- components/reports/MonthSwitcher.tsx&#45;&gt;hooks/reports/useReportRange.ts -->
<g id="edge8" class="edge">
<title>components/reports/MonthSwitcher.tsx&#45;&gt;hooks/reports/useReportRange.ts</title>
<path fill="none" stroke="#757575" d="M819.78,-1386.3C829.27,-1385.57 838.83,-1384.83 848.29,-1384.1"/>
<polygon fill="#757575" stroke="#757575" points="848.55,-1387.59 858.26,-1383.33 848.02,-1380.61 848.55,-1387.59"/>
</g>
<!-- components/reports/SummaryCard.tsx -->
<g id="node14" class="node">
<title>components/reports/SummaryCard.tsx</title>
<path fill="none" stroke="#cfffac" d="M811.08,-1285.75C811.08,-1285.75 577.67,-1285.75 577.67,-1285.75 573.71,-1285.75 569.75,-1281.79 569.75,-1277.83 569.75,-1277.83 569.75,-1269.92 569.75,-1269.92 569.75,-1265.96 573.71,-1262 577.67,-1262 577.67,-1262 811.08,-1262 811.08,-1262 815.04,-1262 819,-1265.96 819,-1269.92 819,-1269.92 819,-1277.83 819,-1277.83 819,-1281.79 815.04,-1285.75 811.08,-1285.75"/>
<text xml:space="preserve" text-anchor="middle" x="694.38" y="-1268.45" font-family="Arial" font-size="14.00" fill="#cfffac">components/reports/SummaryCard.tsx</text>
</g>
<!-- components/reports/TransactionList.tsx -->
<g id="node15" class="node">
<title>components/reports/TransactionList.tsx</title>
<path fill="none" stroke="#c6c5fe" d="M812.58,-1327.75C812.58,-1327.75 576.17,-1327.75 576.17,-1327.75 572.21,-1327.75 568.25,-1323.79 568.25,-1319.83 568.25,-1319.83 568.25,-1311.92 568.25,-1311.92 568.25,-1307.96 572.21,-1304 576.17,-1304 576.17,-1304 812.58,-1304 812.58,-1304 816.54,-1304 820.5,-1307.96 820.5,-1311.92 820.5,-1311.92 820.5,-1319.83 820.5,-1319.83 820.5,-1323.79 816.54,-1327.75 812.58,-1327.75"/>
<text xml:space="preserve" text-anchor="middle" x="694.38" y="-1310.45" font-family="Arial" font-size="14.00" fill="#c6c5fe">components/reports/TransactionList.tsx</text>
</g>
<!-- state/AppContext.tsx -->
<g id="node16" class="node">
<title>state/AppContext.tsx</title>
<path fill="none" stroke="#cfffac" d="M1031.46,-674.75C1031.46,-674.75 906.79,-674.75 906.79,-674.75 902.83,-674.75 898.88,-670.79 898.88,-666.83 898.88,-666.83 898.88,-658.92 898.88,-658.92 898.88,-654.96 902.83,-651 906.79,-651 906.79,-651 1031.46,-651 1031.46,-651 1035.42,-651 1039.38,-654.96 1039.38,-658.92 1039.38,-658.92 1039.38,-666.83 1039.38,-666.83 1039.38,-670.79 1035.42,-674.75 1031.46,-674.75"/>
<text xml:space="preserve" text-anchor="middle" x="969.12" y="-657.45" font-family="Arial" font-size="14.00" fill="#cfffac">state/AppContext.tsx</text>
</g>
<!-- components/reports/TransactionList.tsx&#45;&gt;state/AppContext.tsx -->
<g id="edge9" class="edge">
<title>components/reports/TransactionList.tsx&#45;&gt;state/AppContext.tsx</title>
<path fill="none" stroke="#757575" d="M813.02,-1303.52C817.01,-1301 820.78,-1298.13 824.25,-1294.88 830.05,-1289.43 937.99,-799.89 962.99,-686.25"/>
<polygon fill="#757575" stroke="#757575" points="966.39,-687.1 965.11,-676.58 959.55,-685.59 966.39,-687.1"/>
</g>
<!-- utils/formatDate.ts -->
<g id="node17" class="node">
<title>utils/formatDate.ts</title>
<path fill="none" stroke="#cfffac" d="M1023.96,-1188.75C1023.96,-1188.75 914.29,-1188.75 914.29,-1188.75 910.33,-1188.75 906.38,-1184.79 906.38,-1180.83 906.38,-1180.83 906.38,-1172.92 906.38,-1172.92 906.38,-1168.96 910.33,-1165 914.29,-1165 914.29,-1165 1023.96,-1165 1023.96,-1165 1027.92,-1165 1031.88,-1168.96 1031.88,-1172.92 1031.88,-1172.92 1031.88,-1180.83 1031.88,-1180.83 1031.88,-1184.79 1027.92,-1188.75 1023.96,-1188.75"/>
<text xml:space="preserve" text-anchor="middle" x="969.12" y="-1171.45" font-family="Arial" font-size="14.00" fill="#cfffac">utils/formatDate.ts</text>
</g>
<!-- components/reports/TransactionList.tsx&#45;&gt;utils/formatDate.ts -->
<g id="edge10" class="edge">
<title>components/reports/TransactionList.tsx&#45;&gt;utils/formatDate.ts</title>
<path fill="none" stroke="#757575" d="M800.51,-1303.55C808.7,-1301.14 816.71,-1298.28 824.25,-1294.88 876.09,-1271.46 924.69,-1224.42 949.98,-1197.34"/>
<polygon fill="#757575" stroke="#757575" points="952.43,-1199.84 956.61,-1190.1 947.27,-1195.11 952.43,-1199.84"/>
</g>
<!-- db/db.ts -->
<g id="node18" class="node">
<title>db/db.ts</title>
<path fill="none" stroke="#cfffac" d="M718.46,-76.75C718.46,-76.75 670.29,-76.75 670.29,-76.75 666.33,-76.75 662.38,-72.79 662.38,-68.83 662.38,-68.83 662.38,-60.92 662.38,-60.92 662.38,-56.96 666.33,-53 670.29,-53 670.29,-53 718.46,-53 718.46,-53 722.42,-53 726.38,-56.96 726.38,-60.92 726.38,-60.92 726.38,-68.83 726.38,-68.83 726.38,-72.79 722.42,-76.75 718.46,-76.75"/>
<text xml:space="preserve" text-anchor="middle" x="694.38" y="-59.45" font-family="Arial" font-size="14.00" fill="#cfffac">db/db.ts</text>
</g>
<!-- db/migrate.ts -->
<g id="node19" class="node">
<title>db/migrate.ts</title>
<path fill="none" stroke="#c6c5fe" d="M449.33,-65.75C449.33,-65.75 370.42,-65.75 370.42,-65.75 366.46,-65.75 362.5,-61.79 362.5,-57.83 362.5,-57.83 362.5,-49.92 362.5,-49.92 362.5,-45.96 366.46,-42 370.42,-42 370.42,-42 449.33,-42 449.33,-42 453.29,-42 457.25,-45.96 457.25,-49.92 457.25,-49.92 457.25,-57.83 457.25,-57.83 457.25,-61.79 453.29,-65.75 449.33,-65.75"/>
<text xml:space="preserve" text-anchor="middle" x="409.88" y="-48.45" font-family="Arial" font-size="14.00" fill="#c6c5fe">db/migrate.ts</text>
</g>
<!-- db/migrate.ts&#45;&gt;db/db.ts -->
<g id="edge11" class="edge">
<title>db/migrate.ts&#45;&gt;db/db.ts</title>
<path fill="none" stroke="#757575" d="M457.52,-55.69C511.17,-57.78 598.52,-61.18 650.52,-63.21"/>
<polygon fill="#757575" stroke="#757575" points="650.35,-66.7 660.48,-63.59 650.62,-59.71 650.35,-66.7"/>
</g>
<!-- db/migrations/003_reports.ts -->
<g id="node20" class="node">
<title>db/migrations/003_reports.ts</title>
<path fill="none" stroke="#cfffac" d="M213.58,-880.75C213.58,-880.75 41.67,-880.75 41.67,-880.75 37.71,-880.75 33.75,-876.79 33.75,-872.83 33.75,-872.83 33.75,-864.92 33.75,-864.92 33.75,-860.96 37.71,-857 41.67,-857 41.67,-857 213.58,-857 213.58,-857 217.54,-857 221.5,-860.96 221.5,-864.92 221.5,-864.92 221.5,-872.83 221.5,-872.83 221.5,-876.79 217.54,-880.75 213.58,-880.75"/>
<text xml:space="preserve" text-anchor="middle" x="127.62" y="-863.45" font-family="Arial" font-size="14.00" fill="#cfffac">db/migrations/003_reports.ts</text>
</g>
<!-- db/migrations/004_accounts.ts -->
<g id="node21" class="node">
<title>db/migrations/004_accounts.ts</title>
<path fill="none" stroke="#cfffac" d="M219.58,-922.75C219.58,-922.75 35.67,-922.75 35.67,-922.75 31.71,-922.75 27.75,-918.79 27.75,-914.83 27.75,-914.83 27.75,-906.92 27.75,-906.92 27.75,-902.96 31.71,-899 35.67,-899 35.67,-899 219.58,-899 219.58,-899 223.54,-899 227.5,-902.96 227.5,-906.92 227.5,-906.92 227.5,-914.83 227.5,-914.83 227.5,-918.79 223.54,-922.75 219.58,-922.75"/>
<text xml:space="preserve" text-anchor="middle" x="127.62" y="-905.45" font-family="Arial" font-size="14.00" fill="#cfffac">db/migrations/004_accounts.ts</text>
</g>
<!-- debug/installGlobalHandlers.tsx -->
<g id="node22" class="node">
<title>debug/installGlobalHandlers.tsx</title>
<path fill="none" stroke="#cfffac" d="M222.96,-964.75C222.96,-964.75 32.29,-964.75 32.29,-964.75 28.33,-964.75 24.38,-960.79 24.38,-956.83 24.38,-956.83 24.38,-948.92 24.38,-948.92 24.38,-944.96 28.33,-941 32.29,-941 32.29,-941 222.96,-941 222.96,-941 226.92,-941 230.88,-944.96 230.88,-948.92 230.88,-948.92 230.88,-956.83 230.88,-956.83 230.88,-960.79 226.92,-964.75 222.96,-964.75"/>
<text xml:space="preserve" text-anchor="middle" x="127.62" y="-947.45" font-family="Arial" font-size="14.00" fill="#cfffac">debug/installGlobalHandlers.tsx</text>
</g>
<!-- dev/resetDb.ts -->
<g id="node23" class="node">
<title>dev/resetDb.ts</title>
<path fill="none" stroke="#cfffac" d="M737.96,-893.75C737.96,-893.75 650.79,-893.75 650.79,-893.75 646.83,-893.75 642.88,-889.79 642.88,-885.83 642.88,-885.83 642.88,-877.92 642.88,-877.92 642.88,-873.96 646.83,-870 650.79,-870 650.79,-870 737.96,-870 737.96,-870 741.92,-870 745.88,-873.96 745.88,-877.92 745.88,-877.92 745.88,-885.83 745.88,-885.83 745.88,-889.79 741.92,-893.75 737.96,-893.75"/>
<text xml:space="preserve" text-anchor="middle" x="694.38" y="-876.45" font-family="Arial" font-size="14.00" fill="#cfffac">dev/resetDb.ts</text>
</g>
<!-- hooks/reports/useFilteredTransactions.ts -->
<g id="node24" class="node">
<title>hooks/reports/useFilteredTransactions.ts</title>
<path fill="none" stroke="#c6c5fe" d="M816.33,-1091.75C816.33,-1091.75 572.42,-1091.75 572.42,-1091.75 568.46,-1091.75 564.5,-1087.79 564.5,-1083.83 564.5,-1083.83 564.5,-1075.92 564.5,-1075.92 564.5,-1071.96 568.46,-1068 572.42,-1068 572.42,-1068 816.33,-1068 816.33,-1068 820.29,-1068 824.25,-1071.96 824.25,-1075.92 824.25,-1075.92 824.25,-1083.83 824.25,-1083.83 824.25,-1087.79 820.29,-1091.75 816.33,-1091.75"/>
<text xml:space="preserve" text-anchor="middle" x="694.38" y="-1074.45" font-family="Arial" font-size="14.00" fill="#c6c5fe">hooks/reports/useFilteredTransactions.ts</text>
</g>
<!-- hooks/reports/useFilteredTransactions.ts&#45;&gt;state/AppContext.tsx -->
<g id="edge12" class="edge">
<title>hooks/reports/useFilteredTransactions.ts&#45;&gt;state/AppContext.tsx</title>
<path fill="none" stroke="#757575" d="M811.34,-1067.62C815.9,-1065.1 820.24,-1062.2 824.25,-1058.88 943.03,-960.46 963.75,-755.48 967.36,-686.28"/>
<polygon fill="#757575" stroke="#757575" points="970.85,-686.65 967.79,-676.5 963.86,-686.34 970.85,-686.65"/>
</g>
<!-- hooks/reports/useTotals.ts -->
<g id="node25" class="node">
<title>hooks/reports/useTotals.ts</title>
<path fill="none" stroke="#c6c5fe" d="M772.83,-1049.75C772.83,-1049.75 615.92,-1049.75 615.92,-1049.75 611.96,-1049.75 608,-1045.79 608,-1041.83 608,-1041.83 608,-1033.92 608,-1033.92 608,-1029.96 611.96,-1026 615.92,-1026 615.92,-1026 772.83,-1026 772.83,-1026 776.79,-1026 780.75,-1029.96 780.75,-1033.92 780.75,-1033.92 780.75,-1041.83 780.75,-1041.83 780.75,-1045.79 776.79,-1049.75 772.83,-1049.75"/>
<text xml:space="preserve" text-anchor="middle" x="694.38" y="-1032.45" font-family="Arial" font-size="14.00" fill="#c6c5fe">hooks/reports/useTotals.ts</text>
</g>
<!-- hooks/reports/useTotals.ts&#45;&gt;state/AppContext.tsx -->
<g id="edge13" class="edge">
<title>hooks/reports/useTotals.ts&#45;&gt;state/AppContext.tsx</title>
<path fill="none" stroke="#757575" d="M781.09,-1032.74C796.7,-1028.59 811.92,-1022.04 824.25,-1011.88 929.26,-925.31 958.58,-749.55 965.9,-686.25"/>
<polygon fill="#757575" stroke="#757575" points="969.35,-686.97 966.93,-676.66 962.39,-686.23 969.35,-686.97"/>
</g>
<!-- hooks/useAppReady.ts -->
<g id="node26" class="node">
<title>hooks/useAppReady.ts</title>
<path fill="none" stroke="#cfffac" d="M196.71,-1006.75C196.71,-1006.75 58.54,-1006.75 58.54,-1006.75 54.58,-1006.75 50.62,-1002.79 50.62,-998.83 50.62,-998.83 50.62,-990.92 50.62,-990.92 50.62,-986.96 54.58,-983 58.54,-983 58.54,-983 196.71,-983 196.71,-983 200.67,-983 204.62,-986.96 204.62,-990.92 204.62,-990.92 204.62,-998.83 204.62,-998.83 204.62,-1002.79 200.67,-1006.75 196.71,-1006.75"/>
<text xml:space="preserve" text-anchor="middle" x="127.62" y="-989.45" font-family="Arial" font-size="14.00" fill="#cfffac">hooks/useAppReady.ts</text>
</g>
<!-- layout/Layout.js -->
<g id="node27" class="node">
<title>layout/Layout.js</title>
<path fill="none" stroke="#cfffac" d="M174.58,-1048.75C174.58,-1048.75 80.67,-1048.75 80.67,-1048.75 76.71,-1048.75 72.75,-1044.79 72.75,-1040.83 72.75,-1040.83 72.75,-1032.92 72.75,-1032.92 72.75,-1028.96 76.71,-1025 80.67,-1025 80.67,-1025 174.58,-1025 174.58,-1025 178.54,-1025 182.5,-1028.96 182.5,-1032.92 182.5,-1032.92 182.5,-1040.83 182.5,-1040.83 182.5,-1044.79 178.54,-1048.75 174.58,-1048.75"/>
<text xml:space="preserve" text-anchor="middle" x="127.62" y="-1031.45" font-family="Arial" font-size="14.00" fill="#cfffac">layout/Layout.js</text>
</g>
<!-- navigations/RootNavigator.tsx -->
<g id="node28" class="node">
<title>navigations/RootNavigator.tsx</title>
<path fill="none" stroke="#c6c5fe" d="M216.96,-712.75C216.96,-712.75 38.29,-712.75 38.29,-712.75 34.33,-712.75 30.38,-708.79 30.38,-704.83 30.38,-704.83 30.38,-696.92 30.38,-696.92 30.38,-692.96 34.33,-689 38.29,-689 38.29,-689 216.96,-689 216.96,-689 220.92,-689 224.88,-692.96 224.88,-696.92 224.88,-696.92 224.88,-704.83 224.88,-704.83 224.88,-708.79 220.92,-712.75 216.96,-712.75"/>
<text xml:space="preserve" text-anchor="middle" x="127.62" y="-695.45" font-family="Arial" font-size="14.00" fill="#c6c5fe">navigations/RootNavigator.tsx</text>
</g>
<!-- screens/AccountScreen.tsx -->
<g id="node29" class="node">
<title>screens/AccountScreen.tsx</title>
<path fill="none" stroke="#c6c5fe" d="M491.71,-565.75C491.71,-565.75 328.04,-565.75 328.04,-565.75 324.08,-565.75 320.12,-561.79 320.12,-557.83 320.12,-557.83 320.12,-549.92 320.12,-549.92 320.12,-545.96 324.08,-542 328.04,-542 328.04,-542 491.71,-542 491.71,-542 495.67,-542 499.62,-545.96 499.62,-549.92 499.62,-549.92 499.62,-557.83 499.62,-557.83 499.62,-561.79 495.67,-565.75 491.71,-565.75"/>
<text xml:space="preserve" text-anchor="middle" x="409.88" y="-548.45" font-family="Arial" font-size="14.00" fill="#c6c5fe">screens/AccountScreen.tsx</text>
</g>
<!-- navigations/RootNavigator.tsx&#45;&gt;screens/AccountScreen.tsx -->
<g id="edge14" class="edge">
<title>navigations/RootNavigator.tsx&#45;&gt;screens/AccountScreen.tsx</title>
<path fill="none" stroke="#757575" d="M139.93,-688.82C164.68,-663.25 226.62,-603.58 291.25,-574.88 296.88,-572.38 302.78,-570.17 308.82,-568.23"/>
<polygon fill="#757575" stroke="#757575" points="309.75,-571.61 318.36,-565.44 307.78,-564.89 309.75,-571.61"/>
</g>
<!-- screens/AddAccountScreen.tsx -->
<g id="node30" class="node">
<title>screens/AddAccountScreen.tsx</title>
<path fill="none" stroke="#c6c5fe" d="M503.71,-733.75C503.71,-733.75 316.04,-733.75 316.04,-733.75 312.08,-733.75 308.12,-729.79 308.12,-725.83 308.12,-725.83 308.12,-717.92 308.12,-717.92 308.12,-713.96 312.08,-710 316.04,-710 316.04,-710 503.71,-710 503.71,-710 507.67,-710 511.62,-713.96 511.62,-717.92 511.62,-717.92 511.62,-725.83 511.62,-725.83 511.62,-729.79 507.67,-733.75 503.71,-733.75"/>
<text xml:space="preserve" text-anchor="middle" x="409.88" y="-716.45" font-family="Arial" font-size="14.00" fill="#c6c5fe">screens/AddAccountScreen.tsx</text>
</g>
<!-- navigations/RootNavigator.tsx&#45;&gt;screens/AddAccountScreen.tsx -->
<g id="edge15" class="edge">
<title>navigations/RootNavigator.tsx&#45;&gt;screens/AddAccountScreen.tsx</title>
<path fill="none" stroke="#757575" d="M225.07,-708.1C248.17,-709.83 273.03,-711.7 296.77,-713.47"/>
<polygon fill="#757575" stroke="#757575" points="296.21,-716.94 306.45,-714.2 296.74,-709.96 296.21,-716.94"/>
</g>
<!-- screens/BudgetEditorScreen.tsx -->
<g id="node31" class="node">
<title>screens/BudgetEditorScreen.tsx</title>
<path fill="none" stroke="#c6c5fe" d="M506.33,-649.75C506.33,-649.75 313.42,-649.75 313.42,-649.75 309.46,-649.75 305.5,-645.79 305.5,-641.83 305.5,-641.83 305.5,-633.92 305.5,-633.92 305.5,-629.96 309.46,-626 313.42,-626 313.42,-626 506.33,-626 506.33,-626 510.29,-626 514.25,-629.96 514.25,-633.92 514.25,-633.92 514.25,-641.83 514.25,-641.83 514.25,-645.79 510.29,-649.75 506.33,-649.75"/>
<text xml:space="preserve" text-anchor="middle" x="409.88" y="-632.45" font-family="Arial" font-size="14.00" fill="#c6c5fe">screens/BudgetEditorScreen.tsx</text>
</g>
<!-- navigations/RootNavigator.tsx&#45;&gt;screens/BudgetEditorScreen.tsx -->
<g id="edge16" class="edge">
<title>navigations/RootNavigator.tsx&#45;&gt;screens/BudgetEditorScreen.tsx</title>
<path fill="none" stroke="#757575" d="M172.58,-688.55C205.18,-679.65 250.79,-667.7 291.25,-658.88 301.63,-656.61 312.56,-654.41 323.41,-652.34"/>
<polygon fill="#757575" stroke="#757575" points="323.99,-655.8 333.18,-650.52 322.7,-648.92 323.99,-655.8"/>
</g>
<!-- screens/BudgetsScreen.tsx -->
<g id="node32" class="node">
<title>screens/BudgetsScreen.tsx</title>
<path fill="none" stroke="#c6c5fe" d="M492.08,-691.75C492.08,-691.75 327.67,-691.75 327.67,-691.75 323.71,-691.75 319.75,-687.79 319.75,-683.83 319.75,-683.83 319.75,-675.92 319.75,-675.92 319.75,-671.96 323.71,-668 327.67,-668 327.67,-668 492.08,-668 492.08,-668 496.04,-668 500,-671.96 500,-675.92 500,-675.92 500,-683.83 500,-683.83 500,-687.79 496.04,-691.75 492.08,-691.75"/>
<text xml:space="preserve" text-anchor="middle" x="409.88" y="-674.45" font-family="Arial" font-size="14.00" fill="#c6c5fe">screens/BudgetsScreen.tsx</text>
</g>
<!-- navigations/RootNavigator.tsx&#45;&gt;screens/BudgetsScreen.tsx -->
<g id="edge17" class="edge">
<title>navigations/RootNavigator.tsx&#45;&gt;screens/BudgetsScreen.tsx</title>
<path fill="none" stroke="#757575" d="M225.07,-693.65C251.81,-691.64 280.91,-689.46 307.9,-687.44"/>
<polygon fill="#757575" stroke="#757575" points="308.1,-690.94 317.81,-686.7 307.58,-683.96 308.1,-690.94"/>
</g>
<!-- screens/DashboardScreen.tsx -->
<g id="node33" class="node">
<title>screens/DashboardScreen.tsx</title>
<path fill="none" stroke="#c6c5fe" d="M500.33,-481.75C500.33,-481.75 319.42,-481.75 319.42,-481.75 315.46,-481.75 311.5,-477.79 311.5,-473.83 311.5,-473.83 311.5,-465.92 311.5,-465.92 311.5,-461.96 315.46,-458 319.42,-458 319.42,-458 500.33,-458 500.33,-458 504.29,-458 508.25,-461.96 508.25,-465.92 508.25,-465.92 508.25,-473.83 508.25,-473.83 508.25,-477.79 504.29,-481.75 500.33,-481.75"/>
<text xml:space="preserve" text-anchor="middle" x="409.88" y="-464.45" font-family="Arial" font-size="14.00" fill="#c6c5fe">screens/DashboardScreen.tsx</text>
</g>
<!-- navigations/RootNavigator.tsx&#45;&gt;screens/DashboardScreen.tsx -->
<g id="edge18" class="edge">
<title>navigations/RootNavigator.tsx&#45;&gt;screens/DashboardScreen.tsx</title>
<path fill="none" stroke="#757575" d="M134.1,-688.62C151.24,-651.77 207.81,-541.37 291.25,-490.88 294.26,-489.05 297.38,-487.38 300.6,-485.85"/>
<polygon fill="#757575" stroke="#757575" points="301.89,-489.1 309.74,-481.99 299.16,-482.65 301.89,-489.1"/>
</g>
<!-- screens/DataExportImportScreen.tsx -->
<g id="node34" class="node">
<title>screens/DataExportImportScreen.tsx</title>
<path fill="none" stroke="#c6c5fe" d="M520.58,-233.75C520.58,-233.75 299.17,-233.75 299.17,-233.75 295.21,-233.75 291.25,-229.79 291.25,-225.83 291.25,-225.83 291.25,-217.92 291.25,-217.92 291.25,-213.96 295.21,-210 299.17,-210 299.17,-210 520.58,-210 520.58,-210 524.54,-210 528.5,-213.96 528.5,-217.92 528.5,-217.92 528.5,-225.83 528.5,-225.83 528.5,-229.79 524.54,-233.75 520.58,-233.75"/>
<text xml:space="preserve" text-anchor="middle" x="409.88" y="-216.45" font-family="Arial" font-size="14.00" fill="#c6c5fe">screens/DataExportImportScreen.tsx</text>
</g>
<!-- navigations/RootNavigator.tsx&#45;&gt;screens/DataExportImportScreen.tsx -->
<g id="edge19" class="edge">
<title>navigations/RootNavigator.tsx&#45;&gt;screens/DataExportImportScreen.tsx</title>
<path fill="none" stroke="#757575" d="M133.01,-688.58C149.25,-643.05 207.49,-479.67 255.25,-344.88 271.31,-299.56 254.61,-274 291.25,-242.88 292.36,-241.93 293.5,-241.02 294.67,-240.15"/>
<polygon fill="#757575" stroke="#757575" points="296.26,-243.28 302.78,-234.93 292.47,-237.4 296.26,-243.28"/>
</g>
<!-- screens/ImportCsvScreen.tsx -->
<g id="node35" class="node">
<title>screens/ImportCsvScreen.tsx</title>
<path fill="none" stroke="#c6c5fe" d="M498.46,-1069.75C498.46,-1069.75 321.29,-1069.75 321.29,-1069.75 317.33,-1069.75 313.38,-1065.79 313.38,-1061.83 313.38,-1061.83 313.38,-1053.92 313.38,-1053.92 313.38,-1049.96 317.33,-1046 321.29,-1046 321.29,-1046 498.46,-1046 498.46,-1046 502.42,-1046 506.38,-1049.96 506.38,-1053.92 506.38,-1053.92 506.38,-1061.83 506.38,-1061.83 506.38,-1065.79 502.42,-1069.75 498.46,-1069.75"/>
<text xml:space="preserve" text-anchor="middle" x="409.88" y="-1052.45" font-family="Arial" font-size="14.00" fill="#c6c5fe">screens/ImportCsvScreen.tsx</text>
</g>
<!-- navigations/RootNavigator.tsx&#45;&gt;screens/ImportCsvScreen.tsx -->
<g id="edge20" class="edge">
<title>navigations/RootNavigator.tsx&#45;&gt;screens/ImportCsvScreen.tsx</title>
<path fill="none" stroke="#757575" d="M225.24,-703.18C236.53,-707.18 246.96,-713.15 255.25,-721.88 352.34,-824 194.79,-934.15 291.25,-1036.88 294.82,-1040.68 298.83,-1043.94 303.14,-1046.72"/>
<polygon fill="#757575" stroke="#757575" points="301.26,-1049.68 311.72,-1051.36 304.59,-1043.53 301.26,-1049.68"/>
</g>
<!-- screens/NotificationsScreen.tsx -->
<g id="node36" class="node">
<title>screens/NotificationsScreen.tsx</title>
<path fill="none" stroke="#c6c5fe" d="M504.08,-1027.75C504.08,-1027.75 315.67,-1027.75 315.67,-1027.75 311.71,-1027.75 307.75,-1023.79 307.75,-1019.83 307.75,-1019.83 307.75,-1011.92 307.75,-1011.92 307.75,-1007.96 311.71,-1004 315.67,-1004 315.67,-1004 504.08,-1004 504.08,-1004 508.04,-1004 512,-1007.96 512,-1011.92 512,-1011.92 512,-1019.83 512,-1019.83 512,-1023.79 508.04,-1027.75 504.08,-1027.75"/>
<text xml:space="preserve" text-anchor="middle" x="409.88" y="-1010.45" font-family="Arial" font-size="14.00" fill="#c6c5fe">screens/NotificationsScreen.tsx</text>
</g>
<!-- navigations/RootNavigator.tsx&#45;&gt;screens/NotificationsScreen.tsx -->
<g id="edge21" class="edge">
<title>navigations/RootNavigator.tsx&#45;&gt;screens/NotificationsScreen.tsx</title>
<path fill="none" stroke="#757575" d="M225.1,-703.31C236.41,-707.29 246.88,-713.23 255.25,-721.88 340.34,-809.84 206.71,-906.39 291.25,-994.88 293.32,-997.04 295.53,-999.03 297.86,-1000.85"/>
<polygon fill="#757575" stroke="#757575" points="295.83,-1003.71 306.11,-1006.27 299.67,-997.86 295.83,-1003.71"/>
</g>
<!-- screens/PaymentsScreen.tsx -->
<g id="node37" class="node">
<title>screens/PaymentsScreen.tsx</title>
<path fill="none" stroke="#c6c5fe" d="M497.71,-439.75C497.71,-439.75 322.04,-439.75 322.04,-439.75 318.08,-439.75 314.12,-435.79 314.12,-431.83 314.12,-431.83 314.12,-423.92 314.12,-423.92 314.12,-419.96 318.08,-416 322.04,-416 322.04,-416 497.71,-416 497.71,-416 501.67,-416 505.62,-419.96 505.62,-423.92 505.62,-423.92 505.62,-431.83 505.62,-431.83 505.62,-435.79 501.67,-439.75 497.71,-439.75"/>
<text xml:space="preserve" text-anchor="middle" x="409.88" y="-422.45" font-family="Arial" font-size="14.00" fill="#c6c5fe">screens/PaymentsScreen.tsx</text>
</g>
<!-- navigations/RootNavigator.tsx&#45;&gt;screens/PaymentsScreen.tsx -->
<g id="edge22" class="edge">
<title>navigations/RootNavigator.tsx&#45;&gt;screens/PaymentsScreen.tsx</title>
<path fill="none" stroke="#757575" d="M132.53,-688.62C146.45,-647.12 197.84,-511.04 291.25,-448.88 295.03,-446.36 299.02,-444.12 303.16,-442.13"/>
<polygon fill="#757575" stroke="#757575" points="304.47,-445.38 312.33,-438.27 301.75,-438.93 304.47,-445.38"/>
</g>
<!-- screens/RecentActivityScreen.tsx -->
<g id="node38" class="node">
<title>screens/RecentActivityScreen.tsx</title>
<path fill="none" stroke="#c6c5fe" d="M510.08,-1153.75C510.08,-1153.75 309.67,-1153.75 309.67,-1153.75 305.71,-1153.75 301.75,-1149.79 301.75,-1145.83 301.75,-1145.83 301.75,-1137.92 301.75,-1137.92 301.75,-1133.96 305.71,-1130 309.67,-1130 309.67,-1130 510.08,-1130 510.08,-1130 514.04,-1130 518,-1133.96 518,-1137.92 518,-1137.92 518,-1145.83 518,-1145.83 518,-1149.79 514.04,-1153.75 510.08,-1153.75"/>
<text xml:space="preserve" text-anchor="middle" x="409.88" y="-1136.45" font-family="Arial" font-size="14.00" fill="#c6c5fe">screens/RecentActivityScreen.tsx</text>
</g>
<!-- navigations/RootNavigator.tsx&#45;&gt;screens/RecentActivityScreen.tsx -->
<g id="edge23" class="edge">
<title>navigations/RootNavigator.tsx&#45;&gt;screens/RecentActivityScreen.tsx</title>
<path fill="none" stroke="#757575" d="M225.12,-702.88C236.5,-706.91 246.99,-712.97 255.25,-721.88 315.82,-787.12 231.09,-1055.25 291.25,-1120.88 291.73,-1121.4 292.22,-1121.92 292.72,-1122.42"/>
<polygon fill="#757575" stroke="#757575" points="290.37,-1125.02 300.28,-1128.77 294.87,-1119.66 290.37,-1125.02"/>
</g>
<!-- screens/RecurringEditorScreen.tsx -->
<g id="node39" class="node">
<title>screens/RecurringEditorScreen.tsx</title>
<path fill="none" stroke="#c6c5fe" d="M514.21,-775.75C514.21,-775.75 305.54,-775.75 305.54,-775.75 301.58,-775.75 297.62,-771.79 297.62,-767.83 297.62,-767.83 297.62,-759.92 297.62,-759.92 297.62,-755.96 301.58,-752 305.54,-752 305.54,-752 514.21,-752 514.21,-752 518.17,-752 522.12,-755.96 522.12,-759.92 522.12,-759.92 522.12,-767.83 522.12,-767.83 522.12,-771.79 518.17,-775.75 514.21,-775.75"/>
<text xml:space="preserve" text-anchor="middle" x="409.88" y="-758.45" font-family="Arial" font-size="14.00" fill="#c6c5fe">screens/RecurringEditorScreen.tsx</text>
</g>
<!-- navigations/RootNavigator.tsx&#45;&gt;screens/RecurringEditorScreen.tsx -->
<g id="edge24" class="edge">
<title>navigations/RootNavigator.tsx&#45;&gt;screens/RecurringEditorScreen.tsx</title>
<path fill="none" stroke="#757575" d="M225.33,-713.14C235.57,-715.55 245.71,-718.43 255.25,-721.88 272.67,-728.16 273.86,-736.48 291.25,-742.88 297.03,-745 303.05,-746.92 309.18,-748.64"/>
<polygon fill="#757575" stroke="#757575" points="308.27,-752.02 318.83,-751.16 310.04,-745.25 308.27,-752.02"/>
</g>
<!-- screens/RecurringScreen.tsx -->
<g id="node40" class="node">
<title>screens/RecurringScreen.tsx</title>
<path fill="none" stroke="#c6c5fe" d="M496.58,-1237.75C496.58,-1237.75 323.17,-1237.75 323.17,-1237.75 319.21,-1237.75 315.25,-1233.79 315.25,-1229.83 315.25,-1229.83 315.25,-1221.92 315.25,-1221.92 315.25,-1217.96 319.21,-1214 323.17,-1214 323.17,-1214 496.58,-1214 496.58,-1214 500.54,-1214 504.5,-1217.96 504.5,-1221.92 504.5,-1221.92 504.5,-1229.83 504.5,-1229.83 504.5,-1233.79 500.54,-1237.75 496.58,-1237.75"/>
<text xml:space="preserve" text-anchor="middle" x="409.88" y="-1220.45" font-family="Arial" font-size="14.00" fill="#c6c5fe">screens/RecurringScreen.tsx</text>
</g>
<!-- navigations/RootNavigator.tsx&#45;&gt;screens/RecurringScreen.tsx -->
<g id="edge25" class="edge">
<title>navigations/RootNavigator.tsx&#45;&gt;screens/RecurringScreen.tsx</title>
<path fill="none" stroke="#757575" d="M225.25,-702.76C236.61,-706.81 247.06,-712.91 255.25,-721.88 327.86,-801.33 219.13,-1124.98 291.25,-1204.88 295.23,-1209.29 299.79,-1212.97 304.76,-1216.04"/>
<polygon fill="#757575" stroke="#757575" points="302.92,-1219.03 313.41,-1220.51 306.13,-1212.81 302.92,-1219.03"/>
</g>
<!-- screens/ReportDetailScreen.tsx -->
<g id="node41" class="node">
<title>screens/ReportDetailScreen.tsx</title>
<path fill="none" stroke="#c6c5fe" d="M504.83,-1279.75C504.83,-1279.75 314.92,-1279.75 314.92,-1279.75 310.96,-1279.75 307,-1275.79 307,-1271.83 307,-1271.83 307,-1263.92 307,-1263.92 307,-1259.96 310.96,-1256 314.92,-1256 314.92,-1256 504.83,-1256 504.83,-1256 508.79,-1256 512.75,-1259.96 512.75,-1263.92 512.75,-1263.92 512.75,-1271.83 512.75,-1271.83 512.75,-1275.79 508.79,-1279.75 504.83,-1279.75"/>
<text xml:space="preserve" text-anchor="middle" x="409.88" y="-1262.45" font-family="Arial" font-size="14.00" fill="#c6c5fe">screens/ReportDetailScreen.tsx</text>
</g>
<!-- navigations/RootNavigator.tsx&#45;&gt;screens/ReportDetailScreen.tsx -->
<g id="edge26" class="edge">
<title>navigations/RootNavigator.tsx&#45;&gt;screens/ReportDetailScreen.tsx</title>
<path fill="none" stroke="#757575" d="M225.3,-702.72C236.66,-706.77 247.08,-712.89 255.25,-721.88 333.88,-808.43 213.15,-1159.83 291.25,-1246.88 293.22,-1249.07 295.33,-1251.09 297.57,-1252.94"/>
<polygon fill="#757575" stroke="#757575" points="295.29,-1255.62 305.51,-1258.42 299.27,-1249.86 295.29,-1255.62"/>
</g>
<!-- screens/ReportsScreen.tsx -->
<g id="node42" class="node">
<title>screens/ReportsScreen.tsx</title>
<path fill="none" stroke="#c6c5fe" d="M490.96,-523.75C490.96,-523.75 328.79,-523.75 328.79,-523.75 324.83,-523.75 320.88,-519.79 320.88,-515.83 320.88,-515.83 320.88,-507.92 320.88,-507.92 320.88,-503.96 324.83,-500 328.79,-500 328.79,-500 490.96,-500 490.96,-500 494.92,-500 498.88,-503.96 498.88,-507.92 498.88,-507.92 498.88,-515.83 498.88,-515.83 498.88,-519.79 494.92,-523.75 490.96,-523.75"/>
<text xml:space="preserve" text-anchor="middle" x="409.88" y="-506.45" font-family="Arial" font-size="14.00" fill="#c6c5fe">screens/ReportsScreen.tsx</text>
</g>
<!-- navigations/RootNavigator.tsx&#45;&gt;screens/ReportsScreen.tsx -->
<g id="edge27" class="edge">
<title>navigations/RootNavigator.tsx&#45;&gt;screens/ReportsScreen.tsx</title>
<path fill="none" stroke="#757575" d="M136.37,-688.65C157.11,-657.01 217.43,-572.17 291.25,-532.88 297.06,-529.78 303.23,-527.14 309.59,-524.87"/>
<polygon fill="#757575" stroke="#757575" points="310.53,-528.24 318.99,-521.87 308.4,-521.57 310.53,-528.24"/>
</g>
<!-- screens/SettingsScreen.tsx -->
<g id="node43" class="node">
<title>screens/SettingsScreen.tsx</title>
<path fill="none" stroke="#c6c5fe" d="M491.71,-985.75C491.71,-985.75 328.04,-985.75 328.04,-985.75 324.08,-985.75 320.12,-981.79 320.12,-977.83 320.12,-977.83 320.12,-969.92 320.12,-969.92 320.12,-965.96 324.08,-962 328.04,-962 328.04,-962 491.71,-962 491.71,-962 495.67,-962 499.62,-965.96 499.62,-969.92 499.62,-969.92 499.62,-977.83 499.62,-977.83 499.62,-981.79 495.67,-985.75 491.71,-985.75"/>
<text xml:space="preserve" text-anchor="middle" x="409.88" y="-968.45" font-family="Arial" font-size="14.00" fill="#c6c5fe">screens/SettingsScreen.tsx</text>
</g>
<!-- navigations/RootNavigator.tsx&#45;&gt;screens/SettingsScreen.tsx -->
<g id="edge28" class="edge">
<title>navigations/RootNavigator.tsx&#45;&gt;screens/SettingsScreen.tsx</title>
<path fill="none" stroke="#757575" d="M225.22,-703.61C236.45,-707.56 246.86,-713.4 255.25,-721.88 328.36,-795.7 218.59,-878.6 291.25,-952.88 296.56,-958.31 302.76,-962.61 309.48,-966"/>
<polygon fill="#757575" stroke="#757575" points="307.7,-969.05 318.27,-969.75 310.45,-962.61 307.7,-969.05"/>
</g>
<!-- screens/SplashAuthScreen.tsx -->
<g id="node44" class="node">
<title>screens/SplashAuthScreen.tsx</title>
<path fill="none" stroke="#c6c5fe" d="M501.83,-355.75C501.83,-355.75 317.92,-355.75 317.92,-355.75 313.96,-355.75 310,-351.79 310,-347.83 310,-347.83 310,-339.92 310,-339.92 310,-335.96 313.96,-332 317.92,-332 317.92,-332 501.83,-332 501.83,-332 505.79,-332 509.75,-335.96 509.75,-339.92 509.75,-339.92 509.75,-347.83 509.75,-347.83 509.75,-351.79 505.79,-355.75 501.83,-355.75"/>
<text xml:space="preserve" text-anchor="middle" x="409.88" y="-338.45" font-family="Arial" font-size="14.00" fill="#c6c5fe">screens/SplashAuthScreen.tsx</text>
</g>
<!-- navigations/RootNavigator.tsx&#45;&gt;screens/SplashAuthScreen.tsx -->
<g id="edge29" class="edge">
<title>navigations/RootNavigator.tsx&#45;&gt;screens/SplashAuthScreen.tsx</title>
<path fill="none" stroke="#757575" d="M130.51,-688.6C138.84,-638.93 177.09,-451.36 291.25,-364.88 293.89,-362.88 296.65,-361.05 299.51,-359.37"/>
<polygon fill="#757575" stroke="#757575" points="300.92,-362.58 308.26,-354.94 297.75,-356.34 300.92,-362.58"/>
</g>
<!-- screens/TransferScreen.tsx -->
<g id="node45" class="node">
<title>screens/TransferScreen.tsx</title>
<path fill="none" stroke="#c6c5fe" d="M492.46,-1111.75C492.46,-1111.75 327.29,-1111.75 327.29,-1111.75 323.33,-1111.75 319.38,-1107.79 319.38,-1103.83 319.38,-1103.83 319.38,-1095.92 319.38,-1095.92 319.38,-1091.96 323.33,-1088 327.29,-1088 327.29,-1088 492.46,-1088 492.46,-1088 496.42,-1088 500.38,-1091.96 500.38,-1095.92 500.38,-1095.92 500.38,-1103.83 500.38,-1103.83 500.38,-1107.79 496.42,-1111.75 492.46,-1111.75"/>
<text xml:space="preserve" text-anchor="middle" x="409.88" y="-1094.45" font-family="Arial" font-size="14.00" fill="#c6c5fe">screens/TransferScreen.tsx</text>
</g>
<!-- navigations/RootNavigator.tsx&#45;&gt;screens/TransferScreen.tsx -->
<g id="edge30" class="edge">
<title>navigations/RootNavigator.tsx&#45;&gt;screens/TransferScreen.tsx</title>
<path fill="none" stroke="#757575" d="M225.35,-703.07C236.62,-707.09 247.02,-713.1 255.25,-721.88 309.8,-780.03 237.06,-1020.39 291.25,-1078.88 296.25,-1084.27 302.11,-1088.57 308.51,-1091.98"/>
<polygon fill="#757575" stroke="#757575" points="307.02,-1095.15 317.58,-1096.02 309.87,-1088.75 307.02,-1095.15"/>
</g>
<!-- screens/TxnEditorScreen.tsx -->
<g id="node46" class="node">
<title>screens/TxnEditorScreen.tsx</title>
<path fill="none" stroke="#c6c5fe" d="M496.21,-607.75C496.21,-607.75 323.54,-607.75 323.54,-607.75 319.58,-607.75 315.62,-603.79 315.62,-599.83 315.62,-599.83 315.62,-591.92 315.62,-591.92 315.62,-587.96 319.58,-584 323.54,-584 323.54,-584 496.21,-584 496.21,-584 500.17,-584 504.12,-587.96 504.12,-591.92 504.12,-591.92 504.12,-599.83 504.12,-599.83 504.12,-603.79 500.17,-607.75 496.21,-607.75"/>
<text xml:space="preserve" text-anchor="middle" x="409.88" y="-590.45" font-family="Arial" font-size="14.00" fill="#c6c5fe">screens/TxnEditorScreen.tsx</text>
</g>
<!-- navigations/RootNavigator.tsx&#45;&gt;screens/TxnEditorScreen.tsx -->
<g id="edge31" class="edge">
<title>navigations/RootNavigator.tsx&#45;&gt;screens/TxnEditorScreen.tsx</title>
<path fill="none" stroke="#757575" d="M147.8,-688.53C177.39,-670.06 236.47,-635.44 291.25,-616.88 297.76,-614.67 304.56,-612.68 311.46,-610.89"/>
<polygon fill="#757575" stroke="#757575" points="311.99,-614.37 320.88,-608.6 310.34,-607.56 311.99,-614.37"/>
</g>
<!-- screens/AccountScreen.tsx&#45;&gt;theme/colors.ts -->
<g id="edge36" class="edge">
<title>screens/AccountScreen.tsx&#45;&gt;theme/colors.ts</title>
<path fill="none" stroke="#757575" d="M499.82,-563.13C509.84,-566.08 519.63,-569.92 528.5,-574.88 600.39,-615.07 656.97,-698.61 680.93,-738.18"/>
<polygon fill="#757575" stroke="#757575" points="677.8,-739.77 685.91,-746.59 683.82,-736.21 677.8,-739.77"/>
</g>
<!-- screens/AccountScreen.tsx&#45;&gt;state/AppContext.tsx -->
<g id="edge35" class="edge">
<title>screens/AccountScreen.tsx&#45;&gt;state/AppContext.tsx</title>
<path fill="none" stroke="#757575" d="M499.9,-559.43C584.4,-566.12 714.43,-580.12 824.25,-607.88 861.72,-617.34 902.74,-633.65 931.36,-646.06"/>
<polygon fill="#757575" stroke="#757575" points="929.74,-649.17 940.3,-649.99 932.56,-642.76 929.74,-649.17"/>
</g>
<!-- navigations/types.ts -->
<g id="node48" class="node">
<title>navigations/types.ts</title>
<path fill="none" stroke="#cfffac" d="M753.71,-501.75C753.71,-501.75 635.04,-501.75 635.04,-501.75 631.08,-501.75 627.12,-497.79 627.12,-493.83 627.12,-493.83 627.12,-485.92 627.12,-485.92 627.12,-481.96 631.08,-478 635.04,-478 635.04,-478 753.71,-478 753.71,-478 757.67,-478 761.62,-481.96 761.62,-485.92 761.62,-485.92 761.62,-493.83 761.62,-493.83 761.62,-497.79 757.67,-501.75 753.71,-501.75"/>
<text xml:space="preserve" text-anchor="middle" x="694.38" y="-484.45" font-family="Arial" font-size="14.00" fill="#cfffac">navigations/types.ts</text>
</g>
<!-- screens/AccountScreen.tsx&#45;&gt;navigations/types.ts -->
<g id="edge34" class="edge">
<title>screens/AccountScreen.tsx&#45;&gt;navigations/types.ts</title>
<path fill="none" stroke="#757575" d="M485.09,-541.54C499.53,-538.88 514.52,-535.94 528.5,-532.88 565.59,-524.74 606.94,-513.95 638.95,-505.22"/>
<polygon fill="#757575" stroke="#757575" points="639.69,-508.64 648.4,-502.62 637.83,-501.89 639.69,-508.64"/>
</g>
<!-- screens/AddAccountScreen.tsx&#45;&gt;theme/colors.ts -->
<g id="edge38" class="edge">
<title>screens/AddAccountScreen.tsx&#45;&gt;theme/colors.ts</title>
<path fill="none" stroke="#757575" d="M502.59,-734.21C543.77,-739.75 591.37,-746.15 628.73,-751.18"/>
<polygon fill="#757575" stroke="#757575" points="628.09,-754.63 638.47,-752.49 629.03,-747.69 628.09,-754.63"/>
</g>
<!-- screens/AddAccountScreen.tsx&#45;&gt;state/AppContext.tsx -->
<g id="edge37" class="edge">
<title>screens/AddAccountScreen.tsx&#45;&gt;state/AppContext.tsx</title>
<path fill="none" stroke="#757575" d="M511.72,-714.62C595.53,-708.16 717.85,-697.76 824.25,-684.88 844.78,-682.39 866.89,-679.24 887.47,-676.12"/>
<polygon fill="#757575" stroke="#757575" points="887.88,-679.59 897.23,-674.61 886.81,-672.68 887.88,-679.59"/>
</g>
<!-- screens/BudgetEditorScreen.tsx&#45;&gt;theme/colors.ts -->
<g id="edge44" class="edge">
<title>screens/BudgetEditorScreen.tsx&#45;&gt;theme/colors.ts</title>
<path fill="none" stroke="#757575" d="M500.46,-650.24C510.07,-652.64 519.58,-655.49 528.5,-658.88 582.3,-679.32 637.99,-717.68 668.9,-740.79"/>
<polygon fill="#757575" stroke="#757575" points="666.75,-743.55 676.83,-746.8 670.98,-737.97 666.75,-743.55"/>
</g>
<!-- screens/BudgetEditorScreen.tsx&#45;&gt;state/AppContext.tsx -->
<g id="edge43" class="edge">
<title>screens/BudgetEditorScreen.tsx&#45;&gt;state/AppContext.tsx</title>
<path fill="none" stroke="#757575" d="M514.71,-642.53C622.54,-647.37 788.96,-654.84 887.36,-659.25"/>
<polygon fill="#757575" stroke="#757575" points="887.06,-662.74 897.21,-659.69 887.37,-655.75 887.06,-662.74"/>
</g>
<!-- screens/BudgetsScreen.tsx&#45;&gt;theme/colors.ts -->
<g id="edge46" class="edge">
<title>screens/BudgetsScreen.tsx&#45;&gt;theme/colors.ts</title>
<path fill="none" stroke="#757575" d="M490.36,-692.2C503.19,-694.72 516.27,-697.62 528.5,-700.88 571.92,-712.43 620.16,-730.31 653.18,-743.36"/>
<polygon fill="#757575" stroke="#757575" points="651.77,-746.57 662.36,-747.02 654.37,-740.06 651.77,-746.57"/>
</g>
<!-- screens/BudgetsScreen.tsx&#45;&gt;state/AppContext.tsx -->
<g id="edge45" class="edge">
<title>screens/BudgetsScreen.tsx&#45;&gt;state/AppContext.tsx</title>
<path fill="none" stroke="#757575" d="M500.41,-677.14C607.31,-673.88 784.53,-668.48 887.39,-665.34"/>
<polygon fill="#757575" stroke="#757575" points="887.24,-668.84 897.13,-665.04 887.02,-661.85 887.24,-668.84"/>
</g>
<!-- screens/DashboardScreen.tsx&#45;&gt;theme/colors.ts -->
<g id="edge49" class="edge">
<title>screens/DashboardScreen.tsx&#45;&gt;theme/colors.ts</title>
<path fill="none" stroke="#757575" d="M508.51,-480.42C515.57,-483.23 522.33,-486.67 528.5,-490.88 619.59,-553.03 669.38,-683.78 686.49,-736.81"/>
<polygon fill="#757575" stroke="#757575" points="683.12,-737.77 689.45,-746.27 689.8,-735.68 683.12,-737.77"/>
</g>
<!-- screens/DashboardScreen.tsx&#45;&gt;state/AppContext.tsx -->
<g id="edge48" class="edge">
<title>screens/DashboardScreen.tsx&#45;&gt;state/AppContext.tsx</title>
<path fill="none" stroke="#757575" d="M508.5,-459.66C613.03,-450.46 771.04,-442.09 824.25,-468.88 896.64,-505.31 941.73,-597.31 959.48,-640.21"/>
<polygon fill="#757575" stroke="#757575" points="956.15,-641.3 963.11,-649.28 962.65,-638.7 956.15,-641.3"/>
</g>
<!-- screens/DashboardScreen.tsx&#45;&gt;navigations/types.ts -->
<g id="edge47" class="edge">
<title>screens/DashboardScreen.tsx&#45;&gt;navigations/types.ts</title>
<path fill="none" stroke="#757575" d="M508.49,-476.79C543.44,-479.26 582.35,-482.01 615.42,-484.36"/>
<polygon fill="#757575" stroke="#757575" points="615.12,-487.84 625.35,-485.06 615.62,-480.86 615.12,-487.84"/>
</g>
<!-- screens/DataExportImportScreen.tsx&#45;&gt;theme/colors.ts -->
<g id="edge52" class="edge">
<title>screens/DataExportImportScreen.tsx&#45;&gt;theme/colors.ts</title>
<path fill="none" stroke="#757575" d="M518.13,-234.18C521.86,-236.69 525.34,-239.58 528.5,-242.88 570.06,-286.27 546.42,-453.57 564.5,-510.88 592.71,-600.32 651.46,-696.17 678.8,-738.12"/>
<polygon fill="#757575" stroke="#757575" points="675.78,-739.9 684.2,-746.32 681.62,-736.05 675.78,-739.9"/>
</g>
<!-- screens/DataExportImportScreen.tsx&#45;&gt;state/AppContext.tsx -->
<g id="edge51" class="edge">
<title>screens/DataExportImportScreen.tsx&#45;&gt;state/AppContext.tsx</title>
<path fill="none" stroke="#757575" d="M484.44,-234.21C499.07,-236.89 514.3,-239.84 528.5,-242.88 544.63,-246.33 548.42,-248.2 564.5,-251.88 679.44,-278.18 733.79,-230.24 824.25,-305.88 930.95,-395.08 959.25,-575.2 966.11,-639.45"/>
<polygon fill="#757575" stroke="#757575" points="962.6,-639.57 967.06,-649.18 969.57,-638.89 962.6,-639.57"/>
</g>
<!-- screens/DataExportImportScreen.tsx&#45;&gt;navigations/types.ts -->
<g id="edge50" class="edge">
<title>screens/DataExportImportScreen.tsx&#45;&gt;navigations/types.ts</title>
<path fill="none" stroke="#757575" d="M512.15,-234.23C517.88,-236.67 523.38,-239.52 528.5,-242.88 531.32,-244.72 639.83,-408.79 679.25,-468.47"/>
<polygon fill="#757575" stroke="#757575" points="676.1,-470.05 684.53,-476.47 681.94,-466.2 676.1,-470.05"/>
</g>
<!-- utils/backup.ts -->
<g id="node53" class="node">
<title>utils/backup.ts</title>
<path fill="none" stroke="#c6c5fe" d="M737.21,-242.75C737.21,-242.75 651.54,-242.75 651.54,-242.75 647.58,-242.75 643.62,-238.79 643.62,-234.83 643.62,-234.83 643.62,-226.92 643.62,-226.92 643.62,-222.96 647.58,-219 651.54,-219 651.54,-219 737.21,-219 737.21,-219 741.17,-219 745.12,-222.96 745.12,-226.92 745.12,-226.92 745.12,-234.83 745.12,-234.83 745.12,-238.79 741.17,-242.75 737.21,-242.75"/>
<text xml:space="preserve" text-anchor="middle" x="694.38" y="-225.45" font-family="Arial" font-size="14.00" fill="#c6c5fe">utils/backup.ts</text>
</g>
<!-- screens/DataExportImportScreen.tsx&#45;&gt;utils/backup.ts -->
<g id="edge53" class="edge">
<title>screens/DataExportImportScreen.tsx&#45;&gt;utils/backup.ts</title>
<path fill="none" stroke="#757575" d="M528.63,-225.63C564.21,-226.76 601.83,-227.96 632.13,-228.92"/>
<polygon fill="#757575" stroke="#757575" points="631.74,-232.41 641.85,-229.23 631.96,-225.42 631.74,-232.41"/>
</g>
<!-- screens/ImportCsvScreen.tsx&#45;&gt;theme/colors.ts -->
<g id="edge58" class="edge">
<title>screens/ImportCsvScreen.tsx&#45;&gt;theme/colors.ts</title>
<path fill="none" stroke="#757575" d="M506.79,-1051.77C514.87,-1048.14 522.3,-1043.29 528.5,-1036.88 606.81,-955.83 487.1,-867.79 564.5,-785.88 580.87,-768.55 605.32,-761.04 628.55,-758.21"/>
<polygon fill="#757575" stroke="#757575" points="628.66,-761.71 638.3,-757.31 628.02,-754.74 628.66,-761.71"/>
</g>
<!-- screens/NotificationsScreen.tsx&#45;&gt;theme/colors.ts -->
<g id="edge61" class="edge">
<title>screens/NotificationsScreen.tsx&#45;&gt;theme/colors.ts</title>
<path fill="none" stroke="#757575" d="M512.43,-1006.74C518.31,-1003.56 523.75,-999.66 528.5,-994.88 594.95,-928.02 498.81,-853.47 564.5,-785.88 581.11,-768.78 605.61,-761.31 628.8,-758.45"/>
<polygon fill="#757575" stroke="#757575" points="628.9,-761.96 638.53,-757.54 628.25,-754.99 628.9,-761.96"/>
</g>
<!-- screens/PaymentsScreen.tsx&#45;&gt;theme/colors.ts -->
<g id="edge64" class="edge">
<title>screens/PaymentsScreen.tsx&#45;&gt;theme/colors.ts</title>
<path fill="none" stroke="#757575" d="M505.87,-436.83C513.94,-439.92 521.63,-443.86 528.5,-448.88 535.09,-453.68 645.44,-666.93 681.83,-737.48"/>
<polygon fill="#757575" stroke="#757575" points="678.63,-738.89 686.32,-746.18 684.85,-735.68 678.63,-738.89"/>
</g>
<!-- screens/PaymentsScreen.tsx&#45;&gt;state/AppContext.tsx -->
<g id="edge63" class="edge">
<title>screens/PaymentsScreen.tsx&#45;&gt;state/AppContext.tsx</title>
<path fill="none" stroke="#757575" d="M505.68,-422.52C610.59,-418.27 771.8,-417.22 824.25,-446.88 901.1,-490.33 944.6,-593.8 960.77,-639.96"/>
<polygon fill="#757575" stroke="#757575" points="957.38,-640.85 963.9,-649.2 964.01,-638.61 957.38,-640.85"/>
</g>
<!-- screens/PaymentsScreen.tsx&#45;&gt;navigations/types.ts -->
<g id="edge62" class="edge">
<title>screens/PaymentsScreen.tsx&#45;&gt;navigations/types.ts</title>
<path fill="none" stroke="#757575" d="M484.44,-440.22C499.07,-442.9 514.3,-445.85 528.5,-448.88 564.63,-456.58 604.86,-466.56 636.54,-474.74"/>
<polygon fill="#757575" stroke="#757575" points="635.35,-478.05 645.91,-477.18 637.11,-471.27 635.35,-478.05"/>
</g>
<!-- screens/RecentActivityScreen.tsx&#45;&gt;theme/colors.ts -->
<g id="edge67" class="edge">
<title>screens/RecentActivityScreen.tsx&#45;&gt;theme/colors.ts</title>
<path fill="none" stroke="#757575" d="M518.19,-1129.63C521.91,-1127.1 525.37,-1124.19 528.5,-1120.88 621.27,-1022.56 484.86,-928.09 564.5,-818.88 580.03,-797.58 605.12,-783.78 629.05,-774.92"/>
<polygon fill="#757575" stroke="#757575" points="630.17,-778.24 638.5,-771.69 627.9,-771.62 630.17,-778.24"/>
</g>
<!-- screens/RecentActivityScreen.tsx&#45;&gt;state/AppContext.tsx -->
<g id="edge66" class="edge">
<title>screens/RecentActivityScreen.tsx&#45;&gt;state/AppContext.tsx</title>
<path fill="none" stroke="#757575" d="M517.33,-1129.63C521.33,-1127.1 525.08,-1124.2 528.5,-1120.88 585.38,-1065.47 507.27,-1000.92 564.5,-945.88 648.83,-864.75 727.5,-968.7 824.25,-902.88 903.67,-848.84 946.24,-735.09 961.5,-686.11"/>
<polygon fill="#757575" stroke="#757575" points="964.84,-687.16 964.37,-676.58 958.14,-685.15 964.84,-687.16"/>
</g>
<!-- screens/RecentActivityScreen.tsx&#45;&gt;utils/formatDate.ts -->
<g id="edge68" class="edge">
<title>screens/RecentActivityScreen.tsx&#45;&gt;utils/formatDate.ts</title>
<path fill="none" stroke="#757575" d="M518.32,-1148.62C628.94,-1155.57 798.35,-1166.21 894.59,-1172.26"/>
<polygon fill="#757575" stroke="#757575" points="894.25,-1175.74 904.45,-1172.88 894.69,-1168.76 894.25,-1175.74"/>
</g>
<!-- screens/RecentActivityScreen.tsx&#45;&gt;navigations/types.ts -->
<g id="edge65" class="edge">
<title>screens/RecentActivityScreen.tsx&#45;&gt;navigations/types.ts</title>
<path fill="none" stroke="#757575" d="M518.3,-1129.73C521.98,-1127.17 525.41,-1124.23 528.5,-1120.88 586.25,-1058.14 540.46,-820.68 564.5,-738.88 590.94,-648.89 650.58,-553.31 678.47,-511.53"/>
<polygon fill="#757575" stroke="#757575" points="681.29,-513.6 683.99,-503.36 675.49,-509.68 681.29,-513.6"/>
</g>
<!-- screens/RecurringEditorScreen.tsx&#45;&gt;theme/colors.ts -->
<g id="edge69" class="edge">
<title>screens/RecurringEditorScreen.tsx&#45;&gt;theme/colors.ts</title>
<path fill="none" stroke="#757575" d="M522.53,-762.29C558.51,-761.78 597.19,-761.24 628.62,-760.79"/>
<polygon fill="#757575" stroke="#757575" points="628.39,-764.3 638.34,-760.65 628.29,-757.3 628.39,-764.3"/>
</g>
<!-- screens/RecurringScreen.tsx&#45;&gt;theme/colors.ts -->
<g id="edge71" class="edge">
<title>screens/RecurringScreen.tsx&#45;&gt;theme/colors.ts</title>
<path fill="none" stroke="#757575" d="M504.87,-1221.09C513.76,-1217.3 521.9,-1212.05 528.5,-1204.88 586.82,-1141.46 514.64,-889.13 564.5,-818.88 579.88,-797.2 605.23,-783.31 629.39,-774.5"/>
<polygon fill="#757575" stroke="#757575" points="630.22,-777.91 638.57,-771.4 627.98,-771.28 630.22,-777.91"/>
</g>
<!-- screens/RecurringScreen.tsx&#45;&gt;state/AppContext.tsx -->
<g id="edge70" class="edge">
<title>screens/RecurringScreen.tsx&#45;&gt;state/AppContext.tsx</title>
<path fill="none" stroke="#757575" d="M504.77,-1220.2C513.56,-1216.55 521.71,-1211.58 528.5,-1204.88 589.03,-1145.1 503.37,-1076.04 564.5,-1016.88 648.48,-935.59 731.08,-1046.44 824.25,-975.88 922.17,-901.71 955.58,-745.07 964.96,-686.04"/>
<polygon fill="#757575" stroke="#757575" points="968.37,-686.89 966.39,-676.49 961.45,-685.86 968.37,-686.89"/>
</g>
<!-- screens/RecurringScreen.tsx&#45;&gt;utils/formatDate.ts -->
<g id="edge72" class="edge">
<title>screens/RecurringScreen.tsx&#45;&gt;utils/formatDate.ts</title>
<path fill="none" stroke="#757575" d="M504.77,-1217.62C614.83,-1207.94 794.88,-1192.11 895.05,-1183.3"/>
<polygon fill="#757575" stroke="#757575" points="895.11,-1186.81 904.76,-1182.45 894.49,-1179.84 895.11,-1186.81"/>
</g>
<!-- screens/ReportDetailScreen.tsx&#45;&gt;theme/colors.ts -->
<g id="edge81" class="edge">
<title>screens/ReportDetailScreen.tsx&#45;&gt;theme/colors.ts</title>
<path fill="none" stroke="#757575" d="M513.18,-1259.05C518.84,-1255.79 524.03,-1251.78 528.5,-1246.88 592.79,-1176.33 509.61,-896.96 564.5,-818.88 579.79,-797.13 605.12,-783.23 629.29,-774.43"/>
<polygon fill="#757575" stroke="#757575" points="630.12,-777.84 638.48,-771.33 627.89,-771.21 630.12,-777.84"/>
</g>
<!-- screens/ReportDetailScreen.tsx&#45;&gt;components/reports/MonthSwitcher.tsx -->
<g id="edge73" class="edge">
<title>screens/ReportDetailScreen.tsx&#45;&gt;components/reports/MonthSwitcher.tsx</title>
<path fill="none" stroke="#757575" d="M425.04,-1280.08C450.9,-1301.69 508.3,-1346.6 564.5,-1369.88 574.78,-1374.13 585.82,-1377.71 596.95,-1380.71"/>
<polygon fill="#757575" stroke="#757575" points="596.08,-1384.1 606.63,-1383.16 597.79,-1377.32 596.08,-1384.1"/>
</g>
<!-- screens/ReportDetailScreen.tsx&#45;&gt;hooks/reports/useReportRange.ts -->
<g id="edge77" class="edge">
<title>screens/ReportDetailScreen.tsx&#45;&gt;hooks/reports/useReportRange.ts</title>
<path fill="none" stroke="#757575" d="M431.93,-1280.03C460.79,-1296.06 514.74,-1323.75 564.5,-1336.88 657.93,-1361.53 767.24,-1370.67 848.52,-1373.84"/>
<polygon fill="#757575" stroke="#757575" points="848.17,-1377.33 858.29,-1374.2 848.42,-1370.34 848.17,-1377.33"/>
</g>
<!-- screens/ReportDetailScreen.tsx&#45;&gt;components/reports/SummaryCard.tsx -->
<g id="edge74" class="edge">
<title>screens/ReportDetailScreen.tsx&#45;&gt;components/reports/SummaryCard.tsx</title>
<path fill="none" stroke="#757575" d="M512.86,-1270.04C527.62,-1270.35 542.99,-1270.68 558.27,-1271.01"/>
<polygon fill="#757575" stroke="#757575" points="557.78,-1274.5 567.85,-1271.21 557.93,-1267.5 557.78,-1274.5"/>
</g>
<!-- screens/ReportDetailScreen.tsx&#45;&gt;components/reports/TransactionList.tsx -->
<g id="edge75" class="edge">
<title>screens/ReportDetailScreen.tsx&#45;&gt;components/reports/TransactionList.tsx</title>
<path fill="none" stroke="#757575" d="M480.05,-1280.22C506.47,-1284.89 536.87,-1290.2 564.5,-1294.88 577.82,-1297.13 591.91,-1299.47 605.71,-1301.74"/>
<polygon fill="#757575" stroke="#757575" points="604.76,-1305.13 615.19,-1303.29 605.89,-1298.22 604.76,-1305.13"/>
</g>
<!-- screens/ReportDetailScreen.tsx&#45;&gt;state/AppContext.tsx -->
<g id="edge80" class="edge">
<title>screens/ReportDetailScreen.tsx&#45;&gt;state/AppContext.tsx</title>
<path fill="none" stroke="#757575" d="M501.73,-1255.57C596.13,-1237.93 741.43,-1196.3 824.25,-1100.88 935.36,-972.86 961.1,-756.89 966.68,-686.1"/>
<polygon fill="#757575" stroke="#757575" points="970.14,-686.71 967.37,-676.48 963.16,-686.21 970.14,-686.71"/>
</g>
<!-- screens/ReportDetailScreen.tsx&#45;&gt;hooks/reports/useFilteredTransactions.ts -->
<g id="edge76" class="edge">
<title>screens/ReportDetailScreen.tsx&#45;&gt;hooks/reports/useFilteredTransactions.ts</title>
<path fill="none" stroke="#757575" d="M508.14,-1255.5C515.21,-1253.1 522.07,-1250.25 528.5,-1246.88 563.63,-1228.4 640.78,-1141.32 675.65,-1100.76"/>
<polygon fill="#757575" stroke="#757575" points="678.16,-1103.21 682,-1093.33 672.84,-1098.66 678.16,-1103.21"/>
</g>
<!-- screens/ReportDetailScreen.tsx&#45;&gt;hooks/reports/useTotals.ts -->
<g id="edge78" class="edge">
<title>screens/ReportDetailScreen.tsx&#45;&gt;hooks/reports/useTotals.ts</title>
<path fill="none" stroke="#757575" d="M513.14,-1258.2C518.73,-1255.13 523.92,-1251.39 528.5,-1246.88 589.03,-1187.1 503.52,-1118.19 564.5,-1058.88 573.61,-1050.01 584.92,-1044.02 597.01,-1040.08"/>
<polygon fill="#757575" stroke="#757575" points="597.64,-1043.53 606.35,-1037.51 595.78,-1036.78 597.64,-1043.53"/>
</g>
<!-- screens/ReportDetailScreen.tsx&#45;&gt;navigations/types.ts -->
<g id="edge79" class="edge">
<title>screens/ReportDetailScreen.tsx&#45;&gt;navigations/types.ts</title>
<path fill="none" stroke="#757575" d="M512.99,-1259.27C518.73,-1255.97 523.99,-1251.89 528.5,-1246.88 566.34,-1204.8 549.18,-793.35 564.5,-738.88 589.89,-648.59 650.06,-553.16 678.28,-511.47"/>
<polygon fill="#757575" stroke="#757575" points="681.1,-513.55 683.87,-503.32 675.33,-509.59 681.1,-513.55"/>
</g>
<!-- screens/ReportsScreen.tsx&#45;&gt;theme/colors.ts -->
<g id="edge89" class="edge">
<title>screens/ReportsScreen.tsx&#45;&gt;theme/colors.ts</title>
<path fill="none" stroke="#757575" d="M499.11,-519.9C509.47,-523.05 519.53,-527.26 528.5,-532.88 609.74,-583.77 663.52,-690.59 684.04,-737.25"/>
<polygon fill="#757575" stroke="#757575" points="680.79,-738.54 687.94,-746.36 687.22,-735.79 680.79,-738.54"/>
</g>
<!-- screens/ReportsScreen.tsx&#45;&gt;state/AppContext.tsx -->
<g id="edge88" class="edge">
<title>screens/ReportsScreen.tsx&#45;&gt;state/AppContext.tsx</title>
<path fill="none" stroke="#757575" d="M499.35,-510.27C585.14,-511.52 717.61,-520.98 824.25,-561.88 872.93,-580.55 920.72,-619.28 947.12,-642.99"/>
<polygon fill="#757575" stroke="#757575" points="944.68,-645.49 954.42,-649.66 949.4,-640.33 944.68,-645.49"/>
</g>
<!-- screens/ReportsScreen.tsx&#45;&gt;navigations/types.ts -->
<g id="edge87" class="edge">
<title>screens/ReportsScreen.tsx&#45;&gt;navigations/types.ts</title>
<path fill="none" stroke="#757575" d="M499.1,-505C536.35,-502.1 579.36,-498.75 615.42,-495.95"/>
<polygon fill="#757575" stroke="#757575" points="615.66,-499.44 625.36,-495.17 615.12,-492.46 615.66,-499.44"/>
</g>
<!-- screens/SettingsScreen.tsx&#45;&gt;theme/colors.ts -->
<g id="edge92" class="edge">
<title>screens/SettingsScreen.tsx&#45;&gt;theme/colors.ts</title>
<path fill="none" stroke="#757575" d="M499.95,-969.81C510.55,-966.08 520.44,-960.65 528.5,-952.88 583.14,-900.15 510.46,-839.21 564.5,-785.88 581.39,-769.2 605.83,-761.79 628.89,-758.86"/>
<polygon fill="#757575" stroke="#757575" points="628.94,-762.37 638.55,-757.9 628.26,-755.4 628.94,-762.37"/>
</g>
<!-- screens/SettingsScreen.tsx&#45;&gt;dev/resetDb.ts -->
<g id="edge90" class="edge">
<title>screens/SettingsScreen.tsx&#45;&gt;dev/resetDb.ts</title>
<path fill="none" stroke="#757575" d="M500.08,-965.08C510.06,-962.04 519.76,-958.07 528.5,-952.88 550.52,-939.79 542.63,-921.21 564.5,-907.88 584.33,-895.78 608.76,-889.2 631,-885.65"/>
<polygon fill="#757575" stroke="#757575" points="631.47,-889.12 640.89,-884.27 630.5,-882.18 631.47,-889.12"/>
</g>
<!-- screens/SettingsScreen.tsx&#45;&gt;navigations/types.ts -->
<g id="edge91" class="edge">
<title>screens/SettingsScreen.tsx&#45;&gt;navigations/types.ts</title>
<path fill="none" stroke="#757575" d="M499.99,-970.26C510.65,-966.47 520.55,-960.91 528.5,-952.88 596.36,-884.34 533.97,-830.36 564.5,-738.88 594.19,-649.91 652.19,-553.82 679.07,-511.72"/>
<polygon fill="#757575" stroke="#757575" points="681.9,-513.79 684.37,-503.49 676.01,-509.99 681.9,-513.79"/>
</g>
<!-- screens/SplashAuthScreen.tsx&#45;&gt;theme/colors.ts -->
<g id="edge95" class="edge">
<title>screens/SplashAuthScreen.tsx&#45;&gt;theme/colors.ts</title>
<path fill="none" stroke="#757575" d="M510.1,-352.43C516.81,-355.68 523.05,-359.77 528.5,-364.88 577.27,-410.57 540.98,-448.32 564.5,-510.88 597.52,-598.68 653.86,-695.4 679.7,-737.85"/>
<polygon fill="#757575" stroke="#757575" points="676.71,-739.68 684.92,-746.37 682.68,-736.02 676.71,-739.68"/>
</g>
<!-- screens/SplashAuthScreen.tsx&#45;&gt;state/AppContext.tsx -->
<g id="edge94" class="edge">
<title>screens/SplashAuthScreen.tsx&#45;&gt;state/AppContext.tsx</title>
<path fill="none" stroke="#757575" d="M455.77,-331.54C536.88,-312.06 710.01,-283.62 824.25,-358.88 924.4,-424.85 956.46,-580.64 965.22,-639.66"/>
<polygon fill="#757575" stroke="#757575" points="961.71,-639.8 966.55,-649.22 968.64,-638.84 961.71,-639.8"/>
</g>
<!-- screens/SplashAuthScreen.tsx&#45;&gt;navigations/types.ts -->
<g id="edge93" class="edge">
<title>screens/SplashAuthScreen.tsx&#45;&gt;navigations/types.ts</title>
<path fill="none" stroke="#757575" d="M503.93,-356.21C512.4,-358.61 520.71,-361.46 528.5,-364.88 587.25,-390.6 644.24,-441.24 673.36,-469.53"/>
<polygon fill="#757575" stroke="#757575" points="670.82,-471.94 680.39,-476.48 675.74,-466.96 670.82,-471.94"/>
</g>
<!-- screens/TransferScreen.tsx&#45;&gt;theme/colors.ts -->
<g id="edge98" class="edge">
<title>screens/TransferScreen.tsx&#45;&gt;theme/colors.ts</title>
<path fill="none" stroke="#757575" d="M500.62,-1096.48C511.11,-1092.64 520.8,-1087.01 528.5,-1078.88 618.72,-983.61 475.36,-882.14 564.5,-785.88 580.76,-768.32 605.32,-760.78 628.65,-758"/>
<polygon fill="#757575" stroke="#757575" points="628.8,-761.5 638.45,-757.13 628.18,-754.53 628.8,-761.5"/>
</g>
<!-- screens/TransferScreen.tsx&#45;&gt;state/AppContext.tsx -->
<g id="edge97" class="edge">
<title>screens/TransferScreen.tsx&#45;&gt;state/AppContext.tsx</title>
<path fill="none" stroke="#757575" d="M500.8,-1096.26C511.19,-1092.45 520.81,-1086.87 528.5,-1078.88 609.36,-994.79 482.33,-901.68 564.5,-818.88 646.68,-736.06 717.53,-828.03 824.25,-780.88 876.28,-757.88 924.81,-710.69 950.03,-683.47"/>
<polygon fill="#757575" stroke="#757575" points="952.51,-685.94 956.65,-676.19 947.33,-681.23 952.51,-685.94"/>
</g>
<!-- screens/TransferScreen.tsx&#45;&gt;utils/formatDate.ts -->
<g id="edge99" class="edge">
<title>screens/TransferScreen.tsx&#45;&gt;utils/formatDate.ts</title>
<path fill="none" stroke="#757575" d="M500.68,-1108.13C584.61,-1116.35 713.29,-1130.28 824.25,-1147.88 849.56,-1151.89 877.19,-1157.22 901.41,-1162.22"/>
<polygon fill="#757575" stroke="#757575" points="900.65,-1165.64 911.15,-1164.26 902.08,-1158.79 900.65,-1165.64"/>
</g>
<!-- screens/TransferScreen.tsx&#45;&gt;navigations/types.ts -->
<g id="edge96" class="edge">
<title>screens/TransferScreen.tsx&#45;&gt;navigations/types.ts</title>
<path fill="none" stroke="#757575" d="M500.75,-1096.6C511.22,-1092.75 520.87,-1087.07 528.5,-1078.88 580.28,-1023.27 542.66,-811.65 564.5,-738.88 591.46,-649.05 650.84,-553.39 678.57,-511.56"/>
<polygon fill="#757575" stroke="#757575" points="681.39,-513.63 684.05,-503.38 675.58,-509.73 681.39,-513.63"/>
</g>
<!-- screens/TxnEditorScreen.tsx&#45;&gt;theme/colors.ts -->
<g id="edge102" class="edge">
<title>screens/TxnEditorScreen.tsx&#45;&gt;theme/colors.ts</title>
<path fill="none" stroke="#757575" d="M504.48,-607.77C512.79,-610.25 520.92,-613.25 528.5,-616.88 591.36,-646.9 648.97,-707.55 676.45,-739.36"/>
<polygon fill="#757575" stroke="#757575" points="673.56,-741.36 682.7,-746.72 678.9,-736.83 673.56,-741.36"/>
</g>
<!-- screens/TxnEditorScreen.tsx&#45;&gt;state/AppContext.tsx -->
<g id="edge101" class="edge">
<title>screens/TxnEditorScreen.tsx&#45;&gt;state/AppContext.tsx</title>
<path fill="none" stroke="#757575" d="M504.59,-604.91C588.47,-613.27 714.73,-626.55 824.25,-640.88 844.76,-643.56 866.86,-646.77 887.43,-649.91"/>
<polygon fill="#757575" stroke="#757575" points="886.78,-653.35 897.19,-651.41 887.84,-646.43 886.78,-653.35"/>
</g>
<!-- screens/TxnEditorScreen.tsx&#45;&gt;navigations/types.ts -->
<g id="edge100" class="edge">
<title>screens/TxnEditorScreen.tsx&#45;&gt;navigations/types.ts</title>
<path fill="none" stroke="#757575" d="M497.08,-583.57C507.78,-581.14 518.48,-578.27 528.5,-574.88 578.87,-557.83 632.86,-527.41 664.84,-507.96"/>
<polygon fill="#757575" stroke="#757575" points="666.45,-511.08 673.13,-502.85 662.78,-505.12 666.45,-511.08"/>
</g>
<!-- navigations/screens.ts -->
<g id="node47" class="node">
<title>navigations/screens.ts</title>
<path fill="none" stroke="#cfffac" d="M194.46,-1090.75C194.46,-1090.75 60.79,-1090.75 60.79,-1090.75 56.83,-1090.75 52.88,-1086.79 52.88,-1082.83 52.88,-1082.83 52.88,-1074.92 52.88,-1074.92 52.88,-1070.96 56.83,-1067 60.79,-1067 60.79,-1067 194.46,-1067 194.46,-1067 198.42,-1067 202.38,-1070.96 202.38,-1074.92 202.38,-1074.92 202.38,-1082.83 202.38,-1082.83 202.38,-1086.79 198.42,-1090.75 194.46,-1090.75"/>
<text xml:space="preserve" text-anchor="middle" x="127.62" y="-1073.45" font-family="Arial" font-size="14.00" fill="#cfffac">navigations/screens.ts</text>
</g>
<!-- notifications/NotificationBootstrapper.tsx -->
<g id="node49" class="node">
<title>notifications/NotificationBootstrapper.tsx</title>
<path fill="none" stroke="#cfffac" d="M247.33,-1132.75C247.33,-1132.75 7.92,-1132.75 7.92,-1132.75 3.96,-1132.75 0,-1128.79 0,-1124.83 0,-1124.83 0,-1116.92 0,-1116.92 0,-1112.96 3.96,-1109 7.92,-1109 7.92,-1109 247.33,-1109 247.33,-1109 251.29,-1109 255.25,-1112.96 255.25,-1116.92 255.25,-1116.92 255.25,-1124.83 255.25,-1124.83 255.25,-1128.79 251.29,-1132.75 247.33,-1132.75"/>
<text xml:space="preserve" text-anchor="middle" x="127.62" y="-1115.45" font-family="Arial" font-size="14.00" fill="#cfffac">notifications/NotificationBootstrapper.tsx</text>
</g>
<!-- recurring/bootstrapper.js -->
<g id="node50" class="node">
<title>recurring/bootstrapper.js</title>
<path fill="none" stroke="#cfffac" d="M200.46,-1174.75C200.46,-1174.75 54.79,-1174.75 54.79,-1174.75 50.83,-1174.75 46.88,-1170.79 46.88,-1166.83 46.88,-1166.83 46.88,-1158.92 46.88,-1158.92 46.88,-1154.96 50.83,-1151 54.79,-1151 54.79,-1151 200.46,-1151 200.46,-1151 204.42,-1151 208.38,-1154.96 208.38,-1158.92 208.38,-1158.92 208.38,-1166.83 208.38,-1166.83 208.38,-1170.79 204.42,-1174.75 200.46,-1174.75"/>
<text xml:space="preserve" text-anchor="middle" x="127.62" y="-1157.45" font-family="Arial" font-size="14.00" fill="#cfffac">recurring/bootstrapper.js</text>
</g>
<!-- screens/AccountEditorScreen.tsx -->
<g id="node51" class="node">
<title>screens/AccountEditorScreen.tsx</title>
<path fill="none" stroke="#c6c5fe" d="M509.33,-1195.75C509.33,-1195.75 310.42,-1195.75 310.42,-1195.75 306.46,-1195.75 302.5,-1191.79 302.5,-1187.83 302.5,-1187.83 302.5,-1179.92 302.5,-1179.92 302.5,-1175.96 306.46,-1172 310.42,-1172 310.42,-1172 509.33,-1172 509.33,-1172 513.29,-1172 517.25,-1175.96 517.25,-1179.92 517.25,-1179.92 517.25,-1187.83 517.25,-1187.83 517.25,-1191.79 513.29,-1195.75 509.33,-1195.75"/>
<text xml:space="preserve" text-anchor="middle" x="409.88" y="-1178.45" font-family="Arial" font-size="14.00" fill="#c6c5fe">screens/AccountEditorScreen.tsx</text>
</g>
<!-- screens/AccountEditorScreen.tsx&#45;&gt;theme/colors.ts -->
<g id="edge33" class="edge">
<title>screens/AccountEditorScreen.tsx&#45;&gt;theme/colors.ts</title>
<path fill="none" stroke="#757575" d="M517.75,-1172.04C521.64,-1169.4 525.25,-1166.37 528.5,-1162.88 580.85,-1106.59 519.66,-881.3 564.5,-818.88 579.87,-797.47 604.94,-783.65 628.9,-774.81"/>
<polygon fill="#757575" stroke="#757575" points="630.02,-778.13 638.36,-771.58 627.76,-771.5 630.02,-778.13"/>
</g>
<!-- screens/AccountEditorScreen.tsx&#45;&gt;state/AppContext.tsx -->
<g id="edge32" class="edge">
<title>screens/AccountEditorScreen.tsx&#45;&gt;state/AppContext.tsx</title>
<path fill="none" stroke="#757575" d="M517.35,-1171.65C521.34,-1169.12 525.09,-1166.21 528.5,-1162.88 586.5,-1106.12 506.35,-1040.48 564.5,-983.88 648.46,-902.15 729.64,-1007.99 824.25,-938.88 912.3,-874.56 950.93,-740.16 963.35,-686.12"/>
<polygon fill="#757575" stroke="#757575" points="966.73,-687.02 965.46,-676.5 959.89,-685.52 966.73,-687.02"/>
</g>
<!-- screens/BackupRestoreScreen.tsx -->
<g id="node52" class="node">
<title>screens/BackupRestoreScreen.tsx</title>
<path fill="none" stroke="#c6c5fe" d="M513.46,-191.75C513.46,-191.75 306.29,-191.75 306.29,-191.75 302.33,-191.75 298.38,-187.79 298.38,-183.83 298.38,-183.83 298.38,-175.92 298.38,-175.92 298.38,-171.96 302.33,-168 306.29,-168 306.29,-168 513.46,-168 513.46,-168 517.42,-168 521.38,-171.96 521.38,-175.92 521.38,-175.92 521.38,-183.83 521.38,-183.83 521.38,-187.79 517.42,-191.75 513.46,-191.75"/>
<text xml:space="preserve" text-anchor="middle" x="409.88" y="-174.45" font-family="Arial" font-size="14.00" fill="#c6c5fe">screens/BackupRestoreScreen.tsx</text>
</g>
<!-- screens/BackupRestoreScreen.tsx&#45;&gt;theme/colors.ts -->
<g id="edge40" class="edge">
<title>screens/BackupRestoreScreen.tsx&#45;&gt;theme/colors.ts</title>
<path fill="none" stroke="#757575" d="M518.21,-192.1C521.91,-194.64 525.37,-197.55 528.5,-200.88 576.02,-251.39 544.23,-444.55 564.5,-510.88 591.91,-600.56 651.06,-696.29 678.65,-738.17"/>
<polygon fill="#757575" stroke="#757575" points="675.65,-739.97 684.11,-746.36 681.47,-736.09 675.65,-739.97"/>
</g>
<!-- screens/BackupRestoreScreen.tsx&#45;&gt;state/AppContext.tsx -->
<g id="edge39" class="edge">
<title>screens/BackupRestoreScreen.tsx&#45;&gt;state/AppContext.tsx</title>
<path fill="none" stroke="#757575" d="M506.73,-167.53C514.27,-165.14 521.62,-162.28 528.5,-158.88 547.96,-149.25 544.27,-133.74 564.5,-125.88 618.3,-104.95 778.46,-90.74 824.25,-125.88 908.99,-190.9 954.74,-544.87 965.59,-639.57"/>
<polygon fill="#757575" stroke="#757575" points="962.1,-639.88 966.69,-649.43 969.05,-639.1 962.1,-639.88"/>
</g>
<!-- screens/BackupRestoreScreen.tsx&#45;&gt;utils/backup.ts -->
<g id="edge41" class="edge">
<title>screens/BackupRestoreScreen.tsx&#45;&gt;utils/backup.ts</title>
<path fill="none" stroke="#757575" d="M484.44,-192.21C499.07,-194.89 514.3,-197.84 528.5,-200.88 544.63,-204.33 548.35,-206.55 564.5,-209.88 586.43,-214.39 610.61,-218.55 632.05,-221.95"/>
<polygon fill="#757575" stroke="#757575" points="631.4,-225.39 641.82,-223.48 632.48,-218.48 631.4,-225.39"/>
</g>
<!-- utils/backupReminder.ts -->
<g id="node54" class="node">
<title>utils/backupReminder.ts</title>
<path fill="none" stroke="#cfffac" d="M766.46,-200.75C766.46,-200.75 622.29,-200.75 622.29,-200.75 618.33,-200.75 614.38,-196.79 614.38,-192.83 614.38,-192.83 614.38,-184.92 614.38,-184.92 614.38,-180.96 618.33,-177 622.29,-177 622.29,-177 766.46,-177 766.46,-177 770.42,-177 774.38,-180.96 774.38,-184.92 774.38,-184.92 774.38,-192.83 774.38,-192.83 774.38,-196.79 770.42,-200.75 766.46,-200.75"/>
<text xml:space="preserve" text-anchor="middle" x="694.38" y="-183.45" font-family="Arial" font-size="14.00" fill="#cfffac">utils/backupReminder.ts</text>
</g>
<!-- screens/BackupRestoreScreen.tsx&#45;&gt;utils/backupReminder.ts -->
<g id="edge42" class="edge">
<title>screens/BackupRestoreScreen.tsx&#45;&gt;utils/backupReminder.ts</title>
<path fill="none" stroke="#757575" d="M521.72,-183.41C548.65,-184.26 577.12,-185.17 602.98,-186"/>
<polygon fill="#757575" stroke="#757575" points="602.65,-189.49 612.76,-186.31 602.88,-182.49 602.65,-189.49"/>
</g>
<!-- utils/backup.ts&#45;&gt;state/AppContext.tsx -->
<g id="edge104" class="edge">
<title>utils/backup.ts&#45;&gt;state/AppContext.tsx</title>
<path fill="none" stroke="#757575" d="M745.35,-234C771.73,-238.09 802.95,-247.14 824.25,-266.88 937.14,-371.48 961.65,-571.64 966.8,-639.62"/>
<polygon fill="#757575" stroke="#757575" points="963.28,-639.47 967.45,-649.21 970.27,-639 963.28,-639.47"/>
</g>
<!-- screens/HealthCheckScreen.tsx -->
<g id="node55" class="node">
<title>screens/HealthCheckScreen.tsx</title>
<path fill="none" stroke="#c6c5fe" d="M505.96,-23.75C505.96,-23.75 313.79,-23.75 313.79,-23.75 309.83,-23.75 305.88,-19.79 305.88,-15.83 305.88,-15.83 305.88,-7.92 305.88,-7.92 305.88,-3.96 309.83,0 313.79,0 313.79,0 505.96,0 505.96,0 509.92,0 513.88,-3.96 513.88,-7.92 513.88,-7.92 513.88,-15.83 513.88,-15.83 513.88,-19.79 509.92,-23.75 505.96,-23.75"/>
<text xml:space="preserve" text-anchor="middle" x="409.88" y="-6.45" font-family="Arial" font-size="14.00" fill="#c6c5fe">screens/HealthCheckScreen.tsx</text>
</g>
<!-- screens/HealthCheckScreen.tsx&#45;&gt;db/db.ts -->
<g id="edge54" class="edge">
<title>screens/HealthCheckScreen.tsx&#45;&gt;db/db.ts</title>
<path fill="none" stroke="#757575" d="M480.88,-24.19C496.56,-27 513.1,-30.01 528.5,-32.88 570.17,-40.64 617.67,-49.9 650.96,-56.46"/>
<polygon fill="#757575" stroke="#757575" points="650.13,-59.86 660.62,-58.37 651.48,-53 650.13,-59.86"/>
</g>
<!-- screens/HistoryScreen.tsx -->
<g id="node56" class="node">
<title>screens/HistoryScreen.tsx</title>
<path fill="none" stroke="#c6c5fe" d="M488.33,-397.75C488.33,-397.75 331.42,-397.75 331.42,-397.75 327.46,-397.75 323.5,-393.79 323.5,-389.83 323.5,-389.83 323.5,-381.92 323.5,-381.92 323.5,-377.96 327.46,-374 331.42,-374 331.42,-374 488.33,-374 488.33,-374 492.29,-374 496.25,-377.96 496.25,-381.92 496.25,-381.92 496.25,-389.83 496.25,-389.83 496.25,-393.79 492.29,-397.75 488.33,-397.75"/>
<text xml:space="preserve" text-anchor="middle" x="409.88" y="-380.45" font-family="Arial" font-size="14.00" fill="#c6c5fe">screens/HistoryScreen.tsx</text>
</g>
<!-- screens/HistoryScreen.tsx&#45;&gt;theme/colors.ts -->
<g id="edge57" class="edge">
<title>screens/HistoryScreen.tsx&#45;&gt;theme/colors.ts</title>
<path fill="none" stroke="#757575" d="M496.71,-390.1C508.31,-393.71 519.35,-399.06 528.5,-406.88 565.69,-438.65 545.21,-465.93 564.5,-510.88 601.59,-597.29 656.09,-695.08 680.6,-737.86"/>
<polygon fill="#757575" stroke="#757575" points="677.51,-739.51 685.54,-746.43 683.58,-736.02 677.51,-739.51"/>
</g>
<!-- screens/HistoryScreen.tsx&#45;&gt;state/AppContext.tsx -->
<g id="edge56" class="edge">
<title>screens/HistoryScreen.tsx&#45;&gt;state/AppContext.tsx</title>
<path fill="none" stroke="#757575" d="M473.08,-373.53C559.07,-359.99 715.9,-348.26 824.25,-415.88 908.07,-468.18 948.53,-588.51 962.38,-639.43"/>
<polygon fill="#757575" stroke="#757575" points="958.98,-640.28 964.89,-649.07 965.76,-638.51 958.98,-640.28"/>
</g>
<!-- screens/HistoryScreen.tsx&#45;&gt;navigations/types.ts -->
<g id="edge55" class="edge">
<title>screens/HistoryScreen.tsx&#45;&gt;navigations/types.ts</title>
<path fill="none" stroke="#757575" d="M496.73,-398.2C507.55,-400.63 518.36,-403.5 528.5,-406.88 578.43,-423.51 632.15,-452.96 664.25,-471.93"/>
<polygon fill="#757575" stroke="#757575" points="662.2,-474.79 672.58,-476.92 665.8,-468.78 662.2,-474.79"/>
</g>
<!-- screens/LoginScreen.tsx -->
<g id="node57" class="node">
<title>screens/LoginScreen.tsx</title>
<path fill="none" stroke="#c6c5fe" d="M201.58,-335.75C201.58,-335.75 53.67,-335.75 53.67,-335.75 49.71,-335.75 45.75,-331.79 45.75,-327.83 45.75,-327.83 45.75,-319.92 45.75,-319.92 45.75,-315.96 49.71,-312 53.67,-312 53.67,-312 201.58,-312 201.58,-312 205.54,-312 209.5,-315.96 209.5,-319.92 209.5,-319.92 209.5,-327.83 209.5,-327.83 209.5,-331.79 205.54,-335.75 201.58,-335.75"/>
<text xml:space="preserve" text-anchor="middle" x="127.62" y="-318.45" font-family="Arial" font-size="14.00" fill="#c6c5fe">screens/LoginScreen.tsx</text>
</g>
<!-- screens/LoginScreen.tsx&#45;&gt;screens/SplashAuthScreen.tsx -->
<g id="edge60" class="edge">
<title>screens/LoginScreen.tsx&#45;&gt;screens/SplashAuthScreen.tsx</title>
<path fill="none" stroke="#757575" d="M209.68,-329.66C237.35,-331.63 268.78,-333.88 298.36,-335.99"/>
<polygon fill="#757575" stroke="#757575" points="297.86,-339.46 308.08,-336.68 298.36,-332.48 297.86,-339.46"/>
</g>
<!-- screens/LoginScreen.tsx&#45;&gt;navigations/types.ts -->
<g id="edge59" class="edge">
<title>screens/LoginScreen.tsx&#45;&gt;navigations/types.ts</title>
<path fill="none" stroke="#757575" d="M180,-311.53C258.57,-295.27 411.76,-274.08 528.5,-322.88 599.97,-352.75 656.22,-430.36 680.44,-468.33"/>
<polygon fill="#757575" stroke="#757575" points="677.35,-469.99 685.61,-476.63 683.29,-466.29 677.35,-469.99"/>
</g>
<!-- screens/ReportEditorScreen.tsx -->
<g id="node58" class="node">
<title>screens/ReportEditorScreen.tsx</title>
<path fill="none" stroke="#c6c5fe" d="M505.21,-275.75C505.21,-275.75 314.54,-275.75 314.54,-275.75 310.58,-275.75 306.62,-271.79 306.62,-267.83 306.62,-267.83 306.62,-259.92 306.62,-259.92 306.62,-255.96 310.58,-252 314.54,-252 314.54,-252 505.21,-252 505.21,-252 509.17,-252 513.12,-255.96 513.12,-259.92 513.12,-259.92 513.12,-267.83 513.12,-267.83 513.12,-271.79 509.17,-275.75 505.21,-275.75"/>
<text xml:space="preserve" text-anchor="middle" x="409.88" y="-258.45" font-family="Arial" font-size="14.00" fill="#c6c5fe">screens/ReportEditorScreen.tsx</text>
</g>
<!-- screens/ReportEditorScreen.tsx&#45;&gt;theme/colors.ts -->
<g id="edge84" class="edge">
<title>screens/ReportEditorScreen.tsx&#45;&gt;theme/colors.ts</title>
<path fill="none" stroke="#757575" d="M457.34,-276.2C482.14,-285.15 511.07,-299.83 528.5,-322.88 579.82,-390.73 536.66,-430.49 564.5,-510.88 595.27,-599.71 652.96,-696.23 679.44,-738.27"/>
<polygon fill="#757575" stroke="#757575" points="676.34,-739.91 684.65,-746.47 682.24,-736.16 676.34,-739.91"/>
</g>
<!-- screens/ReportEditorScreen.tsx&#45;&gt;navigations/types.ts -->
<g id="edge82" class="edge">
<title>screens/ReportEditorScreen.tsx&#45;&gt;navigations/types.ts</title>
<path fill="none" stroke="#757575" d="M497.94,-276.17C508.67,-279.67 519.14,-284.14 528.5,-289.88 602.48,-335.18 658.53,-425.66 681.71,-467.59"/>
<polygon fill="#757575" stroke="#757575" points="678.57,-469.14 686.4,-476.27 684.73,-465.81 678.57,-469.14"/>
</g>
<!-- services/reporting.ts -->
<g id="node59" class="node">
<title>services/reporting.ts</title>
<path fill="none" stroke="#cfffac" d="M754.83,-158.75C754.83,-158.75 633.92,-158.75 633.92,-158.75 629.96,-158.75 626,-154.79 626,-150.83 626,-150.83 626,-142.92 626,-142.92 626,-138.96 629.96,-135 633.92,-135 633.92,-135 754.83,-135 754.83,-135 758.79,-135 762.75,-138.96 762.75,-142.92 762.75,-142.92 762.75,-150.83 762.75,-150.83 762.75,-154.79 758.79,-158.75 754.83,-158.75"/>
<text xml:space="preserve" text-anchor="middle" x="694.38" y="-141.45" font-family="Arial" font-size="14.00" fill="#cfffac">services/reporting.ts</text>
</g>
<!-- screens/ReportEditorScreen.tsx&#45;&gt;services/reporting.ts -->
<g id="edge83" class="edge">
<title>screens/ReportEditorScreen.tsx&#45;&gt;services/reporting.ts</title>
<path fill="none" stroke="#757575" d="M513.58,-251.94C518.86,-249.39 523.88,-246.39 528.5,-242.88 557.94,-220.5 534.9,-190.03 564.5,-167.88 578.86,-157.13 596.66,-151.02 614.39,-147.71"/>
<polygon fill="#757575" stroke="#757575" points="614.86,-151.18 624.2,-146.18 613.78,-144.26 614.86,-151.18"/>
</g>
<!-- screens/ReportListScreen.tsx -->
<g id="node60" class="node">
<title>screens/ReportListScreen.tsx</title>
<path fill="none" stroke="#c6c5fe" d="M498.08,-149.75C498.08,-149.75 321.67,-149.75 321.67,-149.75 317.71,-149.75 313.75,-145.79 313.75,-141.83 313.75,-141.83 313.75,-133.92 313.75,-133.92 313.75,-129.96 317.71,-126 321.67,-126 321.67,-126 498.08,-126 498.08,-126 502.04,-126 506,-129.96 506,-133.92 506,-133.92 506,-141.83 506,-141.83 506,-145.79 502.04,-149.75 498.08,-149.75"/>
<text xml:space="preserve" text-anchor="middle" x="409.88" y="-132.45" font-family="Arial" font-size="14.00" fill="#c6c5fe">screens/ReportListScreen.tsx</text>
</g>
<!-- screens/ReportListScreen.tsx&#45;&gt;db/db.ts -->
<g id="edge85" class="edge">
<title>screens/ReportListScreen.tsx&#45;&gt;db/db.ts</title>
<path fill="none" stroke="#757575" d="M501.85,-125.53C511,-123.14 520.03,-120.28 528.5,-116.88 546.34,-109.7 546.8,-100.38 564.5,-92.88 592.01,-81.21 624.97,-74.16 650.67,-70.06"/>
<polygon fill="#757575" stroke="#757575" points="651.05,-73.54 660.42,-68.59 650.01,-66.61 651.05,-73.54"/>
</g>
<!-- screens/ReportListScreen.tsx&#45;&gt;services/reporting.ts -->
<g id="edge86" class="edge">
<title>screens/ReportListScreen.tsx&#45;&gt;services/reporting.ts</title>
<path fill="none" stroke="#757575" d="M506.12,-140.91C541.38,-142.03 580.93,-143.29 614.57,-144.36"/>
<polygon fill="#757575" stroke="#757575" points="614.12,-147.85 624.22,-144.67 614.34,-140.86 614.12,-147.85"/>
</g>
<!-- services/accounts.ts -->
<g id="node61" class="node">
<title>services/accounts.ts</title>
<path fill="none" stroke="#c6c5fe" d="M470.71,-107.75C470.71,-107.75 349.04,-107.75 349.04,-107.75 345.08,-107.75 341.12,-103.79 341.12,-99.83 341.12,-99.83 341.12,-91.92 341.12,-91.92 341.12,-87.96 345.08,-84 349.04,-84 349.04,-84 470.71,-84 470.71,-84 474.67,-84 478.62,-87.96 478.62,-91.92 478.62,-91.92 478.62,-99.83 478.62,-99.83 478.62,-103.79 474.67,-107.75 470.71,-107.75"/>
<text xml:space="preserve" text-anchor="middle" x="409.88" y="-90.45" font-family="Arial" font-size="14.00" fill="#c6c5fe">services/accounts.ts</text>
</g>
<!-- services/accounts.ts&#45;&gt;db/db.ts -->
<g id="edge103" class="edge">
<title>services/accounts.ts&#45;&gt;db/db.ts</title>
<path fill="none" stroke="#757575" d="M478.9,-88.41C532.37,-82.54 605.18,-74.55 650.72,-69.56"/>
<polygon fill="#757575" stroke="#757575" points="650.9,-73.06 660.46,-68.49 650.14,-66.1 650.9,-73.06"/>
</g>
<!-- types/expo&#45;file&#45;system.d.ts -->
<g id="node62" class="node">
<title>types/expo&#45;file&#45;system.d.ts</title>
<path fill="none" stroke="#cfffac" d="M207.96,-1216.75C207.96,-1216.75 47.29,-1216.75 47.29,-1216.75 43.33,-1216.75 39.38,-1212.79 39.38,-1208.83 39.38,-1208.83 39.38,-1200.92 39.38,-1200.92 39.38,-1196.96 43.33,-1193 47.29,-1193 47.29,-1193 207.96,-1193 207.96,-1193 211.92,-1193 215.88,-1196.96 215.88,-1200.92 215.88,-1200.92 215.88,-1208.83 215.88,-1208.83 215.88,-1212.79 211.92,-1216.75 207.96,-1216.75"/>
<text xml:space="preserve" text-anchor="middle" x="127.62" y="-1199.45" font-family="Arial" font-size="14.00" fill="#cfffac">types/expo&#45;file&#45;system.d.ts</text>
</g>
<!-- types/global.d.ts -->
<g id="node63" class="node">
<title>types/global.d.ts</title>
<path fill="none" stroke="#cfffac" d="M176.46,-1258.75C176.46,-1258.75 78.79,-1258.75 78.79,-1258.75 74.83,-1258.75 70.88,-1254.79 70.88,-1250.83 70.88,-1250.83 70.88,-1242.92 70.88,-1242.92 70.88,-1238.96 74.83,-1235 78.79,-1235 78.79,-1235 176.46,-1235 176.46,-1235 180.42,-1235 184.38,-1238.96 184.38,-1242.92 184.38,-1242.92 184.38,-1250.83 184.38,-1250.83 184.38,-1254.79 180.42,-1258.75 176.46,-1258.75"/>
<text xml:space="preserve" text-anchor="middle" x="127.62" y="-1241.45" font-family="Arial" font-size="14.00" fill="#cfffac">types/global.d.ts</text>
</g>
<!-- utils/csvTemplate.ts -->
<g id="node65" class="node">
<title>utils/csvTemplate.ts</title>
<path fill="none" stroke="#cfffac" d="M186.58,-1300.75C186.58,-1300.75 68.67,-1300.75 68.67,-1300.75 64.71,-1300.75 60.75,-1296.79 60.75,-1292.83 60.75,-1292.83 60.75,-1284.92 60.75,-1284.92 60.75,-1280.96 64.71,-1277 68.67,-1277 68.67,-1277 186.58,-1277 186.58,-1277 190.54,-1277 194.5,-1280.96 194.5,-1284.92 194.5,-1284.92 194.5,-1292.83 194.5,-1292.83 194.5,-1296.79 190.54,-1300.75 186.58,-1300.75"/>
<text xml:space="preserve" text-anchor="middle" x="127.62" y="-1283.45" font-family="Arial" font-size="14.00" fill="#cfffac">utils/csvTemplate.ts</text>
</g>
<!-- utils/csvUtils.ts -->
<g id="node66" class="node">
<title>utils/csvUtils.ts</title>
<path fill="none" stroke="#cfffac" d="M171.96,-1342.75C171.96,-1342.75 83.29,-1342.75 83.29,-1342.75 79.33,-1342.75 75.38,-1338.79 75.38,-1334.83 75.38,-1334.83 75.38,-1326.92 75.38,-1326.92 75.38,-1322.96 79.33,-1319 83.29,-1319 83.29,-1319 171.96,-1319 171.96,-1319 175.92,-1319 179.88,-1322.96 179.88,-1326.92 179.88,-1326.92 179.88,-1334.83 179.88,-1334.83 179.88,-1338.79 175.92,-1342.75 171.96,-1342.75"/>
<text xml:space="preserve" text-anchor="middle" x="127.62" y="-1325.45" font-family="Arial" font-size="14.00" fill="#cfffac">utils/csvUtils.ts</text>
</g>
<!-- utils/dateUtils.ts -->
<g id="node67" class="node">
<title>utils/dateUtils.ts</title>
<path fill="none" stroke="#cfffac" d="M174.96,-1384.75C174.96,-1384.75 80.29,-1384.75 80.29,-1384.75 76.33,-1384.75 72.38,-1380.79 72.38,-1376.83 72.38,-1376.83 72.38,-1368.92 72.38,-1368.92 72.38,-1364.96 76.33,-1361 80.29,-1361 80.29,-1361 174.96,-1361 174.96,-1361 178.92,-1361 182.88,-1364.96 182.88,-1368.92 182.88,-1368.92 182.88,-1376.83 182.88,-1376.83 182.88,-1380.79 178.92,-1384.75 174.96,-1384.75"/>
<text xml:space="preserve" text-anchor="middle" x="127.62" y="-1367.45" font-family="Arial" font-size="14.00" fill="#cfffac">utils/dateUtils.ts</text>
</g>
<!-- utils/moneyUtils.ts -->
<g id="node68" class="node">
<title>utils/moneyUtils.ts</title>
<path fill="none" stroke="#cfffac" d="M182.46,-1426.75C182.46,-1426.75 72.79,-1426.75 72.79,-1426.75 68.83,-1426.75 64.88,-1422.79 64.88,-1418.83 64.88,-1418.83 64.88,-1410.92 64.88,-1410.92 64.88,-1406.96 68.83,-1403 72.79,-1403 72.79,-1403 182.46,-1403 182.46,-1403 186.42,-1403 190.38,-1406.96 190.38,-1410.92 190.38,-1410.92 190.38,-1418.83 190.38,-1418.83 190.38,-1422.79 186.42,-1426.75 182.46,-1426.75"/>
<text xml:space="preserve" text-anchor="middle" x="127.62" y="-1409.45" font-family="Arial" font-size="14.00" fill="#cfffac">utils/moneyUtils.ts</text>
</g>
<!-- utils/notifications.ts -->
<g id="node69" class="node">
<title>utils/notifications.ts</title>
<path fill="none" stroke="#cfffac" d="M184.33,-1468.75C184.33,-1468.75 70.92,-1468.75 70.92,-1468.75 66.96,-1468.75 63,-1464.79 63,-1460.83 63,-1460.83 63,-1452.92 63,-1452.92 63,-1448.96 66.96,-1445 70.92,-1445 70.92,-1445 184.33,-1445 184.33,-1445 188.29,-1445 192.25,-1448.96 192.25,-1452.92 192.25,-1452.92 192.25,-1460.83 192.25,-1460.83 192.25,-1464.79 188.29,-1468.75 184.33,-1468.75"/>
<text xml:space="preserve" text-anchor="middle" x="127.62" y="-1451.45" font-family="Arial" font-size="14.00" fill="#cfffac">utils/notifications.ts</text>
</g>
<!-- utils/runningBalance.ts -->
<g id="node70" class="node">
<title>utils/runningBalance.ts</title>
<path fill="none" stroke="#c6c5fe" d="M762.33,-851.75C762.33,-851.75 626.42,-851.75 626.42,-851.75 622.46,-851.75 618.5,-847.79 618.5,-843.83 618.5,-843.83 618.5,-835.92 618.5,-835.92 618.5,-831.96 622.46,-828 626.42,-828 626.42,-828 762.33,-828 762.33,-828 766.29,-828 770.25,-831.96 770.25,-835.92 770.25,-835.92 770.25,-843.83 770.25,-843.83 770.25,-847.79 766.29,-851.75 762.33,-851.75"/>
<text xml:space="preserve" text-anchor="middle" x="694.38" y="-834.45" font-family="Arial" font-size="14.00" fill="#c6c5fe">utils/runningBalance.ts</text>
</g>
<!-- utils/runningBalance.ts&#45;&gt;state/AppContext.tsx -->
<g id="edge107" class="edge">
<title>utils/runningBalance.ts&#45;&gt;state/AppContext.tsx</title>
<path fill="none" stroke="#757575" d="M770.68,-832.63C788.99,-828.76 807.96,-822.86 824.25,-813.88 882.57,-781.69 931.37,-717.78 954.22,-684.37"/>
<polygon fill="#757575" stroke="#757575" points="956.96,-686.56 959.61,-676.3 951.14,-682.67 956.96,-686.56"/>
</g>
<!-- utils/typedEntries.ts -->
<g id="node71" class="node">
<title>utils/typedEntries.ts</title>
<path fill="none" stroke="#cfffac" d="M186.21,-1510.75C186.21,-1510.75 69.04,-1510.75 69.04,-1510.75 65.08,-1510.75 61.12,-1506.79 61.12,-1502.83 61.12,-1502.83 61.12,-1494.92 61.12,-1494.92 61.12,-1490.96 65.08,-1487 69.04,-1487 69.04,-1487 186.21,-1487 186.21,-1487 190.17,-1487 194.12,-1490.96 194.12,-1494.92 194.12,-1494.92 194.12,-1502.83 194.12,-1502.83 194.12,-1506.79 190.17,-1510.75 186.21,-1510.75"/>
<text xml:space="preserve" text-anchor="middle" x="127.62" y="-1493.45" font-family="Arial" font-size="14.00" fill="#cfffac">utils/typedEntries.ts</text>
</g>
</g>
</svg>
